<?xml version="1.0" encoding="UTF-8"?>
<svg id="Layer_1" data-name="Layer 1" xmlns="http://www.w3.org/2000/svg" viewBox="0 0 222 73">
  <defs>
    <style>
      .cls-1 {
        fill: #5b6c5d;
      }
    </style>
  </defs>
  <path class="cls-1" d="M59.69,46.49c-2.22,4.12-5.13,7.24-8.74,9.38-3.6,2.14-7.71,3.21-12.32,3.21-3.46,0-6.65-.61-9.57-1.82-2.92-1.21-5.44-2.91-7.56-5.09-2.12-2.18-3.78-4.76-4.97-7.75-1.19-2.98-1.79-6.27-1.79-9.85,0-3.79.67-7.26,2.01-10.43,1.34-3.17,3.2-5.92,5.59-8.24,2.39-2.32,5.23-4.14,8.52-5.43,3.29-1.3,6.87-1.94,10.74-1.94,6.09,0,11.17,1.63,15.25,4.88l-1.36,9.2h-.8c0-1.73-.42-3.35-1.27-4.88-.84-1.52-2-2.85-3.46-3.98-1.46-1.13-3.18-2.03-5.15-2.69-1.98-.66-4.07-.99-6.3-.99-2.76,0-5.26.5-7.5,1.51-2.24,1.01-4.17,2.43-5.77,4.26-1.6,1.83-2.84,4.03-3.7,6.61-.86,2.57-1.3,5.44-1.3,8.61,0,3.58.56,6.91,1.67,10,1.11,3.09,2.62,5.76,4.54,8.03,1.91,2.26,4.19,4.04,6.82,5.34,2.63,1.3,5.45,1.94,8.46,1.94,1.81,0,3.57-.24,5.28-.71,1.71-.47,3.29-1.16,4.75-2.07,1.46-.9,2.79-2.01,3.98-3.3,1.19-1.3,2.18-2.75,2.96-4.35l.99.56Z"/>
  <path class="cls-1" d="M69.75,48.03c1.28,2.51,3,4.55,5.19,6.11,2.18,1.56,4.59,2.35,7.22,2.35,2.47,0,4.7-.71,6.7-2.13,2-1.42,3.53-3.38,4.6-5.9l.74.31c-.62,1.56-1.44,2.98-2.47,4.26-1.03,1.28-2.22,2.36-3.58,3.24-1.36.89-2.84,1.57-4.44,2.07-1.6.49-3.27.74-5,.74-2.22,0-4.29-.38-6.2-1.14-1.91-.76-3.57-1.83-4.97-3.21-1.4-1.38-2.49-3.01-3.27-4.91-.78-1.89-1.17-3.95-1.17-6.17,0-2.35.42-4.52,1.27-6.51.84-2,2.02-3.73,3.52-5.22,1.5-1.48,3.27-2.64,5.31-3.49,2.04-.84,4.23-1.27,6.57-1.27,3.09,0,5.85.71,8.3,2.13,2.45,1.42,4.29,3.36,5.52,5.83l.37.74-24.2,12.16ZM88.7,37.6c-.62-1.32-1.37-2.52-2.25-3.61-.89-1.09-1.84-2.05-2.87-2.87-1.03-.82-2.12-1.46-3.27-1.91-1.15-.45-2.35-.68-3.58-.68-1.32,0-2.52.27-3.61.8-1.09.54-2.03,1.3-2.81,2.28-.78.99-1.39,2.17-1.82,3.55-.43,1.38-.65,2.91-.65,4.6,0,1.36.14,2.67.43,3.92.29,1.26.68,2.46,1.17,3.61l19.26-9.69Z"/>
  <path class="cls-1" d="M132.97,20.56c0-.99.33-1.81.99-2.47.66-.66,1.46-.99,2.41-.99s1.8.33,2.44.99c.64.66.96,1.48.96,2.47s-.33,1.75-.99,2.41c-.66.66-1.46.99-2.41.99-1.28,0-2.47-.3-3.58-.9-1.11-.6-2.2-1.24-3.27-1.94-1.07-.7-2.15-1.35-3.24-1.94-1.09-.6-2.29-.9-3.61-.9-1.56,0-2.84.46-3.83,1.39-.99.93-1.48,2.15-1.48,3.67,0,.82.14,1.53.43,2.13.29.6.65,1.12,1.08,1.57.43.45.9.84,1.39,1.17.49.33.97.64,1.42.93.9.58,1.67,1.11,2.28,1.6.62.49,1.17,1.03,1.67,1.6l-4.32,3.02c-1.32-2.06-2.9-3.71-4.75-4.97-1.85-1.26-3.83-1.88-5.93-1.88-1.32,0-2.52.27-3.61.8-1.09.54-2.03,1.3-2.81,2.28-.78.99-1.39,2.17-1.82,3.55-.43,1.38-.65,2.91-.65,4.6,0,2.26.38,4.41,1.14,6.45.76,2.04,1.79,3.82,3.09,5.34,1.3,1.52,2.82,2.73,4.57,3.61,1.75.89,3.59,1.33,5.52,1.33,2.47,0,4.7-.71,6.7-2.13,2-1.42,3.53-3.38,4.6-5.9l.74.31c-.62,1.56-1.44,2.98-2.47,4.26-1.03,1.28-2.22,2.36-3.58,3.24-1.36.89-2.84,1.57-4.44,2.07-1.6.49-3.27.74-5,.74-2.22,0-4.29-.38-6.2-1.14-1.91-.76-3.57-1.83-4.97-3.21-1.4-1.38-2.49-3.01-3.27-4.91-.78-1.89-1.17-3.95-1.17-6.17,0-2.35.42-4.52,1.27-6.51.84-2,2.02-3.73,3.52-5.22,1.5-1.48,3.27-2.64,5.31-3.49,2.04-.84,4.23-1.27,6.57-1.27,1.56,0,3.03.19,4.38.56-1.15-.95-1.96-1.8-2.41-2.56-.45-.76-.68-1.64-.68-2.62,0-1.81.59-3.25,1.76-4.32,1.17-1.07,2.71-1.6,4.6-1.6,1.28,0,2.45.24,3.52.71,1.07.47,2.09,1.03,3.06,1.67.97.64,1.91,1.29,2.84,1.94.93.66,1.88,1.19,2.87,1.6-.41-.62-.62-1.27-.62-1.98ZM139.76,51.24c0,1.11.02,2.07.06,2.87.04.8.19,1.47.46,2.01.27.54.69.93,1.27,1.17.58.25,1.4.37,2.47.37v.8h-13.46v-.8c1.07,0,1.89-.12,2.47-.37.58-.25,1-.64,1.27-1.17.27-.53.42-1.2.46-2.01.04-.8.06-1.76.06-2.87v-16.05c0-1.11-.02-2.04-.06-2.78-.04-.74-.2-1.35-.46-1.82-.27-.47-.69-.8-1.27-.99-.58-.19-1.4-.28-2.47-.28v-.8l9.2-1.36v24.08Z"/>
  <path class="cls-1" d="M155.68,51.24c0,1.11.02,2.07.06,2.87.04.8.2,1.47.46,2.01.27.54.69.93,1.27,1.17s1.4.37,2.47.37v.8h-13.46v-.8c1.07,0,1.89-.12,2.47-.37s1-.64,1.27-1.17c.27-.53.42-1.2.46-2.01.04-.8.06-1.76.06-2.87V16.61c0-1.11-.02-2.04-.06-2.78-.04-.74-.2-1.35-.46-1.82-.27-.47-.69-.8-1.27-.99s-1.4-.28-2.47-.28v-.8l9.2-1.36v42.66Z"/>
  <path class="cls-1" d="M171.61,51.24c0,1.11.02,2.07.06,2.87.04.8.2,1.47.46,2.01.27.54.69.93,1.27,1.17.58.25,1.4.37,2.47.37v.8h-13.46v-.8c1.07,0,1.89-.12,2.47-.37s1-.64,1.27-1.17c.27-.53.42-1.2.46-2.01.04-.8.06-1.76.06-2.87v-16.05c0-1.11-.02-2.04-.06-2.78-.04-.74-.2-1.35-.46-1.82-.27-.47-.69-.8-1.27-.99s-1.4-.28-2.47-.28v-.8l9.2-1.36v24.08ZM164.82,20.56c0-.99.33-1.81.99-2.47.66-.66,1.46-.99,2.41-.99s1.8.33,2.44.99c.64.66.96,1.48.96,2.47s-.33,1.75-.99,2.41c-.66.66-1.46.99-2.41.99s-1.75-.33-2.41-.99c-.66-.66-.99-1.46-.99-2.41Z"/>
  <path class="cls-1" d="M185.32,48.03c1.28,2.51,3,4.55,5.19,6.11,2.18,1.56,4.59,2.35,7.22,2.35,2.47,0,4.7-.71,6.7-2.13,2-1.42,3.53-3.38,4.6-5.9l.74.31c-.62,1.56-1.44,2.98-2.47,4.26-1.03,1.28-2.22,2.36-3.58,3.24-1.36.89-2.84,1.57-4.44,2.07-1.61.49-3.27.74-5,.74-2.22,0-4.29-.38-6.2-1.14-1.91-.76-3.57-1.83-4.97-3.21-1.4-1.38-2.49-3.01-3.27-4.91-.78-1.89-1.17-3.95-1.17-6.17,0-2.35.42-4.52,1.27-6.51.84-2,2.02-3.73,3.52-5.22,1.5-1.48,3.27-2.64,5.31-3.49,2.04-.84,4.23-1.27,6.58-1.27,3.09,0,5.85.71,8.3,2.13,2.45,1.42,4.29,3.36,5.53,5.83l.37.74-24.2,12.16ZM204.27,37.6c-.62-1.32-1.37-2.52-2.25-3.61-.89-1.09-1.84-2.05-2.87-2.87-1.03-.82-2.12-1.46-3.27-1.91-1.15-.45-2.35-.68-3.58-.68-1.32,0-2.52.27-3.61.8-1.09.54-2.03,1.3-2.81,2.28-.78.99-1.39,2.17-1.82,3.55-.43,1.38-.65,2.91-.65,4.6,0,1.36.14,2.67.43,3.92.29,1.26.68,2.46,1.17,3.61l19.26-9.69Z"/>
</svg>