<svg width="1101" height="358" viewBox="0 0 1101 358" fill="none" xmlns="http://www.w3.org/2000/svg">
<path d="M1099.4 48.8281V309.501C1052.99 309.501 1015.37 330.469 1015.37 356.329L86.0293 356.329C86.0293 330.469 48.4042 309.501 2 309.501L2 48.8281C48.4042 48.8281 86.0293 27.8602 86.0293 1.99966L1015.39 1.99966C1015.39 27.8602 1053.02 48.8281 1099.42 48.8281H1099.4Z" fill="#845352" stroke="#FBACBE" stroke-width="3" stroke-miterlimit="10"/>
<path d="M1099.4 48.8281V309.501C1052.99 309.501 1015.37 330.469 1015.37 356.329L86.0293 356.329C86.0293 330.469 48.4042 309.501 2 309.501L2 48.8281C48.4042 48.8281 86.0293 27.8602 86.0293 1.99966L1015.39 1.99966C1015.39 27.8602 1053.02 48.8281 1099.42 48.8281H1099.4Z" fill="#845352" stroke="#FBACBE" stroke-width="3" stroke-miterlimit="10"/>
<path d="M1099.4 48.8281V309.501C1052.99 309.501 1015.37 330.469 1015.37 356.329L86.0293 356.329C86.0293 330.469 48.4042 309.501 2 309.501L2 48.8281C48.4042 48.8281 86.0293 27.8602 86.0293 1.99966L1015.39 1.99966C1015.39 27.8602 1053.02 48.8281 1099.42 48.8281H1099.4Z" fill="#845352" stroke="#FBACBE" stroke-width="3" stroke-miterlimit="10"/>
<path d="M415.422 170.131C415.422 171.471 414.322 172.591 412.982 172.591C411.642 172.591 410.582 171.471 410.582 170.131C410.582 168.791 411.662 167.711 413.022 167.711C414.362 167.711 415.422 168.791 415.422 170.131ZM437.88 172.371C437.88 175.291 435.36 176.671 432.74 176.671C431.64 176.671 430.18 176.431 429.3 175.991V173.131H429.9L430.26 174.551C430.32 174.811 430.44 174.911 430.8 175.131C431.22 175.391 432.1 175.671 433.04 175.671C434.56 175.671 436.02 174.871 436.02 173.191C436.02 171.751 434.78 171.031 433.74 170.531L432.42 169.911C430.78 169.131 429.3 168.251 429.3 166.331C429.3 164.371 431.02 162.551 433.72 162.551C434 162.551 435.72 162.491 437.14 163.171V165.971H436.58L436.2 164.571C436.12 164.311 435.94 164.151 435.64 163.991C435 163.651 434.4 163.491 433.66 163.491C432.48 163.491 431.06 164.071 431.06 165.611C431.06 166.791 431.94 167.371 433.46 168.071L434.76 168.671C436.46 169.451 437.88 170.411 437.88 172.371ZM449.778 170.591C449.778 173.571 448.038 176.411 444.638 176.411C443.998 176.411 443.218 176.291 442.618 176.051V179.011C442.618 179.431 442.638 179.611 442.878 179.671L444.798 180.111V180.351H439.238V180.091L440.578 179.691C440.818 179.611 440.838 179.451 440.838 179.031V168.511L440.738 167.731C440.678 167.311 440.678 167.151 440.378 167.091L439.078 166.851V166.551L442.098 166.031L442.238 166.131L442.478 167.391H442.618C443.638 166.531 444.638 165.931 446.078 165.931C448.618 165.931 449.778 168.371 449.778 170.591ZM447.998 171.811C447.998 169.671 447.058 167.351 444.698 167.351C443.878 167.351 443.158 167.651 442.618 168.071V174.491C442.898 174.911 443.778 175.471 445.018 175.471C447.118 175.471 447.998 173.711 447.998 171.811ZM459.675 174.371C458.415 175.671 457.435 176.671 455.455 176.671C452.675 176.671 451.215 174.251 451.215 171.651C451.215 168.711 452.835 165.851 456.035 165.851C458.555 165.851 459.595 167.971 459.595 170.051V170.411H452.715C452.775 174.031 454.995 174.871 456.535 174.871C457.775 174.871 458.775 174.491 459.435 174.011L459.675 174.371ZM457.695 169.431C457.755 168.031 456.815 166.731 455.235 166.731C453.855 166.731 452.815 168.071 452.715 169.591H455.355L457.695 169.431ZM468.956 174.371C467.876 175.571 466.936 176.671 465.156 176.671C462.456 176.671 461.196 173.831 461.196 171.491C461.196 168.691 463.076 165.911 466.036 165.911C466.696 165.911 468.576 166.111 468.576 166.951C468.576 167.171 468.456 167.451 468.356 167.651L467.836 168.651H467.576C467.196 167.671 466.496 166.931 465.296 166.931C463.876 166.931 462.836 168.431 462.836 170.471C462.836 173.511 464.396 174.891 466.136 174.891C467.296 174.891 468.156 174.371 468.636 173.991L468.956 174.371ZM473.939 162.671C473.939 163.351 473.439 163.951 472.659 163.951C471.939 163.951 471.499 163.471 471.499 162.791C471.499 162.111 471.979 161.531 472.759 161.531C473.479 161.531 473.939 161.991 473.939 162.671ZM475.159 176.391H470.179V176.131L471.519 175.731C471.759 175.651 471.779 175.511 471.779 175.091V167.731C471.779 167.311 471.739 167.151 471.439 167.091L470.019 166.851V166.551L473.419 166.031L473.559 166.131V175.091C473.559 175.511 473.579 175.651 473.819 175.731L475.159 176.131V176.391ZM485.602 176.011L482.522 176.511L482.402 176.391L482.262 174.991H482.142C481.142 175.811 480.362 176.611 478.842 176.611C477.362 176.611 476.282 175.551 476.282 174.151C476.282 171.831 478.102 171.091 482.022 170.251V169.091C482.022 167.531 480.862 166.971 479.522 166.971C478.502 166.971 478.202 167.271 478.202 167.871V168.831L478.082 168.931H477.402C476.982 168.931 476.842 168.671 476.842 168.371C476.842 167.751 477.562 167.071 478.042 166.731C478.722 166.251 479.622 165.911 480.662 165.911C482.962 165.911 483.742 167.351 483.742 169.571V174.031L483.842 174.791C483.902 175.211 483.902 175.391 484.202 175.451L485.602 175.711V176.011ZM482.022 174.511V171.011C478.862 171.571 478.102 172.431 478.102 173.471C478.102 174.491 478.942 175.171 479.942 175.171C480.722 175.171 481.582 174.931 482.022 174.511ZM490.96 176.391H485.98V176.131L487.32 175.731C487.56 175.651 487.58 175.511 487.58 175.091V163.251C487.58 162.831 487.52 162.691 487.22 162.631L485.82 162.391V162.091L489.22 161.571L489.36 161.671V175.111C489.36 175.531 489.38 175.651 489.62 175.731L490.96 176.131V176.391ZM505.3 174.371C504.04 175.671 503.06 176.671 501.08 176.671C498.3 176.671 496.84 174.251 496.84 171.651C496.84 168.711 498.46 165.851 501.66 165.851C504.18 165.851 505.22 167.971 505.22 170.051V170.411H498.34C498.4 174.031 500.62 174.871 502.16 174.871C503.4 174.871 504.4 174.491 505.06 174.011L505.3 174.371ZM503.32 169.431C503.38 168.031 502.44 166.731 500.86 166.731C499.48 166.731 498.44 168.071 498.34 169.591H500.98L503.32 169.431ZM517.341 176.011L514.321 176.511L514.181 176.391L513.981 175.151H513.841C512.821 176.011 511.861 176.611 510.461 176.611C507.861 176.611 506.821 173.831 506.821 171.891C506.821 168.911 508.481 166.131 511.861 166.131C512.501 166.131 513.241 166.251 513.841 166.491V163.251C513.841 162.831 513.801 162.671 513.501 162.631L512.041 162.391V162.091L515.481 161.571L515.621 161.671V174.031L515.701 174.811C515.741 175.231 515.761 175.391 516.061 175.451L517.341 175.711V176.011ZM513.841 174.471V168.051C513.561 167.631 512.721 167.071 511.501 167.071C509.421 167.071 508.601 168.771 508.601 170.671C508.601 172.631 509.461 175.191 511.841 175.191C512.641 175.191 513.301 174.891 513.841 174.471ZM521.575 162.671C521.575 163.351 521.075 163.951 520.295 163.951C519.575 163.951 519.135 163.471 519.135 162.791C519.135 162.111 519.615 161.531 520.395 161.531C521.115 161.531 521.575 161.991 521.575 162.671ZM522.795 176.391H517.815V176.131L519.155 175.731C519.395 175.651 519.415 175.511 519.415 175.091V167.731C519.415 167.311 519.375 167.151 519.075 167.091L517.655 166.851V166.551L521.055 166.031L521.195 166.131V175.091C521.195 175.511 521.215 175.651 521.455 175.731L522.795 176.131V176.391ZM529.959 175.151C529.359 175.731 528.479 176.611 527.219 176.611C525.659 176.611 524.739 175.351 524.739 173.611V167.531H523.099V166.511H524.819V164.391L526.479 163.431V166.511H529.359V167.531H526.479V173.311C526.479 174.671 527.119 175.311 528.139 175.311C528.759 175.311 529.319 175.031 529.659 174.751L529.959 175.151ZM534.329 162.671C534.329 163.351 533.829 163.951 533.049 163.951C532.329 163.951 531.889 163.471 531.889 162.791C531.889 162.111 532.369 161.531 533.149 161.531C533.869 161.531 534.329 161.991 534.329 162.671ZM535.549 176.391H530.569V176.131L531.909 175.731C532.149 175.651 532.169 175.511 532.169 175.091V167.731C532.169 167.311 532.129 167.151 531.829 167.091L530.409 166.851V166.551L533.809 166.031L533.949 166.131V175.091C533.949 175.511 533.969 175.651 534.209 175.731L535.549 176.131V176.391ZM546.253 171.031C546.253 174.091 544.233 176.711 541.092 176.711C538.173 176.711 536.333 174.671 536.333 171.571C536.333 168.511 538.333 165.851 541.493 165.851C544.413 165.851 546.253 167.951 546.253 171.031ZM544.233 172.051C544.233 170.151 543.313 166.631 540.952 166.631C539.013 166.631 538.353 168.531 538.353 170.431C538.353 172.451 539.233 175.931 541.533 175.931C543.593 175.931 544.233 173.931 544.233 172.051ZM558.39 176.391H553.41V176.131L554.75 175.731C554.99 175.651 555.01 175.511 555.01 175.091V169.551C555.01 168.111 554.13 167.231 552.75 167.231C551.95 167.231 551.09 167.551 550.45 168.071V175.111C550.45 175.531 550.47 175.651 550.71 175.731L552.05 176.131V176.391H547.07V176.131L548.41 175.731C548.65 175.651 548.67 175.511 548.67 175.091V168.511L548.57 167.731C548.51 167.311 548.51 167.151 548.21 167.091L546.91 166.851V166.551L549.93 166.031L550.07 166.131L550.31 167.391H550.45C551.75 166.271 552.79 165.931 553.93 165.931C556.03 165.931 556.79 167.471 556.79 169.031V175.111C556.79 175.531 556.81 175.651 557.05 175.731L558.39 176.131V176.391ZM572.566 174.371C571.306 175.671 570.326 176.671 568.346 176.671C565.566 176.671 564.106 174.251 564.106 171.651C564.106 168.711 565.726 165.851 568.926 165.851C571.446 165.851 572.486 167.971 572.486 170.051V170.411H565.606C565.666 174.031 567.886 174.871 569.426 174.871C570.666 174.871 571.666 174.491 572.326 174.011L572.566 174.371ZM570.586 169.431C570.646 168.031 569.706 166.731 568.126 166.731C566.746 166.731 565.706 168.071 565.606 169.591H568.246L570.586 169.431ZM585.186 176.391H580.206V176.131L581.546 175.731C581.786 175.651 581.806 175.511 581.806 175.091V169.551C581.806 168.111 580.926 167.231 579.546 167.231C578.746 167.231 577.886 167.551 577.246 168.071V175.111C577.246 175.531 577.266 175.651 577.506 175.731L578.846 176.131V176.391H573.866V176.131L575.206 175.731C575.446 175.651 575.466 175.511 575.466 175.091V168.511L575.366 167.731C575.306 167.311 575.306 167.151 575.006 167.091L573.706 166.851V166.551L576.726 166.031L576.866 166.131L577.106 167.391H577.246C578.546 166.271 579.586 165.931 580.726 165.931C582.826 165.931 583.586 167.471 583.586 169.031V175.111C583.586 175.531 583.606 175.651 583.846 175.731L585.186 176.131V176.391ZM595.465 167.551H593.865C594.045 167.831 594.205 168.391 594.205 168.931C594.205 171.051 592.185 172.191 590.245 172.191C589.625 172.191 589.065 172.131 588.585 171.951L587.865 172.491C587.545 172.731 587.265 173.051 587.265 173.431C587.265 174.091 587.905 174.431 589.065 174.431H591.845C593.505 174.431 595.005 175.011 595.005 176.891C595.005 179.051 592.625 180.531 590.005 180.531C588.485 180.531 585.685 180.111 585.685 178.091C585.685 177.251 586.345 176.531 587.765 175.851V175.791C586.685 175.751 585.845 174.951 585.845 174.131C585.845 173.471 586.305 172.911 586.825 172.531L587.985 171.671C587.085 171.151 586.565 170.231 586.565 169.131C586.565 166.991 588.565 165.851 590.525 165.851C591.665 165.851 592.605 166.231 592.925 166.511H595.465V167.551ZM592.325 169.431C592.305 168.211 591.625 166.571 590.225 166.571C589.025 166.571 588.445 167.511 588.445 168.631C588.445 169.871 589.145 171.491 590.565 171.491C591.765 171.491 592.345 170.551 592.325 169.431ZM593.505 177.531C593.505 176.351 592.645 176.011 591.625 176.011H588.405C587.865 176.251 587.245 176.711 587.225 177.491C587.185 178.931 588.885 179.571 590.445 179.571C592.085 179.571 593.505 178.871 593.505 177.531ZM604.48 174.371C603.22 175.671 602.24 176.671 600.26 176.671C597.48 176.671 596.02 174.251 596.02 171.651C596.02 168.711 597.64 165.851 600.84 165.851C603.36 165.851 604.4 167.971 604.4 170.051V170.411H597.52C597.58 174.031 599.8 174.871 601.34 174.871C602.58 174.871 603.58 174.491 604.24 174.011L604.48 174.371ZM602.5 169.431C602.56 168.031 601.62 166.731 600.04 166.731C598.66 166.731 597.62 168.071 597.52 169.591H600.16L602.5 169.431ZM610.92 176.391H605.94V176.131L607.28 175.731C607.52 175.651 607.54 175.511 607.54 175.091V163.251C607.54 162.831 607.48 162.691 607.18 162.631L605.78 162.391V162.091L609.18 161.571L609.32 161.671V175.111C609.32 175.531 609.34 175.651 609.58 175.731L610.92 176.131V176.391ZM618.184 173.371C618.184 174.971 616.864 176.611 614.644 176.611C613.904 176.611 612.804 176.431 612.104 176.071V173.351H612.624L612.864 174.491C612.964 174.931 612.944 175.091 613.224 175.271C613.544 175.471 614.104 175.711 614.804 175.711C615.784 175.711 616.804 175.091 616.804 174.051C616.804 172.791 615.564 172.331 614.224 171.671C612.944 171.031 611.984 170.291 611.984 168.831C611.984 167.351 613.184 165.911 615.164 165.911C615.684 165.911 616.644 165.971 617.524 166.391V168.851H617.004L616.804 167.791C616.764 167.531 616.684 167.391 616.484 167.231C616.184 167.011 615.584 166.791 614.984 166.791C613.964 166.791 613.304 167.391 613.304 168.131C613.304 169.111 614.244 169.571 615.924 170.351C617.364 171.011 618.184 171.871 618.184 173.371ZM629.182 176.391H626.662L622.782 170.691L625.782 167.691C626.082 167.391 626.022 167.071 625.702 166.971L624.382 166.551V166.311H629.022V166.571L628.062 166.971C627.842 167.071 627.582 167.191 627.282 167.491L624.422 170.291L628.042 175.251C628.282 175.591 628.462 175.711 628.682 175.831L629.182 176.131V176.391ZM624.042 176.391H619.062V176.131L620.402 175.731C620.642 175.651 620.662 175.511 620.662 175.091V163.251C620.662 162.831 620.602 162.691 620.302 162.631L618.902 162.391V162.091L622.302 161.571L622.442 161.671V175.111C622.442 175.531 622.462 175.651 622.702 175.731L624.042 176.131V176.391ZM645.084 170.791C645.084 173.771 643.344 176.611 639.944 176.611C638.424 176.611 636.924 176.191 636.144 175.911V163.251C636.144 162.831 636.084 162.691 635.784 162.631L634.384 162.391V162.091L637.784 161.571L637.924 161.671V167.591H637.964C638.944 166.751 639.944 166.131 641.384 166.131C643.924 166.131 645.084 168.571 645.084 170.791ZM643.304 172.011C643.304 169.871 642.364 167.551 640.004 167.551C639.184 167.551 638.464 167.851 637.924 168.271V174.691C638.204 175.111 639.084 175.671 640.324 175.671C642.424 175.671 643.304 173.911 643.304 172.011ZM656.428 171.031C656.428 174.091 654.408 176.711 651.268 176.711C648.348 176.711 646.508 174.671 646.508 171.571C646.508 168.511 648.508 165.851 651.668 165.851C654.588 165.851 656.428 167.951 656.428 171.031ZM654.408 172.051C654.408 170.151 653.488 166.631 651.128 166.631C649.188 166.631 648.528 168.531 648.528 170.431C648.528 172.451 649.408 175.931 651.708 175.931C653.768 175.931 654.408 173.931 654.408 172.051ZM667.321 167.551H665.721C665.901 167.831 666.061 168.391 666.061 168.931C666.061 171.051 664.041 172.191 662.101 172.191C661.481 172.191 660.921 172.131 660.441 171.951L659.721 172.491C659.401 172.731 659.121 173.051 659.121 173.431C659.121 174.091 659.761 174.431 660.921 174.431H663.701C665.361 174.431 666.861 175.011 666.861 176.891C666.861 179.051 664.481 180.531 661.861 180.531C660.341 180.531 657.541 180.111 657.541 178.091C657.541 177.251 658.201 176.531 659.621 175.851V175.791C658.541 175.751 657.701 174.951 657.701 174.131C657.701 173.471 658.161 172.911 658.681 172.531L659.841 171.671C658.941 171.151 658.421 170.231 658.421 169.131C658.421 166.991 660.421 165.851 662.381 165.851C663.521 165.851 664.461 166.231 664.781 166.511H667.321V167.551ZM664.181 169.431C664.161 168.211 663.481 166.571 662.081 166.571C660.881 166.571 660.301 167.511 660.301 168.631C660.301 169.871 661.001 171.491 662.421 171.491C663.621 171.491 664.201 170.551 664.181 169.431ZM665.361 177.531C665.361 176.351 664.501 176.011 663.481 176.011H660.261C659.721 176.251 659.101 176.711 659.081 177.491C659.041 178.931 660.741 179.571 662.301 179.571C663.941 179.571 665.361 178.871 665.361 177.531Z" fill="#F5F9E9"/>
<path d="M415.422 207.131C415.422 208.471 414.322 209.591 412.982 209.591C411.642 209.591 410.582 208.471 410.582 207.131C410.582 205.791 411.662 204.711 413.022 204.711C414.362 204.711 415.422 205.791 415.422 207.131ZM434.22 213.391H428.62V213.111L430.1 212.691C430.36 212.611 430.4 212.431 430.4 211.971V201.311C430.4 200.851 430.36 200.671 430.1 200.591L428.64 200.171V199.891H434.24V200.171L432.76 200.591C432.5 200.671 432.46 200.851 432.46 201.311V211.971C432.46 212.431 432.5 212.611 432.76 212.691L434.22 213.111V213.391ZM446.475 213.391H441.495V213.131L442.835 212.731C443.075 212.651 443.095 212.511 443.095 212.091V206.551C443.095 205.111 442.215 204.231 440.835 204.231C440.035 204.231 439.175 204.551 438.535 205.071V212.111C438.535 212.531 438.555 212.651 438.795 212.731L440.135 213.131V213.391H435.155V213.131L436.495 212.731C436.735 212.651 436.755 212.511 436.755 212.091V205.511L436.655 204.731C436.595 204.311 436.595 204.151 436.295 204.091L434.995 203.851V203.551L438.015 203.031L438.155 203.131L438.395 204.391H438.535C439.835 203.271 440.875 202.931 442.015 202.931C444.115 202.931 444.875 204.471 444.875 206.031V212.111C444.875 212.531 444.895 212.651 445.135 212.731L446.475 213.131V213.391ZM456.754 204.551H455.154C455.334 204.831 455.494 205.391 455.494 205.931C455.494 208.051 453.474 209.191 451.534 209.191C450.914 209.191 450.354 209.131 449.874 208.951L449.154 209.491C448.834 209.731 448.554 210.051 448.554 210.431C448.554 211.091 449.194 211.431 450.354 211.431H453.134C454.794 211.431 456.294 212.011 456.294 213.891C456.294 216.051 453.914 217.531 451.294 217.531C449.774 217.531 446.974 217.111 446.974 215.091C446.974 214.251 447.634 213.531 449.054 212.851V212.791C447.974 212.751 447.134 211.951 447.134 211.131C447.134 210.471 447.594 209.911 448.114 209.531L449.274 208.671C448.374 208.151 447.854 207.231 447.854 206.131C447.854 203.991 449.854 202.851 451.814 202.851C452.954 202.851 453.894 203.231 454.214 203.511H456.754V204.551ZM453.614 206.431C453.594 205.211 452.914 203.571 451.514 203.571C450.314 203.571 449.734 204.511 449.734 205.631C449.734 206.871 450.434 208.491 451.854 208.491C453.054 208.491 453.634 207.551 453.614 206.431ZM454.794 214.531C454.794 213.351 453.934 213.011 452.914 213.011H449.694C449.154 213.251 448.534 213.711 448.514 214.491C448.474 215.931 450.174 216.571 451.734 216.571C453.374 216.571 454.794 215.871 454.794 214.531ZM465.769 211.371C464.509 212.671 463.529 213.671 461.549 213.671C458.769 213.671 457.309 211.251 457.309 208.651C457.309 205.711 458.929 202.851 462.129 202.851C464.649 202.851 465.689 204.971 465.689 207.051V207.411H458.809C458.869 211.031 461.089 211.871 462.629 211.871C463.869 211.871 464.869 211.491 465.529 211.011L465.769 211.371ZM463.789 206.431C463.849 205.031 462.909 203.731 461.329 203.731C459.949 203.731 458.909 205.071 458.809 206.591H461.449L463.789 206.431ZM478.39 213.391H473.41V213.131L474.75 212.731C474.99 212.651 475.01 212.511 475.01 212.091V206.551C475.01 205.111 474.13 204.231 472.75 204.231C471.95 204.231 471.09 204.551 470.45 205.071V212.111C470.45 212.531 470.47 212.651 470.71 212.731L472.05 213.131V213.391H467.07V213.131L468.41 212.731C468.65 212.651 468.67 212.511 468.67 212.091V205.511L468.57 204.731C468.51 204.311 468.51 204.151 468.21 204.091L466.91 203.851V203.551L469.93 203.031L470.07 203.131L470.31 204.391H470.45C471.75 203.271 472.79 202.931 473.93 202.931C476.03 202.931 476.79 204.471 476.79 206.031V212.111C476.79 212.531 476.81 212.651 477.05 212.731L478.39 213.131V213.391ZM494.186 207.791C494.186 210.771 492.446 213.611 489.046 213.611C487.526 213.611 486.026 213.191 485.246 212.911V200.251C485.246 199.831 485.186 199.691 484.886 199.631L483.486 199.391V199.091L486.886 198.571L487.026 198.671V204.591H487.066C488.046 203.751 489.046 203.131 490.486 203.131C493.026 203.131 494.186 205.571 494.186 207.791ZM492.406 209.011C492.406 206.871 491.466 204.551 489.106 204.551C488.286 204.551 487.566 204.851 487.026 205.271V211.691C487.306 212.111 488.186 212.671 489.426 212.671C491.526 212.671 492.406 210.911 492.406 209.011ZM498.919 199.671C498.919 200.351 498.419 200.951 497.639 200.951C496.919 200.951 496.479 200.471 496.479 199.791C496.479 199.111 496.959 198.531 497.739 198.531C498.459 198.531 498.919 198.991 498.919 199.671ZM500.139 213.391H495.159V213.131L496.499 212.731C496.739 212.651 496.759 212.511 496.759 212.091V204.731C496.759 204.311 496.719 204.151 496.419 204.091L494.999 203.851V203.551L498.399 203.031L498.539 203.131V212.091C498.539 212.511 498.559 212.651 498.799 212.731L500.139 213.131V213.391ZM512.022 213.391H507.042V213.131L508.382 212.731C508.622 212.651 508.642 212.511 508.642 212.091V206.551C508.642 205.111 507.762 204.231 506.382 204.231C505.582 204.231 504.722 204.551 504.082 205.071V212.111C504.082 212.531 504.102 212.651 504.342 212.731L505.682 213.131V213.391H500.702V213.131L502.042 212.731C502.282 212.651 502.302 212.511 502.302 212.091V205.511L502.202 204.731C502.142 204.311 502.142 204.151 501.842 204.091L500.542 203.851V203.551L503.562 203.031L503.702 203.131L503.942 204.391H504.082C505.382 203.271 506.422 202.931 507.562 202.931C509.662 202.931 510.422 204.471 510.422 206.031V212.111C510.422 212.531 510.442 212.651 510.682 212.731L512.022 213.131V213.391ZM523.161 213.011L520.141 213.511L520.001 213.391L519.801 212.151H519.661C518.641 213.011 517.681 213.611 516.281 213.611C513.681 213.611 512.641 210.831 512.641 208.891C512.641 205.911 514.301 203.131 517.681 203.131C518.321 203.131 519.061 203.251 519.661 203.491V200.251C519.661 199.831 519.621 199.671 519.321 199.631L517.861 199.391V199.091L521.301 198.571L521.441 198.671V211.031L521.521 211.811C521.561 212.231 521.581 212.391 521.881 212.451L523.161 212.711V213.011ZM519.661 211.471V205.051C519.381 204.631 518.541 204.071 517.321 204.071C515.241 204.071 514.421 205.771 514.421 207.671C514.421 209.631 515.281 212.191 517.661 212.191C518.461 212.191 519.121 211.891 519.661 211.471ZM527.396 199.671C527.396 200.351 526.896 200.951 526.116 200.951C525.396 200.951 524.956 200.471 524.956 199.791C524.956 199.111 525.436 198.531 526.216 198.531C526.936 198.531 527.396 198.991 527.396 199.671ZM528.616 213.391H523.636V213.131L524.976 212.731C525.216 212.651 525.236 212.511 525.236 212.091V204.731C525.236 204.311 525.196 204.151 524.896 204.091L523.476 203.851V203.551L526.876 203.031L527.016 203.131V212.091C527.016 212.511 527.036 212.651 527.276 212.731L528.616 213.131V213.391ZM540.499 213.391H535.519V213.131L536.859 212.731C537.099 212.651 537.119 212.511 537.119 212.091V206.551C537.119 205.111 536.239 204.231 534.859 204.231C534.059 204.231 533.199 204.551 532.559 205.071V212.111C532.559 212.531 532.579 212.651 532.819 212.731L534.159 213.131V213.391H529.179V213.131L530.519 212.731C530.759 212.651 530.779 212.511 530.779 212.091V205.511L530.679 204.731C530.619 204.311 530.619 204.151 530.319 204.091L529.019 203.851V203.551L532.039 203.031L532.179 203.131L532.419 204.391H532.559C533.859 203.271 534.899 202.931 536.039 202.931C538.139 202.931 538.899 204.471 538.899 206.031V212.111C538.899 212.531 538.919 212.651 539.159 212.731L540.499 213.131V213.391ZM550.778 204.551H549.178C549.358 204.831 549.518 205.391 549.518 205.931C549.518 208.051 547.498 209.191 545.558 209.191C544.938 209.191 544.378 209.131 543.898 208.951L543.178 209.491C542.858 209.731 542.578 210.051 542.578 210.431C542.578 211.091 543.218 211.431 544.378 211.431H547.158C548.818 211.431 550.318 212.011 550.318 213.891C550.318 216.051 547.938 217.531 545.318 217.531C543.798 217.531 540.998 217.111 540.998 215.091C540.998 214.251 541.658 213.531 543.078 212.851V212.791C541.998 212.751 541.158 211.951 541.158 211.131C541.158 210.471 541.618 209.911 542.138 209.531L543.298 208.671C542.398 208.151 541.878 207.231 541.878 206.131C541.878 203.991 543.878 202.851 545.838 202.851C546.978 202.851 547.918 203.231 548.238 203.511H550.778V204.551ZM547.638 206.431C547.618 205.211 546.938 203.571 545.538 203.571C544.338 203.571 543.758 204.511 543.758 205.631C543.758 206.871 544.458 208.491 545.878 208.491C547.078 208.491 547.658 207.551 547.638 206.431ZM548.818 214.531C548.818 213.351 547.958 213.011 546.938 213.011H543.718C543.178 213.251 542.558 213.711 542.538 214.491C542.498 215.931 544.198 216.571 545.758 216.571C547.398 216.571 548.818 215.871 548.818 214.531Z" fill="#F5F9E9"/>
<path d="M707.074 181.181C707.074 186.263 702.205 189.924 697.407 189.924C695.95 189.924 692.573 189.71 692.573 188.04C692.573 187.756 692.645 187.436 692.858 187.116L693.569 185.659H694.102C694.741 187.152 696.483 188.111 698.189 188.111C700.996 188.111 703.129 185.979 703.129 182.958C703.129 178.764 699.753 177.947 696.305 177.947H694.493V175.921H695.985C698.793 175.921 701.707 174.393 701.707 171.336C701.707 169.026 699.895 167.462 697.62 167.462C695.772 167.462 694.244 168.209 693.178 169.311L692.36 168.493C694.493 165.863 696.696 164.797 699.575 164.797C703.449 164.797 705.759 167.462 705.759 169.986C705.759 172.438 703.946 174.642 701.316 175.637C703.591 175.708 707.074 177.271 707.074 181.181ZM726.399 176.774C726.399 184.486 723.023 189.959 717.763 189.959C712.859 189.959 709.767 185.517 709.767 177.982C709.767 170.235 713.107 164.726 718.403 164.726C723.307 164.726 726.399 169.204 726.399 176.774ZM721.921 179.226C721.921 174.073 720.891 166.325 717.621 166.325C714.991 166.325 714.245 170.341 714.245 175.388C714.245 180.612 715.24 188.36 718.438 188.36C721.21 188.36 721.921 184.131 721.921 179.226ZM744.054 173.931C744.054 182.638 738.475 189.284 731.153 189.853L730.94 188.467C736.058 187.791 739.185 182.78 739.576 177.485C738.155 178.693 736.484 179.546 734.601 179.546C730.904 179.546 728.488 176.525 728.488 172.758C728.488 168.102 731.864 164.726 736.413 164.726C740.962 164.726 744.054 168.209 744.054 173.931ZM739.683 173.86C739.683 169.986 738.51 166.396 735.916 166.396C733.925 166.396 732.646 168.209 732.646 171.656C732.646 174.393 734.032 177.094 736.449 177.094C737.657 177.094 738.759 176.667 739.683 175.957C739.718 175.459 739.683 174.428 739.683 173.86ZM752.54 186.547C752.54 188.04 751.367 189.391 749.626 189.391C747.991 189.391 747.031 188.324 747.031 186.832C747.031 185.304 748.098 184.024 749.875 184.024C751.474 184.024 752.54 185.055 752.54 186.547ZM771.692 176.774C771.692 184.486 768.316 189.959 763.056 189.959C758.151 189.959 755.059 185.517 755.059 177.982C755.059 170.235 758.4 164.726 763.695 164.726C768.6 164.726 771.692 169.204 771.692 176.774ZM767.214 179.226C767.214 174.073 766.183 166.325 762.914 166.325C760.284 166.325 759.537 170.341 759.537 175.388C759.537 180.612 760.532 188.36 763.731 188.36C766.503 188.36 767.214 184.131 767.214 179.226ZM789.809 176.774C789.809 184.486 786.433 189.959 781.173 189.959C776.268 189.959 773.176 185.517 773.176 177.982C773.176 170.235 776.517 164.726 781.812 164.726C786.717 164.726 789.809 169.204 789.809 176.774ZM785.331 179.226C785.331 174.073 784.3 166.325 781.031 166.325C778.401 166.325 777.654 170.341 777.654 175.388C777.654 180.612 778.649 188.36 781.848 188.36C784.62 188.36 785.331 184.131 785.331 179.226ZM826.189 176.809C826.189 184.344 820.396 189.391 812.258 189.391H800.565V188.822L802.84 188.076C803.337 187.898 803.373 187.614 803.373 186.796V168.031C803.373 167.178 803.337 166.894 802.84 166.752L800.601 166.005V165.401H813.146C820.716 165.401 826.189 168.458 826.189 176.809ZM820.858 177.236C820.858 171.123 818.228 167.214 812.507 167.214H808.171V186.405C808.171 187.329 808.668 187.578 809.308 187.578H811.938C816.38 187.578 820.858 184.913 820.858 177.236ZM851.293 189.391H844.825L836.366 176.881L844.043 168.067C844.611 167.427 844.292 167 843.687 166.787L841.555 166.005V165.401H850.44V166.005L848.592 166.823C848.13 167.036 847.774 167.32 847.241 167.96L840.702 175.21L849.018 187.045C849.409 187.578 849.765 187.898 850.227 188.182L851.293 188.822V189.391ZM838.605 189.391H828.192V188.822L830.466 188.076C830.964 187.898 831 187.614 831 186.796V168.031C831 167.178 830.964 166.894 830.466 166.752L828.227 166.005V165.401H838.605V166.005L836.331 166.752C835.869 166.894 835.797 167.178 835.797 168.031V186.796C835.797 187.614 835.869 187.898 836.331 188.076L838.605 188.822V189.391ZM875.31 189.391H868.842L860.383 176.881L868.06 168.067C868.629 167.427 868.309 167 867.705 166.787L865.572 166.005V165.401H874.457V166.005L872.609 166.823C872.147 167.036 871.792 167.32 871.259 167.96L864.719 175.21L873.036 187.045C873.427 187.578 873.782 187.898 874.244 188.182L875.31 188.822V189.391ZM862.622 189.391H852.209V188.822L854.484 188.076C854.981 187.898 855.017 187.614 855.017 186.796V168.031C855.017 167.178 854.981 166.894 854.484 166.752L852.245 166.005V165.401H862.622V166.005L860.348 166.752C859.886 166.894 859.815 167.178 859.815 168.031V186.796C859.815 187.614 859.886 187.898 860.348 188.076L862.622 188.822V189.391ZM886.035 162.38L875.978 193.371L873.525 192.589L883.619 161.634L886.035 162.38Z" fill="#F5F9E9"/>
<path d="M752.238 231.931L750.758 232.371C750.498 232.451 750.458 232.631 750.458 233.091V236.891C748.618 237.471 747.058 237.671 745.178 237.671C740.798 237.671 738.098 235.031 738.098 230.611C738.098 226.291 741.118 223.511 745.758 223.511C747.338 223.511 748.898 223.671 750.398 224.191V226.911H749.838L749.478 225.791C749.398 225.531 749.298 225.391 748.918 225.211C748.138 224.831 747.198 224.491 745.738 224.491C742.078 224.491 740.458 226.891 740.458 230.291C740.458 233.871 741.798 236.731 745.818 236.731C746.878 236.731 747.658 236.511 748.398 236.211V233.151C748.398 232.691 748.358 232.471 748.098 232.411L746.278 231.931V231.651H752.238V231.931ZM760.292 227.711C760.292 227.931 760.212 228.171 760.112 228.411L759.672 229.431H759.412C759.132 228.811 758.572 228.571 758.032 228.571C757.552 228.571 757.052 228.771 756.432 229.291V236.051C756.432 236.471 756.452 236.631 756.692 236.691L758.612 237.131V237.391H753.052V237.131L754.392 236.731C754.632 236.651 754.652 236.511 754.652 236.091V229.651L754.552 228.731C754.512 228.311 754.492 228.151 754.192 228.091L752.852 227.851V227.551L755.912 227.031L756.072 227.131L756.252 228.611H756.352C757.212 227.791 758.012 226.931 759.292 226.931C759.792 226.931 760.292 227.091 760.292 227.711ZM770.665 237.011L767.585 237.511L767.465 237.391L767.325 235.991H767.205C766.205 236.811 765.425 237.611 763.905 237.611C762.425 237.611 761.345 236.551 761.345 235.151C761.345 232.831 763.165 232.091 767.085 231.251V230.091C767.085 228.531 765.925 227.971 764.585 227.971C763.565 227.971 763.265 228.271 763.265 228.871V229.831L763.145 229.931H762.465C762.045 229.931 761.905 229.671 761.905 229.371C761.905 228.751 762.625 228.071 763.105 227.731C763.785 227.251 764.685 226.911 765.725 226.911C768.025 226.911 768.805 228.351 768.805 230.571V235.031L768.905 235.791C768.965 236.211 768.965 236.391 769.265 236.451L770.665 236.711V237.011ZM767.085 235.511V232.011C763.925 232.571 763.165 233.431 763.165 234.471C763.165 235.491 764.005 236.171 765.005 236.171C765.785 236.171 766.645 235.931 767.085 235.511ZM777.288 236.151C776.688 236.731 775.808 237.611 774.548 237.611C772.988 237.611 772.068 236.351 772.068 234.611V228.531H770.428V227.511H772.148V225.391L773.808 224.431V227.511H776.688V228.531H773.808V234.311C773.808 235.671 774.448 236.311 775.468 236.311C776.088 236.311 776.648 236.031 776.988 235.751L777.288 236.151ZM781.658 223.671C781.658 224.351 781.158 224.951 780.378 224.951C779.658 224.951 779.218 224.471 779.218 223.791C779.218 223.111 779.698 222.531 780.478 222.531C781.198 222.531 781.658 222.991 781.658 223.671ZM782.878 237.391H777.898V237.131L779.238 236.731C779.478 236.651 779.498 236.511 779.498 236.091V228.731C779.498 228.311 779.458 228.151 779.158 228.091L777.738 227.851V227.551L781.138 227.031L781.278 227.131V236.091C781.278 236.511 781.298 236.651 781.538 236.731L782.878 237.131V237.391ZM790.142 234.371C790.142 235.971 788.822 237.611 786.602 237.611C785.862 237.611 784.762 237.431 784.062 237.071V234.351H784.582L784.822 235.491C784.922 235.931 784.902 236.091 785.182 236.271C785.502 236.471 786.062 236.711 786.762 236.711C787.742 236.711 788.762 236.091 788.762 235.051C788.762 233.791 787.522 233.331 786.182 232.671C784.902 232.031 783.942 231.291 783.942 229.831C783.942 228.351 785.142 226.911 787.122 226.911C787.642 226.911 788.602 226.971 789.482 227.391V229.851H788.962L788.762 228.791C788.722 228.531 788.642 228.391 788.442 228.231C788.142 228.011 787.542 227.791 786.942 227.791C785.922 227.791 785.262 228.391 785.262 229.131C785.262 230.111 786.202 230.571 787.882 231.351C789.322 232.011 790.142 232.871 790.142 234.371ZM804.037 223.191C804.037 223.351 803.997 223.571 803.897 223.811L803.477 224.751H803.257C802.897 224.171 802.237 223.791 801.457 223.791C800.077 223.791 799.337 224.791 799.337 226.091V227.511H802.277V228.531H799.397V236.051C799.397 236.471 799.437 236.631 799.677 236.691L801.577 237.131V237.391H796.057V237.131L797.377 236.731C797.617 236.651 797.657 236.511 797.657 236.091V228.531H796.017V227.511H797.637L797.657 226.891C797.717 225.271 799.657 222.531 802.677 222.531C803.137 222.531 804.037 222.551 804.037 223.191ZM810.214 227.711C810.214 227.931 810.134 228.171 810.034 228.411L809.594 229.431H809.334C809.054 228.811 808.494 228.571 807.954 228.571C807.474 228.571 806.974 228.771 806.354 229.291V236.051C806.354 236.471 806.374 236.631 806.614 236.691L808.534 237.131V237.391H802.974V237.131L804.314 236.731C804.554 236.651 804.574 236.511 804.574 236.091V229.651L804.474 228.731C804.434 228.311 804.414 228.151 804.114 228.091L802.774 227.851V227.551L805.834 227.031L805.994 227.131L806.174 228.611H806.274C807.134 227.791 807.934 226.931 809.214 226.931C809.714 226.931 810.214 227.091 810.214 227.711ZM820.587 237.011L817.507 237.511L817.387 237.391L817.247 235.991H817.127C816.127 236.811 815.347 237.611 813.827 237.611C812.347 237.611 811.267 236.551 811.267 235.151C811.267 232.831 813.087 232.091 817.007 231.251V230.091C817.007 228.531 815.847 227.971 814.507 227.971C813.487 227.971 813.187 228.271 813.187 228.871V229.831L813.067 229.931H812.387C811.967 229.931 811.827 229.671 811.827 229.371C811.827 228.751 812.547 228.071 813.027 227.731C813.707 227.251 814.607 226.911 815.647 226.911C817.947 226.911 818.727 228.351 818.727 230.571V235.031L818.827 235.791C818.887 236.211 818.887 236.391 819.187 236.451L820.587 236.711V237.011ZM817.007 235.511V232.011C813.847 232.571 813.087 233.431 813.087 234.471C813.087 235.491 813.927 236.171 814.927 236.171C815.707 236.171 816.567 235.931 817.007 235.511ZM830.685 228.551H829.085C829.265 228.831 829.425 229.391 829.425 229.931C829.425 232.051 827.405 233.191 825.465 233.191C824.845 233.191 824.285 233.131 823.805 232.951L823.085 233.491C822.765 233.731 822.485 234.051 822.485 234.431C822.485 235.091 823.125 235.431 824.285 235.431H827.065C828.725 235.431 830.225 236.011 830.225 237.891C830.225 240.051 827.845 241.531 825.225 241.531C823.705 241.531 820.905 241.111 820.905 239.091C820.905 238.251 821.565 237.531 822.985 236.851V236.791C821.905 236.751 821.065 235.951 821.065 235.131C821.065 234.471 821.525 233.911 822.045 233.531L823.205 232.671C822.305 232.151 821.785 231.231 821.785 230.131C821.785 227.991 823.785 226.851 825.745 226.851C826.885 226.851 827.825 227.231 828.145 227.511H830.685V228.551ZM827.545 230.431C827.525 229.211 826.845 227.571 825.445 227.571C824.245 227.571 823.665 228.511 823.665 229.631C823.665 230.871 824.365 232.491 825.785 232.491C826.985 232.491 827.565 231.551 827.545 230.431ZM828.725 238.531C828.725 237.351 827.865 237.011 826.845 237.011H823.625C823.085 237.251 822.465 237.711 822.445 238.491C822.405 239.931 824.105 240.571 825.665 240.571C827.305 240.571 828.725 239.871 828.725 238.531ZM837.62 236.151C837.02 236.731 836.14 237.611 834.88 237.611C833.32 237.611 832.4 236.351 832.4 234.611V228.531H830.76V227.511H832.48V225.391L834.14 224.431V227.511H837.02V228.531H834.14V234.311C834.14 235.671 834.78 236.311 835.8 236.311C836.42 236.311 836.98 236.031 837.32 235.751L837.62 236.151Z" fill="#F5F9E9"/>
<path d="M725.394 282.391H719.794V282.111L721.274 281.691C721.534 281.611 721.574 281.431 721.574 280.971V275.711H714.514V280.971C714.514 281.431 714.554 281.611 714.814 281.691L716.274 282.111V282.391H710.674V282.111L712.154 281.691C712.414 281.611 712.454 281.431 712.454 280.971V270.311C712.454 269.851 712.414 269.671 712.154 269.591L710.694 269.171V268.891H716.294V269.171L714.814 269.591C714.554 269.671 714.514 269.851 714.514 270.311V274.711H721.574V270.311C721.574 269.851 721.534 269.671 721.274 269.591L719.814 269.171V268.891H725.414V269.171L723.934 269.591C723.674 269.671 723.634 269.851 723.634 270.311V280.971C723.634 281.431 723.674 281.611 723.934 281.691L725.394 282.111V282.391ZM739.694 269.171L738.974 269.571C738.694 269.731 738.494 269.871 738.314 270.291L733.234 282.711H732.034L727.314 270.211C727.154 269.791 727.014 269.731 726.734 269.571L725.994 269.171V268.891H731.154V269.171L729.754 269.571C729.454 269.651 729.354 269.831 729.514 270.251L732.874 279.531C733.014 279.931 733.034 280.231 733.034 280.231H733.074C733.074 280.231 733.134 279.931 733.294 279.511L736.954 270.291C737.114 269.871 736.994 269.651 736.734 269.571L735.334 269.171V268.891H739.694V269.171ZM750.763 279.631L750.143 282.391H740.283V282.111L741.763 281.691C742.023 281.611 742.063 281.431 742.063 280.971V270.311C742.063 269.851 742.023 269.671 741.763 269.591L740.303 269.171V268.891H749.883V271.411H749.363L749.003 270.291C748.923 270.031 748.683 269.831 748.223 269.831H744.123V274.791H747.743C748.203 274.791 748.343 274.751 748.443 274.511L748.883 273.451H749.283V277.091H748.883L748.443 276.031C748.343 275.791 748.203 275.751 747.743 275.751H744.123V280.791C744.123 281.311 744.403 281.451 744.763 281.451H748.543C749.003 281.451 749.223 281.211 749.363 280.991L750.263 279.491L750.763 279.631ZM764.804 282.391H761.824L756.304 275.391H756.924C758.624 275.391 760.284 274.731 760.284 272.551C760.284 270.131 758.864 269.691 756.864 269.691H755.744V280.971C755.744 281.431 755.784 281.611 756.044 281.691L757.504 282.111V282.391H751.904V282.111L753.404 281.691C753.664 281.611 753.684 281.431 753.684 280.971V270.311C753.684 269.851 753.664 269.671 753.404 269.591L751.924 269.171V268.891H757.604C759.844 268.891 762.504 269.171 762.504 272.131C762.504 274.131 760.824 275.291 759.004 275.711L763.564 281.251C763.804 281.531 764.004 281.651 764.244 281.791L764.804 282.111V282.391ZM779.278 282.391H770.698V281.411C771.538 280.731 773.398 278.951 774.318 277.911C775.438 276.651 776.858 275.271 776.858 272.991C776.858 271.291 775.638 270.111 773.898 270.111C772.678 270.111 771.858 270.471 770.998 271.291L770.698 270.931C771.898 269.291 773.158 268.591 774.858 268.591C776.918 268.591 778.758 270.111 778.758 272.451C778.758 274.791 777.018 276.591 776.078 277.511C775.218 278.371 773.558 280.071 772.638 280.831H779.278V282.391ZM784.094 280.911C784.094 281.691 783.494 282.391 782.614 282.391C781.794 282.391 781.294 281.831 781.294 281.051C781.294 280.271 781.834 279.611 782.734 279.611C783.554 279.611 784.094 280.131 784.094 280.911ZM807.533 282.391H802.013V282.111L803.473 281.691C803.733 281.611 803.773 281.431 803.773 280.971V272.131C803.773 271.591 803.773 271.051 803.793 270.511H803.673C803.593 270.791 803.333 271.291 802.993 272.131L798.853 282.391H797.993L793.793 272.131C793.593 271.631 793.373 271.151 793.253 270.611H793.133C793.133 270.951 793.153 271.291 793.153 272.131V280.911C793.153 281.371 793.213 281.571 793.473 281.651L795.113 282.111V282.391H790.073V282.111L791.553 281.691C791.813 281.611 791.853 281.431 791.853 280.971V270.411C791.853 269.951 791.813 269.771 791.553 269.691L789.893 269.171V268.891H794.613L798.253 278.071C798.513 278.711 798.693 279.051 798.773 279.711H798.813C798.893 279.191 799.093 278.851 799.393 278.111L803.173 268.891H807.533V269.171L806.073 269.611C805.813 269.691 805.773 269.871 805.773 270.331V280.971C805.773 281.431 805.813 281.611 806.073 281.691L807.533 282.111V282.391ZM821.923 282.391H816.783V282.111L818.183 281.711C818.483 281.631 818.563 281.431 818.403 281.011L817.243 277.791H812.083L810.803 280.971C810.643 281.391 810.763 281.631 811.023 281.711L812.423 282.111V282.391H808.143V282.111L808.863 281.711C809.143 281.551 809.303 281.391 809.483 280.971L814.683 268.531H815.783L820.623 281.051C820.783 281.471 820.903 281.551 821.183 281.711L821.923 282.111V282.391ZM816.863 276.831L815.163 272.171C815.003 271.751 814.803 271.291 814.803 270.911H814.743C814.743 271.091 814.583 271.491 814.303 272.211L812.463 276.831H816.863ZM817.323 266.151C817.323 267.231 816.583 268.151 815.243 268.151C813.983 268.151 813.283 267.431 813.283 266.331C813.283 265.251 814.043 264.311 815.383 264.311C816.643 264.311 817.323 265.071 817.323 266.151ZM816.263 266.451C816.263 265.871 815.923 264.891 815.143 264.891C814.563 264.891 814.363 265.411 814.363 265.971C814.363 266.591 814.683 267.531 815.443 267.531C816.043 267.531 816.263 267.011 816.263 266.451ZM837.53 269.171L836.05 269.611C835.79 269.691 835.77 269.871 835.77 270.331V282.631H834.59L826.77 272.311C826.49 271.951 826.17 271.611 826.05 271.151H825.95C825.95 271.431 825.97 271.771 825.97 272.311V280.911C825.97 281.371 826.03 281.571 826.29 281.631L828.11 282.111V282.391H822.89V282.111L824.35 281.671C824.61 281.591 824.65 281.431 824.65 280.971V270.431C824.65 269.971 824.61 269.791 824.35 269.711L822.51 269.191V268.891H826.81L833.49 277.931C833.69 278.211 834.31 278.931 834.37 279.351H834.45C834.45 279.151 834.43 278.711 834.43 277.831V270.371C834.43 269.911 834.41 269.731 834.15 269.671L832.29 269.171V268.891H837.53V269.171ZM849.103 279.631L848.483 282.391H838.623V282.111L840.103 281.691C840.363 281.611 840.403 281.431 840.403 280.971V270.311C840.403 269.851 840.363 269.671 840.103 269.591L838.643 269.171V268.891H848.223V271.411H847.703L847.343 270.291C847.263 270.031 847.023 269.831 846.563 269.831H842.463V274.791H846.083C846.543 274.791 846.683 274.751 846.783 274.511L847.223 273.451H847.623V277.091H847.223L846.783 276.031C846.683 275.791 846.543 275.751 846.083 275.751H842.463V280.791C842.463 281.311 842.743 281.451 843.103 281.451H846.883C847.343 281.451 847.563 281.211 847.703 280.991L848.603 279.491L849.103 279.631ZM864.464 275.311C864.464 279.551 861.204 282.391 856.624 282.391H850.244V282.111L851.724 281.691C851.984 281.611 852.024 281.431 852.024 280.971V270.311C852.024 269.851 851.984 269.671 851.724 269.591L850.264 269.171V268.891H857.124C861.344 268.891 864.464 270.631 864.464 275.311ZM862.104 275.571C862.104 272.071 860.524 269.831 856.904 269.831H854.084V280.791C854.084 281.311 854.364 281.451 854.724 281.451H856.524C859.344 281.451 862.104 279.951 862.104 275.571Z" fill="#F5F9E9"/>
<path d="M219.378 176.391H213.118V176.131L215.018 175.691C215.258 175.631 215.318 175.451 215.318 174.991V165.151C215.318 164.551 214.978 164.191 214.458 164.351L212.258 165.011L212.098 164.271L216.938 162.571L217.178 162.691V174.991C217.178 175.451 217.218 175.631 217.458 175.691L219.378 176.131V176.391ZM230.533 169.291C230.533 173.531 228.713 176.711 225.853 176.711C223.193 176.711 221.493 174.171 221.493 169.991C221.493 165.691 223.313 162.511 226.193 162.511C228.853 162.511 230.533 165.071 230.533 169.291ZM228.613 170.611C228.613 167.751 227.913 163.331 225.713 163.331C223.913 163.331 223.413 165.691 223.413 168.491C223.413 171.431 224.093 175.891 226.233 175.891C228.153 175.891 228.613 173.291 228.613 170.611ZM245.788 172.431C245.788 174.791 244.588 176.591 242.668 176.591C240.888 176.591 239.748 175.131 239.748 172.811C239.748 170.431 240.948 168.611 242.888 168.611C244.688 168.611 245.788 170.091 245.788 172.431ZM243.528 163.191L234.808 176.631L234.088 176.171L242.808 162.751L243.528 163.191ZM237.868 166.551C237.868 168.931 236.668 170.751 234.728 170.751C232.928 170.751 231.828 169.271 231.828 166.931C231.828 164.571 233.028 162.771 234.948 162.771C236.728 162.771 237.868 164.231 237.868 166.551ZM244.388 173.151C244.388 171.551 243.908 169.231 242.568 169.231C241.488 169.231 241.168 170.431 241.168 171.991C241.168 173.651 241.608 175.971 242.908 175.971C244.068 175.971 244.388 174.651 244.388 173.151ZM236.448 167.371C236.448 165.711 236.008 163.391 234.708 163.391C233.548 163.391 233.228 164.711 233.228 166.211C233.228 167.811 233.708 170.131 235.048 170.131C236.128 170.131 236.448 168.931 236.448 167.371ZM259.176 166.711C259.176 166.931 259.096 167.171 258.996 167.411L258.556 168.431H258.296C258.016 167.811 257.456 167.571 256.916 167.571C256.436 167.571 255.936 167.771 255.316 168.291V175.051C255.316 175.471 255.336 175.631 255.576 175.691L257.496 176.131V176.391H251.936V176.131L253.276 175.731C253.516 175.651 253.536 175.511 253.536 175.091V168.651L253.436 167.731C253.396 167.311 253.376 167.151 253.076 167.091L251.736 166.851V166.551L254.796 166.031L254.956 166.131L255.136 167.611H255.236C256.096 166.791 256.896 165.931 258.176 165.931C258.676 165.931 259.176 166.091 259.176 166.711ZM269.55 176.011L266.47 176.511L266.35 176.391L266.21 174.991H266.09C265.09 175.811 264.31 176.611 262.79 176.611C261.31 176.611 260.23 175.551 260.23 174.151C260.23 171.831 262.05 171.091 265.97 170.251V169.091C265.97 167.531 264.81 166.971 263.47 166.971C262.45 166.971 262.15 167.271 262.15 167.871V168.831L262.03 168.931H261.35C260.93 168.931 260.79 168.671 260.79 168.371C260.79 167.751 261.51 167.071 261.99 166.731C262.67 166.251 263.57 165.911 264.61 165.911C266.91 165.911 267.69 167.351 267.69 169.571V174.031L267.79 174.791C267.85 175.211 267.85 175.391 268.15 175.451L269.55 175.711V176.011ZM265.97 174.511V171.011C262.81 171.571 262.05 172.431 262.05 173.471C262.05 174.491 262.89 175.171 263.89 175.171C264.67 175.171 265.53 174.931 265.97 174.511ZM280.068 170.791C280.068 173.771 278.328 176.611 274.928 176.611C273.408 176.611 271.908 176.191 271.128 175.911V163.251C271.128 162.831 271.068 162.691 270.768 162.631L269.368 162.391V162.091L272.768 161.571L272.908 161.671V167.591H272.948C273.928 166.751 274.928 166.131 276.368 166.131C278.908 166.131 280.068 168.571 280.068 170.791ZM278.288 172.011C278.288 169.871 277.348 167.551 274.988 167.551C274.168 167.551 273.448 167.851 272.908 168.271V174.691C273.188 175.111 274.068 175.671 275.308 175.671C277.408 175.671 278.288 173.911 278.288 172.011ZM290.761 176.011L287.681 176.511L287.561 176.391L287.421 174.991H287.301C286.301 175.811 285.521 176.611 284.001 176.611C282.521 176.611 281.441 175.551 281.441 174.151C281.441 171.831 283.261 171.091 287.181 170.251V169.091C287.181 167.531 286.021 166.971 284.681 166.971C283.661 166.971 283.361 167.271 283.361 167.871V168.831L283.241 168.931H282.561C282.141 168.931 282.001 168.671 282.001 168.371C282.001 167.751 282.721 167.071 283.201 166.731C283.881 166.251 284.781 165.911 285.821 165.911C288.121 165.911 288.901 167.351 288.901 169.571V174.031L289.001 174.791C289.061 175.211 289.061 175.391 289.361 175.451L290.761 175.711V176.011ZM287.181 174.511V171.011C284.021 171.571 283.261 172.431 283.261 173.471C283.261 174.491 284.101 175.171 285.101 175.171C285.881 175.171 286.741 174.931 287.181 174.511ZM297.383 175.151C296.783 175.731 295.903 176.611 294.643 176.611C293.083 176.611 292.163 175.351 292.163 173.611V167.531H290.523V166.511H292.243V164.391L293.903 163.431V166.511H296.783V167.531H293.903V173.311C293.903 174.671 294.543 175.311 295.563 175.311C296.183 175.311 296.743 175.031 297.083 174.751L297.383 175.151ZM306.852 162.671C306.852 163.351 306.352 163.951 305.572 163.951C304.852 163.951 304.412 163.471 304.412 162.791C304.412 162.111 304.892 161.531 305.672 161.531C306.392 161.531 306.852 161.991 306.852 162.671ZM308.072 176.391H303.092V176.131L304.432 175.731C304.672 175.651 304.692 175.511 304.692 175.091V167.731C304.692 167.311 304.652 167.151 304.352 167.091L302.932 166.851V166.551L306.332 166.031L306.472 166.131V175.091C306.472 175.511 306.492 175.651 306.732 175.731L308.072 176.131V176.391ZM325.052 176.391H320.072V176.131L321.412 175.731C321.652 175.651 321.672 175.511 321.672 175.091V169.751C321.672 168.311 320.792 167.431 319.412 167.431C318.612 167.431 317.752 167.751 317.112 168.271V175.111C317.112 175.531 317.132 175.651 317.372 175.731L318.712 176.131V176.391H313.732V176.131L315.072 175.731C315.312 175.651 315.332 175.511 315.332 175.091V163.251C315.332 162.831 315.272 162.691 314.972 162.631L313.572 162.391V162.091L316.972 161.571L317.112 161.671V167.591H317.152C318.452 166.471 319.452 166.131 320.592 166.131C322.692 166.131 323.452 167.671 323.452 169.231V175.111C323.452 175.531 323.472 175.651 323.712 175.731L325.052 176.131V176.391ZM334.131 174.371C332.871 175.671 331.891 176.671 329.911 176.671C327.131 176.671 325.671 174.251 325.671 171.651C325.671 168.711 327.291 165.851 330.491 165.851C333.011 165.851 334.051 167.971 334.051 170.051V170.411H327.171C327.231 174.031 329.451 174.871 330.991 174.871C332.231 174.871 333.231 174.491 333.891 174.011L334.131 174.371ZM332.151 169.431C332.211 168.031 331.271 166.731 329.691 166.731C328.311 166.731 327.271 168.071 327.171 169.591H329.811L332.151 169.431ZM340.572 176.391H335.592V176.131L336.932 175.731C337.172 175.651 337.192 175.511 337.192 175.091V163.251C337.192 162.831 337.132 162.691 336.832 162.631L335.432 162.391V162.091L338.832 161.571L338.972 161.671V175.111C338.972 175.531 338.992 175.651 339.232 175.731L340.572 176.131V176.391ZM349.815 174.371C348.555 175.671 347.575 176.671 345.595 176.671C342.815 176.671 341.355 174.251 341.355 171.651C341.355 168.711 342.975 165.851 346.175 165.851C348.695 165.851 349.735 167.971 349.735 170.051V170.411H342.855C342.915 174.031 345.135 174.871 346.675 174.871C347.915 174.871 348.915 174.491 349.575 174.011L349.815 174.371ZM347.835 169.431C347.895 168.031 346.955 166.731 345.375 166.731C343.995 166.731 342.955 168.071 342.855 169.591H345.495L347.835 169.431ZM250.227 201.371C250.227 202.971 248.907 204.611 246.687 204.611C245.947 204.611 244.847 204.431 244.147 204.071V201.351H244.667L244.907 202.491C245.007 202.931 244.987 203.091 245.267 203.271C245.587 203.471 246.147 203.711 246.847 203.711C247.827 203.711 248.847 203.091 248.847 202.051C248.847 200.791 247.607 200.331 246.267 199.671C244.987 199.031 244.027 198.291 244.027 196.831C244.027 195.351 245.227 193.911 247.207 193.911C247.727 193.911 248.687 193.971 249.567 194.391V196.851H249.047L248.847 195.791C248.807 195.531 248.727 195.391 248.527 195.231C248.227 195.011 247.627 194.791 247.027 194.791C246.007 194.791 245.347 195.391 245.347 196.131C245.347 197.111 246.287 197.571 247.967 198.351C249.407 199.011 250.227 199.871 250.227 201.371ZM262.425 204.391H257.445V204.131L258.785 203.731C259.025 203.651 259.045 203.511 259.045 203.091V197.751C259.045 196.311 258.165 195.431 256.785 195.431C255.985 195.431 255.125 195.751 254.485 196.271V203.111C254.485 203.531 254.505 203.651 254.745 203.731L256.085 204.131V204.391H251.105V204.131L252.445 203.731C252.685 203.651 252.705 203.511 252.705 203.091V191.251C252.705 190.831 252.645 190.691 252.345 190.631L250.945 190.391V190.091L254.345 189.571L254.485 189.671V195.591H254.525C255.825 194.471 256.825 194.131 257.965 194.131C260.065 194.131 260.825 195.671 260.825 197.231V203.111C260.825 203.531 260.845 203.651 261.085 203.731L262.425 204.131V204.391ZM272.964 199.031C272.964 202.091 270.944 204.711 267.804 204.711C264.884 204.711 263.044 202.671 263.044 199.571C263.044 196.511 265.044 193.851 268.204 193.851C271.124 193.851 272.964 195.951 272.964 199.031ZM270.944 200.051C270.944 198.151 270.024 194.631 267.664 194.631C265.724 194.631 265.064 196.531 265.064 198.431C265.064 200.451 265.944 203.931 268.244 203.931C270.304 203.931 270.944 201.931 270.944 200.051ZM284.321 198.591C284.321 201.571 282.581 204.411 279.181 204.411C278.541 204.411 277.761 204.291 277.161 204.051V207.011C277.161 207.431 277.181 207.611 277.421 207.671L279.341 208.111V208.351H273.781V208.091L275.121 207.691C275.361 207.611 275.381 207.451 275.381 207.031V196.511L275.281 195.731C275.221 195.311 275.221 195.151 274.921 195.091L273.621 194.851V194.551L276.641 194.031L276.781 194.131L277.021 195.391H277.161C278.181 194.531 279.181 193.931 280.621 193.931C283.161 193.931 284.321 196.371 284.321 198.591ZM282.541 199.811C282.541 197.671 281.601 195.351 279.241 195.351C278.421 195.351 277.701 195.651 277.161 196.071V202.491C277.441 202.911 278.321 203.471 279.561 203.471C281.661 203.471 282.541 201.711 282.541 199.811ZM295.688 198.591C295.688 201.571 293.948 204.411 290.548 204.411C289.908 204.411 289.128 204.291 288.528 204.051V207.011C288.528 207.431 288.548 207.611 288.788 207.671L290.708 208.111V208.351H285.148V208.091L286.488 207.691C286.728 207.611 286.748 207.451 286.748 207.031V196.511L286.648 195.731C286.588 195.311 286.588 195.151 286.288 195.091L284.988 194.851V194.551L288.008 194.031L288.148 194.131L288.388 195.391H288.528C289.548 194.531 290.548 193.931 291.988 193.931C294.528 193.931 295.688 196.371 295.688 198.591ZM293.908 199.811C293.908 197.671 292.968 195.351 290.608 195.351C289.788 195.351 289.068 195.651 288.528 196.071V202.491C288.808 202.911 289.688 203.471 290.928 203.471C293.028 203.471 293.908 201.711 293.908 199.811ZM305.586 202.371C304.326 203.671 303.346 204.671 301.366 204.671C298.586 204.671 297.126 202.251 297.126 199.651C297.126 196.711 298.746 193.851 301.946 193.851C304.466 193.851 305.506 195.971 305.506 198.051V198.411H298.626C298.686 202.031 300.906 202.871 302.446 202.871C303.686 202.871 304.686 202.491 305.346 202.011L305.586 202.371ZM303.606 197.431C303.666 196.031 302.726 194.731 301.146 194.731C299.766 194.731 298.726 196.071 298.626 197.591H301.266L303.606 197.431ZM318.207 204.391H313.227V204.131L314.567 203.731C314.807 203.651 314.827 203.511 314.827 203.091V197.551C314.827 196.111 313.947 195.231 312.567 195.231C311.767 195.231 310.907 195.551 310.267 196.071V203.111C310.267 203.531 310.287 203.651 310.527 203.731L311.867 204.131V204.391H306.887V204.131L308.227 203.731C308.467 203.651 308.487 203.511 308.487 203.091V196.511L308.387 195.731C308.327 195.311 308.327 195.151 308.027 195.091L306.727 194.851V194.551L309.747 194.031L309.887 194.131L310.127 195.391H310.267C311.567 194.271 312.607 193.931 313.747 193.931C315.847 193.931 316.607 195.471 316.607 197.031V203.111C316.607 203.531 316.627 203.651 316.867 203.731L318.207 204.131V204.391Z" fill="#F5F9E9"/>
<path d="M270.208 329.231C270.208 331.011 268.928 333.391 265.108 333.391H258.788V333.111L260.268 332.691C260.528 332.611 260.568 332.431 260.568 331.971V321.311C260.568 320.851 260.528 320.671 260.268 320.591L258.808 320.171V319.891H264.248C266.248 319.891 269.228 319.911 269.228 322.691C269.228 324.571 267.328 325.531 266.428 325.871V325.951C268.228 325.891 270.208 327.071 270.208 329.231ZM267.128 323.131C267.128 320.751 265.168 320.691 263.728 320.691H262.628V325.751H264.128C264.988 325.751 267.128 325.571 267.128 323.131ZM267.808 329.571C267.808 327.031 266.208 326.591 264.368 326.591H262.628V331.911C262.628 332.431 262.908 332.551 263.268 332.551H264.568C266.088 332.551 267.808 331.971 267.808 329.571ZM276.637 333.391H271.657V333.131L272.997 332.731C273.237 332.651 273.257 332.511 273.257 332.091V320.251C273.257 319.831 273.197 319.691 272.897 319.631L271.497 319.391V319.091L274.897 318.571L275.037 318.671V332.111C275.037 332.531 275.057 332.651 275.297 332.731L276.637 333.131V333.391ZM281.12 319.671C281.12 320.351 280.62 320.951 279.84 320.951C279.12 320.951 278.68 320.471 278.68 319.791C278.68 319.111 279.16 318.531 279.94 318.531C280.66 318.531 281.12 318.991 281.12 319.671ZM282.34 333.391H277.36V333.131L278.7 332.731C278.94 332.651 278.96 332.511 278.96 332.091V324.731C278.96 324.311 278.92 324.151 278.62 324.091L277.2 323.851V323.551L280.6 323.031L280.74 323.131V332.091C280.74 332.511 280.76 332.651 281 332.731L282.34 333.131V333.391ZM292.664 323.551L292.124 323.911C291.964 324.011 291.824 324.151 291.724 324.451L288.384 333.491H287.044L283.584 324.471C283.464 324.131 283.364 324.051 283.144 323.911L282.564 323.551V323.311H286.964V323.551L285.744 323.911C285.484 323.991 285.444 324.251 285.584 324.611L287.664 330.331C287.864 330.871 288.044 331.371 288.044 331.711H288.104C288.104 331.491 288.284 331.011 288.524 330.311L290.564 324.531C290.684 324.211 290.544 324.031 290.304 323.951L289.044 323.551V323.311H292.664V323.551ZM306.74 331.371C305.48 332.671 304.5 333.671 302.52 333.671C299.74 333.671 298.28 331.251 298.28 328.651C298.28 325.711 299.9 322.851 303.1 322.851C305.62 322.851 306.66 324.971 306.66 327.051V327.411H299.78C299.84 331.031 302.06 331.871 303.6 331.871C304.84 331.871 305.84 331.491 306.5 331.011L306.74 331.371ZM304.76 326.431C304.82 325.031 303.88 323.731 302.3 323.731C300.92 323.731 299.88 325.071 299.78 326.591H302.42L304.76 326.431ZM319.36 333.391H314.38V333.131L315.72 332.731C315.96 332.651 315.98 332.511 315.98 332.091V326.551C315.98 325.111 315.1 324.231 313.72 324.231C312.92 324.231 312.06 324.551 311.42 325.071V332.111C311.42 332.531 311.44 332.651 311.68 332.731L313.02 333.131V333.391H308.04V333.131L309.38 332.731C309.62 332.651 309.64 332.511 309.64 332.091V325.511L309.54 324.731C309.48 324.311 309.48 324.151 309.18 324.091L307.88 323.851V323.551L310.9 323.031L311.04 323.131L311.28 324.391H311.42C312.72 323.271 313.76 322.931 314.9 322.931C317 322.931 317.76 324.471 317.76 326.031V332.111C317.76 332.531 317.78 332.651 318.02 332.731L319.36 333.131V333.391ZM335.597 333.011L332.577 333.511L332.437 333.391L332.237 332.151H332.097C331.077 333.011 330.117 333.611 328.717 333.611C326.117 333.611 325.077 330.831 325.077 328.891C325.077 325.911 326.737 323.131 330.117 323.131C330.757 323.131 331.497 323.251 332.097 323.491V320.251C332.097 319.831 332.057 319.671 331.757 319.631L330.297 319.391V319.091L333.737 318.571L333.877 318.671V331.031L333.957 331.811C333.997 332.231 334.017 332.391 334.317 332.451L335.597 332.711V333.011ZM332.097 331.471V325.051C331.817 324.631 330.977 324.071 329.757 324.071C327.677 324.071 326.857 325.771 326.857 327.671C326.857 329.631 327.717 332.191 330.097 332.191C330.897 332.191 331.557 331.891 332.097 331.471ZM344.591 331.371C343.331 332.671 342.351 333.671 340.371 333.671C337.591 333.671 336.131 331.251 336.131 328.651C336.131 325.711 337.751 322.851 340.951 322.851C343.471 322.851 344.511 324.971 344.511 327.051V327.411H337.631C337.691 331.031 339.911 331.871 341.451 331.871C342.691 331.871 343.691 331.491 344.351 331.011L344.591 331.371ZM342.611 326.431C342.671 325.031 341.731 323.731 340.151 323.731C338.771 323.731 337.731 325.071 337.631 326.591H340.271L342.611 326.431ZM351.032 333.391H346.052V333.131L347.392 332.731C347.632 332.651 347.652 332.511 347.652 332.091V320.251C347.652 319.831 347.592 319.691 347.292 319.631L345.892 319.391V319.091L349.292 318.571L349.432 318.671V332.111C349.432 332.531 349.452 332.651 349.692 332.731L351.032 333.131V333.391ZM366.573 333.011L363.493 333.511L363.373 333.391L363.233 331.991H363.113C362.113 332.811 361.333 333.611 359.813 333.611C358.333 333.611 357.253 332.551 357.253 331.151C357.253 328.831 359.073 328.091 362.993 327.251V326.091C362.993 324.531 361.833 323.971 360.493 323.971C359.473 323.971 359.173 324.271 359.173 324.871V325.831L359.053 325.931H358.373C357.953 325.931 357.813 325.671 357.813 325.371C357.813 324.751 358.533 324.071 359.013 323.731C359.693 323.251 360.593 322.911 361.633 322.911C363.933 322.911 364.713 324.351 364.713 326.571V331.031L364.813 331.791C364.873 332.211 364.873 332.391 365.173 332.451L366.573 332.711V333.011ZM362.993 331.511V328.011C359.833 328.571 359.073 329.431 359.073 330.471C359.073 331.491 359.913 332.171 360.913 332.171C361.693 332.171 362.553 331.931 362.993 331.511ZM374.71 319.191C374.71 319.351 374.67 319.571 374.57 319.811L374.15 320.751H373.93C373.57 320.171 372.91 319.791 372.13 319.791C370.75 319.791 370.01 320.791 370.01 322.091V323.511H372.95V324.531H370.07V332.051C370.07 332.471 370.11 332.631 370.35 332.691L372.25 333.131V333.391H366.73V333.131L368.05 332.731C368.29 332.651 368.33 332.511 368.33 332.091V324.531H366.69V323.511H368.31L368.33 322.891C368.39 321.271 370.33 318.531 373.35 318.531C373.81 318.531 374.71 318.551 374.71 319.191ZM388.464 323.551L387.924 323.911C387.764 324.011 387.624 324.151 387.524 324.451L384.184 333.491H382.844L379.384 324.471C379.264 324.131 379.164 324.051 378.944 323.911L378.364 323.551V323.311H382.764V323.551L381.544 323.911C381.284 323.991 381.244 324.251 381.384 324.611L383.464 330.331C383.664 330.871 383.844 331.371 383.844 331.711H383.904C383.904 331.491 384.084 331.011 384.324 330.311L386.364 324.531C386.484 324.211 386.344 324.031 386.104 323.951L384.844 323.551V323.311H388.464V323.551ZM398.708 328.031C398.708 331.091 396.688 333.711 393.548 333.711C390.628 333.711 388.788 331.671 388.788 328.571C388.788 325.511 390.788 322.851 393.948 322.851C396.868 322.851 398.708 324.951 398.708 328.031ZM396.688 329.051C396.688 327.151 395.768 323.631 393.408 323.631C391.468 323.631 390.808 325.531 390.808 327.431C390.808 329.451 391.688 332.931 393.988 332.931C396.048 332.931 396.688 330.931 396.688 329.051ZM406.805 323.711C406.805 323.931 406.725 324.171 406.625 324.411L406.185 325.431H405.925C405.645 324.811 405.085 324.571 404.545 324.571C404.065 324.571 403.565 324.771 402.945 325.291V332.051C402.945 332.471 402.965 332.631 403.205 332.691L405.125 333.131V333.391H399.565V333.131L400.905 332.731C401.145 332.651 401.165 332.511 401.165 332.091V325.651L401.065 324.731C401.025 324.311 401.005 324.151 400.705 324.091L399.365 323.851V323.551L402.425 323.031L402.585 323.131L402.765 324.611H402.865C403.725 323.791 404.525 322.931 405.805 322.931C406.305 322.931 406.805 323.091 406.805 323.711ZM415.783 331.371C414.523 332.671 413.543 333.671 411.563 333.671C408.783 333.671 407.323 331.251 407.323 328.651C407.323 325.711 408.943 322.851 412.143 322.851C414.663 322.851 415.703 324.971 415.703 327.051V327.411H408.823C408.883 331.031 411.103 331.871 412.643 331.871C413.883 331.871 414.883 331.491 415.543 331.011L415.783 331.371ZM413.803 326.431C413.863 325.031 412.923 323.731 411.343 323.731C409.963 323.731 408.923 325.071 408.823 326.591H411.463L413.803 326.431ZM423.783 330.371C423.783 331.971 422.463 333.611 420.243 333.611C419.503 333.611 418.403 333.431 417.703 333.071V330.351H418.223L418.463 331.491C418.563 331.931 418.543 332.091 418.823 332.271C419.143 332.471 419.703 332.711 420.403 332.711C421.383 332.711 422.403 332.091 422.403 331.051C422.403 329.791 421.163 329.331 419.823 328.671C418.543 328.031 417.583 327.291 417.583 325.831C417.583 324.351 418.783 322.911 420.763 322.911C421.283 322.911 422.243 322.971 423.123 323.391V325.851H422.603L422.403 324.791C422.363 324.531 422.283 324.391 422.083 324.231C421.783 324.011 421.183 323.791 420.583 323.791C419.563 323.791 418.903 324.391 418.903 325.131C418.903 326.111 419.843 326.571 421.523 327.351C422.963 328.011 423.783 328.871 423.783 330.371ZM434.899 333.391H429.919V333.131L431.259 332.731C431.499 332.651 431.519 332.511 431.519 332.091V320.251C431.519 319.831 431.459 319.691 431.159 319.631L429.759 319.391V319.091L433.159 318.571L433.299 318.671V332.111C433.299 332.531 433.319 332.651 433.559 332.731L434.899 333.131V333.391ZM450.282 331.371C449.022 332.671 448.042 333.671 446.062 333.671C444.442 333.671 443.262 332.831 442.562 331.631C441.342 332.831 440.442 333.611 438.582 333.611C437.102 333.611 436.022 332.551 436.022 331.151C436.022 328.831 437.842 328.091 441.762 327.251V326.131C441.762 324.571 440.602 324.011 439.262 324.011C438.242 324.011 437.942 324.311 437.942 324.911V325.871L437.822 325.971H437.142C436.722 325.971 436.582 325.711 436.582 325.411C436.582 324.791 437.302 324.111 437.782 323.771C438.462 323.291 439.362 322.951 440.402 322.951C441.862 322.951 442.722 323.511 443.142 324.511C443.942 323.491 445.102 322.851 446.642 322.851C449.162 322.851 450.202 324.971 450.202 327.051V327.411H443.322C443.382 331.031 445.602 331.871 447.142 331.871C448.382 331.871 449.382 331.491 450.042 331.011L450.282 331.371ZM441.762 331.511V328.011C438.602 328.571 437.842 329.431 437.842 330.471C437.842 331.491 438.682 332.171 439.682 332.171C440.462 332.171 441.322 331.931 441.762 331.511ZM448.302 326.431C448.362 325.031 447.422 323.731 445.842 323.731C444.462 323.731 443.422 325.071 443.322 326.591H445.962L448.302 326.431ZM458.275 330.371C458.275 331.971 456.955 333.611 454.735 333.611C453.995 333.611 452.895 333.431 452.195 333.071V330.351H452.715L452.955 331.491C453.055 331.931 453.035 332.091 453.315 332.271C453.635 332.471 454.195 332.711 454.895 332.711C455.875 332.711 456.895 332.091 456.895 331.051C456.895 329.791 455.655 329.331 454.315 328.671C453.035 328.031 452.075 327.291 452.075 325.831C452.075 324.351 453.275 322.911 455.255 322.911C455.775 322.911 456.735 322.971 457.615 323.391V325.851H457.095L456.895 324.791C456.855 324.531 456.775 324.391 456.575 324.231C456.275 324.011 455.675 323.791 455.075 323.791C454.055 323.791 453.395 324.391 453.395 325.131C453.395 326.111 454.335 326.571 456.015 327.351C457.455 328.011 458.275 328.871 458.275 330.371ZM467.834 331.371C466.574 332.671 465.594 333.671 463.614 333.671C460.834 333.671 459.374 331.251 459.374 328.651C459.374 325.711 460.994 322.851 464.194 322.851C466.714 322.851 467.754 324.971 467.754 327.051V327.411H460.874C460.934 331.031 463.154 331.871 464.694 331.871C465.934 331.871 466.934 331.491 467.594 331.011L467.834 331.371ZM465.854 326.431C465.914 325.031 464.974 323.731 463.394 323.731C462.014 323.731 460.974 325.071 460.874 326.591H463.514L465.854 326.431ZM477.054 319.191C477.054 319.351 477.014 319.571 476.914 319.811L476.494 320.751H476.274C475.914 320.171 475.254 319.791 474.474 319.791C473.094 319.791 472.354 320.791 472.354 322.091V323.511H475.294V324.531H472.414V332.051C472.414 332.471 472.454 332.631 472.694 332.691L474.594 333.131V333.391H469.074V333.131L470.394 332.731C470.634 332.651 470.674 332.511 470.674 332.091V324.531H469.034V323.511H470.654L470.674 322.891C470.734 321.271 472.674 318.531 475.694 318.531C476.154 318.531 477.054 318.551 477.054 319.191ZM490.575 331.371C489.315 332.671 488.335 333.671 486.355 333.671C484.735 333.671 483.555 332.831 482.855 331.631C481.635 332.831 480.735 333.611 478.875 333.611C477.395 333.611 476.315 332.551 476.315 331.151C476.315 328.831 478.135 328.091 482.055 327.251V326.131C482.055 324.571 480.895 324.011 479.555 324.011C478.535 324.011 478.235 324.311 478.235 324.911V325.871L478.115 325.971H477.435C477.015 325.971 476.875 325.711 476.875 325.411C476.875 324.791 477.595 324.111 478.075 323.771C478.755 323.291 479.655 322.951 480.695 322.951C482.155 322.951 483.015 323.511 483.435 324.511C484.235 323.491 485.395 322.851 486.935 322.851C489.455 322.851 490.495 324.971 490.495 327.051V327.411H483.615C483.675 331.031 485.895 331.871 487.435 331.871C488.675 331.871 489.675 331.491 490.335 331.011L490.575 331.371ZM482.055 331.511V328.011C478.895 328.571 478.135 329.431 478.135 330.471C478.135 331.491 478.975 332.171 479.975 332.171C480.755 332.171 481.615 331.931 482.055 331.511ZM488.595 326.431C488.655 325.031 487.715 323.731 486.135 323.731C484.755 323.731 483.715 325.071 483.615 326.591H486.255L488.595 326.431ZM497.008 333.391H492.028V333.131L493.368 332.731C493.608 332.651 493.628 332.511 493.628 332.091V320.251C493.628 319.831 493.568 319.691 493.268 319.631L491.868 319.391V319.091L495.268 318.571L495.408 318.671V332.111C495.408 332.531 495.428 332.651 495.668 332.731L497.008 333.131V333.391ZM502.711 333.391H497.731V333.131L499.071 332.731C499.311 332.651 499.331 332.511 499.331 332.091V320.251C499.331 319.831 499.271 319.691 498.971 319.631L497.571 319.391V319.091L500.971 318.571L501.111 318.671V332.111C501.111 332.531 501.131 332.651 501.371 332.731L502.711 333.131V333.391ZM511.955 331.371C510.695 332.671 509.715 333.671 507.735 333.671C504.955 333.671 503.495 331.251 503.495 328.651C503.495 325.711 505.115 322.851 508.315 322.851C510.835 322.851 511.875 324.971 511.875 327.051V327.411H504.995C505.055 331.031 507.275 331.871 508.815 331.871C510.055 331.871 511.055 331.491 511.715 331.011L511.955 331.371ZM509.975 326.431C510.035 325.031 509.095 323.731 507.515 323.731C506.135 323.731 505.095 325.071 504.995 326.591H507.635L509.975 326.431ZM519.955 330.371C519.955 331.971 518.635 333.611 516.415 333.611C515.675 333.611 514.575 333.431 513.875 333.071V330.351H514.395L514.635 331.491C514.735 331.931 514.715 332.091 514.995 332.271C515.315 332.471 515.875 332.711 516.575 332.711C517.555 332.711 518.575 332.091 518.575 331.051C518.575 329.791 517.335 329.331 515.995 328.671C514.715 328.031 513.755 327.291 513.755 325.831C513.755 324.351 514.955 322.911 516.935 322.911C517.455 322.911 518.415 322.971 519.295 323.391V325.851H518.775L518.575 324.791C518.535 324.531 518.455 324.391 518.255 324.231C517.955 324.011 517.355 323.791 516.755 323.791C515.735 323.791 515.075 324.391 515.075 325.131C515.075 326.111 516.015 326.571 517.695 327.351C519.135 328.011 519.955 328.871 519.955 330.371ZM527.533 330.371C527.533 331.971 526.213 333.611 523.993 333.611C523.253 333.611 522.153 333.431 521.453 333.071V330.351H521.973L522.213 331.491C522.313 331.931 522.293 332.091 522.573 332.271C522.893 332.471 523.453 332.711 524.153 332.711C525.133 332.711 526.153 332.091 526.153 331.051C526.153 329.791 524.913 329.331 523.573 328.671C522.293 328.031 521.333 327.291 521.333 325.831C521.333 324.351 522.533 322.911 524.513 322.911C525.033 322.911 525.993 322.971 526.873 323.391V325.851H526.353L526.153 324.791C526.113 324.531 526.033 324.391 525.833 324.231C525.533 324.011 524.933 323.791 524.333 323.791C523.313 323.791 522.653 324.391 522.653 325.131C522.653 326.111 523.593 326.571 525.273 327.351C526.713 328.011 527.533 328.871 527.533 330.371ZM538.531 333.391H536.011L532.131 327.691L535.131 324.691C535.431 324.391 535.371 324.071 535.051 323.971L533.731 323.551V323.311H538.371V323.571L537.411 323.971C537.191 324.071 536.931 324.191 536.631 324.491L533.771 327.291L537.391 332.251C537.631 332.591 537.811 332.711 538.031 332.831L538.531 333.131V333.391ZM533.391 333.391H528.411V333.131L529.751 332.731C529.991 332.651 530.011 332.511 530.011 332.091V320.251C530.011 319.831 529.951 319.691 529.651 319.631L528.251 319.391V319.091L531.651 318.571L531.791 318.671V332.111C531.791 332.531 531.811 332.651 532.051 332.731L533.391 333.131V333.391ZM548.721 333.011L545.641 333.511L545.521 333.391L545.381 331.991H545.261C544.261 332.811 543.481 333.611 541.961 333.611C540.481 333.611 539.401 332.551 539.401 331.151C539.401 328.831 541.221 328.091 545.141 327.251V326.091C545.141 324.531 543.981 323.971 542.641 323.971C541.621 323.971 541.321 324.271 541.321 324.871V325.831L541.201 325.931H540.521C540.101 325.931 539.961 325.671 539.961 325.371C539.961 324.751 540.681 324.071 541.161 323.731C541.841 323.251 542.741 322.911 543.781 322.911C546.081 322.911 546.861 324.351 546.861 326.571V331.031L546.961 331.791C547.021 332.211 547.021 332.391 547.321 332.451L548.721 332.711V333.011ZM545.141 331.511V328.011C541.981 328.571 541.221 329.431 541.221 330.471C541.221 331.491 542.061 332.171 543.061 332.171C543.841 332.171 544.701 331.931 545.141 331.511ZM559.239 327.791C559.239 330.771 557.499 333.611 554.099 333.611C552.579 333.611 551.079 333.191 550.299 332.911V320.251C550.299 319.831 550.239 319.691 549.939 319.631L548.539 319.391V319.091L551.939 318.571L552.079 318.671V324.591H552.119C553.099 323.751 554.099 323.131 555.539 323.131C558.079 323.131 559.239 325.571 559.239 327.791ZM557.459 329.011C557.459 326.871 556.519 324.551 554.159 324.551C553.339 324.551 552.619 324.851 552.079 325.271V331.691C552.359 332.111 553.239 332.671 554.479 332.671C556.579 332.671 557.459 330.911 557.459 329.011Z" fill="#F5F9E9"/>
<path d="M471.125 52.9983C471.125 56.1614 468.886 60.3906 462.098 60.3906H449.73V59.822L452.005 59.0756C452.502 58.8979 452.538 58.6136 452.538 57.7962V39.0311C452.538 38.1781 452.502 37.8938 452.005 37.7516L449.766 37.0053V36.4011H460.819C464.55 36.4011 469.384 36.8276 469.384 41.4833C469.384 44.8241 465.936 46.4589 464.23 47.0276V47.1697C467.607 47.1697 471.125 49.16 471.125 52.9983ZM464.515 42.2297C464.515 38.5691 461.991 38.0004 459.113 38.0004H457.336V46.7433H459.468C461.423 46.7433 464.515 46.068 464.515 42.2297ZM465.687 53.6025C465.687 49.1955 462.986 48.4136 459.894 48.4136H457.336V57.6185C457.336 58.5425 457.833 58.7558 458.473 58.7558H460.25C462.88 58.7558 465.687 57.7251 465.687 53.6025ZM498.129 48.4492C498.129 55.7704 492.726 60.9593 485.938 60.9593C478.653 60.9593 473.784 56.73 473.784 48.4492C473.784 40.6304 479.648 35.7614 485.938 35.7614C492.62 35.7614 498.129 39.5997 498.129 48.4492ZM492.94 48.4492C492.94 39.9907 489.457 37.5384 485.938 37.5384C482.633 37.5384 478.937 39.884 478.937 48.4492C478.937 56.8011 482.349 59.1823 485.938 59.1823C489.528 59.1823 492.94 56.7655 492.94 48.4492ZM525.304 48.4492C525.304 55.7704 519.902 60.9593 513.114 60.9593C505.828 60.9593 500.959 56.73 500.959 48.4492C500.959 40.6304 506.823 35.7614 513.114 35.7614C519.795 35.7614 525.304 39.5997 525.304 48.4492ZM520.115 48.4492C520.115 39.9907 516.632 37.5384 513.114 37.5384C509.809 37.5384 506.113 39.884 506.113 48.4492C506.113 56.8011 509.524 59.1823 513.114 59.1823C516.703 59.1823 520.115 56.7655 520.115 48.4492ZM550.401 60.3906H543.933L535.474 47.8805L543.151 39.0666C543.72 38.4269 543.4 38.0004 542.796 37.7872L540.663 37.0053V36.4011H549.548V37.0053L547.7 37.8227C547.238 38.036 546.883 38.3203 546.35 38.96L539.81 46.2102L548.127 58.045C548.518 58.5781 548.873 58.8979 549.335 59.1823L550.401 59.822V60.3906ZM537.713 60.3906H527.3V59.822L529.575 59.0756C530.072 58.8979 530.108 58.6136 530.108 57.7962V39.0311C530.108 38.1781 530.072 37.8938 529.575 37.7516L527.336 37.0053V36.4011H537.713V37.0053L535.439 37.7516C534.977 37.8938 534.906 38.1781 534.906 39.0311V57.7962C534.906 58.6136 534.977 58.8979 535.439 59.0756L537.713 59.822V60.3906ZM584.792 48.4492C584.792 55.7704 579.39 60.9593 572.602 60.9593C565.316 60.9593 560.447 56.73 560.447 48.4492C560.447 40.6304 566.311 35.7614 572.602 35.7614C579.283 35.7614 584.792 39.5997 584.792 48.4492ZM579.603 48.4492C579.603 39.9907 576.12 37.5384 572.602 37.5384C569.297 37.5384 565.6 39.884 565.6 48.4492C565.6 56.8011 569.012 59.1823 572.602 59.1823C576.191 59.1823 579.603 56.7655 579.603 48.4492ZM612.448 37.0053L610.173 37.7516C609.676 37.9293 609.64 38.2137 609.64 39.0311V60.746H606.868L594.038 43.9001C593.505 43.2248 592.937 42.4074 592.759 41.7321H592.581C592.581 42.2297 592.617 43.1537 592.617 44.0778V57.7251C592.617 58.5781 592.688 58.8979 593.185 59.0046L596.1 59.822V60.3906H587.144V59.822L589.383 59.0401C589.88 58.8979 589.916 58.6136 589.916 57.7962V39.1732C589.916 38.3558 589.88 38.036 589.383 37.8938L586.433 37.0764V36.4011H594.358L605.233 51.0791C605.731 51.7544 606.691 53.0338 606.833 53.7802H606.975C606.975 53.2826 606.939 52.1098 606.939 50.9014V39.0666C606.939 38.2492 606.904 37.9293 606.406 37.8227L603.456 37.0053V36.4011H612.448V37.0053ZM633.002 54.6687L632.007 60.3906H614.415V59.822L616.725 59.0756C617.187 58.8979 617.223 58.6136 617.223 57.7962V39.0311C617.223 38.1781 617.187 37.8938 616.725 37.7516L614.45 37.0053V36.4011H625.361V37.0053L622.589 37.7516C622.092 37.8583 622.02 38.1781 622.02 39.0311V57.4053C622.02 58.3293 622.518 58.5425 623.158 58.5425H628.915C629.733 58.5425 630.159 58.1516 630.372 57.6896L631.901 54.3844L633.002 54.6687ZM653.169 37.0053L651.961 37.6806C651.463 37.9649 651.25 38.2492 650.824 38.9955L644.426 50.4394V57.7962C644.426 58.6136 644.462 58.8979 644.96 59.0756L647.199 59.822V60.3906H636.821V59.822L639.095 59.0756C639.593 58.8979 639.629 58.6136 639.629 57.7962V50.6882L632.912 38.9245C632.485 38.2137 632.307 37.9649 631.845 37.6806L630.637 37.0053V36.4011H640.837V37.0053L638.669 37.7161C638.171 37.8938 637.923 38.3203 638.278 38.96L643.183 48.0938L648.016 38.9955C648.371 38.3203 648.123 37.8938 647.661 37.7161L645.351 37.0053V36.4011H653.169V37.0053Z" fill="#F5F9E9"/>
<path d="M518.41 109.391H513.558L507.213 100.006L512.972 93.3946C513.398 92.9147 513.158 92.5948 512.705 92.4349L511.106 91.8483V91.3951H517.771V91.8483L516.384 92.4615C516.038 92.6215 515.771 92.8348 515.371 93.3146L510.466 98.7533L516.704 107.631C516.997 108.031 517.264 108.271 517.611 108.484L518.41 108.964V109.391ZM508.893 109.391H501.081V108.964L502.788 108.404C503.161 108.271 503.188 108.058 503.188 107.444V93.368C503.188 92.7281 503.161 92.5148 502.788 92.4082L501.108 91.8483V91.3951H508.893V91.8483L507.187 92.4082C506.84 92.5148 506.787 92.7281 506.787 93.368V107.444C506.787 108.058 506.84 108.271 507.187 108.404L508.893 108.964V109.391ZM533.354 108.937L528.741 109.604L528.555 109.471L528.315 107.871H528.128C526.635 109.151 525.302 109.737 523.649 109.737C521.117 109.737 519.757 107.898 519.757 105.632V97.8202C519.757 97.2603 519.677 97.047 519.277 96.9671L517.704 96.6205V96.1673L522.796 95.4741L522.983 95.6074V104.832C522.983 106.591 523.969 107.738 525.649 107.738C526.502 107.738 527.328 107.364 528.022 106.805V97.8202C528.022 97.2603 527.968 97.047 527.568 96.9671L525.995 96.6205V96.1673L531.061 95.4741L531.247 95.6074V106.191L531.381 107.258C531.461 107.818 531.461 108.031 531.861 108.138L533.354 108.484V108.937ZM549.605 109.391H542.567V108.991L544.113 108.458C544.433 108.351 544.486 108.164 544.486 107.604V100.273C544.486 98.4867 543.447 97.3403 541.687 97.3403C540.781 97.3403 539.848 97.6869 539.128 98.2467V107.604C539.128 108.191 539.181 108.351 539.501 108.458L541.047 108.991V109.391H534.009V108.991L535.555 108.458C535.875 108.351 535.902 108.164 535.902 107.604V98.8599L535.769 97.8202C535.689 97.2603 535.689 97.047 535.289 96.9671L533.796 96.6205V96.1673L538.408 95.4741L538.595 95.6074L538.861 97.1803H539.048C540.567 95.9007 541.954 95.3675 543.66 95.3675C546.299 95.3675 547.712 97.1537 547.712 99.4731V107.604C547.712 108.191 547.739 108.351 548.059 108.458L549.605 108.991V109.391ZM571.208 101.873C571.208 106.431 568.462 109.684 563.743 109.684C561.77 109.684 559.744 109.177 558.571 108.777V91.9816C558.571 91.4218 558.491 91.2085 558.091 91.1285L556.518 90.7819V90.3287L561.61 89.6356L561.797 89.7689V97.3403H561.85C563.13 96.2739 564.383 95.6341 566.142 95.6341C569.555 95.6341 571.208 98.8066 571.208 101.873ZM567.955 103.552C567.955 101.073 566.889 97.7402 563.983 97.7402C563.157 97.7402 562.383 98.0601 561.797 98.54V107.125C562.25 107.684 563.316 108.298 564.543 108.298C567.156 108.298 567.955 105.792 567.955 103.552ZM586.957 102.246C586.957 106.538 584.104 109.817 579.812 109.817C575.626 109.817 573.12 107.071 573.12 102.832C573.12 98.7799 575.706 95.2608 580.238 95.2608C584.584 95.2608 586.957 98.1668 586.957 102.246ZM583.438 103.792C583.438 101.446 582.504 96.3539 579.572 96.3539C577.332 96.3539 576.639 98.7 576.639 101.259C576.639 103.659 577.519 108.724 580.372 108.724C582.691 108.724 583.438 106.325 583.438 103.792ZM601.574 97.5536H599.441C599.708 98.0068 599.894 98.7 599.894 99.4198C599.894 102.192 597.442 103.845 594.509 103.845C593.629 103.845 592.83 103.739 592.163 103.499L591.47 103.979C591.07 104.272 590.697 104.672 590.697 105.178C590.697 105.978 591.497 106.511 592.99 106.511H596.722C599.015 106.511 601.067 107.311 601.067 109.897C601.067 113.203 597.308 114.909 594.056 114.909C592.11 114.909 588.244 114.349 588.244 111.763C588.244 110.697 589.177 109.657 590.883 109.071V108.964C589.444 108.804 588.431 107.658 588.431 106.511C588.431 105.392 589.257 104.485 590.11 103.872L591.23 103.046C590.084 102.326 589.444 101.153 589.444 99.6864C589.444 97.047 591.71 95.2608 594.829 95.2608C596.322 95.2608 597.495 95.6341 598.135 96.0873H601.574V97.5536ZM596.935 100.14C596.909 98.7266 596.242 96.2739 594.456 96.2739C592.99 96.2739 592.403 97.6069 592.403 98.9932C592.403 100.406 593.069 102.832 594.882 102.832C596.349 102.832 596.935 101.499 596.935 100.14ZM598.721 111.097C598.721 109.711 597.628 109.284 596.295 109.284H592.083C591.39 109.524 590.643 110.11 590.617 111.044C590.59 112.75 592.776 113.523 594.776 113.523C596.909 113.523 598.721 112.696 598.721 111.097Z" fill="#F5F9E9"/>
<line x1="174.5" y1="3.16504" x2="174.5" y2="355.165" stroke="#FBFDF7" stroke-dasharray="2 2"/>
<line x1="908.5" y1="3.16504" x2="908.5" y2="355.165" stroke="#FBFDF7"/>
<path d="M966.232 79.1902V78.0529L969.288 77.3421C969.822 77.1999 970.141 76.7379 970.141 75.8494V70.9449H950.594C949.777 70.9449 949.457 70.9804 949.315 71.478L948.569 73.8947H948V63.1616H948.569L949.315 65.6139C949.457 66.0759 949.777 66.147 950.594 66.147H970.141V61.1714C970.141 60.2829 969.822 59.8209 969.288 59.7142L966.232 58.9679V57.8306H971.99V79.1902H966.232ZM948 104.042V97.609L960.226 88.8662V89.7902C960.226 92.8822 961.683 95.4056 965.415 95.4056C969.502 95.4056 970.39 92.9888 970.39 89.6836V88.0132H950.594C949.777 88.0132 949.493 88.0843 949.315 88.5463L948.569 90.8209H948V80.4077H948.569L949.315 82.7178C949.493 83.1798 949.777 83.2153 950.594 83.2153H969.36C970.213 83.2153 970.497 83.1798 970.639 82.7178L971.385 80.4432H971.99V91.7094C971.99 96.1164 970.923 100.488 966.125 100.488C962.429 100.488 960.546 97.5735 959.906 94.5881L950.346 101.767C949.813 102.194 949.457 102.514 949.173 103.011L948.569 104.042H948ZM971.385 125.028L970.71 123.819C970.426 123.322 970.141 123.108 969.395 122.682L957.951 116.285H950.594C949.777 116.285 949.493 116.32 949.315 116.818L948.569 119.057H948V108.679H948.569L949.315 110.954C949.493 111.451 949.777 111.487 950.594 111.487H957.702L969.466 104.77C970.177 104.343 970.426 104.166 970.71 103.704L971.385 102.495H971.99V112.695H971.385L970.675 110.527C970.497 110.03 970.07 109.781 969.431 110.136L960.297 115.041L969.395 119.874C970.07 120.23 970.497 119.981 970.675 119.519L971.385 117.209H971.99V125.028H971.385ZM948 149.148V142.68L960.51 134.222L969.324 141.898C969.964 142.467 970.39 142.147 970.603 141.543L971.385 139.41H971.99V148.295H971.385L970.568 146.447C970.355 145.985 970.07 145.63 969.431 145.097L962.18 138.558L950.346 146.874C949.813 147.265 949.493 147.62 949.208 148.082L948.569 149.148H948ZM948 136.461V126.047H948.569L949.315 128.322C949.493 128.82 949.777 128.855 950.594 128.855H969.36C970.213 128.855 970.497 128.82 970.639 128.322L971.385 126.083H971.99V136.461H971.385L970.639 134.186C970.497 133.724 970.213 133.653 969.36 133.653H950.594C949.777 133.653 949.493 133.724 949.315 134.186L948.569 136.461H948ZM965.628 179.452C959.195 179.452 957.311 173.233 957.311 168.257L958.911 168.186C958.946 171.349 960.617 174.405 964.81 174.405C968.791 174.405 970.39 172.166 970.39 168.719V166.729H950.701C949.848 166.729 949.528 166.8 949.386 167.297L948.569 170.425H948V159.123H948.569L949.351 161.433C949.493 161.931 949.777 161.931 950.63 161.931H969.36C970.213 161.931 970.497 161.895 970.639 161.433L971.385 159.159H971.99V170.141C971.99 173.73 971.634 179.452 965.628 179.452ZM948 202.895V192.979H948.569L949.315 195.183C949.457 195.716 949.777 195.929 950.559 195.645L955.854 193.797V184.983L950.594 182.957C949.813 182.673 949.457 182.921 949.315 183.419L948.569 185.622H948V178.052H948.569L949.279 179.19C949.564 179.652 949.848 179.901 950.594 180.22L972.523 189.07V192.553L950.523 200.762C949.777 201.047 949.564 201.26 949.279 201.722L948.569 202.895H948ZM957.774 193.121L965.45 190.42C966.445 190.065 967.44 189.71 968.293 189.674V189.532C967.618 189.461 966.552 189.07 965.379 188.608L957.774 185.658V193.121ZM976.787 194.756C974.833 194.756 973.127 193.264 973.127 190.74C973.127 188.288 974.477 187.009 976.468 187.009C978.458 187.009 980.164 188.501 980.164 191.025C980.164 193.477 978.778 194.756 976.787 194.756ZM976.254 192.375C977.356 192.375 978.991 191.842 978.991 190.598C978.991 189.674 978.102 189.39 977.072 189.39C975.934 189.39 974.335 189.887 974.335 191.131C974.335 192.091 975.224 192.375 976.254 192.375ZM948 244.157V233.886H948.569L949.315 236.125C949.493 236.623 949.777 236.658 950.594 236.658H964.988C965.877 236.658 967.049 236.658 967.902 236.694V236.516C967.44 236.374 966.303 235.947 964.846 235.343L948 228.662V226.387L964.775 219.741C965.77 219.35 966.694 218.959 967.583 218.782V218.568C967.121 218.604 966.41 218.604 964.633 218.604H950.666C949.813 218.604 949.528 218.675 949.351 219.173L948.569 221.767H948V213.166H948.569L949.315 215.441C949.493 215.938 949.777 215.974 950.594 215.974H969.288C970.106 215.974 970.39 215.938 970.568 215.441L971.385 213.024H971.99V221.66L956.459 227.524C955.144 228.022 954.362 228.306 953.26 228.448V228.555C954.184 228.733 955.072 229.088 956.387 229.586L971.99 235.805V244.157H971.385L970.639 241.883C970.461 241.421 970.177 241.349 969.36 241.349H950.594C949.777 241.349 949.493 241.421 949.315 241.883L948.569 244.157H948ZM948 256.654V246.241H948.569L949.315 248.516C949.493 249.013 949.777 249.049 950.594 249.049H969.36C970.213 249.049 970.497 249.013 970.639 248.516L971.385 246.277H971.99V256.654H971.385L970.639 254.38C970.497 253.918 970.213 253.847 969.36 253.847H950.594C949.777 253.847 949.493 253.918 949.315 254.38L948.569 256.654H948ZM958.093 284.143L957.347 281.868C957.169 281.371 956.885 281.335 956.068 281.335H948.889C947.858 278.207 947.467 274.973 947.467 271.704C947.467 263.494 952.158 258.838 959.977 258.838C968.08 258.838 972.629 265.058 972.629 272.983C972.629 275.791 972.309 278.634 971.421 281.228H966.303V280.056L968.436 279.38C968.969 279.238 969.288 278.883 969.573 278.279C970.248 276.893 970.71 275.187 970.71 273.054C970.71 266.835 966.303 264.134 960.51 264.134C954.291 264.134 949.279 266.337 949.279 272.557C949.279 274.12 949.706 275.578 950.168 276.608H955.925C956.778 276.608 957.098 276.537 957.24 276.075L958.058 272.876H958.698V284.143H958.093Z" fill="#F5F9E9"/>
<line x1="174" y1="298.5" x2="673" y2="298.5" stroke="#FBFDF7" stroke-dasharray="2 2"/>
<line x1="173" y1="132.5" x2="903" y2="132.5" stroke="#FBFDF7" stroke-dasharray="2 2"/>
<line x1="675.5" y1="136.391" x2="675.5" y2="354.391" stroke="#FBFDF7" stroke-dasharray="2 2"/>
<line x1="381.5" y1="136.391" x2="381.5" y2="296.391" stroke="#FBFDF7" stroke-dasharray="2 2"/>
</svg>
