<svg width="1102" height="368" viewBox="0 0 1102 368" fill="none" xmlns="http://www.w3.org/2000/svg">
<line x1="173.288" y1="143.829" x2="903.288" y2="143.829" stroke="#FBFDF7" stroke-dasharray="2 2"/>
<path d="M1099.69 48.5483V309.221C1053.28 309.221 1015.66 330.189 1015.66 356.049L86.3174 356.049C86.3174 330.189 48.6923 309.221 2.28809 309.221L2.28809 48.5483C48.6923 48.5483 86.3174 27.5804 86.3174 1.71988L1015.68 1.71988C1015.68 27.5804 1053.31 48.5483 1099.71 48.5483H1099.69Z" fill="#845352" stroke="#FBACBE" stroke-width="3" stroke-miterlimit="10"/>
<path d="M1099.69 48.5483V309.221C1053.28 309.221 1015.66 330.189 1015.66 356.049L86.3174 356.049C86.3174 330.189 48.6923 309.221 2.28809 309.221L2.28809 48.5483C48.6923 48.5483 86.3174 27.5804 86.3174 1.71988L1015.68 1.71988C1015.68 27.5804 1053.31 48.5483 1099.71 48.5483H1099.69Z" fill="#845352" stroke="#FBACBE" stroke-width="3" stroke-miterlimit="10"/>
<path d="M1099.69 48.5483V309.221C1053.28 309.221 1015.66 330.189 1015.66 356.049L86.3174 356.049C86.3174 330.189 48.6923 309.221 2.28809 309.221L2.28809 48.5483C48.6923 48.5483 86.3174 27.5804 86.3174 1.71988L1015.68 1.71988C1015.68 27.5804 1053.31 48.5483 1099.71 48.5483H1099.69Z" fill="#845352" stroke="#FBACBE" stroke-width="3" stroke-miterlimit="10"/>
<path d="M415.71 169.85C415.71 171.19 414.61 172.31 413.27 172.31C411.93 172.31 410.87 171.19 410.87 169.85C410.87 168.51 411.95 167.43 413.31 167.43C414.65 167.43 415.71 168.51 415.71 169.85ZM438.168 172.09C438.168 175.01 435.648 176.39 433.028 176.39C431.928 176.39 430.468 176.15 429.588 175.71V172.85H430.188L430.548 174.27C430.608 174.53 430.728 174.63 431.088 174.85C431.508 175.11 432.388 175.39 433.328 175.39C434.848 175.39 436.308 174.59 436.308 172.91C436.308 171.47 435.068 170.75 434.028 170.25L432.708 169.63C431.068 168.85 429.588 167.97 429.588 166.05C429.588 164.09 431.308 162.27 434.008 162.27C434.288 162.27 436.008 162.21 437.428 162.89V165.69H436.868L436.488 164.29C436.408 164.03 436.228 163.87 435.928 163.71C435.288 163.37 434.688 163.21 433.948 163.21C432.768 163.21 431.348 163.79 431.348 165.33C431.348 166.51 432.228 167.09 433.748 167.79L435.048 168.39C436.748 169.17 438.168 170.13 438.168 172.09ZM450.066 170.31C450.066 173.29 448.326 176.13 444.926 176.13C444.286 176.13 443.506 176.01 442.906 175.77V178.73C442.906 179.15 442.926 179.33 443.166 179.39L445.086 179.83V180.07H439.526V179.81L440.866 179.41C441.106 179.33 441.126 179.17 441.126 178.75V168.23L441.026 167.45C440.966 167.03 440.966 166.87 440.666 166.81L439.366 166.57V166.27L442.386 165.75L442.526 165.85L442.766 167.11H442.906C443.926 166.25 444.926 165.65 446.366 165.65C448.906 165.65 450.066 168.09 450.066 170.31ZM448.286 171.53C448.286 169.39 447.346 167.07 444.986 167.07C444.166 167.07 443.446 167.37 442.906 167.79V174.21C443.186 174.63 444.066 175.19 445.306 175.19C447.406 175.19 448.286 173.43 448.286 171.53ZM459.963 174.09C458.703 175.39 457.723 176.39 455.743 176.39C452.963 176.39 451.503 173.97 451.503 171.37C451.503 168.43 453.123 165.57 456.323 165.57C458.843 165.57 459.883 167.69 459.883 169.77V170.13H453.003C453.063 173.75 455.283 174.59 456.823 174.59C458.063 174.59 459.063 174.21 459.723 173.73L459.963 174.09ZM457.983 169.15C458.043 167.75 457.103 166.45 455.523 166.45C454.143 166.45 453.103 167.79 453.003 169.31H455.643L457.983 169.15ZM469.244 174.09C468.164 175.29 467.224 176.39 465.444 176.39C462.744 176.39 461.484 173.55 461.484 171.21C461.484 168.41 463.364 165.63 466.324 165.63C466.984 165.63 468.864 165.83 468.864 166.67C468.864 166.89 468.744 167.17 468.644 167.37L468.124 168.37H467.864C467.484 167.39 466.784 166.65 465.584 166.65C464.164 166.65 463.124 168.15 463.124 170.19C463.124 173.23 464.684 174.61 466.424 174.61C467.584 174.61 468.444 174.09 468.924 173.71L469.244 174.09ZM474.227 162.39C474.227 163.07 473.727 163.67 472.947 163.67C472.227 163.67 471.787 163.19 471.787 162.51C471.787 161.83 472.267 161.25 473.047 161.25C473.767 161.25 474.227 161.71 474.227 162.39ZM475.447 176.11H470.467V175.85L471.807 175.45C472.047 175.37 472.067 175.23 472.067 174.81V167.45C472.067 167.03 472.027 166.87 471.727 166.81L470.307 166.57V166.27L473.707 165.75L473.847 165.85V174.81C473.847 175.23 473.867 175.37 474.107 175.45L475.447 175.85V176.11ZM485.89 175.73L482.81 176.23L482.69 176.11L482.55 174.71H482.43C481.43 175.53 480.65 176.33 479.13 176.33C477.65 176.33 476.57 175.27 476.57 173.87C476.57 171.55 478.39 170.81 482.31 169.97V168.81C482.31 167.25 481.15 166.69 479.81 166.69C478.79 166.69 478.49 166.99 478.49 167.59V168.55L478.37 168.65H477.69C477.27 168.65 477.13 168.39 477.13 168.09C477.13 167.47 477.85 166.79 478.33 166.45C479.01 165.97 479.91 165.63 480.95 165.63C483.25 165.63 484.03 167.07 484.03 169.29V173.75L484.13 174.51C484.19 174.93 484.19 175.11 484.49 175.17L485.89 175.43V175.73ZM482.31 174.23V170.73C479.15 171.29 478.39 172.15 478.39 173.19C478.39 174.21 479.23 174.89 480.23 174.89C481.01 174.89 481.87 174.65 482.31 174.23ZM491.248 176.11H486.268V175.85L487.608 175.45C487.848 175.37 487.868 175.23 487.868 174.81V162.97C487.868 162.55 487.808 162.41 487.508 162.35L486.108 162.11V161.81L489.508 161.29L489.648 161.39V174.83C489.648 175.25 489.668 175.37 489.908 175.45L491.248 175.85V176.11ZM505.588 174.09C504.328 175.39 503.348 176.39 501.368 176.39C498.588 176.39 497.128 173.97 497.128 171.37C497.128 168.43 498.748 165.57 501.948 165.57C504.468 165.57 505.508 167.69 505.508 169.77V170.13H498.628C498.688 173.75 500.908 174.59 502.448 174.59C503.688 174.59 504.688 174.21 505.348 173.73L505.588 174.09ZM503.608 169.15C503.668 167.75 502.728 166.45 501.148 166.45C499.768 166.45 498.728 167.79 498.628 169.31H501.268L503.608 169.15ZM517.629 175.73L514.609 176.23L514.469 176.11L514.269 174.87H514.129C513.109 175.73 512.149 176.33 510.749 176.33C508.149 176.33 507.109 173.55 507.109 171.61C507.109 168.63 508.769 165.85 512.149 165.85C512.789 165.85 513.529 165.97 514.129 166.21V162.97C514.129 162.55 514.089 162.39 513.789 162.35L512.329 162.11V161.81L515.769 161.29L515.909 161.39V173.75L515.989 174.53C516.029 174.95 516.049 175.11 516.349 175.17L517.629 175.43V175.73ZM514.129 174.19V167.77C513.849 167.35 513.009 166.79 511.789 166.79C509.709 166.79 508.889 168.49 508.889 170.39C508.889 172.35 509.749 174.91 512.129 174.91C512.929 174.91 513.589 174.61 514.129 174.19ZM521.864 162.39C521.864 163.07 521.364 163.67 520.584 163.67C519.864 163.67 519.424 163.19 519.424 162.51C519.424 161.83 519.904 161.25 520.684 161.25C521.404 161.25 521.864 161.71 521.864 162.39ZM523.084 176.11H518.104V175.85L519.444 175.45C519.684 175.37 519.704 175.23 519.704 174.81V167.45C519.704 167.03 519.664 166.87 519.364 166.81L517.944 166.57V166.27L521.344 165.75L521.484 165.85V174.81C521.484 175.23 521.504 175.37 521.744 175.45L523.084 175.85V176.11ZM530.247 174.87C529.647 175.45 528.767 176.33 527.507 176.33C525.947 176.33 525.027 175.07 525.027 173.33V167.25H523.387V166.23H525.107V164.11L526.767 163.15V166.23H529.647V167.25H526.767V173.03C526.767 174.39 527.407 175.03 528.427 175.03C529.047 175.03 529.607 174.75 529.947 174.47L530.247 174.87ZM534.617 162.39C534.617 163.07 534.117 163.67 533.337 163.67C532.617 163.67 532.177 163.19 532.177 162.51C532.177 161.83 532.657 161.25 533.437 161.25C534.157 161.25 534.617 161.71 534.617 162.39ZM535.837 176.11H530.857V175.85L532.197 175.45C532.437 175.37 532.457 175.23 532.457 174.81V167.45C532.457 167.03 532.417 166.87 532.117 166.81L530.697 166.57V166.27L534.097 165.75L534.237 165.85V174.81C534.237 175.23 534.257 175.37 534.497 175.45L535.837 175.85V176.11ZM546.541 170.75C546.541 173.81 544.521 176.43 541.381 176.43C538.461 176.43 536.621 174.39 536.621 171.29C536.621 168.23 538.621 165.57 541.781 165.57C544.701 165.57 546.541 167.67 546.541 170.75ZM544.521 171.77C544.521 169.87 543.601 166.35 541.241 166.35C539.301 166.35 538.641 168.25 538.641 170.15C538.641 172.17 539.521 175.65 541.821 175.65C543.881 175.65 544.521 173.65 544.521 171.77ZM558.678 176.11H553.698V175.85L555.038 175.45C555.278 175.37 555.298 175.23 555.298 174.81V169.27C555.298 167.83 554.418 166.95 553.038 166.95C552.238 166.95 551.378 167.27 550.738 167.79V174.83C550.738 175.25 550.758 175.37 550.998 175.45L552.338 175.85V176.11H547.358V175.85L548.698 175.45C548.938 175.37 548.958 175.23 548.958 174.81V168.23L548.858 167.45C548.798 167.03 548.798 166.87 548.498 166.81L547.198 166.57V166.27L550.218 165.75L550.358 165.85L550.598 167.11H550.738C552.038 165.99 553.078 165.65 554.218 165.65C556.318 165.65 557.078 167.19 557.078 168.75V174.83C557.078 175.25 557.098 175.37 557.338 175.45L558.678 175.85V176.11ZM572.854 174.09C571.594 175.39 570.614 176.39 568.634 176.39C565.854 176.39 564.394 173.97 564.394 171.37C564.394 168.43 566.014 165.57 569.214 165.57C571.734 165.57 572.774 167.69 572.774 169.77V170.13H565.894C565.954 173.75 568.174 174.59 569.714 174.59C570.954 174.59 571.954 174.21 572.614 173.73L572.854 174.09ZM570.874 169.15C570.934 167.75 569.994 166.45 568.414 166.45C567.034 166.45 565.994 167.79 565.894 169.31H568.534L570.874 169.15ZM585.474 176.11H580.494V175.85L581.834 175.45C582.074 175.37 582.094 175.23 582.094 174.81V169.27C582.094 167.83 581.214 166.95 579.834 166.95C579.034 166.95 578.174 167.27 577.534 167.79V174.83C577.534 175.25 577.554 175.37 577.794 175.45L579.134 175.85V176.11H574.154V175.85L575.494 175.45C575.734 175.37 575.754 175.23 575.754 174.81V168.23L575.654 167.45C575.594 167.03 575.594 166.87 575.294 166.81L573.994 166.57V166.27L577.014 165.75L577.154 165.85L577.394 167.11H577.534C578.834 165.99 579.874 165.65 581.014 165.65C583.114 165.65 583.874 167.19 583.874 168.75V174.83C583.874 175.25 583.894 175.37 584.134 175.45L585.474 175.85V176.11ZM595.753 167.27H594.153C594.333 167.55 594.493 168.11 594.493 168.65C594.493 170.77 592.473 171.91 590.533 171.91C589.913 171.91 589.353 171.85 588.873 171.67L588.153 172.21C587.833 172.45 587.553 172.77 587.553 173.15C587.553 173.81 588.193 174.15 589.353 174.15H592.133C593.793 174.15 595.293 174.73 595.293 176.61C595.293 178.77 592.913 180.25 590.293 180.25C588.773 180.25 585.973 179.83 585.973 177.81C585.973 176.97 586.633 176.25 588.053 175.57V175.51C586.973 175.47 586.133 174.67 586.133 173.85C586.133 173.19 586.593 172.63 587.113 172.25L588.273 171.39C587.373 170.87 586.853 169.95 586.853 168.85C586.853 166.71 588.853 165.57 590.813 165.57C591.953 165.57 592.893 165.95 593.213 166.23H595.753V167.27ZM592.613 169.15C592.593 167.93 591.913 166.29 590.513 166.29C589.313 166.29 588.733 167.23 588.733 168.35C588.733 169.59 589.433 171.21 590.853 171.21C592.053 171.21 592.633 170.27 592.613 169.15ZM593.793 177.25C593.793 176.07 592.933 175.73 591.913 175.73H588.693C588.153 175.97 587.533 176.43 587.513 177.21C587.473 178.65 589.173 179.29 590.733 179.29C592.373 179.29 593.793 178.59 593.793 177.25ZM604.768 174.09C603.508 175.39 602.528 176.39 600.548 176.39C597.768 176.39 596.308 173.97 596.308 171.37C596.308 168.43 597.928 165.57 601.128 165.57C603.648 165.57 604.688 167.69 604.688 169.77V170.13H597.808C597.868 173.75 600.088 174.59 601.628 174.59C602.868 174.59 603.868 174.21 604.528 173.73L604.768 174.09ZM602.788 169.15C602.848 167.75 601.908 166.45 600.328 166.45C598.948 166.45 597.908 167.79 597.808 169.31H600.448L602.788 169.15ZM611.209 176.11H606.229V175.85L607.569 175.45C607.809 175.37 607.829 175.23 607.829 174.81V162.97C607.829 162.55 607.769 162.41 607.469 162.35L606.069 162.11V161.81L609.469 161.29L609.609 161.39V174.83C609.609 175.25 609.629 175.37 609.869 175.45L611.209 175.85V176.11ZM618.472 173.09C618.472 174.69 617.152 176.33 614.932 176.33C614.192 176.33 613.092 176.15 612.392 175.79V173.07H612.912L613.152 174.21C613.252 174.65 613.232 174.81 613.512 174.99C613.832 175.19 614.392 175.43 615.092 175.43C616.072 175.43 617.092 174.81 617.092 173.77C617.092 172.51 615.852 172.05 614.512 171.39C613.232 170.75 612.272 170.01 612.272 168.55C612.272 167.07 613.472 165.63 615.452 165.63C615.972 165.63 616.932 165.69 617.812 166.11V168.57H617.292L617.092 167.51C617.052 167.25 616.972 167.11 616.772 166.95C616.472 166.73 615.872 166.51 615.272 166.51C614.252 166.51 613.592 167.11 613.592 167.85C613.592 168.83 614.532 169.29 616.212 170.07C617.652 170.73 618.472 171.59 618.472 173.09ZM629.47 176.11H626.95L623.07 170.41L626.07 167.41C626.37 167.11 626.31 166.79 625.99 166.69L624.67 166.27V166.03H629.31V166.29L628.35 166.69C628.13 166.79 627.87 166.91 627.57 167.21L624.71 170.01L628.33 174.97C628.57 175.31 628.75 175.43 628.97 175.55L629.47 175.85V176.11ZM624.33 176.11H619.35V175.85L620.69 175.45C620.93 175.37 620.95 175.23 620.95 174.81V162.97C620.95 162.55 620.89 162.41 620.59 162.35L619.19 162.11V161.81L622.59 161.29L622.73 161.39V174.83C622.73 175.25 622.75 175.37 622.99 175.45L624.33 175.85V176.11ZM645.372 170.51C645.372 173.49 643.632 176.33 640.232 176.33C638.712 176.33 637.212 175.91 636.432 175.63V162.97C636.432 162.55 636.372 162.41 636.072 162.35L634.672 162.11V161.81L638.072 161.29L638.212 161.39V167.31H638.252C639.232 166.47 640.232 165.85 641.672 165.85C644.212 165.85 645.372 168.29 645.372 170.51ZM643.592 171.73C643.592 169.59 642.652 167.27 640.292 167.27C639.472 167.27 638.752 167.57 638.212 167.99V174.41C638.492 174.83 639.372 175.39 640.612 175.39C642.712 175.39 643.592 173.63 643.592 171.73ZM656.716 170.75C656.716 173.81 654.696 176.43 651.556 176.43C648.636 176.43 646.796 174.39 646.796 171.29C646.796 168.23 648.796 165.57 651.956 165.57C654.876 165.57 656.716 167.67 656.716 170.75ZM654.696 171.77C654.696 169.87 653.776 166.35 651.416 166.35C649.476 166.35 648.816 168.25 648.816 170.15C648.816 172.17 649.696 175.65 651.996 175.65C654.056 175.65 654.696 173.65 654.696 171.77ZM667.609 167.27H666.009C666.189 167.55 666.349 168.11 666.349 168.65C666.349 170.77 664.329 171.91 662.389 171.91C661.769 171.91 661.209 171.85 660.729 171.67L660.009 172.21C659.689 172.45 659.409 172.77 659.409 173.15C659.409 173.81 660.049 174.15 661.209 174.15H663.989C665.649 174.15 667.149 174.73 667.149 176.61C667.149 178.77 664.769 180.25 662.149 180.25C660.629 180.25 657.829 179.83 657.829 177.81C657.829 176.97 658.489 176.25 659.909 175.57V175.51C658.829 175.47 657.989 174.67 657.989 173.85C657.989 173.19 658.449 172.63 658.969 172.25L660.129 171.39C659.229 170.87 658.709 169.95 658.709 168.85C658.709 166.71 660.709 165.57 662.669 165.57C663.809 165.57 664.749 165.95 665.069 166.23H667.609V167.27ZM664.469 169.15C664.449 167.93 663.769 166.29 662.369 166.29C661.169 166.29 660.589 167.23 660.589 168.35C660.589 169.59 661.289 171.21 662.709 171.21C663.909 171.21 664.489 170.27 664.469 169.15ZM665.649 177.25C665.649 176.07 664.789 175.73 663.769 175.73H660.549C660.009 175.97 659.389 176.43 659.369 177.21C659.329 178.65 661.029 179.29 662.589 179.29C664.229 179.29 665.649 178.59 665.649 177.25Z" fill="#F5F9E9"/>
<path d="M415.71 206.85C415.71 208.19 414.61 209.31 413.27 209.31C411.93 209.31 410.87 208.19 410.87 206.85C410.87 205.51 411.95 204.43 413.31 204.43C414.65 204.43 415.71 205.51 415.71 206.85ZM437.288 208.49C437.288 211.31 434.548 213.41 431.888 213.41C431.348 213.41 429.348 213.29 429.348 212.47C429.348 212.31 429.408 212.13 429.568 211.93L430.028 211.33H430.228C430.748 212.11 431.708 212.43 432.608 212.43C434.368 212.43 435.668 211.13 435.668 209.45C435.668 206.97 433.508 206.59 431.548 206.59H430.468V205.59H431.228C432.928 205.59 434.888 204.61 434.888 202.81C434.888 201.43 433.828 200.57 432.508 200.57C431.248 200.57 430.368 201.05 429.688 201.77L429.288 201.41C430.548 199.81 431.648 199.27 433.148 199.27C435.768 199.27 436.548 201.13 436.548 202.09C436.548 203.39 435.868 204.71 434.228 205.39C435.528 205.47 437.288 206.25 437.288 208.49ZM452.561 211.09C451.301 212.39 450.321 213.39 448.341 213.39C445.561 213.39 444.101 210.97 444.101 208.37C444.101 205.43 445.721 202.57 448.921 202.57C451.441 202.57 452.481 204.69 452.481 206.77V207.13H445.601C445.661 210.75 447.881 211.59 449.421 211.59C450.661 211.59 451.661 211.21 452.321 210.73L452.561 211.09ZM450.581 206.15C450.641 204.75 449.701 203.45 448.121 203.45C446.741 203.45 445.701 204.79 445.601 206.31H448.241L450.581 206.15ZM463.982 213.11H461.462L457.582 207.41L460.582 204.41C460.882 204.11 460.822 203.79 460.502 203.69L459.182 203.27V203.03H463.822V203.29L462.862 203.69C462.642 203.79 462.382 203.91 462.082 204.21L459.222 207.01L462.842 211.97C463.082 212.31 463.262 212.43 463.482 212.55L463.982 212.85V213.11ZM458.842 213.11H453.862V212.85L455.202 212.45C455.442 212.37 455.462 212.23 455.462 211.81V199.97C455.462 199.55 455.402 199.41 455.102 199.35L453.702 199.11V198.81L457.102 198.29L457.242 198.39V211.83C457.242 212.25 457.262 212.37 457.502 212.45L458.842 212.85V213.11ZM471.187 210.09C471.187 211.69 469.867 213.33 467.647 213.33C466.907 213.33 465.807 213.15 465.107 212.79V210.07H465.627L465.867 211.21C465.967 211.65 465.947 211.81 466.227 211.99C466.547 212.19 467.107 212.43 467.807 212.43C468.787 212.43 469.807 211.81 469.807 210.77C469.807 209.51 468.567 209.05 467.227 208.39C465.947 207.75 464.987 207.01 464.987 205.55C464.987 204.07 466.187 202.63 468.167 202.63C468.687 202.63 469.647 202.69 470.527 203.11V205.57H470.007L469.807 204.51C469.767 204.25 469.687 204.11 469.487 203.95C469.187 203.73 468.587 203.51 467.987 203.51C466.967 203.51 466.307 204.11 466.307 204.85C466.307 205.83 467.247 206.29 468.927 207.07C470.367 207.73 471.187 208.59 471.187 210.09ZM482.185 213.11H479.665L475.785 207.41L478.785 204.41C479.085 204.11 479.025 203.79 478.705 203.69L477.385 203.27V203.03H482.025V203.29L481.065 203.69C480.845 203.79 480.585 203.91 480.285 204.21L477.425 207.01L481.045 211.97C481.285 212.31 481.465 212.43 481.685 212.55L482.185 212.85V213.11ZM477.045 213.11H472.065V212.85L473.405 212.45C473.645 212.37 473.665 212.23 473.665 211.81V199.97C473.665 199.55 473.605 199.41 473.305 199.35L471.905 199.11V198.81L475.305 198.29L475.445 198.39V211.83C475.445 212.25 475.465 212.37 475.705 212.45L477.045 212.85V213.11ZM487.83 213.11H482.85V212.85L484.19 212.45C484.43 212.37 484.45 212.23 484.45 211.81V199.97C484.45 199.55 484.39 199.41 484.09 199.35L482.69 199.11V198.81L486.09 198.29L486.23 198.39V211.83C486.23 212.25 486.25 212.37 486.49 212.45L487.83 212.85V213.11ZM499.613 212.73L496.593 213.23L496.453 213.11L496.213 211.83H496.073C494.773 212.95 493.793 213.33 492.693 213.33C490.713 213.33 489.953 211.75 489.953 210.23V204.45C489.953 204.03 489.913 203.87 489.613 203.81L488.193 203.57V203.27L491.593 202.75L491.733 202.85V209.71C491.733 211.15 492.553 212.03 493.913 212.03C494.673 212.03 495.433 211.67 496.073 211.15V204.45C496.073 204.03 496.033 203.87 495.733 203.81L494.313 203.57V203.27L497.713 202.75L497.853 202.85V210.71L497.953 211.53C498.013 211.95 498.013 212.11 498.313 212.17L499.613 212.43V212.73ZM506.753 210.09C506.753 211.69 505.433 213.33 503.213 213.33C502.473 213.33 501.373 213.15 500.673 212.79V210.07H501.193L501.433 211.21C501.533 211.65 501.513 211.81 501.793 211.99C502.113 212.19 502.673 212.43 503.373 212.43C504.353 212.43 505.373 211.81 505.373 210.77C505.373 209.51 504.133 209.05 502.793 208.39C501.513 207.75 500.553 207.01 500.553 205.55C500.553 204.07 501.753 202.63 503.733 202.63C504.253 202.63 505.213 202.69 506.093 203.11V205.57H505.573L505.373 204.51C505.333 204.25 505.253 204.11 505.053 203.95C504.753 203.73 504.153 203.51 503.553 203.51C502.533 203.51 501.873 204.11 501.873 204.85C501.873 205.83 502.813 206.29 504.493 207.07C505.933 207.73 506.753 208.59 506.753 210.09ZM511.551 199.39C511.551 200.07 511.051 200.67 510.271 200.67C509.551 200.67 509.111 200.19 509.111 199.51C509.111 198.83 509.591 198.25 510.371 198.25C511.091 198.25 511.551 198.71 511.551 199.39ZM512.771 213.11H507.791V212.85L509.131 212.45C509.371 212.37 509.391 212.23 509.391 211.81V204.45C509.391 204.03 509.351 203.87 509.051 203.81L507.631 203.57V203.27L511.031 202.75L511.171 202.85V211.81C511.171 212.23 511.191 212.37 511.431 212.45L512.771 212.85V213.11ZM523.094 203.27L522.554 203.63C522.394 203.73 522.254 203.87 522.154 204.17L518.814 213.21H517.474L514.014 204.19C513.894 203.85 513.794 203.77 513.574 203.63L512.994 203.27V203.03H517.394V203.27L516.174 203.63C515.914 203.71 515.874 203.97 516.014 204.33L518.094 210.05C518.294 210.59 518.474 211.09 518.474 211.43H518.534C518.534 211.21 518.714 210.73 518.954 210.03L520.994 204.25C521.114 203.93 520.974 203.75 520.734 203.67L519.474 203.27V203.03H523.094V203.27ZM531.877 211.09C530.617 212.39 529.637 213.39 527.657 213.39C524.877 213.39 523.417 210.97 523.417 208.37C523.417 205.43 525.037 202.57 528.237 202.57C530.757 202.57 531.797 204.69 531.797 206.77V207.13H524.917C524.977 210.75 527.197 211.59 528.737 211.59C529.977 211.59 530.977 211.21 531.637 210.73L531.877 211.09ZM529.897 206.15C529.957 204.75 529.017 203.45 527.437 203.45C526.057 203.45 525.017 204.79 524.917 206.31H527.557L529.897 206.15ZM548.156 204.27H546.556C546.736 204.55 546.896 205.11 546.896 205.65C546.896 207.77 544.876 208.91 542.936 208.91C542.316 208.91 541.756 208.85 541.276 208.67L540.556 209.21C540.236 209.45 539.956 209.77 539.956 210.15C539.956 210.81 540.596 211.15 541.756 211.15H544.536C546.196 211.15 547.696 211.73 547.696 213.61C547.696 215.77 545.316 217.25 542.696 217.25C541.176 217.25 538.376 216.83 538.376 214.81C538.376 213.97 539.036 213.25 540.456 212.57V212.51C539.376 212.47 538.536 211.67 538.536 210.85C538.536 210.19 538.996 209.63 539.516 209.25L540.676 208.39C539.776 207.87 539.256 206.95 539.256 205.85C539.256 203.71 541.256 202.57 543.216 202.57C544.356 202.57 545.296 202.95 545.616 203.23H548.156V204.27ZM545.016 206.15C544.996 204.93 544.316 203.29 542.916 203.29C541.716 203.29 541.136 204.23 541.136 205.35C541.136 206.59 541.836 208.21 543.256 208.21C544.456 208.21 545.036 207.27 545.016 206.15ZM546.196 214.25C546.196 213.07 545.336 212.73 544.316 212.73H541.096C540.556 212.97 539.936 213.43 539.916 214.21C539.876 215.65 541.576 216.29 543.136 216.29C544.776 216.29 546.196 215.59 546.196 214.25ZM558.37 212.73L555.29 213.23L555.17 213.11L555.03 211.71H554.91C553.91 212.53 553.13 213.33 551.61 213.33C550.13 213.33 549.05 212.27 549.05 210.87C549.05 208.55 550.87 207.81 554.79 206.97V205.81C554.79 204.25 553.63 203.69 552.29 203.69C551.27 203.69 550.97 203.99 550.97 204.59V205.55L550.85 205.65H550.17C549.75 205.65 549.61 205.39 549.61 205.09C549.61 204.47 550.33 203.79 550.81 203.45C551.49 202.97 552.39 202.63 553.43 202.63C555.73 202.63 556.51 204.07 556.51 206.29V210.75L556.61 211.51C556.67 211.93 556.67 212.11 556.97 212.17L558.37 212.43V212.73ZM554.79 211.23V207.73C551.63 208.29 550.87 209.15 550.87 210.19C550.87 211.21 551.71 211.89 552.71 211.89C553.49 211.89 554.35 211.65 554.79 211.23ZM567.743 203.27L567.203 203.63C567.043 203.73 566.903 203.87 566.803 204.17L563.463 213.21H562.123L558.663 204.19C558.543 203.85 558.443 203.77 558.223 203.63L557.643 203.27V203.03H562.043V203.27L560.823 203.63C560.563 203.71 560.523 203.97 560.663 204.33L562.743 210.05C562.943 210.59 563.123 211.09 563.123 211.43H563.183C563.183 211.21 563.363 210.73 563.603 210.03L565.643 204.25C565.763 203.93 565.623 203.75 565.383 203.67L564.123 203.27V203.03H567.743V203.27ZM576.526 211.09C575.266 212.39 574.286 213.39 572.306 213.39C569.526 213.39 568.066 210.97 568.066 208.37C568.066 205.43 569.686 202.57 572.886 202.57C575.406 202.57 576.446 204.69 576.446 206.77V207.13H569.566C569.626 210.75 571.846 211.59 573.386 211.59C574.626 211.59 575.626 211.21 576.286 210.73L576.526 211.09ZM574.546 206.15C574.606 204.75 573.666 203.45 572.086 203.45C570.706 203.45 569.666 204.79 569.566 206.31H572.206L574.546 206.15ZM585.106 203.43C585.106 203.65 585.026 203.89 584.926 204.13L584.486 205.15H584.226C583.946 204.53 583.386 204.29 582.846 204.29C582.366 204.29 581.866 204.49 581.246 205.01V211.77C581.246 212.19 581.266 212.35 581.506 212.41L583.426 212.85V213.11H577.866V212.85L579.206 212.45C579.446 212.37 579.466 212.23 579.466 211.81V205.37L579.366 204.45C579.326 204.03 579.306 203.87 579.006 203.81L577.666 203.57V203.27L580.726 202.75L580.886 202.85L581.066 204.33H581.166C582.026 203.51 582.826 202.65 584.106 202.65C584.606 202.65 585.106 202.81 585.106 203.43Z" fill="#F5F9E9"/>
<path d="M415.71 243.85C415.71 245.19 414.61 246.31 413.27 246.31C411.93 246.31 410.87 245.19 410.87 243.85C410.87 242.51 411.95 241.43 413.31 241.43C414.65 241.43 415.71 242.51 415.71 243.85ZM434.508 250.11H428.908V249.83L430.388 249.41C430.648 249.33 430.688 249.15 430.688 248.69V238.03C430.688 237.57 430.648 237.39 430.388 237.31L428.928 236.89V236.61H434.528V236.89L433.048 237.31C432.788 237.39 432.748 237.57 432.748 238.03V248.69C432.748 249.15 432.788 249.33 433.048 249.41L434.508 249.83V250.11ZM446.764 250.11H441.784V249.85L443.124 249.45C443.364 249.37 443.384 249.23 443.384 248.81V243.27C443.384 241.83 442.504 240.95 441.124 240.95C440.324 240.95 439.464 241.27 438.824 241.79V248.83C438.824 249.25 438.844 249.37 439.084 249.45L440.424 249.85V250.11H435.444V249.85L436.784 249.45C437.024 249.37 437.044 249.23 437.044 248.81V242.23L436.944 241.45C436.884 241.03 436.884 240.87 436.584 240.81L435.284 240.57V240.27L438.304 239.75L438.444 239.85L438.684 241.11H438.824C440.124 239.99 441.164 239.65 442.304 239.65C444.404 239.65 445.164 241.19 445.164 242.75V248.83C445.164 249.25 445.184 249.37 445.424 249.45L446.764 249.85V250.11ZM457.042 241.27H455.442C455.622 241.55 455.782 242.11 455.782 242.65C455.782 244.77 453.762 245.91 451.822 245.91C451.202 245.91 450.642 245.85 450.162 245.67L449.442 246.21C449.122 246.45 448.842 246.77 448.842 247.15C448.842 247.81 449.482 248.15 450.642 248.15H453.422C455.082 248.15 456.582 248.73 456.582 250.61C456.582 252.77 454.202 254.25 451.582 254.25C450.062 254.25 447.262 253.83 447.262 251.81C447.262 250.97 447.922 250.25 449.342 249.57V249.51C448.262 249.47 447.422 248.67 447.422 247.85C447.422 247.19 447.882 246.63 448.402 246.25L449.562 245.39C448.662 244.87 448.142 243.95 448.142 242.85C448.142 240.71 450.142 239.57 452.102 239.57C453.242 239.57 454.182 239.95 454.502 240.23H457.042V241.27ZM453.902 243.15C453.882 241.93 453.202 240.29 451.802 240.29C450.602 240.29 450.022 241.23 450.022 242.35C450.022 243.59 450.722 245.21 452.142 245.21C453.342 245.21 453.922 244.27 453.902 243.15ZM455.082 251.25C455.082 250.07 454.222 249.73 453.202 249.73H449.982C449.442 249.97 448.822 250.43 448.802 251.21C448.762 252.65 450.462 253.29 452.022 253.29C453.662 253.29 455.082 252.59 455.082 251.25ZM466.057 248.09C464.797 249.39 463.817 250.39 461.837 250.39C459.057 250.39 457.597 247.97 457.597 245.37C457.597 242.43 459.217 239.57 462.417 239.57C464.937 239.57 465.977 241.69 465.977 243.77V244.13H459.097C459.157 247.75 461.377 248.59 462.917 248.59C464.157 248.59 465.157 248.21 465.817 247.73L466.057 248.09ZM464.077 243.15C464.137 241.75 463.197 240.45 461.617 240.45C460.237 240.45 459.197 241.79 459.097 243.31H461.737L464.077 243.15ZM478.678 250.11H473.698V249.85L475.038 249.45C475.278 249.37 475.298 249.23 475.298 248.81V243.27C475.298 241.83 474.418 240.95 473.038 240.95C472.238 240.95 471.378 241.27 470.738 241.79V248.83C470.738 249.25 470.758 249.37 470.998 249.45L472.338 249.85V250.11H467.358V249.85L468.698 249.45C468.938 249.37 468.958 249.23 468.958 248.81V242.23L468.858 241.45C468.798 241.03 468.798 240.87 468.498 240.81L467.198 240.57V240.27L470.218 239.75L470.358 239.85L470.598 241.11H470.738C472.038 239.99 473.078 239.65 474.218 239.65C476.318 239.65 477.078 241.19 477.078 242.75V248.83C477.078 249.25 477.098 249.37 477.338 249.45L478.678 249.85V250.11ZM494.474 244.51C494.474 247.49 492.734 250.33 489.334 250.33C487.814 250.33 486.314 249.91 485.534 249.63V236.97C485.534 236.55 485.474 236.41 485.174 236.35L483.774 236.11V235.81L487.174 235.29L487.314 235.39V241.31H487.354C488.334 240.47 489.334 239.85 490.774 239.85C493.314 239.85 494.474 242.29 494.474 244.51ZM492.694 245.73C492.694 243.59 491.754 241.27 489.394 241.27C488.574 241.27 487.854 241.57 487.314 241.99V248.41C487.594 248.83 488.474 249.39 489.714 249.39C491.814 249.39 492.694 247.63 492.694 245.73ZM499.207 236.39C499.207 237.07 498.707 237.67 497.927 237.67C497.207 237.67 496.767 237.19 496.767 236.51C496.767 235.83 497.247 235.25 498.027 235.25C498.747 235.25 499.207 235.71 499.207 236.39ZM500.427 250.11H495.447V249.85L496.787 249.45C497.027 249.37 497.047 249.23 497.047 248.81V241.45C497.047 241.03 497.007 240.87 496.707 240.81L495.287 240.57V240.27L498.687 239.75L498.827 239.85V248.81C498.827 249.23 498.847 249.37 499.087 249.45L500.427 249.85V250.11ZM512.31 250.11H507.33V249.85L508.67 249.45C508.91 249.37 508.93 249.23 508.93 248.81V243.27C508.93 241.83 508.05 240.95 506.67 240.95C505.87 240.95 505.01 241.27 504.37 241.79V248.83C504.37 249.25 504.39 249.37 504.63 249.45L505.97 249.85V250.11H500.99V249.85L502.33 249.45C502.57 249.37 502.59 249.23 502.59 248.81V242.23L502.49 241.45C502.43 241.03 502.43 240.87 502.13 240.81L500.83 240.57V240.27L503.85 239.75L503.99 239.85L504.23 241.11H504.37C505.67 239.99 506.71 239.65 507.85 239.65C509.95 239.65 510.71 241.19 510.71 242.75V248.83C510.71 249.25 510.73 249.37 510.97 249.45L512.31 249.85V250.11ZM523.449 249.73L520.429 250.23L520.289 250.11L520.089 248.87H519.949C518.929 249.73 517.969 250.33 516.569 250.33C513.969 250.33 512.929 247.55 512.929 245.61C512.929 242.63 514.589 239.85 517.969 239.85C518.609 239.85 519.349 239.97 519.949 240.21V236.97C519.949 236.55 519.909 236.39 519.609 236.35L518.149 236.11V235.81L521.589 235.29L521.729 235.39V247.75L521.809 248.53C521.849 248.95 521.869 249.11 522.169 249.17L523.449 249.43V249.73ZM519.949 248.19V241.77C519.669 241.35 518.829 240.79 517.609 240.79C515.529 240.79 514.709 242.49 514.709 244.39C514.709 246.35 515.569 248.91 517.949 248.91C518.749 248.91 519.409 248.61 519.949 248.19ZM527.684 236.39C527.684 237.07 527.184 237.67 526.404 237.67C525.684 237.67 525.244 237.19 525.244 236.51C525.244 235.83 525.724 235.25 526.504 235.25C527.224 235.25 527.684 235.71 527.684 236.39ZM528.904 250.11H523.924V249.85L525.264 249.45C525.504 249.37 525.524 249.23 525.524 248.81V241.45C525.524 241.03 525.484 240.87 525.184 240.81L523.764 240.57V240.27L527.164 239.75L527.304 239.85V248.81C527.304 249.23 527.324 249.37 527.564 249.45L528.904 249.85V250.11ZM540.787 250.11H535.807V249.85L537.147 249.45C537.387 249.37 537.407 249.23 537.407 248.81V243.27C537.407 241.83 536.527 240.95 535.147 240.95C534.347 240.95 533.487 241.27 532.847 241.79V248.83C532.847 249.25 532.867 249.37 533.107 249.45L534.447 249.85V250.11H529.467V249.85L530.807 249.45C531.047 249.37 531.067 249.23 531.067 248.81V242.23L530.967 241.45C530.907 241.03 530.907 240.87 530.607 240.81L529.307 240.57V240.27L532.327 239.75L532.467 239.85L532.707 241.11H532.847C534.147 239.99 535.187 239.65 536.327 239.65C538.427 239.65 539.187 241.19 539.187 242.75V248.83C539.187 249.25 539.207 249.37 539.447 249.45L540.787 249.85V250.11ZM551.066 241.27H549.466C549.646 241.55 549.806 242.11 549.806 242.65C549.806 244.77 547.786 245.91 545.846 245.91C545.226 245.91 544.666 245.85 544.186 245.67L543.466 246.21C543.146 246.45 542.866 246.77 542.866 247.15C542.866 247.81 543.506 248.15 544.666 248.15H547.446C549.106 248.15 550.606 248.73 550.606 250.61C550.606 252.77 548.226 254.25 545.606 254.25C544.086 254.25 541.286 253.83 541.286 251.81C541.286 250.97 541.946 250.25 543.366 249.57V249.51C542.286 249.47 541.446 248.67 541.446 247.85C541.446 247.19 541.906 246.63 542.426 246.25L543.586 245.39C542.686 244.87 542.166 243.95 542.166 242.85C542.166 240.71 544.166 239.57 546.126 239.57C547.266 239.57 548.206 239.95 548.526 240.23H551.066V241.27ZM547.926 243.15C547.906 241.93 547.226 240.29 545.826 240.29C544.626 240.29 544.046 241.23 544.046 242.35C544.046 243.59 544.746 245.21 546.166 245.21C547.366 245.21 547.946 244.27 547.926 243.15ZM549.106 251.25C549.106 250.07 548.246 249.73 547.226 249.73H544.006C543.466 249.97 542.846 250.43 542.826 251.21C542.786 252.65 544.486 253.29 546.046 253.29C547.686 253.29 549.106 252.59 549.106 251.25Z" fill="#F5F9E9"/>
<path d="M707.362 180.901C707.362 185.983 702.493 189.644 697.695 189.644C696.238 189.644 692.862 189.43 692.862 187.76C692.862 187.476 692.933 187.156 693.146 186.836L693.857 185.379H694.39C695.03 186.872 696.771 187.831 698.477 187.831C701.285 187.831 703.417 185.699 703.417 182.678C703.417 178.484 700.041 177.667 696.593 177.667H694.781V175.641H696.273C699.081 175.641 701.995 174.113 701.995 171.056C701.995 168.746 700.183 167.182 697.908 167.182C696.06 167.182 694.532 167.929 693.466 169.03L692.648 168.213C694.781 165.583 696.984 164.517 699.863 164.517C703.737 164.517 706.047 167.182 706.047 169.706C706.047 172.158 704.234 174.361 701.604 175.357C703.879 175.428 707.362 176.991 707.362 180.901ZM726.687 176.494C726.687 184.206 723.311 189.679 718.051 189.679C713.147 189.679 710.055 185.237 710.055 177.702C710.055 169.955 713.395 164.446 718.691 164.446C723.595 164.446 726.687 168.924 726.687 176.494ZM722.209 178.946C722.209 173.793 721.179 166.045 717.909 166.045C715.279 166.045 714.533 170.061 714.533 175.108C714.533 180.332 715.528 188.08 718.726 188.08C721.498 188.08 722.209 183.851 722.209 178.946ZM744.342 173.651C744.342 182.358 738.763 189.004 731.441 189.573L731.228 188.187C736.346 187.511 739.473 182.5 739.864 177.205C738.443 178.413 736.772 179.266 734.889 179.266C731.193 179.266 728.776 176.245 728.776 172.478C728.776 167.822 732.152 164.446 736.701 164.446C741.25 164.446 744.342 167.929 744.342 173.651ZM739.971 173.58C739.971 169.706 738.798 166.116 736.204 166.116C734.213 166.116 732.934 167.929 732.934 171.376C732.934 174.113 734.32 176.814 736.737 176.814C737.945 176.814 739.047 176.387 739.971 175.676C740.007 175.179 739.971 174.148 739.971 173.58ZM752.828 186.267C752.828 187.76 751.655 189.111 749.914 189.111C748.279 189.111 747.319 188.044 747.319 186.552C747.319 185.023 748.386 183.744 750.163 183.744C751.762 183.744 752.828 184.775 752.828 186.267ZM771.98 176.494C771.98 184.206 768.604 189.679 763.344 189.679C758.439 189.679 755.347 185.237 755.347 177.702C755.347 169.955 758.688 164.446 763.984 164.446C768.888 164.446 771.98 168.924 771.98 176.494ZM767.502 178.946C767.502 173.793 766.471 166.045 763.202 166.045C760.572 166.045 759.825 170.061 759.825 175.108C759.825 180.332 760.82 188.08 764.019 188.08C766.791 188.08 767.502 183.851 767.502 178.946ZM790.097 176.494C790.097 184.206 786.721 189.679 781.461 189.679C776.556 189.679 773.464 185.237 773.464 177.702C773.464 169.955 776.805 164.446 782.101 164.446C787.005 164.446 790.097 168.924 790.097 176.494ZM785.619 178.946C785.619 173.793 784.588 166.045 781.319 166.045C778.689 166.045 777.942 170.061 777.942 175.108C777.942 180.332 778.938 188.08 782.136 188.08C784.908 188.08 785.619 183.851 785.619 178.946ZM826.478 176.529C826.478 184.064 820.685 189.111 812.546 189.111H800.853V188.542L803.128 187.796C803.625 187.618 803.661 187.334 803.661 186.516V167.751C803.661 166.898 803.625 166.614 803.128 166.472L800.889 165.725V165.121H813.434C821.004 165.121 826.478 168.178 826.478 176.529ZM821.147 176.956C821.147 170.843 818.517 166.934 812.795 166.934H808.459V186.125C808.459 187.049 808.956 187.298 809.596 187.298H812.226C816.669 187.298 821.147 184.633 821.147 176.956ZM851.581 189.111H845.113L836.654 176.601L844.331 167.787C844.899 167.147 844.58 166.72 843.975 166.507L841.843 165.725V165.121H850.728V165.725L848.88 166.543C848.418 166.756 848.063 167.04 847.529 167.68L840.99 174.93L849.306 186.765C849.697 187.298 850.053 187.618 850.515 187.902L851.581 188.542V189.111ZM838.893 189.111H828.48V188.542L830.755 187.796C831.252 187.618 831.288 187.334 831.288 186.516V167.751C831.288 166.898 831.252 166.614 830.755 166.472L828.516 165.725V165.121H838.893V165.725L836.619 166.472C836.157 166.614 836.086 166.898 836.086 167.751V186.516C836.086 187.334 836.157 187.618 836.619 187.796L838.893 188.542V189.111ZM875.598 189.111H869.13L860.671 176.601L868.348 167.787C868.917 167.147 868.597 166.72 867.993 166.507L865.86 165.725V165.121H874.745V165.725L872.897 166.543C872.435 166.756 872.08 167.04 871.547 167.68L865.007 174.93L873.324 186.765C873.715 187.298 874.07 187.618 874.532 187.902L875.598 188.542V189.111ZM862.91 189.111H852.497V188.542L854.772 187.796C855.269 187.618 855.305 187.334 855.305 186.516V167.751C855.305 166.898 855.269 166.614 854.772 166.472L852.533 165.725V165.121H862.91V165.725L860.636 166.472C860.174 166.614 860.103 166.898 860.103 167.751V186.516C860.103 187.334 860.174 187.618 860.636 187.796L862.91 188.542V189.111ZM886.324 162.1L876.266 193.091L873.814 192.309L883.907 161.354L886.324 162.1Z" fill="#F5F9E9"/>
<path d="M752.526 231.651L751.046 232.091C750.786 232.171 750.746 232.351 750.746 232.811V236.611C748.906 237.191 747.346 237.391 745.466 237.391C741.086 237.391 738.386 234.751 738.386 230.331C738.386 226.011 741.406 223.231 746.046 223.231C747.626 223.231 749.186 223.391 750.686 223.911V226.631H750.126L749.766 225.511C749.686 225.251 749.586 225.111 749.206 224.931C748.426 224.551 747.486 224.211 746.026 224.211C742.366 224.211 740.746 226.611 740.746 230.011C740.746 233.591 742.086 236.451 746.106 236.451C747.166 236.451 747.946 236.231 748.686 235.931V232.871C748.686 232.411 748.646 232.191 748.386 232.131L746.566 231.651V231.371H752.526V231.651ZM760.58 227.431C760.58 227.651 760.5 227.891 760.4 228.131L759.96 229.151H759.7C759.42 228.531 758.86 228.291 758.32 228.291C757.84 228.291 757.34 228.491 756.72 229.011V235.771C756.72 236.191 756.74 236.351 756.98 236.411L758.9 236.851V237.111H753.34V236.851L754.68 236.451C754.92 236.371 754.94 236.231 754.94 235.811V229.371L754.84 228.451C754.8 228.031 754.78 227.871 754.48 227.811L753.14 227.571V227.271L756.2 226.751L756.36 226.851L756.54 228.331H756.64C757.5 227.511 758.3 226.651 759.58 226.651C760.08 226.651 760.58 226.811 760.58 227.431ZM770.953 236.731L767.873 237.231L767.753 237.111L767.613 235.711H767.493C766.493 236.531 765.713 237.331 764.193 237.331C762.713 237.331 761.633 236.271 761.633 234.871C761.633 232.551 763.453 231.811 767.373 230.971V229.811C767.373 228.251 766.213 227.691 764.873 227.691C763.853 227.691 763.553 227.991 763.553 228.591V229.551L763.433 229.651H762.753C762.333 229.651 762.193 229.391 762.193 229.091C762.193 228.471 762.913 227.791 763.393 227.451C764.073 226.971 764.973 226.631 766.013 226.631C768.313 226.631 769.093 228.071 769.093 230.291V234.751L769.193 235.511C769.253 235.931 769.253 236.111 769.553 236.171L770.953 236.431V236.731ZM767.373 235.231V231.731C764.213 232.291 763.453 233.151 763.453 234.191C763.453 235.211 764.293 235.891 765.293 235.891C766.073 235.891 766.933 235.651 767.373 235.231ZM777.576 235.871C776.976 236.451 776.096 237.331 774.836 237.331C773.276 237.331 772.356 236.071 772.356 234.331V228.251H770.716V227.231H772.436V225.111L774.096 224.151V227.231H776.976V228.251H774.096V234.031C774.096 235.391 774.736 236.031 775.756 236.031C776.376 236.031 776.936 235.751 777.276 235.471L777.576 235.871ZM781.947 223.391C781.947 224.071 781.447 224.671 780.667 224.671C779.947 224.671 779.507 224.191 779.507 223.511C779.507 222.831 779.987 222.251 780.767 222.251C781.487 222.251 781.947 222.711 781.947 223.391ZM783.167 237.111H778.187V236.851L779.527 236.451C779.767 236.371 779.787 236.231 779.787 235.811V228.451C779.787 228.031 779.747 227.871 779.447 227.811L778.027 227.571V227.271L781.427 226.751L781.567 226.851V235.811C781.567 236.231 781.587 236.371 781.827 236.451L783.167 236.851V237.111ZM790.43 234.091C790.43 235.691 789.11 237.331 786.89 237.331C786.15 237.331 785.05 237.151 784.35 236.791V234.071H784.87L785.11 235.211C785.21 235.651 785.19 235.811 785.47 235.991C785.79 236.191 786.35 236.431 787.05 236.431C788.03 236.431 789.05 235.811 789.05 234.771C789.05 233.511 787.81 233.051 786.47 232.391C785.19 231.751 784.23 231.011 784.23 229.551C784.23 228.071 785.43 226.631 787.41 226.631C787.93 226.631 788.89 226.691 789.77 227.111V229.571H789.25L789.05 228.511C789.01 228.251 788.93 228.111 788.73 227.951C788.43 227.731 787.83 227.511 787.23 227.511C786.21 227.511 785.55 228.111 785.55 228.851C785.55 229.831 786.49 230.291 788.17 231.071C789.61 231.731 790.43 232.591 790.43 234.091ZM804.325 222.911C804.325 223.071 804.285 223.291 804.185 223.531L803.765 224.471H803.545C803.185 223.891 802.525 223.511 801.745 223.511C800.365 223.511 799.625 224.511 799.625 225.811V227.231H802.565V228.251H799.685V235.771C799.685 236.191 799.725 236.351 799.965 236.411L801.865 236.851V237.111H796.345V236.851L797.665 236.451C797.905 236.371 797.945 236.231 797.945 235.811V228.251H796.305V227.231H797.925L797.945 226.611C798.005 224.991 799.945 222.251 802.965 222.251C803.425 222.251 804.325 222.271 804.325 222.911ZM810.502 227.431C810.502 227.651 810.422 227.891 810.322 228.131L809.882 229.151H809.622C809.342 228.531 808.782 228.291 808.242 228.291C807.762 228.291 807.262 228.491 806.642 229.011V235.771C806.642 236.191 806.662 236.351 806.902 236.411L808.822 236.851V237.111H803.262V236.851L804.602 236.451C804.842 236.371 804.862 236.231 804.862 235.811V229.371L804.762 228.451C804.722 228.031 804.702 227.871 804.402 227.811L803.062 227.571V227.271L806.122 226.751L806.282 226.851L806.462 228.331H806.562C807.422 227.511 808.222 226.651 809.502 226.651C810.002 226.651 810.502 226.811 810.502 227.431ZM820.875 236.731L817.795 237.231L817.675 237.111L817.535 235.711H817.415C816.415 236.531 815.635 237.331 814.115 237.331C812.635 237.331 811.555 236.271 811.555 234.871C811.555 232.551 813.375 231.811 817.295 230.971V229.811C817.295 228.251 816.135 227.691 814.795 227.691C813.775 227.691 813.475 227.991 813.475 228.591V229.551L813.355 229.651H812.675C812.255 229.651 812.115 229.391 812.115 229.091C812.115 228.471 812.835 227.791 813.315 227.451C813.995 226.971 814.895 226.631 815.935 226.631C818.235 226.631 819.015 228.071 819.015 230.291V234.751L819.115 235.511C819.175 235.931 819.175 236.111 819.475 236.171L820.875 236.431V236.731ZM817.295 235.231V231.731C814.135 232.291 813.375 233.151 813.375 234.191C813.375 235.211 814.215 235.891 815.215 235.891C815.995 235.891 816.855 235.651 817.295 235.231ZM830.973 228.271H829.373C829.553 228.551 829.713 229.111 829.713 229.651C829.713 231.771 827.693 232.911 825.753 232.911C825.133 232.911 824.573 232.851 824.093 232.671L823.373 233.211C823.053 233.451 822.773 233.771 822.773 234.151C822.773 234.811 823.413 235.151 824.573 235.151H827.353C829.013 235.151 830.513 235.731 830.513 237.611C830.513 239.771 828.133 241.251 825.513 241.251C823.993 241.251 821.193 240.831 821.193 238.811C821.193 237.971 821.853 237.251 823.273 236.571V236.511C822.193 236.471 821.353 235.671 821.353 234.851C821.353 234.191 821.813 233.631 822.333 233.251L823.493 232.391C822.593 231.871 822.073 230.951 822.073 229.851C822.073 227.711 824.073 226.571 826.033 226.571C827.173 226.571 828.113 226.951 828.433 227.231H830.973V228.271ZM827.833 230.151C827.813 228.931 827.133 227.291 825.733 227.291C824.533 227.291 823.953 228.231 823.953 229.351C823.953 230.591 824.653 232.211 826.073 232.211C827.273 232.211 827.853 231.271 827.833 230.151ZM829.013 238.251C829.013 237.071 828.153 236.731 827.133 236.731H823.913C823.373 236.971 822.753 237.431 822.733 238.211C822.693 239.651 824.393 240.291 825.953 240.291C827.593 240.291 829.013 239.591 829.013 238.251ZM837.908 235.871C837.308 236.451 836.428 237.331 835.168 237.331C833.608 237.331 832.688 236.071 832.688 234.331V228.251H831.048V227.231H832.768V225.111L834.428 224.151V227.231H837.308V228.251H834.428V234.031C834.428 235.391 835.068 236.031 836.088 236.031C836.708 236.031 837.268 235.751 837.608 235.471L837.908 235.871Z" fill="#F5F9E9"/>
<path d="M725.682 282.111H720.082V281.831L721.562 281.411C721.822 281.331 721.862 281.151 721.862 280.691V275.431H714.802V280.691C714.802 281.151 714.842 281.331 715.102 281.411L716.562 281.831V282.111H710.962V281.831L712.442 281.411C712.702 281.331 712.742 281.151 712.742 280.691V270.031C712.742 269.571 712.702 269.391 712.442 269.311L710.982 268.891V268.611H716.582V268.891L715.102 269.311C714.842 269.391 714.802 269.571 714.802 270.031V274.431H721.862V270.031C721.862 269.571 721.822 269.391 721.562 269.311L720.102 268.891V268.611H725.702V268.891L724.222 269.311C723.962 269.391 723.922 269.571 723.922 270.031V280.691C723.922 281.151 723.962 281.331 724.222 281.411L725.682 281.831V282.111ZM739.982 268.891L739.262 269.291C738.982 269.451 738.782 269.591 738.602 270.011L733.522 282.431H732.322L727.602 269.931C727.442 269.511 727.302 269.451 727.022 269.291L726.282 268.891V268.611H731.442V268.891L730.042 269.291C729.742 269.371 729.642 269.551 729.802 269.971L733.162 279.251C733.302 279.651 733.322 279.951 733.322 279.951H733.362C733.362 279.951 733.422 279.651 733.582 279.231L737.242 270.011C737.402 269.591 737.282 269.371 737.022 269.291L735.622 268.891V268.611H739.982V268.891ZM751.051 279.351L750.431 282.111H740.571V281.831L742.051 281.411C742.311 281.331 742.351 281.151 742.351 280.691V270.031C742.351 269.571 742.311 269.391 742.051 269.311L740.591 268.891V268.611H750.171V271.131H749.651L749.291 270.011C749.211 269.751 748.971 269.551 748.511 269.551H744.411V274.511H748.031C748.491 274.511 748.631 274.471 748.731 274.231L749.171 273.171H749.571V276.811H749.171L748.731 275.751C748.631 275.511 748.491 275.471 748.031 275.471H744.411V280.511C744.411 281.031 744.691 281.171 745.051 281.171H748.831C749.291 281.171 749.511 280.931 749.651 280.711L750.551 279.211L751.051 279.351ZM765.092 282.111H762.112L756.592 275.111H757.212C758.912 275.111 760.572 274.451 760.572 272.271C760.572 269.851 759.152 269.411 757.152 269.411H756.032V280.691C756.032 281.151 756.072 281.331 756.332 281.411L757.792 281.831V282.111H752.192V281.831L753.692 281.411C753.952 281.331 753.972 281.151 753.972 280.691V270.031C753.972 269.571 753.952 269.391 753.692 269.311L752.212 268.891V268.611H757.892C760.132 268.611 762.792 268.891 762.792 271.851C762.792 273.851 761.112 275.011 759.292 275.431L763.852 280.971C764.092 281.251 764.292 281.371 764.532 281.511L765.092 281.831V282.111ZM779.567 282.111H770.987V281.131C771.827 280.451 773.687 278.671 774.607 277.631C775.727 276.371 777.147 274.991 777.147 272.711C777.147 271.011 775.927 269.831 774.187 269.831C772.967 269.831 772.147 270.191 771.287 271.011L770.987 270.651C772.187 269.011 773.447 268.311 775.147 268.311C777.207 268.311 779.047 269.831 779.047 272.171C779.047 274.511 777.307 276.311 776.367 277.231C775.507 278.091 773.847 279.791 772.927 280.551H779.567V282.111ZM784.382 280.631C784.382 281.411 783.782 282.111 782.902 282.111C782.082 282.111 781.582 281.551 781.582 280.771C781.582 279.991 782.122 279.331 783.022 279.331C783.842 279.331 784.382 279.851 784.382 280.631ZM807.821 282.111H802.301V281.831L803.761 281.411C804.021 281.331 804.061 281.151 804.061 280.691V271.851C804.061 271.311 804.061 270.771 804.081 270.231H803.961C803.881 270.511 803.621 271.011 803.281 271.851L799.141 282.111H798.281L794.081 271.851C793.881 271.351 793.661 270.871 793.541 270.331H793.421C793.421 270.671 793.441 271.011 793.441 271.851V280.631C793.441 281.091 793.501 281.291 793.761 281.371L795.401 281.831V282.111H790.361V281.831L791.841 281.411C792.101 281.331 792.141 281.151 792.141 280.691V270.131C792.141 269.671 792.101 269.491 791.841 269.411L790.181 268.891V268.611H794.901L798.541 277.791C798.801 278.431 798.981 278.771 799.061 279.431H799.101C799.181 278.911 799.381 278.571 799.681 277.831L803.461 268.611H807.821V268.891L806.361 269.331C806.101 269.411 806.061 269.591 806.061 270.051V280.691C806.061 281.151 806.101 281.331 806.361 281.411L807.821 281.831V282.111ZM822.211 282.111H817.071V281.831L818.471 281.431C818.771 281.351 818.851 281.151 818.691 280.731L817.531 277.511H812.371L811.091 280.691C810.931 281.111 811.051 281.351 811.311 281.431L812.711 281.831V282.111H808.431V281.831L809.151 281.431C809.431 281.271 809.591 281.111 809.771 280.691L814.971 268.251H816.071L820.911 280.771C821.071 281.191 821.191 281.271 821.471 281.431L822.211 281.831V282.111ZM817.151 276.551L815.451 271.891C815.291 271.471 815.091 271.011 815.091 270.631H815.031C815.031 270.811 814.871 271.211 814.591 271.931L812.751 276.551H817.151ZM817.611 265.871C817.611 266.951 816.871 267.871 815.531 267.871C814.271 267.871 813.571 267.151 813.571 266.051C813.571 264.971 814.331 264.031 815.671 264.031C816.931 264.031 817.611 264.791 817.611 265.871ZM816.551 266.171C816.551 265.591 816.211 264.611 815.431 264.611C814.851 264.611 814.651 265.131 814.651 265.691C814.651 266.311 814.971 267.251 815.731 267.251C816.331 267.251 816.551 266.731 816.551 266.171ZM837.818 268.891L836.338 269.331C836.078 269.411 836.058 269.591 836.058 270.051V282.351H834.878L827.058 272.031C826.778 271.671 826.458 271.331 826.338 270.871H826.238C826.238 271.151 826.258 271.491 826.258 272.031V280.631C826.258 281.091 826.318 281.291 826.578 281.351L828.398 281.831V282.111H823.178V281.831L824.638 281.391C824.898 281.311 824.938 281.151 824.938 280.691V270.151C824.938 269.691 824.898 269.511 824.638 269.431L822.798 268.911V268.611H827.098L833.778 277.651C833.978 277.931 834.598 278.651 834.658 279.071H834.738C834.738 278.871 834.718 278.431 834.718 277.551V270.091C834.718 269.631 834.698 269.451 834.438 269.391L832.578 268.891V268.611H837.818V268.891ZM849.391 279.351L848.771 282.111H838.911V281.831L840.391 281.411C840.651 281.331 840.691 281.151 840.691 280.691V270.031C840.691 269.571 840.651 269.391 840.391 269.311L838.931 268.891V268.611H848.511V271.131H847.991L847.631 270.011C847.551 269.751 847.311 269.551 846.851 269.551H842.751V274.511H846.371C846.831 274.511 846.971 274.471 847.071 274.231L847.511 273.171H847.911V276.811H847.511L847.071 275.751C846.971 275.511 846.831 275.471 846.371 275.471H842.751V280.511C842.751 281.031 843.031 281.171 843.391 281.171H847.171C847.631 281.171 847.851 280.931 847.991 280.711L848.891 279.211L849.391 279.351ZM864.752 275.031C864.752 279.271 861.492 282.111 856.912 282.111H850.532V281.831L852.012 281.411C852.272 281.331 852.312 281.151 852.312 280.691V270.031C852.312 269.571 852.272 269.391 852.012 269.311L850.552 268.891V268.611H857.412C861.632 268.611 864.752 270.351 864.752 275.031ZM862.392 275.291C862.392 271.791 860.812 269.551 857.192 269.551H854.372V280.511C854.372 281.031 854.652 281.171 855.012 281.171H856.812C859.632 281.171 862.392 279.671 862.392 275.291Z" fill="#F5F9E9"/>
<path d="M219.666 176.111H213.406V175.851L215.306 175.411C215.546 175.351 215.606 175.171 215.606 174.711V164.871C215.606 164.271 215.266 163.911 214.746 164.071L212.546 164.731L212.386 163.991L217.226 162.291L217.466 162.411V174.711C217.466 175.171 217.506 175.351 217.746 175.411L219.666 175.851V176.111ZM230.821 169.011C230.821 173.251 229.001 176.431 226.141 176.431C223.481 176.431 221.781 173.891 221.781 169.711C221.781 165.411 223.601 162.231 226.481 162.231C229.141 162.231 230.821 164.791 230.821 169.011ZM228.901 170.331C228.901 167.471 228.201 163.051 226.001 163.051C224.201 163.051 223.701 165.411 223.701 168.211C223.701 171.151 224.381 175.611 226.521 175.611C228.441 175.611 228.901 173.011 228.901 170.331ZM246.076 172.151C246.076 174.511 244.876 176.311 242.956 176.311C241.176 176.311 240.036 174.851 240.036 172.531C240.036 170.151 241.236 168.331 243.176 168.331C244.976 168.331 246.076 169.811 246.076 172.151ZM243.816 162.911L235.096 176.351L234.376 175.891L243.096 162.471L243.816 162.911ZM238.156 166.271C238.156 168.651 236.956 170.471 235.016 170.471C233.216 170.471 232.116 168.991 232.116 166.651C232.116 164.291 233.316 162.491 235.236 162.491C237.016 162.491 238.156 163.951 238.156 166.271ZM244.676 172.871C244.676 171.271 244.196 168.951 242.856 168.951C241.776 168.951 241.456 170.151 241.456 171.711C241.456 173.371 241.896 175.691 243.196 175.691C244.356 175.691 244.676 174.371 244.676 172.871ZM236.736 167.091C236.736 165.431 236.296 163.111 234.996 163.111C233.836 163.111 233.516 164.431 233.516 165.931C233.516 167.531 233.996 169.851 235.336 169.851C236.416 169.851 236.736 168.651 236.736 167.091ZM259.465 166.431C259.465 166.651 259.385 166.891 259.285 167.131L258.845 168.151H258.585C258.305 167.531 257.745 167.291 257.205 167.291C256.725 167.291 256.225 167.491 255.605 168.011V174.771C255.605 175.191 255.625 175.351 255.865 175.411L257.785 175.851V176.111H252.225V175.851L253.565 175.451C253.805 175.371 253.825 175.231 253.825 174.811V168.371L253.725 167.451C253.685 167.031 253.665 166.871 253.365 166.811L252.025 166.571V166.271L255.085 165.751L255.245 165.851L255.425 167.331H255.525C256.385 166.511 257.185 165.651 258.465 165.651C258.965 165.651 259.465 165.811 259.465 166.431ZM269.838 175.731L266.758 176.231L266.638 176.111L266.498 174.711H266.378C265.378 175.531 264.598 176.331 263.078 176.331C261.598 176.331 260.518 175.271 260.518 173.871C260.518 171.551 262.338 170.811 266.258 169.971V168.811C266.258 167.251 265.098 166.691 263.758 166.691C262.738 166.691 262.438 166.991 262.438 167.591V168.551L262.318 168.651H261.638C261.218 168.651 261.078 168.391 261.078 168.091C261.078 167.471 261.798 166.791 262.278 166.451C262.958 165.971 263.858 165.631 264.898 165.631C267.198 165.631 267.978 167.071 267.978 169.291V173.751L268.078 174.511C268.138 174.931 268.138 175.111 268.438 175.171L269.838 175.431V175.731ZM266.258 174.231V170.731C263.098 171.291 262.338 172.151 262.338 173.191C262.338 174.211 263.178 174.891 264.178 174.891C264.958 174.891 265.818 174.651 266.258 174.231ZM280.356 170.511C280.356 173.491 278.616 176.331 275.216 176.331C273.696 176.331 272.196 175.911 271.416 175.631V162.971C271.416 162.551 271.356 162.411 271.056 162.351L269.656 162.111V161.811L273.056 161.291L273.196 161.391V167.311H273.236C274.216 166.471 275.216 165.851 276.656 165.851C279.196 165.851 280.356 168.291 280.356 170.511ZM278.576 171.731C278.576 169.591 277.636 167.271 275.276 167.271C274.456 167.271 273.736 167.571 273.196 167.991V174.411C273.476 174.831 274.356 175.391 275.596 175.391C277.696 175.391 278.576 173.631 278.576 171.731ZM291.049 175.731L287.969 176.231L287.849 176.111L287.709 174.711H287.589C286.589 175.531 285.809 176.331 284.289 176.331C282.809 176.331 281.729 175.271 281.729 173.871C281.729 171.551 283.549 170.811 287.469 169.971V168.811C287.469 167.251 286.309 166.691 284.969 166.691C283.949 166.691 283.649 166.991 283.649 167.591V168.551L283.529 168.651H282.849C282.429 168.651 282.289 168.391 282.289 168.091C282.289 167.471 283.009 166.791 283.489 166.451C284.169 165.971 285.069 165.631 286.109 165.631C288.409 165.631 289.189 167.071 289.189 169.291V173.751L289.289 174.511C289.349 174.931 289.349 175.111 289.649 175.171L291.049 175.431V175.731ZM287.469 174.231V170.731C284.309 171.291 283.549 172.151 283.549 173.191C283.549 174.211 284.389 174.891 285.389 174.891C286.169 174.891 287.029 174.651 287.469 174.231ZM297.671 174.871C297.071 175.451 296.191 176.331 294.931 176.331C293.371 176.331 292.451 175.071 292.451 173.331V167.251H290.811V166.231H292.531V164.111L294.191 163.151V166.231H297.071V167.251H294.191V173.031C294.191 174.391 294.831 175.031 295.851 175.031C296.471 175.031 297.031 174.751 297.371 174.471L297.671 174.871ZM307.14 162.391C307.14 163.071 306.64 163.671 305.86 163.671C305.14 163.671 304.7 163.191 304.7 162.511C304.7 161.831 305.18 161.251 305.96 161.251C306.68 161.251 307.14 161.711 307.14 162.391ZM308.36 176.111H303.38V175.851L304.72 175.451C304.96 175.371 304.98 175.231 304.98 174.811V167.451C304.98 167.031 304.94 166.871 304.64 166.811L303.22 166.571V166.271L306.62 165.751L306.76 165.851V174.811C306.76 175.231 306.78 175.371 307.02 175.451L308.36 175.851V176.111ZM325.34 176.111H320.36V175.851L321.7 175.451C321.94 175.371 321.96 175.231 321.96 174.811V169.471C321.96 168.031 321.08 167.151 319.7 167.151C318.9 167.151 318.04 167.471 317.4 167.991V174.831C317.4 175.251 317.42 175.371 317.66 175.451L319 175.851V176.111H314.02V175.851L315.36 175.451C315.6 175.371 315.62 175.231 315.62 174.811V162.971C315.62 162.551 315.56 162.411 315.26 162.351L313.86 162.111V161.811L317.26 161.291L317.4 161.391V167.311H317.44C318.74 166.191 319.74 165.851 320.88 165.851C322.98 165.851 323.74 167.391 323.74 168.951V174.831C323.74 175.251 323.76 175.371 324 175.451L325.34 175.851V176.111ZM334.419 174.091C333.159 175.391 332.179 176.391 330.199 176.391C327.419 176.391 325.959 173.971 325.959 171.371C325.959 168.431 327.579 165.571 330.779 165.571C333.299 165.571 334.339 167.691 334.339 169.771V170.131H327.459C327.519 173.751 329.739 174.591 331.279 174.591C332.519 174.591 333.519 174.211 334.179 173.731L334.419 174.091ZM332.439 169.151C332.499 167.751 331.559 166.451 329.979 166.451C328.599 166.451 327.559 167.791 327.459 169.311H330.099L332.439 169.151ZM340.86 176.111H335.88V175.851L337.22 175.451C337.46 175.371 337.48 175.231 337.48 174.811V162.971C337.48 162.551 337.42 162.411 337.12 162.351L335.72 162.111V161.811L339.12 161.291L339.26 161.391V174.831C339.26 175.251 339.28 175.371 339.52 175.451L340.86 175.851V176.111ZM350.103 174.091C348.843 175.391 347.863 176.391 345.883 176.391C343.103 176.391 341.643 173.971 341.643 171.371C341.643 168.431 343.263 165.571 346.463 165.571C348.983 165.571 350.023 167.691 350.023 169.771V170.131H343.143C343.203 173.751 345.423 174.591 346.963 174.591C348.203 174.591 349.203 174.211 349.863 173.731L350.103 174.091ZM348.123 169.151C348.183 167.751 347.243 166.451 345.663 166.451C344.283 166.451 343.243 167.791 343.143 169.311H345.783L348.123 169.151ZM250.515 201.091C250.515 202.691 249.195 204.331 246.975 204.331C246.235 204.331 245.135 204.151 244.435 203.791V201.071H244.955L245.195 202.211C245.295 202.651 245.275 202.811 245.555 202.991C245.875 203.191 246.435 203.431 247.135 203.431C248.115 203.431 249.135 202.811 249.135 201.771C249.135 200.511 247.895 200.051 246.555 199.391C245.275 198.751 244.315 198.011 244.315 196.551C244.315 195.071 245.515 193.631 247.495 193.631C248.015 193.631 248.975 193.691 249.855 194.111V196.571H249.335L249.135 195.511C249.095 195.251 249.015 195.111 248.815 194.951C248.515 194.731 247.915 194.511 247.315 194.511C246.295 194.511 245.635 195.111 245.635 195.851C245.635 196.831 246.575 197.291 248.255 198.071C249.695 198.731 250.515 199.591 250.515 201.091ZM262.714 204.111H257.734V203.851L259.074 203.451C259.314 203.371 259.334 203.231 259.334 202.811V197.471C259.334 196.031 258.454 195.151 257.074 195.151C256.274 195.151 255.414 195.471 254.774 195.991V202.831C254.774 203.251 254.794 203.371 255.034 203.451L256.374 203.851V204.111H251.394V203.851L252.734 203.451C252.974 203.371 252.994 203.231 252.994 202.811V190.971C252.994 190.551 252.934 190.411 252.634 190.351L251.234 190.111V189.811L254.634 189.291L254.774 189.391V195.311H254.814C256.114 194.191 257.114 193.851 258.254 193.851C260.354 193.851 261.114 195.391 261.114 196.951V202.831C261.114 203.251 261.134 203.371 261.374 203.451L262.714 203.851V204.111ZM273.252 198.751C273.252 201.811 271.232 204.431 268.092 204.431C265.172 204.431 263.332 202.391 263.332 199.291C263.332 196.231 265.332 193.571 268.492 193.571C271.412 193.571 273.252 195.671 273.252 198.751ZM271.232 199.771C271.232 197.871 270.312 194.351 267.952 194.351C266.012 194.351 265.352 196.251 265.352 198.151C265.352 200.171 266.232 203.651 268.532 203.651C270.592 203.651 271.232 201.651 271.232 199.771ZM284.609 198.311C284.609 201.291 282.869 204.131 279.469 204.131C278.829 204.131 278.049 204.011 277.449 203.771V206.731C277.449 207.151 277.469 207.331 277.709 207.391L279.629 207.831V208.071H274.069V207.811L275.409 207.411C275.649 207.331 275.669 207.171 275.669 206.751V196.231L275.569 195.451C275.509 195.031 275.509 194.871 275.209 194.811L273.909 194.571V194.271L276.929 193.751L277.069 193.851L277.309 195.111H277.449C278.469 194.251 279.469 193.651 280.909 193.651C283.449 193.651 284.609 196.091 284.609 198.311ZM282.829 199.531C282.829 197.391 281.889 195.071 279.529 195.071C278.709 195.071 277.989 195.371 277.449 195.791V202.211C277.729 202.631 278.609 203.191 279.849 203.191C281.949 203.191 282.829 201.431 282.829 199.531ZM295.976 198.311C295.976 201.291 294.236 204.131 290.836 204.131C290.196 204.131 289.416 204.011 288.816 203.771V206.731C288.816 207.151 288.836 207.331 289.076 207.391L290.996 207.831V208.071H285.436V207.811L286.776 207.411C287.016 207.331 287.036 207.171 287.036 206.751V196.231L286.936 195.451C286.876 195.031 286.876 194.871 286.576 194.811L285.276 194.571V194.271L288.296 193.751L288.436 193.851L288.676 195.111H288.816C289.836 194.251 290.836 193.651 292.276 193.651C294.816 193.651 295.976 196.091 295.976 198.311ZM294.196 199.531C294.196 197.391 293.256 195.071 290.896 195.071C290.076 195.071 289.356 195.371 288.816 195.791V202.211C289.096 202.631 289.976 203.191 291.216 203.191C293.316 203.191 294.196 201.431 294.196 199.531ZM305.874 202.091C304.614 203.391 303.634 204.391 301.654 204.391C298.874 204.391 297.414 201.971 297.414 199.371C297.414 196.431 299.034 193.571 302.234 193.571C304.754 193.571 305.794 195.691 305.794 197.771V198.131H298.914C298.974 201.751 301.194 202.591 302.734 202.591C303.974 202.591 304.974 202.211 305.634 201.731L305.874 202.091ZM303.894 197.151C303.954 195.751 303.014 194.451 301.434 194.451C300.054 194.451 299.014 195.791 298.914 197.311H301.554L303.894 197.151ZM318.495 204.111H313.515V203.851L314.855 203.451C315.095 203.371 315.115 203.231 315.115 202.811V197.271C315.115 195.831 314.235 194.951 312.855 194.951C312.055 194.951 311.195 195.271 310.555 195.791V202.831C310.555 203.251 310.575 203.371 310.815 203.451L312.155 203.851V204.111H307.175V203.851L308.515 203.451C308.755 203.371 308.775 203.231 308.775 202.811V196.231L308.675 195.451C308.615 195.031 308.615 194.871 308.315 194.811L307.015 194.571V194.271L310.035 193.751L310.175 193.851L310.415 195.111H310.555C311.855 193.991 312.895 193.651 314.035 193.651C316.135 193.651 316.895 195.191 316.895 196.751V202.831C316.895 203.251 316.915 203.371 317.155 203.451L318.495 203.851V204.111Z" fill="#F5F9E9"/>
<path d="M270.496 328.951C270.496 330.731 269.216 333.111 265.396 333.111H259.076V332.831L260.556 332.411C260.816 332.331 260.856 332.151 260.856 331.691V321.031C260.856 320.571 260.816 320.391 260.556 320.311L259.096 319.891V319.611H264.536C266.536 319.611 269.516 319.631 269.516 322.411C269.516 324.291 267.616 325.251 266.716 325.591V325.671C268.516 325.611 270.496 326.791 270.496 328.951ZM267.416 322.851C267.416 320.471 265.456 320.411 264.016 320.411H262.916V325.471H264.416C265.276 325.471 267.416 325.291 267.416 322.851ZM268.096 329.291C268.096 326.751 266.496 326.311 264.656 326.311H262.916V331.631C262.916 332.151 263.196 332.271 263.556 332.271H264.856C266.376 332.271 268.096 331.691 268.096 329.291ZM276.925 333.111H271.945V332.851L273.285 332.451C273.525 332.371 273.545 332.231 273.545 331.811V319.971C273.545 319.551 273.485 319.411 273.185 319.351L271.785 319.111V318.811L275.185 318.291L275.325 318.391V331.831C275.325 332.251 275.345 332.371 275.585 332.451L276.925 332.851V333.111ZM281.408 319.391C281.408 320.071 280.908 320.671 280.128 320.671C279.408 320.671 278.968 320.191 278.968 319.511C278.968 318.831 279.448 318.251 280.228 318.251C280.948 318.251 281.408 318.711 281.408 319.391ZM282.628 333.111H277.648V332.851L278.988 332.451C279.228 332.371 279.248 332.231 279.248 331.811V324.451C279.248 324.031 279.208 323.871 278.908 323.811L277.488 323.571V323.271L280.888 322.751L281.028 322.851V331.811C281.028 332.231 281.048 332.371 281.288 332.451L282.628 332.851V333.111ZM292.952 323.271L292.412 323.631C292.252 323.731 292.112 323.871 292.012 324.171L288.672 333.211H287.332L283.872 324.191C283.752 323.851 283.652 323.771 283.432 323.631L282.852 323.271V323.031H287.252V323.271L286.032 323.631C285.772 323.711 285.732 323.971 285.872 324.331L287.952 330.051C288.152 330.591 288.332 331.091 288.332 331.431H288.392C288.392 331.211 288.572 330.731 288.812 330.031L290.852 324.251C290.972 323.931 290.832 323.751 290.592 323.671L289.332 323.271V323.031H292.952V323.271ZM307.028 331.091C305.768 332.391 304.788 333.391 302.808 333.391C300.028 333.391 298.568 330.971 298.568 328.371C298.568 325.431 300.188 322.571 303.388 322.571C305.908 322.571 306.948 324.691 306.948 326.771V327.131H300.068C300.128 330.751 302.348 331.591 303.888 331.591C305.128 331.591 306.128 331.211 306.788 330.731L307.028 331.091ZM305.048 326.151C305.108 324.751 304.168 323.451 302.588 323.451C301.208 323.451 300.168 324.791 300.068 326.311H302.708L305.048 326.151ZM319.648 333.111H314.668V332.851L316.008 332.451C316.248 332.371 316.268 332.231 316.268 331.811V326.271C316.268 324.831 315.388 323.951 314.008 323.951C313.208 323.951 312.348 324.271 311.708 324.791V331.831C311.708 332.251 311.728 332.371 311.968 332.451L313.308 332.851V333.111H308.328V332.851L309.668 332.451C309.908 332.371 309.928 332.231 309.928 331.811V325.231L309.828 324.451C309.768 324.031 309.768 323.871 309.468 323.811L308.168 323.571V323.271L311.188 322.751L311.328 322.851L311.568 324.111H311.708C313.008 322.991 314.048 322.651 315.188 322.651C317.288 322.651 318.048 324.191 318.048 325.751V331.831C318.048 332.251 318.068 332.371 318.308 332.451L319.648 332.851V333.111ZM335.885 332.731L332.865 333.231L332.725 333.111L332.525 331.871H332.385C331.365 332.731 330.405 333.331 329.005 333.331C326.405 333.331 325.365 330.551 325.365 328.611C325.365 325.631 327.025 322.851 330.405 322.851C331.045 322.851 331.785 322.971 332.385 323.211V319.971C332.385 319.551 332.345 319.391 332.045 319.351L330.585 319.111V318.811L334.025 318.291L334.165 318.391V330.751L334.245 331.531C334.285 331.951 334.305 332.111 334.605 332.171L335.885 332.431V332.731ZM332.385 331.191V324.771C332.105 324.351 331.265 323.791 330.045 323.791C327.965 323.791 327.145 325.491 327.145 327.391C327.145 329.351 328.005 331.911 330.385 331.911C331.185 331.911 331.845 331.611 332.385 331.191ZM344.879 331.091C343.619 332.391 342.639 333.391 340.659 333.391C337.879 333.391 336.419 330.971 336.419 328.371C336.419 325.431 338.039 322.571 341.239 322.571C343.759 322.571 344.799 324.691 344.799 326.771V327.131H337.919C337.979 330.751 340.199 331.591 341.739 331.591C342.979 331.591 343.979 331.211 344.639 330.731L344.879 331.091ZM342.899 326.151C342.959 324.751 342.019 323.451 340.439 323.451C339.059 323.451 338.019 324.791 337.919 326.311H340.559L342.899 326.151ZM351.32 333.111H346.34V332.851L347.68 332.451C347.92 332.371 347.94 332.231 347.94 331.811V319.971C347.94 319.551 347.88 319.411 347.58 319.351L346.18 319.111V318.811L349.58 318.291L349.72 318.391V331.831C349.72 332.251 349.74 332.371 349.98 332.451L351.32 332.851V333.111ZM366.861 332.731L363.781 333.231L363.661 333.111L363.521 331.711H363.401C362.401 332.531 361.621 333.331 360.101 333.331C358.621 333.331 357.541 332.271 357.541 330.871C357.541 328.551 359.361 327.811 363.281 326.971V325.811C363.281 324.251 362.121 323.691 360.781 323.691C359.761 323.691 359.461 323.991 359.461 324.591V325.551L359.341 325.651H358.661C358.241 325.651 358.101 325.391 358.101 325.091C358.101 324.471 358.821 323.791 359.301 323.451C359.981 322.971 360.881 322.631 361.921 322.631C364.221 322.631 365.001 324.071 365.001 326.291V330.751L365.101 331.511C365.161 331.931 365.161 332.111 365.461 332.171L366.861 332.431V332.731ZM363.281 331.231V327.731C360.121 328.291 359.361 329.151 359.361 330.191C359.361 331.211 360.201 331.891 361.201 331.891C361.981 331.891 362.841 331.651 363.281 331.231ZM374.998 318.911C374.998 319.071 374.958 319.291 374.858 319.531L374.438 320.471H374.218C373.858 319.891 373.198 319.511 372.418 319.511C371.038 319.511 370.298 320.511 370.298 321.811V323.231H373.238V324.251H370.358V331.771C370.358 332.191 370.398 332.351 370.638 332.411L372.538 332.851V333.111H367.018V332.851L368.338 332.451C368.578 332.371 368.618 332.231 368.618 331.811V324.251H366.978V323.231H368.598L368.618 322.611C368.678 320.991 370.618 318.251 373.638 318.251C374.098 318.251 374.998 318.271 374.998 318.911ZM388.752 323.271L388.212 323.631C388.052 323.731 387.912 323.871 387.812 324.171L384.472 333.211H383.132L379.672 324.191C379.552 323.851 379.452 323.771 379.232 323.631L378.652 323.271V323.031H383.052V323.271L381.832 323.631C381.572 323.711 381.532 323.971 381.672 324.331L383.752 330.051C383.952 330.591 384.132 331.091 384.132 331.431H384.192C384.192 331.211 384.372 330.731 384.612 330.031L386.652 324.251C386.772 323.931 386.632 323.751 386.392 323.671L385.132 323.271V323.031H388.752V323.271ZM398.996 327.751C398.996 330.811 396.976 333.431 393.836 333.431C390.916 333.431 389.076 331.391 389.076 328.291C389.076 325.231 391.076 322.571 394.236 322.571C397.156 322.571 398.996 324.671 398.996 327.751ZM396.976 328.771C396.976 326.871 396.056 323.351 393.696 323.351C391.756 323.351 391.096 325.251 391.096 327.151C391.096 329.171 391.976 332.651 394.276 332.651C396.336 332.651 396.976 330.651 396.976 328.771ZM407.093 323.431C407.093 323.651 407.013 323.891 406.913 324.131L406.473 325.151H406.213C405.933 324.531 405.373 324.291 404.833 324.291C404.353 324.291 403.853 324.491 403.233 325.011V331.771C403.233 332.191 403.253 332.351 403.493 332.411L405.413 332.851V333.111H399.853V332.851L401.193 332.451C401.433 332.371 401.453 332.231 401.453 331.811V325.371L401.353 324.451C401.313 324.031 401.293 323.871 400.993 323.811L399.653 323.571V323.271L402.713 322.751L402.873 322.851L403.053 324.331H403.153C404.013 323.511 404.813 322.651 406.093 322.651C406.593 322.651 407.093 322.811 407.093 323.431ZM416.071 331.091C414.811 332.391 413.831 333.391 411.851 333.391C409.071 333.391 407.611 330.971 407.611 328.371C407.611 325.431 409.231 322.571 412.431 322.571C414.951 322.571 415.991 324.691 415.991 326.771V327.131H409.111C409.171 330.751 411.391 331.591 412.931 331.591C414.171 331.591 415.171 331.211 415.831 330.731L416.071 331.091ZM414.091 326.151C414.151 324.751 413.211 323.451 411.631 323.451C410.251 323.451 409.211 324.791 409.111 326.311H411.751L414.091 326.151ZM424.071 330.091C424.071 331.691 422.751 333.331 420.531 333.331C419.791 333.331 418.691 333.151 417.991 332.791V330.071H418.511L418.751 331.211C418.851 331.651 418.831 331.811 419.111 331.991C419.431 332.191 419.991 332.431 420.691 332.431C421.671 332.431 422.691 331.811 422.691 330.771C422.691 329.511 421.451 329.051 420.111 328.391C418.831 327.751 417.871 327.011 417.871 325.551C417.871 324.071 419.071 322.631 421.051 322.631C421.571 322.631 422.531 322.691 423.411 323.111V325.571H422.891L422.691 324.511C422.651 324.251 422.571 324.111 422.371 323.951C422.071 323.731 421.471 323.511 420.871 323.511C419.851 323.511 419.191 324.111 419.191 324.851C419.191 325.831 420.131 326.291 421.811 327.071C423.251 327.731 424.071 328.591 424.071 330.091ZM435.187 333.111H430.207V332.851L431.547 332.451C431.787 332.371 431.807 332.231 431.807 331.811V319.971C431.807 319.551 431.747 319.411 431.447 319.351L430.047 319.111V318.811L433.447 318.291L433.587 318.391V331.831C433.587 332.251 433.607 332.371 433.847 332.451L435.187 332.851V333.111ZM450.57 331.091C449.31 332.391 448.33 333.391 446.35 333.391C444.73 333.391 443.55 332.551 442.85 331.351C441.63 332.551 440.73 333.331 438.87 333.331C437.39 333.331 436.31 332.271 436.31 330.871C436.31 328.551 438.13 327.811 442.05 326.971V325.851C442.05 324.291 440.89 323.731 439.55 323.731C438.53 323.731 438.23 324.031 438.23 324.631V325.591L438.11 325.691H437.43C437.01 325.691 436.87 325.431 436.87 325.131C436.87 324.511 437.59 323.831 438.07 323.491C438.75 323.011 439.65 322.671 440.69 322.671C442.15 322.671 443.01 323.231 443.43 324.231C444.23 323.211 445.39 322.571 446.93 322.571C449.45 322.571 450.49 324.691 450.49 326.771V327.131H443.61C443.67 330.751 445.89 331.591 447.43 331.591C448.67 331.591 449.67 331.211 450.33 330.731L450.57 331.091ZM442.05 331.231V327.731C438.89 328.291 438.13 329.151 438.13 330.191C438.13 331.211 438.97 331.891 439.97 331.891C440.75 331.891 441.61 331.651 442.05 331.231ZM448.59 326.151C448.65 324.751 447.71 323.451 446.13 323.451C444.75 323.451 443.71 324.791 443.61 326.311H446.25L448.59 326.151ZM458.563 330.091C458.563 331.691 457.243 333.331 455.023 333.331C454.283 333.331 453.183 333.151 452.483 332.791V330.071H453.003L453.243 331.211C453.343 331.651 453.323 331.811 453.603 331.991C453.923 332.191 454.483 332.431 455.183 332.431C456.163 332.431 457.183 331.811 457.183 330.771C457.183 329.511 455.943 329.051 454.603 328.391C453.323 327.751 452.363 327.011 452.363 325.551C452.363 324.071 453.563 322.631 455.543 322.631C456.063 322.631 457.023 322.691 457.903 323.111V325.571H457.383L457.183 324.511C457.143 324.251 457.063 324.111 456.863 323.951C456.563 323.731 455.963 323.511 455.363 323.511C454.343 323.511 453.683 324.111 453.683 324.851C453.683 325.831 454.623 326.291 456.303 327.071C457.743 327.731 458.563 328.591 458.563 330.091ZM468.122 331.091C466.862 332.391 465.882 333.391 463.902 333.391C461.122 333.391 459.662 330.971 459.662 328.371C459.662 325.431 461.282 322.571 464.482 322.571C467.002 322.571 468.042 324.691 468.042 326.771V327.131H461.162C461.222 330.751 463.442 331.591 464.982 331.591C466.222 331.591 467.222 331.211 467.882 330.731L468.122 331.091ZM466.142 326.151C466.202 324.751 465.262 323.451 463.682 323.451C462.302 323.451 461.262 324.791 461.162 326.311H463.802L466.142 326.151ZM477.342 318.911C477.342 319.071 477.302 319.291 477.202 319.531L476.782 320.471H476.562C476.202 319.891 475.542 319.511 474.762 319.511C473.382 319.511 472.642 320.511 472.642 321.811V323.231H475.582V324.251H472.702V331.771C472.702 332.191 472.742 332.351 472.982 332.411L474.882 332.851V333.111H469.362V332.851L470.682 332.451C470.922 332.371 470.962 332.231 470.962 331.811V324.251H469.322V323.231H470.942L470.962 322.611C471.022 320.991 472.962 318.251 475.982 318.251C476.442 318.251 477.342 318.271 477.342 318.911ZM490.863 331.091C489.603 332.391 488.623 333.391 486.643 333.391C485.023 333.391 483.843 332.551 483.143 331.351C481.923 332.551 481.023 333.331 479.163 333.331C477.683 333.331 476.603 332.271 476.603 330.871C476.603 328.551 478.423 327.811 482.343 326.971V325.851C482.343 324.291 481.183 323.731 479.843 323.731C478.823 323.731 478.523 324.031 478.523 324.631V325.591L478.403 325.691H477.723C477.303 325.691 477.163 325.431 477.163 325.131C477.163 324.511 477.883 323.831 478.363 323.491C479.043 323.011 479.943 322.671 480.983 322.671C482.443 322.671 483.303 323.231 483.723 324.231C484.523 323.211 485.683 322.571 487.223 322.571C489.743 322.571 490.783 324.691 490.783 326.771V327.131H483.903C483.963 330.751 486.183 331.591 487.723 331.591C488.963 331.591 489.963 331.211 490.623 330.731L490.863 331.091ZM482.343 331.231V327.731C479.183 328.291 478.423 329.151 478.423 330.191C478.423 331.211 479.263 331.891 480.263 331.891C481.043 331.891 481.903 331.651 482.343 331.231ZM488.883 326.151C488.943 324.751 488.003 323.451 486.423 323.451C485.043 323.451 484.003 324.791 483.903 326.311H486.543L488.883 326.151ZM497.296 333.111H492.316V332.851L493.656 332.451C493.896 332.371 493.916 332.231 493.916 331.811V319.971C493.916 319.551 493.856 319.411 493.556 319.351L492.156 319.111V318.811L495.556 318.291L495.696 318.391V331.831C495.696 332.251 495.716 332.371 495.956 332.451L497.296 332.851V333.111ZM503 333.111H498.02V332.851L499.36 332.451C499.6 332.371 499.62 332.231 499.62 331.811V319.971C499.62 319.551 499.56 319.411 499.26 319.351L497.86 319.111V318.811L501.26 318.291L501.4 318.391V331.831C501.4 332.251 501.42 332.371 501.66 332.451L503 332.851V333.111ZM512.243 331.091C510.983 332.391 510.003 333.391 508.023 333.391C505.243 333.391 503.783 330.971 503.783 328.371C503.783 325.431 505.403 322.571 508.603 322.571C511.123 322.571 512.163 324.691 512.163 326.771V327.131H505.283C505.343 330.751 507.563 331.591 509.103 331.591C510.343 331.591 511.343 331.211 512.003 330.731L512.243 331.091ZM510.263 326.151C510.323 324.751 509.383 323.451 507.803 323.451C506.423 323.451 505.383 324.791 505.283 326.311H507.923L510.263 326.151ZM520.243 330.091C520.243 331.691 518.923 333.331 516.703 333.331C515.963 333.331 514.863 333.151 514.163 332.791V330.071H514.683L514.923 331.211C515.023 331.651 515.003 331.811 515.283 331.991C515.603 332.191 516.163 332.431 516.863 332.431C517.843 332.431 518.863 331.811 518.863 330.771C518.863 329.511 517.623 329.051 516.283 328.391C515.003 327.751 514.043 327.011 514.043 325.551C514.043 324.071 515.243 322.631 517.223 322.631C517.743 322.631 518.703 322.691 519.583 323.111V325.571H519.063L518.863 324.511C518.823 324.251 518.743 324.111 518.543 323.951C518.243 323.731 517.643 323.511 517.043 323.511C516.023 323.511 515.363 324.111 515.363 324.851C515.363 325.831 516.303 326.291 517.983 327.071C519.423 327.731 520.243 328.591 520.243 330.091ZM527.821 330.091C527.821 331.691 526.501 333.331 524.281 333.331C523.541 333.331 522.441 333.151 521.741 332.791V330.071H522.261L522.501 331.211C522.601 331.651 522.581 331.811 522.861 331.991C523.181 332.191 523.741 332.431 524.441 332.431C525.421 332.431 526.441 331.811 526.441 330.771C526.441 329.511 525.201 329.051 523.861 328.391C522.581 327.751 521.621 327.011 521.621 325.551C521.621 324.071 522.821 322.631 524.801 322.631C525.321 322.631 526.281 322.691 527.161 323.111V325.571H526.641L526.441 324.511C526.401 324.251 526.321 324.111 526.121 323.951C525.821 323.731 525.221 323.511 524.621 323.511C523.601 323.511 522.941 324.111 522.941 324.851C522.941 325.831 523.881 326.291 525.561 327.071C527.001 327.731 527.821 328.591 527.821 330.091ZM538.819 333.111H536.299L532.419 327.411L535.419 324.411C535.719 324.111 535.659 323.791 535.339 323.691L534.019 323.271V323.031H538.659V323.291L537.699 323.691C537.479 323.791 537.219 323.911 536.919 324.211L534.059 327.011L537.679 331.971C537.919 332.311 538.099 332.431 538.319 332.551L538.819 332.851V333.111ZM533.679 333.111H528.699V332.851L530.039 332.451C530.279 332.371 530.299 332.231 530.299 331.811V319.971C530.299 319.551 530.239 319.411 529.939 319.351L528.539 319.111V318.811L531.939 318.291L532.079 318.391V331.831C532.079 332.251 532.099 332.371 532.339 332.451L533.679 332.851V333.111ZM549.009 332.731L545.929 333.231L545.809 333.111L545.669 331.711H545.549C544.549 332.531 543.769 333.331 542.249 333.331C540.769 333.331 539.689 332.271 539.689 330.871C539.689 328.551 541.509 327.811 545.429 326.971V325.811C545.429 324.251 544.269 323.691 542.929 323.691C541.909 323.691 541.609 323.991 541.609 324.591V325.551L541.489 325.651H540.809C540.389 325.651 540.249 325.391 540.249 325.091C540.249 324.471 540.969 323.791 541.449 323.451C542.129 322.971 543.029 322.631 544.069 322.631C546.369 322.631 547.149 324.071 547.149 326.291V330.751L547.249 331.511C547.309 331.931 547.309 332.111 547.609 332.171L549.009 332.431V332.731ZM545.429 331.231V327.731C542.269 328.291 541.509 329.151 541.509 330.191C541.509 331.211 542.349 331.891 543.349 331.891C544.129 331.891 544.989 331.651 545.429 331.231ZM559.527 327.511C559.527 330.491 557.787 333.331 554.387 333.331C552.867 333.331 551.367 332.911 550.587 332.631V319.971C550.587 319.551 550.527 319.411 550.227 319.351L548.827 319.111V318.811L552.227 318.291L552.367 318.391V324.311H552.407C553.387 323.471 554.387 322.851 555.827 322.851C558.367 322.851 559.527 325.291 559.527 327.511ZM557.747 328.731C557.747 326.591 556.807 324.271 554.447 324.271C553.627 324.271 552.907 324.571 552.367 324.991V331.411C552.647 331.831 553.527 332.391 554.767 332.391C556.867 332.391 557.747 330.631 557.747 328.731Z" fill="#F5F9E9"/>
<path d="M471.413 52.7183C471.413 55.8813 469.174 60.1106 462.386 60.1106H450.018V59.542L452.293 58.7956C452.79 58.6179 452.826 58.3336 452.826 57.5162V38.7511C452.826 37.8981 452.79 37.6138 452.293 37.4716L450.054 36.7253V36.1211H461.107C464.838 36.1211 469.672 36.5476 469.672 41.2033C469.672 44.5441 466.224 46.1789 464.518 46.7476V46.8897C467.895 46.8897 471.413 48.88 471.413 52.7183ZM464.803 41.9497C464.803 38.289 462.279 37.7204 459.401 37.7204H457.624V46.4632H459.756C461.711 46.4632 464.803 45.788 464.803 41.9497ZM465.976 53.3225C465.976 48.9155 463.275 48.1336 460.183 48.1336H457.624V57.3385C457.624 58.2625 458.121 58.4758 458.761 58.4758H460.538C463.168 58.4758 465.976 57.4451 465.976 53.3225ZM498.417 48.1692C498.417 55.4904 493.015 60.6792 486.226 60.6792C478.941 60.6792 474.072 56.45 474.072 48.1692C474.072 40.3504 479.936 35.4814 486.226 35.4814C492.908 35.4814 498.417 39.3197 498.417 48.1692ZM493.228 48.1692C493.228 39.7106 489.745 37.2584 486.226 37.2584C482.921 37.2584 479.225 39.604 479.225 48.1692C479.225 56.5211 482.637 58.9022 486.226 58.9022C489.816 58.9022 493.228 56.4855 493.228 48.1692ZM525.592 48.1692C525.592 55.4904 520.19 60.6792 513.402 60.6792C506.116 60.6792 501.247 56.45 501.247 48.1692C501.247 40.3504 507.111 35.4814 513.402 35.4814C520.084 35.4814 525.592 39.3197 525.592 48.1692ZM520.403 48.1692C520.403 39.7106 516.92 37.2584 513.402 37.2584C510.097 37.2584 506.401 39.604 506.401 48.1692C506.401 56.5211 509.812 58.9022 513.402 58.9022C516.992 58.9022 520.403 56.4855 520.403 48.1692ZM550.689 60.1106H544.221L535.763 47.6005L543.439 38.7866C544.008 38.1469 543.688 37.7204 543.084 37.5072L540.951 36.7253V36.1211H549.836V36.7253L547.988 37.5427C547.526 37.7559 547.171 38.0403 546.638 38.68L540.098 45.9301L548.415 57.765C548.806 58.2981 549.161 58.6179 549.623 58.9022L550.689 59.542V60.1106ZM538.002 60.1106H527.588V59.542L529.863 58.7956C530.36 58.6179 530.396 58.3336 530.396 57.5162V38.7511C530.396 37.8981 530.36 37.6138 529.863 37.4716L527.624 36.7253V36.1211H538.002V36.7253L535.727 37.4716C535.265 37.6138 535.194 37.8981 535.194 38.7511V57.5162C535.194 58.3336 535.265 58.6179 535.727 58.7956L538.002 59.542V60.1106ZM585.08 48.1692C585.08 55.4904 579.678 60.6792 572.89 60.6792C565.604 60.6792 560.735 56.45 560.735 48.1692C560.735 40.3504 566.599 35.4814 572.89 35.4814C579.571 35.4814 585.08 39.3197 585.08 48.1692ZM579.891 48.1692C579.891 39.7106 576.408 37.2584 572.89 37.2584C569.585 37.2584 565.889 39.604 565.889 48.1692C565.889 56.5211 569.3 58.9022 572.89 58.9022C576.479 58.9022 579.891 56.4855 579.891 48.1692ZM612.736 36.7253L610.462 37.4716C609.964 37.6493 609.928 37.9336 609.928 38.7511V60.466H607.156L594.326 43.62C593.793 42.9448 593.225 42.1274 593.047 41.4521H592.869C592.869 41.9497 592.905 42.8737 592.905 43.7977V57.4451C592.905 58.2981 592.976 58.6179 593.473 58.7245L596.388 59.542V60.1106H587.432V59.542L589.671 58.7601C590.168 58.6179 590.204 58.3336 590.204 57.5162V38.8932C590.204 38.0758 590.168 37.7559 589.671 37.6138L586.721 36.7964V36.1211H594.646L605.521 50.7991C606.019 51.4744 606.979 52.7538 607.121 53.5002H607.263C607.263 53.0026 607.227 51.8298 607.227 50.6214V38.7866C607.227 37.9692 607.192 37.6493 606.694 37.5427L603.744 36.7253V36.1211H612.736V36.7253ZM633.29 54.3887L632.295 60.1106H614.703V59.542L617.013 58.7956C617.475 58.6179 617.511 58.3336 617.511 57.5162V38.7511C617.511 37.8981 617.475 37.6138 617.013 37.4716L614.738 36.7253V36.1211H625.649V36.7253L622.877 37.4716C622.38 37.5782 622.309 37.8981 622.309 38.7511V57.1252C622.309 58.0493 622.806 58.2625 623.446 58.2625H629.203C630.021 58.2625 630.447 57.8716 630.66 57.4096L632.189 54.1043L633.29 54.3887ZM653.457 36.7253L652.249 37.4005C651.751 37.6849 651.538 37.9692 651.112 38.7155L644.715 50.1594V57.5162C644.715 58.3336 644.75 58.6179 645.248 58.7956L647.487 59.542V60.1106H637.109V59.542L639.384 58.7956C639.881 58.6179 639.917 58.3336 639.917 57.5162V50.4082L633.2 38.6444C632.773 37.9336 632.595 37.6849 632.133 37.4005L630.925 36.7253V36.1211H641.125V36.7253L638.957 37.4361C638.46 37.6138 638.211 38.0403 638.566 38.68L643.471 47.8138L648.304 38.7155C648.66 38.0403 648.411 37.6138 647.949 37.4361L645.639 36.7253V36.1211H653.457V36.7253Z" fill="#F5F9E9"/>
<path d="M518.699 109.111H513.846L507.501 99.7263L513.26 93.1146C513.686 92.6347 513.447 92.3148 512.993 92.1548L511.394 91.5683V91.1151H518.059V91.5683L516.672 92.1815C516.326 92.3415 516.059 92.5547 515.659 93.0346L510.754 98.4733L516.992 107.351C517.286 107.751 517.552 107.991 517.899 108.204L518.699 108.684V109.111ZM509.181 109.111H501.37V108.684L503.076 108.124C503.449 107.991 503.476 107.778 503.476 107.164V93.0879C503.476 92.4481 503.449 92.2348 503.076 92.1282L501.396 91.5683V91.1151H509.181V91.5683L507.475 92.1282C507.128 92.2348 507.075 92.4481 507.075 93.0879V107.164C507.075 107.778 507.128 107.991 507.475 108.124L509.181 108.684V109.111ZM533.642 108.657L529.029 109.324L528.843 109.191L528.603 107.591H528.416C526.923 108.871 525.59 109.457 523.937 109.457C521.405 109.457 520.045 107.618 520.045 105.352V97.5402C520.045 96.9803 519.965 96.767 519.565 96.687L517.992 96.3405V95.8872L523.084 95.1941L523.271 95.3274V104.552C523.271 106.311 524.257 107.458 525.937 107.458C526.79 107.458 527.617 107.084 528.31 106.525V97.5402C528.31 96.9803 528.256 96.767 527.856 96.687L526.284 96.3405V95.8872L531.349 95.1941L531.536 95.3274V105.911L531.669 106.978C531.749 107.538 531.749 107.751 532.149 107.858L533.642 108.204V108.657ZM549.893 109.111H542.855V108.711L544.401 108.177C544.721 108.071 544.774 107.884 544.774 107.324V99.9929C544.774 98.2067 543.735 97.0603 541.975 97.0603C541.069 97.0603 540.136 97.4069 539.416 97.9667V107.324C539.416 107.911 539.469 108.071 539.789 108.177L541.335 108.711V109.111H534.297V108.711L535.843 108.177C536.163 108.071 536.19 107.884 536.19 107.324V98.5799L536.057 97.5402C535.977 96.9803 535.977 96.767 535.577 96.687L534.084 96.3405V95.8872L538.696 95.1941L538.883 95.3274L539.149 96.9003H539.336C540.855 95.6206 542.242 95.0874 543.948 95.0874C546.587 95.0874 548 96.8737 548 99.1931V107.324C548 107.911 548.027 108.071 548.347 108.177L549.893 108.711V109.111ZM571.496 101.592C571.496 106.151 568.75 109.404 564.031 109.404C562.058 109.404 560.032 108.897 558.859 108.497V91.7016C558.859 91.1418 558.779 90.9285 558.379 90.8485L556.806 90.5019V90.0487L561.898 89.3555L562.085 89.4888V97.0603H562.138C563.418 95.9939 564.671 95.354 566.431 95.354C569.843 95.354 571.496 98.5266 571.496 101.592ZM568.243 103.272C568.243 100.793 567.177 97.4602 564.271 97.4602C563.445 97.4602 562.671 97.7801 562.085 98.26V106.844C562.538 107.404 563.605 108.018 564.831 108.018C567.444 108.018 568.243 105.511 568.243 103.272ZM587.245 101.966C587.245 106.258 584.392 109.537 580.1 109.537C575.914 109.537 573.408 106.791 573.408 102.552C573.408 98.4999 575.994 94.9808 580.526 94.9808C584.872 94.9808 587.245 97.8867 587.245 101.966ZM583.726 103.512C583.726 101.166 582.792 96.0739 579.86 96.0739C577.62 96.0739 576.927 98.4199 576.927 100.979C576.927 103.379 577.807 108.444 580.66 108.444C582.979 108.444 583.726 106.045 583.726 103.512ZM601.862 97.2736H599.729C599.996 97.7268 600.183 98.4199 600.183 99.1398C600.183 101.912 597.73 103.565 594.797 103.565C593.917 103.565 593.118 103.459 592.451 103.219L591.758 103.699C591.358 103.992 590.985 104.392 590.985 104.898C590.985 105.698 591.785 106.231 593.278 106.231H597.01C599.303 106.231 601.356 107.031 601.356 109.617C601.356 112.923 597.597 114.629 594.344 114.629C592.398 114.629 588.532 114.069 588.532 111.483C588.532 110.417 589.465 109.377 591.171 108.791V108.684C589.732 108.524 588.719 107.378 588.719 106.231C588.719 105.112 589.545 104.205 590.398 103.592L591.518 102.766C590.372 102.046 589.732 100.873 589.732 99.4064C589.732 96.767 591.998 94.9808 595.117 94.9808C596.61 94.9808 597.783 95.354 598.423 95.8073H601.862V97.2736ZM597.223 99.8596C597.197 98.4466 596.53 95.9939 594.744 95.9939C593.278 95.9939 592.691 97.3269 592.691 98.7132C592.691 100.126 593.358 102.552 595.17 102.552C596.637 102.552 597.223 101.219 597.223 99.8596ZM599.009 110.817C599.009 109.431 597.916 109.004 596.583 109.004H592.371C591.678 109.244 590.932 109.83 590.905 110.764C590.878 112.47 593.064 113.243 595.064 113.243C597.197 113.243 599.009 112.416 599.009 110.817Z" fill="#F5F9E9"/>
<line x1="174.788" y1="2.88477" x2="174.788" y2="354.885" stroke="#FBFDF7" stroke-dasharray="2 2"/>
<line x1="908.788" y1="2.88477" x2="908.788" y2="354.885" stroke="#FBFDF7"/>
<path d="M966.52 78.9101V77.7729L969.577 77.062C970.11 76.9199 970.43 76.4579 970.43 75.5694V70.6649H950.883C950.065 70.6649 949.745 70.7004 949.603 71.1979L948.857 73.6147H948.288V62.8816H948.857L949.603 65.3338C949.745 65.7959 950.065 65.8669 950.883 65.8669H970.43V60.8913C970.43 60.0028 970.11 59.5408 969.577 59.4342L966.52 58.6879V57.5506H972.278V78.9101H966.52ZM948.288 103.762V97.329L960.514 88.5862V89.5102C960.514 92.6022 961.971 95.1255 965.703 95.1255C969.79 95.1255 970.678 92.7088 970.678 89.4036V87.7332H950.883C950.065 87.7332 949.781 87.8043 949.603 88.2663L948.857 90.5409H948.288V80.1277H948.857L949.603 82.4378C949.781 82.8998 950.065 82.9353 950.883 82.9353H969.648C970.501 82.9353 970.785 82.8998 970.927 82.4378L971.673 80.1632H972.278V91.4294C972.278 95.8363 971.211 100.208 966.413 100.208C962.717 100.208 960.834 97.2935 960.194 94.3081L950.634 101.487C950.101 101.914 949.745 102.234 949.461 102.731L948.857 103.762H948.288ZM971.673 124.748L970.998 123.539C970.714 123.042 970.43 122.828 969.683 122.402L958.239 116.005H950.883C950.065 116.005 949.781 116.04 949.603 116.538L948.857 118.777H948.288V108.399H948.857L949.603 110.674C949.781 111.171 950.065 111.207 950.883 111.207H957.991L969.754 104.49C970.465 104.063 970.714 103.886 970.998 103.424L971.673 102.215H972.278V112.415H971.673L970.963 110.247C970.785 109.75 970.358 109.501 969.719 109.856L960.585 114.761L969.683 119.594C970.358 119.95 970.785 119.701 970.963 119.239L971.673 116.929H972.278V124.748H971.673ZM948.288 148.868V142.4L960.798 133.942L969.612 141.618C970.252 142.187 970.678 141.867 970.892 141.263L971.673 139.13H972.278V148.015H971.673L970.856 146.167C970.643 145.705 970.358 145.35 969.719 144.817L962.469 138.277L950.634 146.594C950.101 146.985 949.781 147.34 949.496 147.802L948.857 148.868H948.288ZM948.288 136.181V125.767H948.857L949.603 128.042C949.781 128.54 950.065 128.575 950.883 128.575H969.648C970.501 128.575 970.785 128.54 970.927 128.042L971.673 125.803H972.278V136.181H971.673L970.927 133.906C970.785 133.444 970.501 133.373 969.648 133.373H950.883C950.065 133.373 949.781 133.444 949.603 133.906L948.857 136.181H948.288ZM965.916 179.172C959.483 179.172 957.6 172.953 957.6 167.977L959.199 167.906C959.234 171.069 960.905 174.125 965.099 174.125C969.079 174.125 970.678 171.886 970.678 168.439V166.449H950.989C950.136 166.449 949.816 166.52 949.674 167.017L948.857 170.145H948.288V158.843H948.857L949.639 161.153C949.781 161.651 950.065 161.651 950.918 161.651H969.648C970.501 161.651 970.785 161.615 970.927 161.153L971.673 158.879H972.278V169.861C972.278 173.45 971.922 179.172 965.916 179.172ZM948.288 202.615V192.699H948.857L949.603 194.903C949.745 195.436 950.065 195.649 950.847 195.365L956.142 193.517V184.703L950.883 182.677C950.101 182.393 949.745 182.641 949.603 183.139L948.857 185.342H948.288V177.772H948.857L949.568 178.91C949.852 179.372 950.136 179.62 950.883 179.94L972.811 188.79V192.273L950.811 200.482C950.065 200.767 949.852 200.98 949.568 201.442L948.857 202.615H948.288ZM958.062 192.841L965.738 190.14C966.733 189.785 967.728 189.43 968.581 189.394V189.252C967.906 189.181 966.84 188.79 965.667 188.328L958.062 185.378V192.841ZM977.075 194.476C975.121 194.476 973.415 192.984 973.415 190.46C973.415 188.008 974.765 186.728 976.756 186.728C978.746 186.728 980.452 188.221 980.452 190.745C980.452 193.197 979.066 194.476 977.075 194.476ZM976.542 192.095C977.644 192.095 979.279 191.562 979.279 190.318C979.279 189.394 978.39 189.11 977.36 189.11C976.223 189.11 974.623 189.607 974.623 190.851C974.623 191.811 975.512 192.095 976.542 192.095ZM948.288 243.877V233.606H948.857L949.603 235.845C949.781 236.343 950.065 236.378 950.883 236.378H965.276C966.165 236.378 967.338 236.378 968.19 236.414V236.236C967.728 236.094 966.591 235.667 965.134 235.063L948.288 228.382V226.107L965.063 219.461C966.058 219.07 966.982 218.679 967.871 218.502V218.288C967.409 218.324 966.698 218.324 964.921 218.324H950.954C950.101 218.324 949.816 218.395 949.639 218.892L948.857 221.487H948.288V212.886H948.857L949.603 215.161C949.781 215.658 950.065 215.694 950.883 215.694H969.577C970.394 215.694 970.678 215.658 970.856 215.161L971.673 212.744H972.278V221.38L956.747 227.244C955.432 227.742 954.65 228.026 953.548 228.168V228.275C954.472 228.453 955.361 228.808 956.676 229.306L972.278 235.525V243.877H971.673L970.927 241.603C970.749 241.141 970.465 241.069 969.648 241.069H950.883C950.065 241.069 949.781 241.141 949.603 241.603L948.857 243.877H948.288ZM948.288 256.374V245.961H948.857L949.603 248.236C949.781 248.733 950.065 248.769 950.883 248.769H969.648C970.501 248.769 970.785 248.733 970.927 248.236L971.673 245.997H972.278V256.374H971.673L970.927 254.1C970.785 253.638 970.501 253.567 969.648 253.567H950.883C950.065 253.567 949.781 253.638 949.603 254.1L948.857 256.374H948.288ZM958.381 283.863L957.635 281.588C957.457 281.091 957.173 281.055 956.356 281.055H949.177C948.146 277.927 947.755 274.693 947.755 271.424C947.755 263.214 952.446 258.558 960.265 258.558C968.368 258.558 972.917 264.778 972.917 272.703C972.917 275.511 972.597 278.354 971.709 280.948H966.591V279.776L968.724 279.1C969.257 278.958 969.577 278.603 969.861 277.999C970.536 276.612 970.998 274.907 970.998 272.774C970.998 266.555 966.591 263.854 960.798 263.854C954.579 263.854 949.568 266.057 949.568 272.277C949.568 273.84 949.994 275.297 950.456 276.328H956.214C957.066 276.328 957.386 276.257 957.528 275.795L958.346 272.596H958.986V283.863H958.381Z" fill="#F5F9E9"/>
<line x1="174.288" y1="298.22" x2="673.288" y2="298.22" stroke="#FBFDF7" stroke-dasharray="2 2"/>
<line x1="173.288" y1="132.22" x2="903.288" y2="132.22" stroke="#FBFDF7" stroke-dasharray="2 2"/>
<line x1="675.788" y1="136.111" x2="675.788" y2="354.111" stroke="#FBFDF7" stroke-dasharray="2 2"/>
<line x1="381.788" y1="136.111" x2="381.788" y2="296.111" stroke="#FBFDF7" stroke-dasharray="2 2"/>
</svg>
