<?xml version="1.0" encoding="UTF-8"?>
<svg id="Layer_1" data-name="Layer 1" xmlns="http://www.w3.org/2000/svg" viewBox="0 0 283 424.99">
  <defs>
    <style>
      .cls-1 {
        fill: #845352;
        stroke: #fbacbe;
        stroke-miterlimit: 10;
        stroke-width: 3px;
      }

      .cls-2 {
        fill: none;
        stroke: #fbfdf7;
        stroke-dasharray: 2 2;
      }

      .cls-3 {
        fill: #f5f9e9;
      }
    </style>
  </defs>
  <path class="cls-1" d="M244.49,423.49H38.5c0-17.84-16.57-32.31-37-32.31V33.81c20.44,0,37-14.47,37-32.31h205.99c0,17.84,16.57,32.31,37.01,32.31v357.38c-20.44,0-37.01,14.47-37.01,32.31h0Z"/>
  <path class="cls-3" d="M36.47,365.17c0,1.42-1.02,3.33-4.08,3.33h-5.06v-.22l1.18-.34c.21-.06.24-.21.24-.58v-8.53c0-.37-.03-.51-.24-.58l-1.17-.34v-.22h4.35c1.6,0,3.98.02,3.98,2.24,0,1.5-1.52,2.27-2.24,2.54v.06c1.44-.05,3.02.9,3.02,2.62ZM34,360.29c0-1.9-1.57-1.95-2.72-1.95h-.88v4.05h1.2c.69,0,2.4-.14,2.4-2.1ZM34.55,365.44c0-2.03-1.28-2.38-2.75-2.38h-1.39v4.26c0,.42.22.51.51.51h1.04c1.22,0,2.59-.46,2.59-2.38ZM41.61,368.5h-3.98v-.21l1.07-.32c.19-.06.21-.18.21-.51v-9.47c0-.34-.05-.45-.29-.5l-1.12-.19v-.24l2.72-.42.11.08v10.75c0,.34.02.43.21.5l1.07.32v.21ZM45.2,357.52c0,.54-.4,1.02-1.02,1.02-.58,0-.93-.38-.93-.93s.38-1.01,1.01-1.01c.58,0,.94.37.94.91ZM46.17,368.5h-3.98v-.21l1.07-.32c.19-.06.21-.18.21-.51v-5.89c0-.34-.03-.46-.27-.51l-1.14-.19v-.24l2.72-.42.11.08v7.17c0,.34.02.45.21.51l1.07.32v.21ZM54.43,360.63l-.43.29c-.13.08-.24.19-.32.43l-2.67,7.23h-1.07l-2.77-7.22c-.1-.27-.18-.34-.35-.45l-.46-.29v-.19h3.52v.19l-.98.29c-.21.06-.24.27-.13.56l1.66,4.58c.16.43.3.83.3,1.1h.05c0-.18.14-.56.34-1.12l1.63-4.62c.1-.26-.02-.4-.21-.46l-1.01-.32v-.19h2.9v.19ZM65.69,366.88c-1.01,1.04-1.79,1.84-3.38,1.84-2.22,0-3.39-1.94-3.39-4.02,0-2.35,1.3-4.64,3.86-4.64,2.02,0,2.85,1.7,2.85,3.36v.29h-5.5c.05,2.9,1.82,3.57,3.06,3.57.99,0,1.79-.3,2.32-.69l.19.29ZM64.11,362.93c.05-1.12-.7-2.16-1.97-2.16-1.1,0-1.94,1.07-2.02,2.29h2.11l1.87-.13ZM75.79,368.5h-3.98v-.21l1.07-.32c.19-.06.21-.18.21-.51v-4.43c0-1.15-.7-1.86-1.81-1.86-.64,0-1.33.26-1.84.67v5.63c0,.34.02.43.21.5l1.07.32v.21h-3.98v-.21l1.07-.32c.19-.06.21-.18.21-.51v-5.26l-.08-.62c-.05-.34-.05-.46-.29-.51l-1.04-.19v-.24l2.42-.42.11.08.19,1.01h.11c1.04-.9,1.87-1.17,2.78-1.17,1.68,0,2.29,1.23,2.29,2.48v4.86c0,.34.02.43.21.5l1.07.32v.21ZM88.78,368.2l-2.42.4-.11-.1-.16-.99h-.11c-.82.69-1.58,1.17-2.7,1.17-2.08,0-2.91-2.22-2.91-3.78,0-2.38,1.33-4.61,4.03-4.61.51,0,1.1.1,1.58.29v-2.59c0-.34-.03-.46-.27-.5l-1.17-.19v-.24l2.75-.42.11.08v9.89l.06.62c.03.34.05.46.29.51l1.02.21v.24ZM85.98,366.96v-5.14c-.22-.34-.9-.78-1.87-.78-1.66,0-2.32,1.36-2.32,2.88s.69,3.62,2.59,3.62c.64,0,1.17-.24,1.6-.58ZM95.97,366.88c-1.01,1.04-1.79,1.84-3.38,1.84-2.22,0-3.39-1.94-3.39-4.02,0-2.35,1.3-4.64,3.86-4.64,2.02,0,2.85,1.7,2.85,3.36v.29h-5.5c.05,2.9,1.82,3.57,3.06,3.57.99,0,1.79-.3,2.32-.69l.19.29ZM94.39,362.93c.05-1.12-.7-2.16-1.97-2.16-1.1,0-1.94,1.07-2.02,2.29h2.11l1.87-.13ZM101.12,368.5h-3.98v-.21l1.07-.32c.19-.06.21-.18.21-.51v-9.47c0-.34-.05-.45-.29-.5l-1.12-.19v-.24l2.72-.42.11.08v10.75c0,.34.02.43.21.5l1.07.32v.21ZM113.56,368.2l-2.46.4-.1-.1-.11-1.12h-.1c-.8.66-1.42,1.3-2.64,1.3s-2.05-.85-2.05-1.97c0-1.86,1.46-2.45,4.59-3.12v-.93c0-1.25-.93-1.7-2-1.7-.82,0-1.06.24-1.06.72v.77l-.1.08h-.54c-.34,0-.45-.21-.45-.45,0-.5.58-1.04.96-1.31.54-.38,1.26-.66,2.1-.66,1.84,0,2.46,1.15,2.46,2.93v3.57l.08.61c.05.34.05.48.29.53l1.12.21v.24ZM110.69,367v-2.8c-2.53.45-3.14,1.14-3.14,1.97s.67,1.36,1.47,1.36c.62,0,1.31-.19,1.66-.53ZM120.07,357.14c0,.13-.03.3-.11.5l-.34.75h-.18c-.29-.46-.82-.77-1.44-.77-1.1,0-1.7.8-1.7,1.84v1.14h2.35v.82h-2.3v6.02c0,.34.03.46.22.51l1.52.35v.21h-4.42v-.21l1.06-.32c.19-.06.22-.18.22-.51v-6.05h-1.31v-.82h1.3l.02-.5c.05-1.3,1.6-3.49,4.02-3.49.37,0,1.09.02,1.09.53ZM131.07,360.63l-.43.29c-.13.08-.24.19-.32.43l-2.67,7.23h-1.07l-2.77-7.22c-.1-.27-.18-.34-.35-.45l-.46-.29v-.19h3.52v.19l-.98.29c-.21.06-.24.27-.13.56l1.66,4.58c.16.43.3.83.3,1.1h.05c0-.18.14-.56.34-1.12l1.63-4.62c.1-.26-.02-.4-.21-.46l-1.01-.32v-.19h2.9v.19ZM139.27,364.21c0,2.45-1.62,4.54-4.13,4.54-2.34,0-3.81-1.63-3.81-4.11s1.6-4.58,4.13-4.58c2.34,0,3.81,1.68,3.81,4.14ZM137.65,365.03c0-1.52-.74-4.34-2.62-4.34-1.55,0-2.08,1.52-2.08,3.04,0,1.62.7,4.4,2.54,4.4,1.65,0,2.16-1.6,2.16-3.1ZM145.74,360.76c0,.18-.06.37-.14.56l-.35.82h-.21c-.22-.5-.67-.69-1.1-.69-.38,0-.78.16-1.28.58v5.41c0,.34.02.46.21.51l1.54.35v.21h-4.45v-.21l1.07-.32c.19-.06.21-.18.21-.51v-5.15l-.08-.74c-.03-.34-.05-.46-.29-.51l-1.07-.19v-.24l2.45-.42.13.08.14,1.18h.08c.69-.66,1.33-1.34,2.35-1.34.4,0,.8.13.8.62ZM152.93,366.88c-1.01,1.04-1.79,1.84-3.38,1.84-2.22,0-3.39-1.94-3.39-4.02,0-2.35,1.3-4.64,3.86-4.64,2.02,0,2.85,1.7,2.85,3.36v.29h-5.5c.05,2.9,1.82,3.57,3.06,3.57.99,0,1.79-.3,2.32-.69l.19.29ZM151.34,362.93c.05-1.12-.7-2.16-1.97-2.16-1.1,0-1.94,1.07-2.02,2.29h2.11l1.87-.13ZM159.33,366.08c0,1.28-1.06,2.59-2.83,2.59-.59,0-1.47-.14-2.03-.43v-2.18h.42l.19.91c.08.35.06.48.29.62.26.16.7.35,1.26.35.78,0,1.6-.5,1.6-1.33,0-1.01-.99-1.38-2.06-1.9-1.02-.51-1.79-1.1-1.79-2.27s.96-2.34,2.54-2.34c.42,0,1.18.05,1.89.38v1.97h-.42l-.16-.85c-.03-.21-.1-.32-.26-.45-.24-.18-.72-.35-1.2-.35-.82,0-1.34.48-1.34,1.07,0,.78.75,1.15,2.1,1.78,1.15.53,1.81,1.22,1.81,2.42ZM168.22,368.5h-3.98v-.21l1.07-.32c.19-.06.21-.18.21-.51v-9.47c0-.34-.05-.45-.29-.5l-1.12-.19v-.24l2.72-.42.11.08v10.75c0,.34.02.43.21.5l1.07.32v.21ZM180.53,366.88c-1.01,1.04-1.79,1.84-3.38,1.84-1.3,0-2.24-.67-2.8-1.63-.98.96-1.7,1.58-3.18,1.58-1.18,0-2.05-.85-2.05-1.97,0-1.86,1.46-2.45,4.59-3.12v-.9c0-1.25-.93-1.7-2-1.7-.82,0-1.06.24-1.06.72v.77l-.1.08h-.54c-.34,0-.45-.21-.45-.45,0-.5.58-1.04.96-1.31.54-.38,1.26-.66,2.1-.66,1.17,0,1.86.45,2.19,1.25.64-.82,1.57-1.33,2.8-1.33,2.02,0,2.85,1.7,2.85,3.36v.29h-5.5c.05,2.9,1.82,3.57,3.06,3.57.99,0,1.79-.3,2.32-.69l.19.29ZM173.71,367v-2.8c-2.53.45-3.14,1.14-3.14,1.97s.67,1.36,1.47,1.36c.62,0,1.31-.19,1.66-.53ZM178.94,362.93c.05-1.12-.7-2.16-1.97-2.16-1.1,0-1.94,1.07-2.02,2.29h2.11l1.87-.13ZM186.92,366.08c0,1.28-1.06,2.59-2.83,2.59-.59,0-1.47-.14-2.03-.43v-2.18h.42l.19.91c.08.35.06.48.29.62.26.16.7.35,1.26.35.78,0,1.6-.5,1.6-1.33,0-1.01-.99-1.38-2.06-1.9-1.02-.51-1.79-1.1-1.79-2.27s.96-2.34,2.54-2.34c.42,0,1.18.05,1.89.38v1.97h-.42l-.16-.85c-.03-.21-.1-.32-.26-.45-.24-.18-.72-.35-1.2-.35-.82,0-1.34.48-1.34,1.07,0,.78.75,1.15,2.1,1.78,1.15.53,1.81,1.22,1.81,2.42ZM194.57,366.88c-1.01,1.04-1.79,1.84-3.38,1.84-2.22,0-3.39-1.94-3.39-4.02,0-2.35,1.3-4.64,3.86-4.64,2.02,0,2.85,1.7,2.85,3.36v.29h-5.5c.05,2.9,1.82,3.57,3.06,3.57.99,0,1.79-.3,2.32-.69l.19.29ZM192.98,362.93c.05-1.12-.7-2.16-1.97-2.16-1.1,0-1.94,1.07-2.02,2.29h2.11l1.87-.13ZM201.94,357.14c0,.13-.03.3-.11.5l-.34.75h-.18c-.29-.46-.82-.77-1.44-.77-1.1,0-1.7.8-1.7,1.84v1.14h2.35v.82h-2.3v6.02c0,.34.03.46.22.51l1.52.35v.21h-4.42v-.21l1.06-.32c.19-.06.22-.18.22-.51v-6.05h-1.31v-.82h1.3l.02-.5c.05-1.3,1.6-3.49,4.02-3.49.37,0,1.09.02,1.09.53ZM212.76,366.88c-1.01,1.04-1.79,1.84-3.38,1.84-1.3,0-2.24-.67-2.8-1.63-.98.96-1.7,1.58-3.18,1.58-1.18,0-2.05-.85-2.05-1.97,0-1.86,1.46-2.45,4.59-3.12v-.9c0-1.25-.93-1.7-2-1.7-.82,0-1.06.24-1.06.72v.77l-.1.08h-.54c-.34,0-.45-.21-.45-.45,0-.5.58-1.04.96-1.31.54-.38,1.26-.66,2.1-.66,1.17,0,1.86.45,2.19,1.25.64-.82,1.57-1.33,2.8-1.33,2.02,0,2.85,1.7,2.85,3.36v.29h-5.5c.05,2.9,1.82,3.57,3.06,3.57.99,0,1.79-.3,2.32-.69l.19.29ZM205.94,367v-2.8c-2.53.45-3.14,1.14-3.14,1.97s.67,1.36,1.47,1.36c.62,0,1.31-.19,1.66-.53ZM211.18,362.93c.05-1.12-.7-2.16-1.97-2.16-1.1,0-1.94,1.07-2.02,2.29h2.11l1.87-.13ZM217.91,368.5h-3.98v-.21l1.07-.32c.19-.06.21-.18.21-.51v-9.47c0-.34-.05-.45-.29-.5l-1.12-.19v-.24l2.72-.42.11.08v10.75c0,.34.02.43.21.5l1.07.32v.21ZM222.47,368.5h-3.98v-.21l1.07-.32c.19-.06.21-.18.21-.51v-9.47c0-.34-.05-.45-.29-.5l-1.12-.19v-.24l2.72-.42.11.08v10.75c0,.34.02.43.21.5l1.07.32v.21ZM229.86,366.88c-1.01,1.04-1.79,1.84-3.38,1.84-2.22,0-3.39-1.94-3.39-4.02,0-2.35,1.3-4.64,3.86-4.64,2.02,0,2.85,1.7,2.85,3.36v.29h-5.5c.05,2.9,1.82,3.57,3.06,3.57.99,0,1.79-.3,2.32-.69l.19.29ZM228.28,362.93c.05-1.12-.7-2.16-1.97-2.16-1.1,0-1.94,1.07-2.02,2.29h2.11l1.87-.13ZM236.26,366.08c0,1.28-1.06,2.59-2.83,2.59-.59,0-1.47-.14-2.03-.43v-2.18h.42l.19.91c.08.35.06.48.29.62.26.16.7.35,1.26.35.78,0,1.6-.5,1.6-1.33,0-1.01-.99-1.38-2.06-1.9-1.02-.51-1.79-1.1-1.79-2.27s.96-2.34,2.54-2.34c.42,0,1.18.05,1.89.38v1.97h-.42l-.16-.85c-.03-.21-.1-.32-.26-.45-.24-.18-.72-.35-1.2-.35-.82,0-1.34.48-1.34,1.07,0,.78.75,1.15,2.1,1.78,1.15.53,1.81,1.22,1.81,2.42ZM242.33,366.08c0,1.28-1.06,2.59-2.83,2.59-.59,0-1.47-.14-2.03-.43v-2.18h.42l.19.91c.08.35.06.48.29.62.26.16.7.35,1.26.35.78,0,1.6-.5,1.6-1.33,0-1.01-.99-1.38-2.06-1.9-1.02-.51-1.79-1.1-1.79-2.27s.96-2.34,2.54-2.34c.42,0,1.18.05,1.89.38v1.97h-.42l-.16-.85c-.03-.21-.1-.32-.26-.45-.24-.18-.72-.35-1.2-.35-.82,0-1.34.48-1.34,1.07,0,.78.75,1.15,2.1,1.78,1.15.53,1.81,1.22,1.81,2.42ZM251.12,368.5h-2.02l-3.1-4.56,2.4-2.4c.24-.24.19-.5-.06-.58l-1.06-.34v-.19h3.71v.21l-.77.32c-.18.08-.38.18-.62.42l-2.29,2.24,2.9,3.97c.19.27.34.37.51.46l.4.24v.21ZM247.01,368.5h-3.98v-.21l1.07-.32c.19-.06.21-.18.21-.51v-9.47c0-.34-.05-.45-.29-.5l-1.12-.19v-.24l2.72-.42.11.08v10.75c0,.34.02.43.21.5l1.07.32v.21ZM259.28,368.2l-2.46.4-.1-.1-.11-1.12h-.1c-.8.66-1.42,1.3-2.64,1.3s-2.05-.85-2.05-1.97c0-1.86,1.46-2.45,4.59-3.12v-.93c0-1.25-.93-1.7-2-1.7-.82,0-1.06.24-1.06.72v.77l-.1.08h-.54c-.34,0-.45-.21-.45-.45,0-.5.58-1.04.96-1.31.54-.38,1.26-.66,2.1-.66,1.84,0,2.46,1.15,2.46,2.93v3.57l.08.61c.05.34.05.48.29.53l1.12.21v.24ZM256.41,367v-2.8c-2.53.45-3.14,1.14-3.14,1.97s.67,1.36,1.47,1.36c.62,0,1.31-.19,1.66-.53ZM267.69,364.02c0,2.38-1.39,4.66-4.11,4.66-1.22,0-2.42-.34-3.04-.56v-10.13c0-.34-.05-.45-.29-.5l-1.12-.19v-.24l2.72-.42.11.08v4.74h.03c.78-.67,1.58-1.17,2.74-1.17,2.03,0,2.96,1.95,2.96,3.73ZM266.27,365c0-1.71-.75-3.57-2.64-3.57-.66,0-1.23.24-1.66.58v5.14c.22.34.93.78,1.92.78,1.68,0,2.38-1.41,2.38-2.93Z"/>
  <path class="cls-3" d="M74.07,39.93c0,4.07-3.9,6.99-7.73,6.99-1.17,0-3.87-.17-3.87-1.51,0-.23.06-.48.23-.74l.57-1.16h.43c.51,1.19,1.9,1.96,3.27,1.96,2.25,0,3.95-1.71,3.95-4.12,0-3.36-2.7-4.01-5.46-4.01h-1.45v-1.62h1.19c2.25,0,4.58-1.22,4.58-3.67,0-1.85-1.45-3.1-3.27-3.1-1.48,0-2.7.6-3.55,1.48l-.65-.65c1.71-2.1,3.47-2.96,5.77-2.96,3.1,0,4.95,2.13,4.95,4.15s-1.45,3.72-3.55,4.52c1.82.06,4.61,1.31,4.61,4.43ZM89.53,36.41c0,6.17-2.7,10.55-6.91,10.55-3.92,0-6.4-3.55-6.4-9.58s2.67-10.6,6.91-10.6c3.92,0,6.4,3.58,6.4,9.64ZM85.95,38.37c0-4.12-.82-10.32-3.44-10.32-2.1,0-2.7,3.21-2.7,7.25s.8,10.38,3.35,10.38c2.22,0,2.79-3.38,2.79-7.31ZM103.65,34.13c0,6.97-4.46,12.28-10.32,12.74l-.17-1.11c4.09-.54,6.6-4.55,6.91-8.79-1.14.97-2.47,1.65-3.98,1.65-2.96,0-4.89-2.42-4.89-5.43,0-3.73,2.7-6.43,6.34-6.43s6.11,2.79,6.11,7.36ZM100.16,34.08c0-3.1-.94-5.97-3.01-5.97-1.59,0-2.62,1.45-2.62,4.21,0,2.19,1.11,4.35,3.04,4.35.97,0,1.85-.34,2.59-.91.03-.4,0-1.22,0-1.68ZM110.44,44.23c0,1.19-.94,2.27-2.33,2.27-1.31,0-2.07-.85-2.07-2.05s.85-2.25,2.27-2.25c1.28,0,2.13.82,2.13,2.02ZM125.76,36.41c0,6.17-2.7,10.55-6.91,10.55-3.92,0-6.4-3.55-6.4-9.58s2.67-10.6,6.91-10.6c3.92,0,6.4,3.58,6.4,9.64ZM122.18,38.37c0-4.12-.82-10.32-3.44-10.32-2.1,0-2.7,3.21-2.7,7.25s.8,10.38,3.36,10.38c2.22,0,2.79-3.38,2.79-7.31ZM140.26,36.41c0,6.17-2.7,10.55-6.91,10.55-3.92,0-6.4-3.55-6.4-9.58s2.67-10.6,6.91-10.6c3.92,0,6.4,3.58,6.4,9.64ZM136.67,38.37c0-4.12-.82-10.32-3.44-10.32-2.1,0-2.7,3.21-2.7,7.25s.8,10.38,3.35,10.38c2.22,0,2.79-3.38,2.79-7.31ZM169.36,36.44c0,6.03-4.63,10.06-11.15,10.06h-9.35v-.46l1.82-.6c.4-.14.43-.37.43-1.02v-15.01c0-.68-.03-.91-.43-1.02l-1.79-.6v-.48h10.04c6.06,0,10.43,2.45,10.43,9.13ZM165.09,36.78c0-4.89-2.1-8.02-6.68-8.02h-3.47v15.35c0,.74.4.94.91.94h2.1c3.55,0,7.14-2.13,7.14-8.27ZM189.44,46.5h-5.17l-6.77-10.01,6.14-7.05c.45-.51.2-.85-.29-1.02l-1.71-.63v-.48h7.11v.48l-1.48.65c-.37.17-.65.4-1.08.91l-5.23,5.8,6.65,9.47c.31.43.6.68.97.91l.85.51v.46ZM179.29,46.5h-8.33v-.46l1.82-.6c.4-.14.43-.37.43-1.02v-15.01c0-.68-.03-.91-.43-1.02l-1.79-.6v-.48h8.3v.48l-1.82.6c-.37.11-.43.34-.43,1.02v15.01c0,.65.06.88.43,1.02l1.82.6v.46ZM208.65,46.5h-5.17l-6.77-10.01,6.14-7.05c.46-.51.2-.85-.28-1.02l-1.71-.63v-.48h7.11v.48l-1.48.65c-.37.17-.65.4-1.08.91l-5.23,5.8,6.65,9.47c.31.43.6.68.97.91l.85.51v.46ZM198.5,46.5h-8.33v-.46l1.82-.6c.4-.14.43-.37.43-1.02v-15.01c0-.68-.03-.91-.43-1.02l-1.79-.6v-.48h8.3v.48l-1.82.6c-.37.11-.43.34-.43,1.02v15.01c0,.65.06.88.43,1.02l1.82.6v.46ZM217.23,24.89l-8.04,24.79-1.96-.62,8.07-24.76,1.93.6Z"/>
  <path class="cls-3" d="M110.2,71.13l-1.18.35c-.21.06-.24.21-.24.58v3.04c-1.47.46-2.72.62-4.22.62-3.5,0-5.66-2.11-5.66-5.65s2.42-5.68,6.13-5.68c1.26,0,2.51.13,3.71.54v2.18h-.45l-.29-.9c-.06-.21-.14-.32-.45-.46-.62-.3-1.38-.58-2.54-.58-2.93,0-4.22,1.92-4.22,4.64,0,2.86,1.07,5.15,4.29,5.15.85,0,1.47-.18,2.06-.42v-2.45c0-.37-.03-.54-.24-.59l-1.46-.38v-.22h4.77v.22ZM116.64,67.76c0,.18-.06.37-.14.56l-.35.82h-.21c-.22-.5-.67-.69-1.1-.69-.38,0-.78.16-1.28.58v5.41c0,.34.02.46.21.51l1.54.35v.21h-4.45v-.21l1.07-.32c.19-.06.21-.18.21-.51v-5.15l-.08-.74c-.03-.34-.05-.46-.29-.51l-1.07-.19v-.24l2.45-.42.13.08.14,1.18h.08c.69-.66,1.33-1.34,2.35-1.34.4,0,.8.13.8.62ZM124.94,75.2l-2.46.4-.1-.1-.11-1.12h-.1c-.8.66-1.42,1.3-2.64,1.3s-2.05-.85-2.05-1.97c0-1.86,1.46-2.45,4.59-3.12v-.93c0-1.25-.93-1.7-2-1.7-.82,0-1.06.24-1.06.72v.77l-.1.08h-.54c-.34,0-.45-.21-.45-.45,0-.5.58-1.04.96-1.31.54-.38,1.26-.66,2.1-.66,1.84,0,2.46,1.15,2.46,2.93v3.57l.08.61c.05.34.05.48.29.53l1.12.21v.24ZM122.08,74v-2.8c-2.53.45-3.14,1.14-3.14,1.97s.67,1.36,1.47,1.36c.62,0,1.31-.19,1.66-.53ZM130.24,74.51c-.48.46-1.18,1.17-2.19,1.17-1.25,0-1.98-1.01-1.98-2.4v-4.86h-1.31v-.82h1.38v-1.7l1.33-.77v2.46h2.3v.82h-2.3v4.62c0,1.09.51,1.6,1.33,1.6.5,0,.94-.22,1.22-.45l.24.32ZM133.74,64.52c0,.54-.4,1.02-1.02,1.02-.58,0-.93-.38-.93-.93s.38-1.01,1.01-1.01c.58,0,.94.37.94.91ZM134.71,75.5h-3.98v-.21l1.07-.32c.19-.06.21-.18.21-.51v-5.89c0-.34-.03-.46-.27-.51l-1.14-.19v-.24l2.72-.42.11.08v7.17c0,.34.02.45.21.51l1.07.32v.21ZM140.52,73.08c0,1.28-1.06,2.59-2.83,2.59-.59,0-1.47-.14-2.03-.43v-2.18h.42l.19.91c.08.35.06.48.29.62.26.16.7.35,1.26.35.78,0,1.6-.5,1.6-1.33,0-1.01-.99-1.38-2.06-1.9-1.02-.51-1.79-1.1-1.79-2.27s.96-2.34,2.54-2.34c.42,0,1.18.05,1.89.38v1.97h-.42l-.16-.85c-.03-.21-.1-.32-.26-.45-.24-.18-.72-.35-1.2-.35-.82,0-1.34.48-1.34,1.07,0,.78.75,1.15,2.1,1.78,1.15.53,1.81,1.22,1.81,2.42ZM151.64,64.14c0,.13-.03.3-.11.5l-.34.75h-.18c-.29-.46-.82-.77-1.44-.77-1.1,0-1.7.8-1.7,1.84v1.14h2.35v.82h-2.3v6.02c0,.34.03.46.22.51l1.52.35v.21h-4.42v-.21l1.06-.32c.19-.06.22-.18.22-.51v-6.05h-1.31v-.82h1.3l.02-.5c.05-1.3,1.6-3.49,4.02-3.49.37,0,1.09.02,1.09.53ZM156.58,67.76c0,.18-.06.37-.14.56l-.35.82h-.21c-.22-.5-.67-.69-1.1-.69-.38,0-.78.16-1.28.58v5.41c0,.34.02.46.21.51l1.54.35v.21h-4.45v-.21l1.07-.32c.19-.06.21-.18.21-.51v-5.15l-.08-.74c-.03-.34-.05-.46-.29-.51l-1.07-.19v-.24l2.45-.42.13.08.14,1.18h.08c.69-.66,1.33-1.34,2.35-1.34.4,0,.8.13.8.62ZM164.88,75.2l-2.46.4-.1-.1-.11-1.12h-.1c-.8.66-1.42,1.3-2.64,1.3s-2.05-.85-2.05-1.97c0-1.86,1.46-2.45,4.59-3.12v-.93c0-1.25-.93-1.7-2-1.7-.82,0-1.06.24-1.06.72v.77l-.1.08h-.54c-.34,0-.45-.21-.45-.45,0-.5.58-1.04.96-1.31.54-.38,1.26-.66,2.1-.66,1.84,0,2.46,1.15,2.46,2.93v3.57l.08.61c.05.34.05.48.29.53l1.12.21v.24ZM162.01,74v-2.8c-2.53.45-3.14,1.14-3.14,1.97s.67,1.36,1.47,1.36c.62,0,1.31-.19,1.66-.53ZM172.96,68.43h-1.28c.14.22.27.67.27,1.1,0,1.7-1.62,2.61-3.17,2.61-.5,0-.94-.05-1.33-.19l-.58.43c-.26.19-.48.45-.48.75,0,.53.51.8,1.44.8h2.22c1.33,0,2.53.46,2.53,1.97,0,1.73-1.9,2.91-4,2.91-1.22,0-3.46-.34-3.46-1.95,0-.67.53-1.25,1.66-1.79v-.05c-.86-.03-1.54-.67-1.54-1.33,0-.53.37-.98.78-1.28l.93-.69c-.72-.42-1.14-1.15-1.14-2.03,0-1.71,1.6-2.62,3.17-2.62.91,0,1.66.3,1.92.53h2.03v.83ZM170.45,69.93c-.02-.98-.56-2.29-1.68-2.29-.96,0-1.42.75-1.42,1.65,0,.99.56,2.29,1.69,2.29.96,0,1.43-.75,1.41-1.65ZM171.39,76.41c0-.94-.69-1.22-1.5-1.22h-2.58c-.43.19-.93.56-.94,1.18-.03,1.15,1.33,1.66,2.58,1.66,1.31,0,2.45-.56,2.45-1.63ZM178.5,74.51c-.48.46-1.18,1.17-2.19,1.17-1.25,0-1.98-1.01-1.98-2.4v-4.86h-1.31v-.82h1.38v-1.7l1.33-.77v2.46h2.3v.82h-2.3v4.62c0,1.09.51,1.6,1.33,1.6.5,0,.94-.22,1.22-.45l.24.32Z"/>
  <path class="cls-3" d="M88.72,107.5h-4.48v-.22l1.18-.34c.21-.06.24-.21.24-.58v-4.21h-5.65v4.21c0,.37.03.51.24.58l1.17.34v.22h-4.48v-.22l1.18-.34c.21-.06.24-.21.24-.58v-8.53c0-.37-.03-.51-.24-.58l-1.17-.34v-.22h4.48v.22l-1.18.34c-.21.06-.24.21-.24.58v3.52h5.65v-3.52c0-.37-.03-.51-.24-.58l-1.17-.34v-.22h4.48v.22l-1.18.34c-.21.06-.24.21-.24.58v8.53c0,.37.03.51.24.58l1.17.34v.22ZM100.16,96.92l-.58.32c-.22.13-.38.24-.53.58l-4.06,9.94h-.96l-3.78-10c-.13-.34-.24-.38-.46-.51l-.59-.32v-.22h4.13v.22l-1.12.32c-.24.06-.32.21-.19.54l2.69,7.42c.11.32.13.56.13.56h.03s.05-.24.18-.58l2.93-7.38c.13-.34.03-.51-.18-.58l-1.12-.32v-.22h3.49v.22ZM109.02,105.29l-.5,2.21h-7.89v-.22l1.18-.34c.21-.06.24-.21.24-.58v-8.53c0-.37-.03-.51-.24-.58l-1.17-.34v-.22h7.66v2.02h-.42l-.29-.9c-.06-.21-.26-.37-.62-.37h-3.28v3.97h2.9c.37,0,.48-.03.56-.22l.35-.85h.32v2.91h-.32l-.35-.85c-.08-.19-.19-.22-.56-.22h-2.9v4.03c0,.42.22.53.51.53h3.02c.37,0,.54-.19.66-.37l.72-1.2.4.11ZM120.25,107.5h-2.38l-4.42-5.6h.5c1.36,0,2.69-.53,2.69-2.27,0-1.94-1.14-2.29-2.74-2.29h-.9v9.02c0,.37.03.51.24.58l1.17.34v.22h-4.48v-.22l1.2-.34c.21-.06.22-.21.22-.58v-8.53c0-.37-.02-.51-.22-.58l-1.18-.34v-.22h4.54c1.79,0,3.92.22,3.92,2.59,0,1.6-1.34,2.53-2.8,2.86l3.65,4.43c.19.22.35.32.54.43l.45.26v.22ZM131.83,107.5h-6.86v-.78c.67-.54,2.16-1.97,2.9-2.8.9-1.01,2.03-2.11,2.03-3.94,0-1.36-.98-2.3-2.37-2.3-.98,0-1.63.29-2.32.94l-.24-.29c.96-1.31,1.97-1.87,3.33-1.87,1.65,0,3.12,1.22,3.12,3.09s-1.39,3.31-2.14,4.05c-.69.69-2.02,2.05-2.75,2.66h5.31v1.25ZM135.68,106.32c0,.62-.48,1.18-1.18,1.18-.66,0-1.06-.45-1.06-1.07s.43-1.15,1.15-1.15c.66,0,1.09.42,1.09,1.04ZM154.43,107.5h-4.42v-.22l1.17-.34c.21-.06.24-.21.24-.58v-7.07c0-.43,0-.86.02-1.3h-.1c-.06.22-.27.62-.54,1.3l-3.31,8.21h-.69l-3.36-8.21c-.16-.4-.34-.78-.43-1.22h-.1c0,.27.02.54.02,1.22v7.02c0,.37.05.53.26.59l1.31.37v.22h-4.03v-.22l1.18-.34c.21-.06.24-.21.24-.58v-8.45c0-.37-.03-.51-.24-.58l-1.33-.42v-.22h3.78l2.91,7.34c.21.51.35.78.42,1.31h.03c.06-.42.22-.69.46-1.28l3.02-7.38h3.49v.22l-1.17.35c-.21.06-.24.21-.24.58v8.51c0,.37.03.51.24.58l1.17.34v.22ZM165.95,107.5h-4.11v-.22l1.12-.32c.24-.06.3-.22.18-.56l-.93-2.58h-4.13l-1.02,2.54c-.13.34-.03.53.18.59l1.12.32v.22h-3.42v-.22l.58-.32c.22-.13.35-.26.5-.59l4.16-9.95h.88l3.87,10.02c.13.34.22.4.45.53l.59.32v.22ZM161.9,103.05l-1.36-3.73c-.13-.34-.29-.7-.29-1.01h-.05c0,.14-.13.46-.35,1.04l-1.47,3.7h3.52ZM162.27,94.51c0,.86-.59,1.6-1.66,1.6-1.01,0-1.57-.58-1.57-1.46s.61-1.62,1.68-1.62c1.01,0,1.55.61,1.55,1.47ZM161.42,94.75c0-.46-.27-1.25-.9-1.25-.46,0-.62.42-.62.86,0,.5.26,1.25.86,1.25.48,0,.66-.42.66-.86ZM178.43,96.92l-1.18.35c-.21.06-.22.21-.22.58v9.84h-.94l-6.26-8.26c-.22-.29-.48-.56-.58-.93h-.08c0,.22.02.5.02.93v6.88c0,.37.05.53.26.58l1.46.38v.22h-4.18v-.22l1.17-.35c.21-.06.24-.19.24-.56v-8.43c0-.37-.03-.51-.24-.58l-1.47-.42v-.24h3.44l5.34,7.23c.16.22.66.8.7,1.14h.06c0-.16-.02-.51-.02-1.22v-5.97c0-.37-.02-.51-.22-.56l-1.49-.4v-.22h4.19v.22ZM187.69,105.29l-.5,2.21h-7.89v-.22l1.18-.34c.21-.06.24-.21.24-.58v-8.53c0-.37-.03-.51-.24-.58l-1.17-.34v-.22h7.66v2.02h-.42l-.29-.9c-.06-.21-.26-.37-.62-.37h-3.28v3.97h2.9c.37,0,.48-.03.56-.22l.35-.85h.32v2.91h-.32l-.35-.85c-.08-.19-.19-.22-.56-.22h-2.9v4.03c0,.42.22.53.51.53h3.02c.37,0,.54-.19.66-.37l.72-1.2.4.11ZM199.98,101.84c0,3.39-2.61,5.66-6.27,5.66h-5.1v-.22l1.18-.34c.21-.06.24-.21.24-.58v-8.53c0-.37-.03-.51-.24-.58l-1.17-.34v-.22h5.49c3.38,0,5.87,1.39,5.87,5.14ZM198.09,102.04c0-2.8-1.26-4.59-4.16-4.59h-2.26v8.77c0,.42.22.53.51.53h1.44c2.26,0,4.46-1.2,4.46-4.7Z"/>
  <path class="cls-2" d="M1.5,307.5h278"/>
  <line class="cls-2" x1="1.5" y1="125" x2="279.5" y2="125"/>
  <path class="cls-3" d="M49.44,168.49c0,1.07-.88,1.97-1.95,1.97s-1.92-.9-1.92-1.97.86-1.94,1.95-1.94,1.92.86,1.92,1.94ZM67.4,170.28c0,2.34-2.02,3.44-4.11,3.44-.88,0-2.05-.19-2.75-.54v-2.29h.48l.29,1.14c.05.21.14.29.43.46.34.21,1.04.43,1.79.43,1.22,0,2.38-.64,2.38-1.98,0-1.15-.99-1.73-1.82-2.13l-1.06-.5c-1.31-.62-2.5-1.33-2.5-2.86s1.38-3.02,3.54-3.02c.22,0,1.6-.05,2.74.5v2.24h-.45l-.3-1.12c-.06-.21-.21-.34-.45-.46-.51-.27-.99-.4-1.58-.4-.94,0-2.08.46-2.08,1.7,0,.94.7,1.41,1.92,1.97l1.04.48c1.36.62,2.5,1.39,2.5,2.96ZM76.92,168.86c0,2.38-1.39,4.66-4.11,4.66-.51,0-1.14-.1-1.62-.29v2.37c0,.34.02.48.21.53l1.54.35v.19h-4.45v-.21l1.07-.32c.19-.06.21-.19.21-.53v-8.42l-.08-.62c-.05-.34-.05-.46-.29-.51l-1.04-.19v-.24l2.42-.42.11.08.19,1.01h.11c.82-.69,1.62-1.17,2.77-1.17,2.03,0,2.96,1.95,2.96,3.73ZM75.5,169.84c0-1.71-.75-3.57-2.64-3.57-.66,0-1.23.24-1.66.58v5.14c.22.34.93.78,1.92.78,1.68,0,2.38-1.41,2.38-2.93ZM84.84,171.88c-1.01,1.04-1.79,1.84-3.38,1.84-2.22,0-3.39-1.94-3.39-4.02,0-2.35,1.3-4.64,3.86-4.64,2.02,0,2.85,1.7,2.85,3.36v.29h-5.5c.05,2.9,1.82,3.57,3.06,3.57.99,0,1.79-.3,2.32-.69l.19.29ZM83.26,167.93c.05-1.12-.7-2.16-1.97-2.16-1.1,0-1.94,1.07-2.02,2.29h2.11l1.87-.13ZM92.26,171.88c-.86.96-1.62,1.84-3.04,1.84-2.16,0-3.17-2.27-3.17-4.14,0-2.24,1.5-4.46,3.87-4.46.53,0,2.03.16,2.03.83,0,.18-.1.4-.18.56l-.42.8h-.21c-.3-.78-.86-1.38-1.82-1.38-1.14,0-1.97,1.2-1.97,2.83,0,2.43,1.25,3.54,2.64,3.54.93,0,1.62-.42,2-.72l.26.3ZM96.25,162.52c0,.54-.4,1.02-1.02,1.02-.58,0-.93-.38-.93-.93s.38-1.01,1.01-1.01c.58,0,.94.37.94.91ZM97.23,173.5h-3.98v-.21l1.07-.32c.19-.06.21-.18.21-.51v-5.89c0-.34-.03-.46-.27-.51l-1.14-.19v-.24l2.72-.42.11.08v7.17c0,.34.02.45.21.51l1.07.32v.21ZM105.58,173.2l-2.46.4-.1-.1-.11-1.12h-.1c-.8.66-1.42,1.3-2.64,1.3s-2.05-.85-2.05-1.97c0-1.86,1.46-2.45,4.59-3.12v-.93c0-1.25-.93-1.7-2-1.7-.82,0-1.06.24-1.06.72v.77l-.1.08h-.54c-.34,0-.45-.21-.45-.45,0-.5.58-1.04.96-1.31.54-.38,1.26-.66,2.1-.66,1.84,0,2.46,1.15,2.46,2.93v3.57l.08.61c.05.34.05.48.29.53l1.12.21v.24ZM102.72,172v-2.8c-2.53.45-3.14,1.14-3.14,1.97s.67,1.36,1.47,1.36c.62,0,1.31-.19,1.66-.53ZM109.87,173.5h-3.98v-.21l1.07-.32c.19-.06.21-.18.21-.51v-9.47c0-.34-.05-.45-.29-.5l-1.12-.19v-.24l2.72-.42.11.08v10.75c0,.34.02.43.21.5l1.07.32v.21ZM121.34,171.88c-1.01,1.04-1.79,1.84-3.38,1.84-2.22,0-3.39-1.94-3.39-4.02,0-2.35,1.3-4.64,3.86-4.64,2.02,0,2.85,1.7,2.85,3.36v.29h-5.5c.05,2.9,1.82,3.57,3.06,3.57.99,0,1.79-.3,2.32-.69l.19.29ZM119.76,167.93c.05-1.12-.7-2.16-1.97-2.16-1.1,0-1.94,1.07-2.02,2.29h2.11l1.87-.13ZM130.97,173.2l-2.42.4-.11-.1-.16-.99h-.11c-.82.69-1.58,1.17-2.7,1.17-2.08,0-2.91-2.22-2.91-3.78,0-2.38,1.33-4.61,4.03-4.61.51,0,1.1.1,1.58.29v-2.59c0-.34-.03-.46-.27-.5l-1.17-.19v-.24l2.75-.42.11.08v9.89l.06.62c.03.34.05.46.29.51l1.02.21v.24ZM128.17,171.96v-5.14c-.22-.34-.9-.78-1.87-.78-1.66,0-2.32,1.36-2.32,2.88s.69,3.62,2.59,3.62c.64,0,1.17-.24,1.6-.58ZM134.36,162.52c0,.54-.4,1.02-1.02,1.02-.58,0-.93-.38-.93-.93s.38-1.01,1.01-1.01c.58,0,.94.37.94.91ZM135.34,173.5h-3.98v-.21l1.07-.32c.19-.06.21-.18.21-.51v-5.89c0-.34-.03-.46-.27-.51l-1.14-.19v-.24l2.72-.42.11.08v7.17c0,.34.02.45.21.51l1.07.32v.21ZM141.07,172.51c-.48.46-1.18,1.17-2.19,1.17-1.25,0-1.98-1.01-1.98-2.4v-4.86h-1.31v-.82h1.38v-1.7l1.33-.77v2.46h2.3v.82h-2.3v4.62c0,1.09.51,1.6,1.33,1.6.5,0,.94-.22,1.22-.45l.24.32ZM144.56,162.52c0,.54-.4,1.02-1.02,1.02-.57,0-.93-.38-.93-.93s.38-1.01,1.01-1.01c.58,0,.94.37.94.91ZM145.54,173.5h-3.98v-.21l1.07-.32c.19-.06.21-.18.21-.51v-5.89c0-.34-.03-.46-.27-.51l-1.14-.19v-.24l2.72-.42.11.08v7.17c0,.34.02.45.21.51l1.07.32v.21ZM154.1,169.21c0,2.45-1.62,4.54-4.13,4.54-2.34,0-3.81-1.63-3.81-4.11s1.6-4.58,4.13-4.58c2.34,0,3.81,1.68,3.81,4.14ZM152.49,170.03c0-1.52-.74-4.34-2.62-4.34-1.55,0-2.08,1.52-2.08,3.04,0,1.62.7,4.4,2.54,4.4,1.65,0,2.16-1.6,2.16-3.1ZM163.81,173.5h-3.98v-.21l1.07-.32c.19-.06.21-.18.21-.51v-4.43c0-1.15-.7-1.86-1.81-1.86-.64,0-1.33.26-1.84.67v5.63c0,.34.02.43.21.5l1.07.32v.21h-3.98v-.21l1.07-.32c.19-.06.21-.18.21-.51v-5.26l-.08-.62c-.05-.34-.05-.46-.29-.51l-1.04-.19v-.24l2.42-.42.11.08.19,1.01h.11c1.04-.9,1.87-1.17,2.78-1.17,1.68,0,2.29,1.23,2.29,2.48v4.86c0,.34.02.43.21.5l1.07.32v.21ZM175.15,171.88c-1.01,1.04-1.79,1.84-3.38,1.84-2.22,0-3.39-1.94-3.39-4.02,0-2.35,1.3-4.64,3.86-4.64,2.02,0,2.85,1.7,2.85,3.36v.29h-5.5c.05,2.9,1.82,3.57,3.06,3.57.99,0,1.79-.3,2.32-.69l.19.29ZM173.57,167.93c.05-1.12-.7-2.16-1.97-2.16-1.1,0-1.94,1.07-2.02,2.29h2.11l1.87-.13ZM185.25,173.5h-3.98v-.21l1.07-.32c.19-.06.21-.18.21-.51v-4.43c0-1.15-.7-1.86-1.81-1.86-.64,0-1.33.26-1.84.67v5.63c0,.34.02.43.21.5l1.07.32v.21h-3.98v-.21l1.07-.32c.19-.06.21-.18.21-.51v-5.26l-.08-.62c-.05-.34-.05-.46-.29-.51l-1.04-.19v-.24l2.42-.42.11.08.19,1.01h.11c1.04-.9,1.87-1.17,2.78-1.17,1.68,0,2.29,1.23,2.29,2.48v4.86c0,.34.02.43.21.5l1.07.32v.21ZM193.47,166.43h-1.28c.14.22.27.67.27,1.1,0,1.7-1.62,2.61-3.17,2.61-.5,0-.94-.05-1.33-.19l-.58.43c-.26.19-.48.45-.48.75,0,.53.51.8,1.44.8h2.22c1.33,0,2.53.46,2.53,1.97,0,1.73-1.9,2.91-4,2.91-1.22,0-3.46-.34-3.46-1.95,0-.67.53-1.25,1.66-1.79v-.05c-.86-.03-1.54-.67-1.54-1.33,0-.53.37-.98.78-1.28l.93-.69c-.72-.42-1.14-1.15-1.14-2.03,0-1.71,1.6-2.62,3.17-2.62.91,0,1.66.3,1.92.53h2.03v.83ZM190.96,167.93c-.02-.98-.56-2.29-1.68-2.29-.96,0-1.42.75-1.42,1.65,0,.99.56,2.29,1.7,2.29.96,0,1.42-.75,1.41-1.65ZM191.9,174.41c0-.94-.69-1.22-1.5-1.22h-2.58c-.43.19-.93.56-.94,1.18-.03,1.15,1.33,1.66,2.58,1.66,1.31,0,2.45-.56,2.45-1.63ZM200.68,171.88c-1.01,1.04-1.79,1.84-3.38,1.84-2.22,0-3.39-1.94-3.39-4.02,0-2.35,1.3-4.64,3.86-4.64,2.02,0,2.85,1.7,2.85,3.36v.29h-5.5c.05,2.9,1.82,3.57,3.06,3.57.99,0,1.79-.3,2.32-.69l.19.29ZM199.1,167.93c.05-1.12-.7-2.16-1.97-2.16-1.1,0-1.94,1.07-2.02,2.29h2.11l1.87-.13ZM205.84,173.5h-3.98v-.21l1.07-.32c.19-.06.21-.18.21-.51v-9.47c0-.34-.05-.45-.29-.5l-1.12-.19v-.24l2.72-.42.11.08v10.75c0,.34.02.43.21.5l1.07.32v.21ZM211.65,171.08c0,1.28-1.06,2.59-2.83,2.59-.59,0-1.47-.14-2.03-.43v-2.18h.42l.19.91c.08.35.06.48.29.62.26.16.7.35,1.26.35.78,0,1.6-.5,1.6-1.33,0-1.01-.99-1.38-2.06-1.9-1.02-.51-1.79-1.1-1.79-2.27s.96-2.34,2.54-2.34c.42,0,1.18.05,1.89.38v1.97h-.42l-.16-.85c-.03-.21-.1-.32-.26-.45-.24-.18-.72-.35-1.2-.35-.82,0-1.34.48-1.34,1.07,0,.78.75,1.15,2.1,1.78,1.15.53,1.81,1.22,1.81,2.42ZM220.45,173.5h-2.02l-3.1-4.56,2.4-2.4c.24-.24.19-.5-.06-.58l-1.06-.34v-.19h3.71v.21l-.77.32c-.18.08-.38.18-.62.42l-2.29,2.24,2.9,3.97c.19.27.34.37.51.46l.4.24v.21ZM216.33,173.5h-3.98v-.21l1.07-.32c.19-.06.21-.18.21-.51v-9.47c0-.34-.05-.45-.29-.5l-1.12-.19v-.24l2.72-.42.11.08v10.75c0,.34.02.43.21.5l1.07.32v.21ZM233.17,169.02c0,2.38-1.39,4.66-4.11,4.66-1.22,0-2.42-.34-3.04-.56v-10.13c0-.34-.05-.45-.29-.5l-1.12-.19v-.24l2.72-.42.11.08v4.74h.03c.78-.67,1.58-1.17,2.74-1.17,2.03,0,2.96,1.95,2.96,3.73ZM231.74,170c0-1.71-.75-3.57-2.64-3.57-.66,0-1.23.24-1.66.58v5.14c.22.34.93.78,1.92.78,1.68,0,2.38-1.41,2.38-2.93ZM242.24,169.21c0,2.45-1.62,4.54-4.13,4.54-2.34,0-3.81-1.63-3.81-4.11s1.6-4.58,4.13-4.58c2.34,0,3.81,1.68,3.81,4.14ZM240.63,170.03c0-1.52-.74-4.34-2.62-4.34-1.55,0-2.08,1.52-2.08,3.04,0,1.62.7,4.4,2.54,4.4,1.65,0,2.16-1.6,2.16-3.1ZM250.96,166.43h-1.28c.14.22.27.67.27,1.1,0,1.7-1.62,2.61-3.17,2.61-.5,0-.94-.05-1.33-.19l-.58.43c-.26.19-.48.45-.48.75,0,.53.51.8,1.44.8h2.22c1.33,0,2.53.46,2.53,1.97,0,1.73-1.9,2.91-4,2.91-1.22,0-3.46-.34-3.46-1.95,0-.67.53-1.25,1.66-1.79v-.05c-.86-.03-1.54-.67-1.54-1.33,0-.53.37-.98.78-1.28l.93-.69c-.72-.42-1.14-1.15-1.14-2.03,0-1.71,1.6-2.62,3.17-2.62.91,0,1.66.3,1.92.53h2.03v.83ZM248.45,167.93c-.02-.98-.56-2.29-1.68-2.29-.96,0-1.42.75-1.42,1.65,0,.99.56,2.29,1.7,2.29.96,0,1.42-.75,1.41-1.65ZM249.39,174.41c0-.94-.69-1.22-1.5-1.22h-2.58c-.43.19-.93.56-.94,1.18-.03,1.15,1.33,1.66,2.58,1.66,1.31,0,2.45-.56,2.45-1.63Z"/>
  <path class="cls-3" d="M49.44,200.49c0,1.07-.88,1.97-1.95,1.97s-1.92-.9-1.92-1.97.86-1.94,1.95-1.94,1.92.86,1.92,1.94ZM64.48,205.5h-4.48v-.22l1.18-.34c.21-.06.24-.21.24-.58v-8.53c0-.37-.03-.51-.24-.58l-1.17-.34v-.22h4.48v.22l-1.18.34c-.21.06-.24.21-.24.58v8.53c0,.37.03.51.24.58l1.17.34v.22ZM74.28,205.5h-3.98v-.21l1.07-.32c.19-.06.21-.18.21-.51v-4.43c0-1.15-.7-1.86-1.81-1.86-.64,0-1.33.26-1.84.67v5.63c0,.34.02.43.21.5l1.07.32v.21h-3.98v-.21l1.07-.32c.19-.06.21-.18.21-.51v-5.26l-.08-.62c-.05-.34-.05-.46-.29-.51l-1.04-.19v-.24l2.42-.42.11.08.19,1.01h.11c1.04-.9,1.87-1.17,2.78-1.17,1.68,0,2.29,1.23,2.29,2.48v4.86c0,.34.02.43.21.5l1.07.32v.21ZM82.5,198.43h-1.28c.14.22.27.67.27,1.1,0,1.7-1.62,2.61-3.17,2.61-.5,0-.94-.05-1.33-.19l-.58.43c-.26.19-.48.45-.48.75,0,.53.51.8,1.44.8h2.22c1.33,0,2.53.46,2.53,1.97,0,1.73-1.9,2.91-4,2.91-1.22,0-3.46-.34-3.46-1.95,0-.67.53-1.25,1.66-1.79v-.05c-.86-.03-1.54-.67-1.54-1.33,0-.53.37-.98.78-1.28l.93-.69c-.72-.42-1.14-1.15-1.14-2.03,0-1.71,1.6-2.62,3.17-2.62.91,0,1.66.3,1.92.53h2.03v.83ZM79.99,199.93c-.02-.98-.56-2.29-1.68-2.29-.96,0-1.42.75-1.42,1.65,0,.99.56,2.29,1.7,2.29.96,0,1.42-.75,1.41-1.65ZM80.93,206.41c0-.94-.69-1.22-1.5-1.22h-2.58c-.43.19-.93.56-.94,1.18-.03,1.15,1.33,1.66,2.58,1.66,1.31,0,2.45-.56,2.45-1.63ZM89.71,203.88c-1.01,1.04-1.79,1.84-3.38,1.84-2.22,0-3.39-1.94-3.39-4.02,0-2.35,1.3-4.64,3.86-4.64,2.02,0,2.85,1.7,2.85,3.36v.29h-5.5c.05,2.9,1.82,3.57,3.06,3.57.99,0,1.79-.3,2.32-.69l.19.29ZM88.13,199.93c.05-1.12-.7-2.16-1.97-2.16-1.1,0-1.94,1.07-2.02,2.29h2.11l1.87-.13ZM99.81,205.5h-3.98v-.21l1.07-.32c.19-.06.21-.18.21-.51v-4.43c0-1.15-.7-1.86-1.81-1.86-.64,0-1.33.26-1.84.67v5.63c0,.34.02.43.21.5l1.07.32v.21h-3.98v-.21l1.07-.32c.19-.06.21-.18.21-.51v-5.26l-.08-.62c-.05-.34-.05-.46-.29-.51l-1.04-.19v-.24l2.42-.42.11.08.19,1.01h.11c1.04-.9,1.87-1.17,2.78-1.17,1.68,0,2.29,1.23,2.29,2.48v4.86c0,.34.02.43.21.5l1.07.32v.21ZM112.45,201.02c0,2.38-1.39,4.66-4.11,4.66-1.22,0-2.42-.34-3.04-.56v-10.13c0-.34-.05-.45-.29-.5l-1.12-.19v-.24l2.72-.42.11.08v4.74h.03c.78-.67,1.58-1.17,2.74-1.17,2.03,0,2.96,1.95,2.96,3.73ZM111.02,202c0-1.71-.75-3.57-2.64-3.57-.66,0-1.23.24-1.66.58v5.14c.22.34.93.78,1.92.78,1.68,0,2.38-1.41,2.38-2.93ZM116.24,194.52c0,.54-.4,1.02-1.02,1.02-.58,0-.93-.38-.93-.93s.38-1.01,1.01-1.01c.58,0,.94.37.94.91ZM117.21,205.5h-3.98v-.21l1.07-.32c.19-.06.21-.18.21-.51v-5.89c0-.34-.03-.46-.27-.51l-1.14-.19v-.24l2.72-.42.11.08v7.17c0,.34.02.45.21.51l1.07.32v.21ZM126.72,205.5h-3.98v-.21l1.07-.32c.19-.06.21-.18.21-.51v-4.43c0-1.15-.7-1.86-1.81-1.86-.64,0-1.33.26-1.84.67v5.63c0,.34.02.43.21.5l1.07.32v.21h-3.98v-.21l1.07-.32c.19-.06.21-.18.21-.51v-5.26l-.08-.62c-.05-.34-.05-.46-.29-.51l-1.04-.19v-.24l2.42-.42.11.08.19,1.01h.11c1.04-.9,1.87-1.17,2.78-1.17,1.68,0,2.29,1.23,2.29,2.48v4.86c0,.34.02.43.21.5l1.07.32v.21ZM135.63,205.2l-2.42.4-.11-.1-.16-.99h-.11c-.82.69-1.58,1.17-2.7,1.17-2.08,0-2.91-2.22-2.91-3.78,0-2.38,1.33-4.61,4.03-4.61.51,0,1.1.1,1.58.29v-2.59c0-.34-.03-.46-.27-.5l-1.17-.19v-.24l2.75-.42.11.08v9.89l.06.62c.03.34.05.46.29.51l1.02.21v.24ZM132.83,203.96v-5.14c-.22-.34-.9-.78-1.87-.78-1.66,0-2.32,1.36-2.32,2.88s.69,3.62,2.59,3.62c.64,0,1.17-.24,1.6-.58ZM139.02,194.52c0,.54-.4,1.02-1.02,1.02-.58,0-.93-.38-.93-.93s.38-1.01,1.01-1.01c.58,0,.94.37.94.91ZM139.99,205.5h-3.98v-.21l1.07-.32c.19-.06.21-.18.21-.51v-5.89c0-.34-.03-.46-.27-.51l-1.14-.19v-.24l2.72-.42.11.08v7.17c0,.34.02.45.21.51l1.07.32v.21ZM149.5,205.5h-3.98v-.21l1.07-.32c.19-.06.21-.18.21-.51v-4.43c0-1.15-.7-1.86-1.81-1.86-.64,0-1.33.26-1.84.67v5.63c0,.34.02.43.21.5l1.07.32v.21h-3.98v-.21l1.07-.32c.19-.06.21-.18.21-.51v-5.26l-.08-.62c-.05-.34-.05-.46-.29-.51l-1.04-.19v-.24l2.42-.42.11.08.19,1.01h.11c1.04-.9,1.87-1.17,2.78-1.17,1.68,0,2.29,1.23,2.29,2.48v4.86c0,.34.02.43.21.5l1.07.32v.21ZM157.72,198.43h-1.28c.14.22.27.67.27,1.1,0,1.7-1.62,2.61-3.17,2.61-.5,0-.94-.05-1.33-.19l-.58.43c-.26.19-.48.45-.48.75,0,.53.51.8,1.44.8h2.22c1.33,0,2.53.46,2.53,1.97,0,1.73-1.9,2.91-4,2.91-1.22,0-3.46-.34-3.46-1.95,0-.67.53-1.25,1.66-1.79v-.05c-.86-.03-1.54-.67-1.54-1.33,0-.53.37-.98.78-1.28l.93-.69c-.72-.42-1.14-1.15-1.14-2.03,0-1.71,1.6-2.62,3.17-2.62.91,0,1.66.3,1.92.53h2.03v.83ZM155.21,199.93c-.02-.98-.56-2.29-1.68-2.29-.96,0-1.42.75-1.42,1.65,0,.99.56,2.29,1.7,2.29.96,0,1.42-.75,1.41-1.65ZM156.15,206.41c0-.94-.69-1.22-1.5-1.22h-2.58c-.43.19-.93.56-.94,1.18-.03,1.15,1.33,1.66,2.58,1.66,1.31,0,2.45-.56,2.45-1.63Z"/>
  <path class="cls-3" d="M49.83,232.49c0,1.07-.88,1.97-1.95,1.97s-1.92-.9-1.92-1.97.86-1.94,1.95-1.94,1.92.86,1.92,1.94ZM66.82,237.5h-5.01v-.21l1.52-.35c.19-.05.24-.19.24-.56v-7.87c0-.48-.27-.77-.69-.64l-1.76.53-.13-.59,3.87-1.36.19.1v9.84c0,.37.03.51.22.56l1.54.35v.21ZM75.74,231.82c0,3.39-1.46,5.94-3.74,5.94-2.13,0-3.49-2.03-3.49-5.38s1.46-5.98,3.76-5.98c2.13,0,3.47,2.05,3.47,5.42ZM74.21,232.88c0-2.29-.56-5.82-2.32-5.82-1.44,0-1.84,1.89-1.84,4.13,0,2.35.54,5.92,2.26,5.92,1.54,0,1.9-2.08,1.9-4.22ZM87.95,234.33c0,1.89-.96,3.33-2.5,3.33-1.42,0-2.34-1.17-2.34-3.02s.96-3.36,2.51-3.36c1.44,0,2.32,1.18,2.32,3.06ZM86.14,226.94l-6.98,10.75-.58-.37,6.98-10.74.58.35ZM81.61,229.63c0,1.9-.96,3.36-2.51,3.36-1.44,0-2.32-1.18-2.32-3.06s.96-3.33,2.5-3.33c1.42,0,2.34,1.17,2.34,3.02ZM86.83,234.91c0-1.28-.38-3.14-1.46-3.14-.86,0-1.12.96-1.12,2.21,0,1.33.35,3.18,1.39,3.18.93,0,1.18-1.06,1.18-2.26ZM80.48,230.28c0-1.33-.35-3.18-1.39-3.18-.93,0-1.18,1.06-1.18,2.26,0,1.28.38,3.14,1.46,3.14.86,0,1.12-.96,1.12-2.21ZM98.66,229.76c0,.18-.06.37-.14.56l-.35.82h-.21c-.22-.5-.67-.69-1.1-.69-.38,0-.78.16-1.28.58v5.41c0,.34.02.46.21.51l1.54.35v.21h-4.45v-.21l1.07-.32c.19-.06.21-.18.21-.51v-5.15l-.08-.74c-.03-.34-.05-.46-.29-.51l-1.07-.19v-.24l2.45-.42.13.08.14,1.18h.08c.69-.66,1.33-1.34,2.35-1.34.4,0,.8.13.8.62ZM106.96,237.2l-2.46.4-.1-.1-.11-1.12h-.1c-.8.66-1.42,1.3-2.64,1.3s-2.05-.85-2.05-1.97c0-1.86,1.46-2.45,4.59-3.12v-.93c0-1.25-.93-1.7-2-1.7-.82,0-1.06.24-1.06.72v.77l-.1.08h-.54c-.34,0-.45-.21-.45-.45,0-.5.58-1.04.96-1.31.54-.38,1.26-.66,2.1-.66,1.84,0,2.46,1.15,2.46,2.93v3.57l.08.61c.05.34.05.48.29.53l1.12.21v.24ZM104.09,236v-2.8c-2.53.45-3.14,1.14-3.14,1.97s.67,1.36,1.47,1.36c.62,0,1.31-.19,1.66-.53ZM115.37,233.02c0,2.38-1.39,4.66-4.11,4.66-1.22,0-2.42-.34-3.04-.56v-10.13c0-.34-.05-.45-.29-.5l-1.12-.19v-.24l2.72-.42.11.08v4.74h.03c.78-.67,1.58-1.17,2.74-1.17,2.03,0,2.96,1.95,2.96,3.73ZM113.95,234c0-1.71-.75-3.57-2.64-3.57-.66,0-1.23.24-1.66.58v5.14c.22.34.93.78,1.92.78,1.68,0,2.38-1.41,2.38-2.93ZM123.93,237.2l-2.46.4-.1-.1-.11-1.12h-.1c-.8.66-1.42,1.3-2.64,1.3s-2.05-.85-2.05-1.97c0-1.86,1.46-2.45,4.59-3.12v-.93c0-1.25-.93-1.7-2-1.7-.82,0-1.06.24-1.06.72v.77l-.1.08h-.54c-.34,0-.45-.21-.45-.45,0-.5.58-1.04.96-1.31.54-.38,1.26-.66,2.1-.66,1.84,0,2.46,1.15,2.46,2.93v3.57l.08.61c.05.34.05.48.29.53l1.12.21v.24ZM121.06,236v-2.8c-2.53.45-3.14,1.14-3.14,1.97s.67,1.36,1.47,1.36c.62,0,1.31-.19,1.66-.53ZM129.22,236.51c-.48.46-1.18,1.17-2.19,1.17-1.25,0-1.98-1.01-1.98-2.4v-4.86h-1.31v-.82h1.38v-1.7l1.33-.77v2.46h2.3v.82h-2.3v4.62c0,1.09.51,1.6,1.33,1.6.5,0,.94-.22,1.22-.45l.24.32ZM136.8,226.52c0,.54-.4,1.02-1.02,1.02-.58,0-.93-.38-.93-.93s.38-1.01,1.01-1.01c.58,0,.94.37.94.91ZM137.77,237.5h-3.98v-.21l1.07-.32c.19-.06.21-.18.21-.51v-5.89c0-.34-.03-.46-.27-.51l-1.14-.19v-.24l2.72-.42.11.08v7.17c0,.34.02.45.21.51l1.07.32v.21ZM151.36,237.5h-3.98v-.21l1.07-.32c.19-.06.21-.18.21-.51v-4.27c0-1.15-.7-1.86-1.81-1.86-.64,0-1.33.26-1.84.67v5.47c0,.34.02.43.21.5l1.07.32v.21h-3.98v-.21l1.07-.32c.19-.06.21-.18.21-.51v-9.47c0-.34-.05-.45-.29-.5l-1.12-.19v-.24l2.72-.42.11.08v4.74h.03c1.04-.9,1.84-1.17,2.75-1.17,1.68,0,2.29,1.23,2.29,2.48v4.7c0,.34.02.43.21.5l1.07.32v.21ZM158.62,235.88c-1.01,1.04-1.79,1.84-3.38,1.84-2.22,0-3.39-1.94-3.39-4.02,0-2.35,1.3-4.64,3.86-4.64,2.02,0,2.85,1.7,2.85,3.36v.29h-5.5c.05,2.9,1.82,3.57,3.06,3.57.99,0,1.79-.3,2.32-.69l.19.29ZM157.04,231.93c.05-1.12-.7-2.16-1.97-2.16-1.1,0-1.94,1.07-2.02,2.29h2.11l1.87-.13ZM163.77,237.5h-3.98v-.21l1.07-.32c.19-.06.21-.18.21-.51v-9.47c0-.34-.05-.45-.29-.5l-1.12-.19v-.24l2.72-.42.11.08v10.75c0,.34.02.43.21.5l1.07.32v.21ZM171.17,235.88c-1.01,1.04-1.79,1.84-3.38,1.84-2.22,0-3.39-1.94-3.39-4.02,0-2.35,1.3-4.64,3.86-4.64,2.02,0,2.85,1.7,2.85,3.36v.29h-5.5c.05,2.9,1.82,3.57,3.06,3.57.99,0,1.79-.3,2.32-.69l.19.29ZM169.58,231.93c.05-1.12-.7-2.16-1.97-2.16-1.1,0-1.94,1.07-2.02,2.29h2.11l1.87-.13ZM181.65,235.08c0,1.28-1.06,2.59-2.83,2.59-.59,0-1.47-.14-2.03-.43v-2.18h.42l.19.91c.08.35.06.48.29.62.26.16.7.35,1.26.35.78,0,1.6-.5,1.6-1.33,0-1.01-.99-1.38-2.06-1.9-1.02-.51-1.79-1.1-1.79-2.27s.96-2.34,2.54-2.34c.42,0,1.18.05,1.89.38v1.97h-.42l-.16-.85c-.03-.21-.1-.32-.26-.45-.24-.18-.72-.35-1.2-.35-.82,0-1.34.48-1.34,1.07,0,.78.75,1.15,2.1,1.78,1.15.53,1.81,1.22,1.81,2.42ZM191.4,237.5h-3.98v-.21l1.07-.32c.19-.06.21-.18.21-.51v-4.27c0-1.15-.7-1.86-1.81-1.86-.64,0-1.33.26-1.84.67v5.47c0,.34.02.43.21.5l1.07.32v.21h-3.98v-.21l1.07-.32c.19-.06.21-.18.21-.51v-9.47c0-.34-.05-.45-.29-.5l-1.12-.19v-.24l2.72-.42.11.08v4.74h.03c1.04-.9,1.84-1.17,2.75-1.17,1.68,0,2.29,1.23,2.29,2.48v4.7c0,.34.02.43.21.5l1.07.32v.21ZM199.84,233.21c0,2.45-1.62,4.54-4.13,4.54-2.34,0-3.81-1.63-3.81-4.11s1.6-4.58,4.13-4.58c2.34,0,3.81,1.68,3.81,4.14ZM198.22,234.03c0-1.52-.74-4.34-2.62-4.34-1.55,0-2.08,1.52-2.08,3.04,0,1.62.7,4.4,2.54,4.4,1.65,0,2.16-1.6,2.16-3.1ZM208.92,232.86c0,2.38-1.39,4.66-4.11,4.66-.51,0-1.14-.1-1.62-.29v2.37c0,.34.02.48.21.53l1.54.35v.19h-4.45v-.21l1.07-.32c.19-.06.21-.19.21-.53v-8.42l-.08-.62c-.05-.34-.05-.46-.29-.51l-1.04-.19v-.24l2.42-.42.11.08.19,1.01h.11c.82-.69,1.62-1.17,2.77-1.17,2.03,0,2.96,1.95,2.96,3.73ZM207.5,233.84c0-1.71-.75-3.57-2.64-3.57-.66,0-1.23.24-1.66.58v5.14c.22.34.93.78,1.92.78,1.68,0,2.38-1.41,2.38-2.93ZM218.02,232.86c0,2.38-1.39,4.66-4.11,4.66-.51,0-1.14-.1-1.62-.29v2.37c0,.34.02.48.21.53l1.54.35v.19h-4.45v-.21l1.07-.32c.19-.06.21-.19.21-.53v-8.42l-.08-.62c-.05-.34-.05-.46-.29-.51l-1.04-.19v-.24l2.42-.42.11.08.19,1.01h.11c.82-.69,1.62-1.17,2.77-1.17,2.03,0,2.96,1.95,2.96,3.73ZM216.59,233.84c0-1.71-.75-3.57-2.64-3.57-.66,0-1.23.24-1.66.58v5.14c.22.34.93.78,1.92.78,1.68,0,2.38-1.41,2.38-2.93ZM225.93,235.88c-1.01,1.04-1.79,1.84-3.38,1.84-2.22,0-3.39-1.94-3.39-4.02,0-2.35,1.3-4.64,3.86-4.64,2.02,0,2.85,1.7,2.85,3.36v.29h-5.5c.05,2.9,1.82,3.57,3.06,3.57.99,0,1.79-.3,2.32-.69l.19.29ZM224.35,231.93c.05-1.12-.7-2.16-1.97-2.16-1.1,0-1.94,1.07-2.02,2.29h2.11l1.87-.13ZM236.03,237.5h-3.98v-.21l1.07-.32c.19-.06.21-.18.21-.51v-4.43c0-1.15-.7-1.86-1.81-1.86-.64,0-1.33.26-1.84.67v5.63c0,.34.02.43.21.5l1.07.32v.21h-3.98v-.21l1.07-.32c.19-.06.21-.18.21-.51v-5.26l-.08-.62c-.05-.34-.05-.46-.29-.51l-1.04-.19v-.24l2.42-.42.11.08.19,1.01h.11c1.04-.9,1.87-1.17,2.78-1.17,1.68,0,2.29,1.23,2.29,2.48v4.86c0,.34.02.43.21.5l1.07.32v.21Z"/>
</svg>