<svg width="422" height="393" viewBox="0 0 422 393" fill="none" xmlns="http://www.w3.org/2000/svg">
<path d="M313.92 390.668L107.994 390.668C107.994 374.233 91.4293 360.907 71 360.907L71 31.7609C91.4293 31.7609 107.994 18.4351 107.994 2L313.92 2.00001C313.92 18.4351 330.485 31.7609 350.914 31.7609L350.914 360.916C330.485 360.916 313.92 374.242 313.92 390.677L313.92 390.668Z" fill="#563635" stroke="#FBACBE" stroke-width="3" stroke-miterlimit="10"/>
<path d="M99.9664 334.672C99.9664 336.096 98.9424 338 95.8864 338H90.8304V337.776L92.0144 337.44C92.2224 337.376 92.2544 337.232 92.2544 336.864V328.336C92.2544 327.968 92.2224 327.824 92.0144 327.76L90.8464 327.424V327.2H95.1984C96.7984 327.2 99.1824 327.216 99.1824 329.44C99.1824 330.944 97.6624 331.712 96.9424 331.984V332.048C98.3824 332 99.9664 332.944 99.9664 334.672ZM97.5024 329.792C97.5024 327.888 95.9344 327.84 94.7824 327.84H93.9024V331.888H95.1024C95.7904 331.888 97.5024 331.744 97.5024 329.792ZM98.0464 334.944C98.0464 332.912 96.7664 332.56 95.2944 332.56H93.9024V336.816C93.9024 337.232 94.1264 337.328 94.4144 337.328H95.4544C96.6704 337.328 98.0464 336.864 98.0464 334.944ZM105.11 338H101.126V337.792L102.198 337.472C102.39 337.408 102.406 337.296 102.406 336.96V327.488C102.406 327.152 102.358 327.04 102.118 326.992L100.998 326.8V326.56L103.718 326.144L103.83 326.224V336.976C103.83 337.312 103.846 337.408 104.038 337.472L105.11 337.792V338ZM108.696 327.024C108.696 327.568 108.296 328.048 107.672 328.048C107.096 328.048 106.744 327.664 106.744 327.12C106.744 326.576 107.128 326.112 107.752 326.112C108.328 326.112 108.696 326.48 108.696 327.024ZM109.672 338H105.688V337.792L106.76 337.472C106.952 337.408 106.968 337.296 106.968 336.96V331.072C106.968 330.736 106.936 330.608 106.696 330.56L105.56 330.368V330.128L108.28 329.712L108.392 329.792V336.96C108.392 337.296 108.408 337.408 108.6 337.472L109.672 337.792V338ZM117.931 330.128L117.499 330.416C117.371 330.496 117.259 330.608 117.179 330.848L114.507 338.08H113.435L110.667 330.864C110.571 330.592 110.491 330.528 110.315 330.416L109.851 330.128V329.936H113.371V330.128L112.395 330.416C112.187 330.48 112.155 330.688 112.267 330.976L113.931 335.552C114.091 335.984 114.235 336.384 114.235 336.656H114.283C114.283 336.48 114.427 336.096 114.619 335.536L116.251 330.912C116.347 330.656 116.235 330.512 116.043 330.448L115.035 330.128V329.936H117.931V330.128ZM129.192 336.384C128.184 337.424 127.4 338.224 125.816 338.224C123.592 338.224 122.424 336.288 122.424 334.208C122.424 331.856 123.72 329.568 126.28 329.568C128.296 329.568 129.128 331.264 129.128 332.928V333.216H123.624C123.672 336.112 125.448 336.784 126.68 336.784C127.672 336.784 128.472 336.48 129 336.096L129.192 336.384ZM127.608 332.432C127.656 331.312 126.904 330.272 125.64 330.272C124.536 330.272 123.704 331.344 123.624 332.56H125.736L127.608 332.432ZM139.288 338H135.304V337.792L136.376 337.472C136.568 337.408 136.584 337.296 136.584 336.96V332.528C136.584 331.376 135.88 330.672 134.776 330.672C134.136 330.672 133.448 330.928 132.936 331.344V336.976C132.936 337.312 132.952 337.408 133.144 337.472L134.216 337.792V338H130.232V337.792L131.304 337.472C131.496 337.408 131.512 337.296 131.512 336.96V331.696L131.432 331.072C131.384 330.736 131.384 330.608 131.144 330.56L130.104 330.368V330.128L132.52 329.712L132.632 329.792L132.824 330.8H132.936C133.976 329.904 134.808 329.632 135.72 329.632C137.4 329.632 138.008 330.864 138.008 332.112V336.976C138.008 337.312 138.024 337.408 138.216 337.472L139.288 337.792V338ZM152.277 337.696L149.861 338.096L149.749 338L149.589 337.008H149.477C148.661 337.696 147.893 338.176 146.773 338.176C144.693 338.176 143.861 335.952 143.861 334.4C143.861 332.016 145.189 329.792 147.893 329.792C148.405 329.792 148.997 329.888 149.477 330.08V327.488C149.477 327.152 149.445 327.024 149.205 326.992L148.037 326.8V326.56L150.789 326.144L150.901 326.224V336.112L150.965 336.736C150.997 337.072 151.013 337.2 151.253 337.248L152.277 337.456V337.696ZM149.477 336.464V331.328C149.253 330.992 148.581 330.544 147.605 330.544C145.941 330.544 145.285 331.904 145.285 333.424C145.285 334.992 145.973 337.04 147.877 337.04C148.517 337.04 149.045 336.8 149.477 336.464ZM159.473 336.384C158.465 337.424 157.681 338.224 156.097 338.224C153.873 338.224 152.705 336.288 152.705 334.208C152.705 331.856 154.001 329.568 156.561 329.568C158.577 329.568 159.409 331.264 159.409 332.928V333.216H153.905C153.953 336.112 155.729 336.784 156.961 336.784C157.953 336.784 158.753 336.48 159.281 336.096L159.473 336.384ZM157.889 332.432C157.937 331.312 157.185 330.272 155.921 330.272C154.817 330.272 153.985 331.344 153.905 332.56H156.017L157.889 332.432ZM164.625 338H160.641V337.792L161.713 337.472C161.905 337.408 161.921 337.296 161.921 336.96V327.488C161.921 327.152 161.873 327.04 161.633 326.992L160.513 326.8V326.56L163.233 326.144L163.345 326.224V336.976C163.345 337.312 163.361 337.408 163.553 337.472L164.625 337.792V338ZM177.058 337.696L174.594 338.096L174.498 338L174.386 336.88H174.29C173.49 337.536 172.866 338.176 171.65 338.176C170.466 338.176 169.602 337.328 169.602 336.208C169.602 334.352 171.058 333.76 174.194 333.088V332.16C174.194 330.912 173.266 330.464 172.194 330.464C171.378 330.464 171.138 330.704 171.138 331.184V331.952L171.042 332.032H170.498C170.162 332.032 170.05 331.824 170.05 331.584C170.05 331.088 170.626 330.544 171.01 330.272C171.554 329.888 172.274 329.616 173.106 329.616C174.946 329.616 175.57 330.768 175.57 332.544V336.112L175.65 336.72C175.698 337.056 175.698 337.2 175.938 337.248L177.058 337.456V337.696ZM174.194 336.496V333.696C171.666 334.144 171.058 334.832 171.058 335.664C171.058 336.48 171.73 337.024 172.53 337.024C173.154 337.024 173.842 336.832 174.194 336.496ZM183.568 326.64C183.568 326.768 183.536 326.944 183.456 327.136L183.12 327.888H182.944C182.656 327.424 182.128 327.12 181.504 327.12C180.4 327.12 179.808 327.92 179.808 328.96V330.096H182.16V330.912H179.856V336.928C179.856 337.264 179.888 337.392 180.08 337.44L181.6 337.792V338H177.184V337.792L178.24 337.472C178.432 337.408 178.464 337.296 178.464 336.96V330.912H177.152V330.096H178.448L178.464 329.6C178.512 328.304 180.064 326.112 182.48 326.112C182.848 326.112 183.568 326.128 183.568 326.64ZM194.571 330.128L194.139 330.416C194.011 330.496 193.899 330.608 193.819 330.848L191.147 338.08H190.075L187.307 330.864C187.211 330.592 187.131 330.528 186.955 330.416L186.491 330.128V329.936H190.011V330.128L189.035 330.416C188.827 330.48 188.795 330.688 188.907 330.976L190.571 335.552C190.731 335.984 190.875 336.384 190.875 336.656H190.923C190.923 336.48 191.067 336.096 191.259 335.536L192.891 330.912C192.987 330.656 192.875 330.512 192.683 330.448L191.675 330.128V329.936H194.571V330.128ZM202.766 333.712C202.766 336.16 201.15 338.256 198.638 338.256C196.302 338.256 194.83 336.624 194.83 334.144C194.83 331.696 196.43 329.568 198.958 329.568C201.294 329.568 202.766 331.248 202.766 333.712ZM201.15 334.528C201.15 333.008 200.414 330.192 198.526 330.192C196.974 330.192 196.446 331.712 196.446 333.232C196.446 334.848 197.15 337.632 198.99 337.632C200.638 337.632 201.15 336.032 201.15 334.528ZM209.244 330.256C209.244 330.432 209.18 330.624 209.1 330.816L208.748 331.632H208.54C208.316 331.136 207.868 330.944 207.436 330.944C207.052 330.944 206.652 331.104 206.156 331.52V336.928C206.156 337.264 206.172 337.392 206.364 337.44L207.9 337.792V338H203.452V337.792L204.524 337.472C204.716 337.408 204.732 337.296 204.732 336.96V331.808L204.652 331.072C204.62 330.736 204.604 330.608 204.364 330.56L203.292 330.368V330.128L205.74 329.712L205.868 329.792L206.012 330.976H206.092C206.78 330.32 207.42 329.632 208.444 329.632C208.844 329.632 209.244 329.76 209.244 330.256ZM216.426 336.384C215.418 337.424 214.634 338.224 213.05 338.224C210.826 338.224 209.658 336.288 209.658 334.208C209.658 331.856 210.954 329.568 213.514 329.568C215.53 329.568 216.362 331.264 216.362 332.928V333.216H210.858C210.906 336.112 212.682 336.784 213.914 336.784C214.906 336.784 215.706 336.48 216.234 336.096L216.426 336.384ZM214.842 332.432C214.89 331.312 214.138 330.272 212.874 330.272C211.77 330.272 210.938 331.344 210.858 332.56H212.97L214.842 332.432ZM222.827 335.584C222.827 336.864 221.771 338.176 219.995 338.176C219.403 338.176 218.523 338.032 217.963 337.744V335.568H218.379L218.571 336.48C218.651 336.832 218.635 336.96 218.859 337.104C219.115 337.264 219.563 337.456 220.123 337.456C220.907 337.456 221.723 336.96 221.723 336.128C221.723 335.12 220.731 334.752 219.659 334.224C218.635 333.712 217.867 333.12 217.867 331.952C217.867 330.768 218.827 329.616 220.411 329.616C220.827 329.616 221.595 329.664 222.299 330V331.968H221.883L221.723 331.12C221.691 330.912 221.627 330.8 221.467 330.672C221.227 330.496 220.747 330.32 220.267 330.32C219.451 330.32 218.923 330.8 218.923 331.392C218.923 332.176 219.675 332.544 221.019 333.168C222.171 333.696 222.827 334.384 222.827 335.584ZM231.719 338H227.735V337.792L228.807 337.472C228.999 337.408 229.015 337.296 229.015 336.96V327.488C229.015 327.152 228.967 327.04 228.727 326.992L227.607 326.8V326.56L230.327 326.144L230.439 326.224V336.976C230.439 337.312 230.455 337.408 230.647 337.472L231.719 337.792V338ZM244.026 336.384C243.018 337.424 242.234 338.224 240.65 338.224C239.354 338.224 238.41 337.552 237.85 336.592C236.874 337.552 236.154 338.176 234.666 338.176C233.482 338.176 232.618 337.328 232.618 336.208C232.618 334.352 234.074 333.76 237.21 333.088V332.192C237.21 330.944 236.282 330.496 235.21 330.496C234.394 330.496 234.154 330.736 234.154 331.216V331.984L234.058 332.064H233.514C233.178 332.064 233.066 331.856 233.066 331.616C233.066 331.12 233.642 330.576 234.026 330.304C234.57 329.92 235.29 329.648 236.122 329.648C237.29 329.648 237.978 330.096 238.314 330.896C238.954 330.08 239.882 329.568 241.114 329.568C243.13 329.568 243.962 331.264 243.962 332.928V333.216H238.458C238.506 336.112 240.282 336.784 241.514 336.784C242.506 336.784 243.306 336.48 243.834 336.096L244.026 336.384ZM237.21 336.496V333.696C234.682 334.144 234.074 334.832 234.074 335.664C234.074 336.48 234.746 337.024 235.546 337.024C236.17 337.024 236.858 336.832 237.21 336.496ZM242.442 332.432C242.49 331.312 241.738 330.272 240.474 330.272C239.37 330.272 238.538 331.344 238.458 332.56H240.57L242.442 332.432ZM250.42 335.584C250.42 336.864 249.364 338.176 247.588 338.176C246.996 338.176 246.116 338.032 245.556 337.744V335.568H245.972L246.164 336.48C246.244 336.832 246.228 336.96 246.452 337.104C246.708 337.264 247.156 337.456 247.716 337.456C248.5 337.456 249.316 336.96 249.316 336.128C249.316 335.12 248.324 334.752 247.252 334.224C246.228 333.712 245.46 333.12 245.46 331.952C245.46 330.768 246.42 329.616 248.004 329.616C248.42 329.616 249.188 329.664 249.892 330V331.968H249.476L249.316 331.12C249.284 330.912 249.22 330.8 249.06 330.672C248.82 330.496 248.34 330.32 247.86 330.32C247.044 330.32 246.516 330.8 246.516 331.392C246.516 332.176 247.268 332.544 248.612 333.168C249.764 333.696 250.42 334.384 250.42 335.584ZM258.067 336.384C257.059 337.424 256.275 338.224 254.691 338.224C252.467 338.224 251.299 336.288 251.299 334.208C251.299 331.856 252.595 329.568 255.155 329.568C257.171 329.568 258.003 331.264 258.003 332.928V333.216H252.499C252.547 336.112 254.323 336.784 255.555 336.784C256.547 336.784 257.347 336.48 257.875 336.096L258.067 336.384ZM256.483 332.432C256.531 331.312 255.779 330.272 254.515 330.272C253.411 330.272 252.579 331.344 252.499 332.56H254.611L256.483 332.432ZM265.443 326.64C265.443 326.768 265.411 326.944 265.331 327.136L264.995 327.888H264.819C264.531 327.424 264.003 327.12 263.379 327.12C262.275 327.12 261.683 327.92 261.683 328.96V330.096H264.035V330.912H261.731V336.928C261.731 337.264 261.763 337.392 261.955 337.44L263.475 337.792V338H259.059V337.792L260.115 337.472C260.307 337.408 260.339 337.296 260.339 336.96V330.912H259.027V330.096H260.323L260.339 329.6C260.387 328.304 261.939 326.112 264.355 326.112C264.723 326.112 265.443 326.128 265.443 326.64ZM276.26 336.384C275.252 337.424 274.468 338.224 272.884 338.224C271.588 338.224 270.644 337.552 270.084 336.592C269.108 337.552 268.388 338.176 266.9 338.176C265.716 338.176 264.852 337.328 264.852 336.208C264.852 334.352 266.308 333.76 269.444 333.088V332.192C269.444 330.944 268.516 330.496 267.444 330.496C266.628 330.496 266.388 330.736 266.388 331.216V331.984L266.292 332.064H265.748C265.412 332.064 265.3 331.856 265.3 331.616C265.3 331.12 265.876 330.576 266.26 330.304C266.804 329.92 267.524 329.648 268.356 329.648C269.524 329.648 270.212 330.096 270.548 330.896C271.188 330.08 272.116 329.568 273.348 329.568C275.364 329.568 276.196 331.264 276.196 332.928V333.216H270.692C270.74 336.112 272.516 336.784 273.748 336.784C274.74 336.784 275.54 336.48 276.068 336.096L276.26 336.384ZM269.444 336.496V333.696C266.916 334.144 266.308 334.832 266.308 335.664C266.308 336.48 266.98 337.024 267.78 337.024C268.404 337.024 269.092 336.832 269.444 336.496ZM274.676 332.432C274.724 331.312 273.972 330.272 272.708 330.272C271.604 330.272 270.772 331.344 270.692 332.56H272.804L274.676 332.432ZM281.407 338H277.423V337.792L278.495 337.472C278.687 337.408 278.703 337.296 278.703 336.96V327.488C278.703 327.152 278.655 327.04 278.415 326.992L277.295 326.8V326.56L280.015 326.144L280.127 326.224V336.976C280.127 337.312 280.143 337.408 280.335 337.472L281.407 337.792V338ZM285.969 338H281.985V337.792L283.057 337.472C283.249 337.408 283.265 337.296 283.265 336.96V327.488C283.265 327.152 283.217 327.04 282.977 326.992L281.857 326.8V326.56L284.577 326.144L284.689 326.224V336.976C284.689 337.312 284.705 337.408 284.897 337.472L285.969 337.792V338ZM293.364 336.384C292.356 337.424 291.572 338.224 289.988 338.224C287.764 338.224 286.596 336.288 286.596 334.208C286.596 331.856 287.892 329.568 290.452 329.568C292.468 329.568 293.3 331.264 293.3 332.928V333.216H287.796C287.844 336.112 289.62 336.784 290.852 336.784C291.844 336.784 292.644 336.48 293.172 336.096L293.364 336.384ZM291.78 332.432C291.828 331.312 291.076 330.272 289.812 330.272C288.708 330.272 287.876 331.344 287.796 332.56H289.908L291.78 332.432ZM299.764 335.584C299.764 336.864 298.708 338.176 296.932 338.176C296.34 338.176 295.46 338.032 294.9 337.744V335.568H295.316L295.508 336.48C295.588 336.832 295.572 336.96 295.796 337.104C296.052 337.264 296.5 337.456 297.06 337.456C297.844 337.456 298.66 336.96 298.66 336.128C298.66 335.12 297.668 334.752 296.596 334.224C295.572 333.712 294.804 333.12 294.804 331.952C294.804 330.768 295.764 329.616 297.348 329.616C297.764 329.616 298.532 329.664 299.236 330V331.968H298.82L298.66 331.12C298.628 330.912 298.564 330.8 298.404 330.672C298.164 330.496 297.684 330.32 297.204 330.32C296.388 330.32 295.86 330.8 295.86 331.392C295.86 332.176 296.612 332.544 297.956 333.168C299.108 333.696 299.764 334.384 299.764 335.584ZM305.827 335.584C305.827 336.864 304.771 338.176 302.995 338.176C302.403 338.176 301.523 338.032 300.963 337.744V335.568H301.379L301.571 336.48C301.651 336.832 301.635 336.96 301.859 337.104C302.115 337.264 302.563 337.456 303.123 337.456C303.907 337.456 304.723 336.96 304.723 336.128C304.723 335.12 303.731 334.752 302.659 334.224C301.635 333.712 300.867 333.12 300.867 331.952C300.867 330.768 301.827 329.616 303.411 329.616C303.827 329.616 304.595 329.664 305.299 330V331.968H304.883L304.723 331.12C304.691 330.912 304.627 330.8 304.467 330.672C304.227 330.496 303.747 330.32 303.267 330.32C302.451 330.32 301.923 330.8 301.923 331.392C301.923 332.176 302.675 332.544 304.019 333.168C305.171 333.696 305.827 334.384 305.827 335.584ZM314.625 338H312.609L309.505 333.44L311.905 331.04C312.145 330.8 312.097 330.544 311.841 330.464L310.785 330.128V329.936H314.497V330.144L313.729 330.464C313.553 330.544 313.345 330.64 313.105 330.88L310.817 333.12L313.713 337.088C313.905 337.36 314.049 337.456 314.225 337.552L314.625 337.792V338ZM310.513 338H306.529V337.792L307.601 337.472C307.793 337.408 307.809 337.296 307.809 336.96V327.488C307.809 327.152 307.761 327.04 307.521 326.992L306.401 326.8V326.56L309.121 326.144L309.233 326.224V336.976C309.233 337.312 309.249 337.408 309.441 337.472L310.513 337.792V338ZM322.777 337.696L320.313 338.096L320.217 338L320.105 336.88H320.009C319.209 337.536 318.585 338.176 317.369 338.176C316.185 338.176 315.321 337.328 315.321 336.208C315.321 334.352 316.777 333.76 319.913 333.088V332.16C319.913 330.912 318.985 330.464 317.913 330.464C317.097 330.464 316.857 330.704 316.857 331.184V331.952L316.761 332.032H316.217C315.881 332.032 315.769 331.824 315.769 331.584C315.769 331.088 316.345 330.544 316.729 330.272C317.273 329.888 317.993 329.616 318.825 329.616C320.665 329.616 321.289 330.768 321.289 332.544V336.112L321.369 336.72C321.417 337.056 321.417 337.2 321.657 337.248L322.777 337.456V337.696ZM319.913 336.496V333.696C317.385 334.144 316.777 334.832 316.777 335.664C316.777 336.48 317.449 337.024 318.249 337.024C318.873 337.024 319.561 336.832 319.913 336.496ZM331.191 333.52C331.191 335.904 329.799 338.176 327.079 338.176C325.863 338.176 324.663 337.84 324.039 337.616V327.488C324.039 327.152 323.991 327.04 323.751 326.992L322.631 326.8V326.56L325.351 326.144L325.463 326.224V330.96H325.495C326.279 330.288 327.079 329.792 328.231 329.792C330.263 329.792 331.191 331.744 331.191 333.52ZM329.767 334.496C329.767 332.784 329.015 330.928 327.127 330.928C326.471 330.928 325.895 331.168 325.463 331.504V336.64C325.687 336.976 326.391 337.424 327.383 337.424C329.063 337.424 329.767 336.016 329.767 334.496Z" fill="#F5F9E9"/>
<path d="M112.938 58.992C112.938 60.064 112.058 60.96 110.986 60.96C109.914 60.96 109.066 60.064 109.066 58.992C109.066 57.92 109.93 57.056 111.018 57.056C112.09 57.056 112.938 57.92 112.938 58.992ZM130.904 60.784C130.904 63.12 128.888 64.224 126.792 64.224C125.912 64.224 124.744 64.032 124.04 63.68V61.392H124.52L124.808 62.528C124.856 62.736 124.952 62.816 125.24 62.992C125.576 63.2 126.28 63.424 127.032 63.424C128.248 63.424 129.416 62.784 129.416 61.44C129.416 60.288 128.424 59.712 127.592 59.312L126.536 58.816C125.224 58.192 124.04 57.488 124.04 55.952C124.04 54.384 125.416 52.928 127.576 52.928C127.8 52.928 129.176 52.88 130.312 53.424V55.664H129.864L129.56 54.544C129.496 54.336 129.352 54.208 129.112 54.08C128.6 53.808 128.12 53.68 127.528 53.68C126.584 53.68 125.448 54.144 125.448 55.376C125.448 56.32 126.152 56.784 127.368 57.344L128.408 57.824C129.768 58.448 130.904 59.216 130.904 60.784ZM140.422 59.36C140.422 61.744 139.03 64.016 136.31 64.016C135.798 64.016 135.174 63.92 134.694 63.728V66.096C134.694 66.432 134.71 66.576 134.902 66.624L136.438 66.976V67.168H131.99V66.96L133.062 66.64C133.254 66.576 133.27 66.448 133.27 66.112V57.696L133.19 57.072C133.142 56.736 133.142 56.608 132.902 56.56L131.862 56.368V56.128L134.278 55.712L134.39 55.792L134.582 56.8H134.694C135.51 56.112 136.31 55.632 137.462 55.632C139.494 55.632 140.422 57.584 140.422 59.36ZM138.998 60.336C138.998 58.624 138.246 56.768 136.358 56.768C135.702 56.768 135.126 57.008 134.694 57.344V62.48C134.918 62.816 135.622 63.264 136.614 63.264C138.294 63.264 138.998 61.856 138.998 60.336ZM148.34 62.384C147.332 63.424 146.548 64.224 144.964 64.224C142.74 64.224 141.572 62.288 141.572 60.208C141.572 57.856 142.868 55.568 145.428 55.568C147.444 55.568 148.276 57.264 148.276 58.928V59.216H142.772C142.82 62.112 144.596 62.784 145.828 62.784C146.82 62.784 147.62 62.48 148.148 62.096L148.34 62.384ZM146.756 58.432C146.804 57.312 146.052 56.272 144.788 56.272C143.684 56.272 142.852 57.344 142.772 58.56H144.884L146.756 58.432ZM155.765 62.384C154.901 63.344 154.149 64.224 152.725 64.224C150.565 64.224 149.557 61.952 149.557 60.08C149.557 57.84 151.061 55.616 153.429 55.616C153.957 55.616 155.461 55.776 155.461 56.448C155.461 56.624 155.365 56.848 155.285 57.008L154.869 57.808H154.661C154.357 57.024 153.797 56.432 152.837 56.432C151.701 56.432 150.869 57.632 150.869 59.264C150.869 61.696 152.117 62.8 153.509 62.8C154.437 62.8 155.125 62.384 155.509 62.08L155.765 62.384ZM159.751 53.024C159.751 53.568 159.351 54.048 158.727 54.048C158.151 54.048 157.799 53.664 157.799 53.12C157.799 52.576 158.183 52.112 158.807 52.112C159.383 52.112 159.751 52.48 159.751 53.024ZM160.727 64H156.743V63.792L157.815 63.472C158.007 63.408 158.023 63.296 158.023 62.96V57.072C158.023 56.736 157.991 56.608 157.751 56.56L156.615 56.368V56.128L159.335 55.712L159.447 55.792V62.96C159.447 63.296 159.463 63.408 159.655 63.472L160.727 63.792V64ZM169.082 63.696L166.618 64.096L166.522 64L166.41 62.88H166.314C165.514 63.536 164.89 64.176 163.674 64.176C162.49 64.176 161.626 63.328 161.626 62.208C161.626 60.352 163.082 59.76 166.218 59.088V58.16C166.218 56.912 165.29 56.464 164.218 56.464C163.402 56.464 163.162 56.704 163.162 57.184V57.952L163.066 58.032H162.522C162.186 58.032 162.074 57.824 162.074 57.584C162.074 57.088 162.65 56.544 163.034 56.272C163.578 55.888 164.298 55.616 165.13 55.616C166.97 55.616 167.594 56.768 167.594 58.544V62.112L167.674 62.72C167.722 63.056 167.722 63.2 167.962 63.248L169.082 63.456V63.696ZM166.218 62.496V59.696C163.69 60.144 163.082 60.832 163.082 61.664C163.082 62.48 163.754 63.024 164.554 63.024C165.178 63.024 165.866 62.832 166.218 62.496ZM173.368 64H169.384V63.792L170.456 63.472C170.648 63.408 170.664 63.296 170.664 62.96V53.488C170.664 53.152 170.616 53.04 170.376 52.992L169.256 52.8V52.56L171.976 52.144L172.088 52.224V62.976C172.088 63.312 172.104 63.408 172.296 63.472L173.368 63.792V64ZM184.84 62.384C183.832 63.424 183.048 64.224 181.464 64.224C179.24 64.224 178.072 62.288 178.072 60.208C178.072 57.856 179.368 55.568 181.928 55.568C183.944 55.568 184.776 57.264 184.776 58.928V59.216H179.272C179.32 62.112 181.096 62.784 182.328 62.784C183.32 62.784 184.12 62.48 184.648 62.096L184.84 62.384ZM183.256 58.432C183.304 57.312 182.552 56.272 181.288 56.272C180.184 56.272 179.352 57.344 179.272 58.56H181.384L183.256 58.432ZM194.473 63.696L192.057 64.096L191.945 64L191.785 63.008H191.673C190.857 63.696 190.089 64.176 188.969 64.176C186.889 64.176 186.057 61.952 186.057 60.4C186.057 58.016 187.385 55.792 190.089 55.792C190.601 55.792 191.193 55.888 191.673 56.08V53.488C191.673 53.152 191.641 53.024 191.401 52.992L190.233 52.8V52.56L192.985 52.144L193.097 52.224V62.112L193.161 62.736C193.193 63.072 193.209 63.2 193.449 63.248L194.473 63.456V63.696ZM191.673 62.464V57.328C191.449 56.992 190.777 56.544 189.801 56.544C188.137 56.544 187.481 57.904 187.481 59.424C187.481 60.992 188.169 63.04 190.073 63.04C190.713 63.04 191.241 62.8 191.673 62.464ZM197.86 53.024C197.86 53.568 197.46 54.048 196.836 54.048C196.26 54.048 195.908 53.664 195.908 53.12C195.908 52.576 196.292 52.112 196.916 52.112C197.492 52.112 197.86 52.48 197.86 53.024ZM198.836 64H194.852V63.792L195.924 63.472C196.116 63.408 196.132 63.296 196.132 62.96V57.072C196.132 56.736 196.1 56.608 195.86 56.56L194.724 56.368V56.128L197.444 55.712L197.556 55.792V62.96C197.556 63.296 197.572 63.408 197.764 63.472L198.836 63.792V64ZM204.567 63.008C204.087 63.472 203.383 64.176 202.375 64.176C201.127 64.176 200.391 63.168 200.391 61.776V56.912H199.079V56.096H200.455V54.4L201.783 53.632V56.096H204.087V56.912H201.783V61.536C201.783 62.624 202.295 63.136 203.111 63.136C203.607 63.136 204.055 62.912 204.327 62.688L204.567 63.008ZM208.064 53.024C208.064 53.568 207.664 54.048 207.039 54.048C206.464 54.048 206.112 53.664 206.112 53.12C206.112 52.576 206.496 52.112 207.12 52.112C207.696 52.112 208.064 52.48 208.064 53.024ZM209.04 64H205.056V63.792L206.128 63.472C206.32 63.408 206.336 63.296 206.336 62.96V57.072C206.336 56.736 206.304 56.608 206.064 56.56L204.928 56.368V56.128L207.648 55.712L207.76 55.792V62.96C207.76 63.296 207.776 63.408 207.968 63.472L209.04 63.792V64ZM217.602 59.712C217.602 62.16 215.986 64.256 213.474 64.256C211.138 64.256 209.666 62.624 209.666 60.144C209.666 57.696 211.266 55.568 213.794 55.568C216.13 55.568 217.602 57.248 217.602 59.712ZM215.986 60.528C215.986 59.008 215.25 56.192 213.362 56.192C211.81 56.192 211.282 57.712 211.282 59.232C211.282 60.848 211.986 63.632 213.826 63.632C215.474 63.632 215.986 62.032 215.986 60.528ZM227.312 64H223.328V63.792L224.4 63.472C224.592 63.408 224.608 63.296 224.608 62.96V58.528C224.608 57.376 223.904 56.672 222.8 56.672C222.16 56.672 221.472 56.928 220.96 57.344V62.976C220.96 63.312 220.976 63.408 221.168 63.472L222.24 63.792V64H218.256V63.792L219.328 63.472C219.52 63.408 219.536 63.296 219.536 62.96V57.696L219.456 57.072C219.408 56.736 219.408 56.608 219.168 56.56L218.128 56.368V56.128L220.544 55.712L220.656 55.792L220.848 56.8H220.96C222 55.904 222.832 55.632 223.744 55.632C225.424 55.632 226.032 56.864 226.032 58.112V62.976C226.032 63.312 226.048 63.408 226.24 63.472L227.312 63.792V64ZM238.653 62.384C237.645 63.424 236.861 64.224 235.277 64.224C233.053 64.224 231.885 62.288 231.885 60.208C231.885 57.856 233.181 55.568 235.741 55.568C237.757 55.568 238.589 57.264 238.589 58.928V59.216H233.085C233.133 62.112 234.909 62.784 236.141 62.784C237.133 62.784 237.933 62.48 238.461 62.096L238.653 62.384ZM237.069 58.432C237.117 57.312 236.365 56.272 235.101 56.272C233.997 56.272 233.165 57.344 233.085 58.56H235.197L237.069 58.432ZM248.749 64H244.765V63.792L245.837 63.472C246.029 63.408 246.045 63.296 246.045 62.96V58.528C246.045 57.376 245.341 56.672 244.237 56.672C243.597 56.672 242.909 56.928 242.397 57.344V62.976C242.397 63.312 242.413 63.408 242.605 63.472L243.677 63.792V64H239.693V63.792L240.765 63.472C240.957 63.408 240.973 63.296 240.973 62.96V57.696L240.893 57.072C240.845 56.736 240.845 56.608 240.605 56.56L239.565 56.368V56.128L241.981 55.712L242.093 55.792L242.285 56.8H242.397C243.437 55.904 244.269 55.632 245.181 55.632C246.861 55.632 247.469 56.864 247.469 58.112V62.976C247.469 63.312 247.485 63.408 247.677 63.472L248.749 63.792V64ZM256.972 56.928H255.692C255.836 57.152 255.964 57.6 255.964 58.032C255.964 59.728 254.348 60.64 252.796 60.64C252.3 60.64 251.852 60.592 251.468 60.448L250.892 60.88C250.636 61.072 250.412 61.328 250.412 61.632C250.412 62.16 250.924 62.432 251.852 62.432H254.076C255.404 62.432 256.604 62.896 256.604 64.4C256.604 66.128 254.7 67.312 252.604 67.312C251.388 67.312 249.148 66.976 249.148 65.36C249.148 64.688 249.676 64.112 250.812 63.568V63.52C249.948 63.488 249.276 62.848 249.276 62.192C249.276 61.664 249.644 61.216 250.06 60.912L250.988 60.224C250.268 59.808 249.852 59.072 249.852 58.192C249.852 56.48 251.452 55.568 253.02 55.568C253.932 55.568 254.684 55.872 254.94 56.096H256.972V56.928ZM254.46 58.432C254.444 57.456 253.9 56.144 252.78 56.144C251.82 56.144 251.356 56.896 251.356 57.792C251.356 58.784 251.916 60.08 253.052 60.08C254.012 60.08 254.476 59.328 254.46 58.432ZM255.404 64.912C255.404 63.968 254.716 63.696 253.9 63.696H251.324C250.892 63.888 250.396 64.256 250.38 64.88C250.348 66.032 251.708 66.544 252.956 66.544C254.268 66.544 255.404 65.984 255.404 64.912ZM264.184 62.384C263.176 63.424 262.392 64.224 260.808 64.224C258.584 64.224 257.416 62.288 257.416 60.208C257.416 57.856 258.712 55.568 261.272 55.568C263.288 55.568 264.12 57.264 264.12 58.928V59.216H258.616C258.664 62.112 260.44 62.784 261.672 62.784C262.664 62.784 263.464 62.48 263.992 62.096L264.184 62.384ZM262.6 58.432C262.648 57.312 261.896 56.272 260.632 56.272C259.528 56.272 258.696 57.344 258.616 58.56H260.728L262.6 58.432ZM269.336 64H265.352V63.792L266.424 63.472C266.616 63.408 266.632 63.296 266.632 62.96V53.488C266.632 53.152 266.584 53.04 266.344 52.992L265.224 52.8V52.56L267.944 52.144L268.056 52.224V62.976C268.056 63.312 268.072 63.408 268.264 63.472L269.336 63.792V64ZM275.147 61.584C275.147 62.864 274.091 64.176 272.315 64.176C271.723 64.176 270.843 64.032 270.283 63.744V61.568H270.699L270.891 62.48C270.971 62.832 270.955 62.96 271.179 63.104C271.435 63.264 271.883 63.456 272.443 63.456C273.227 63.456 274.043 62.96 274.043 62.128C274.043 61.12 273.051 60.752 271.979 60.224C270.955 59.712 270.187 59.12 270.187 57.952C270.187 56.768 271.147 55.616 272.731 55.616C273.147 55.616 273.915 55.664 274.619 56V57.968H274.203L274.043 57.12C274.011 56.912 273.947 56.8 273.787 56.672C273.547 56.496 273.067 56.32 272.587 56.32C271.771 56.32 271.243 56.8 271.243 57.392C271.243 58.176 271.995 58.544 273.339 59.168C274.491 59.696 275.147 60.384 275.147 61.584ZM283.945 64H281.929L278.825 59.44L281.225 57.04C281.465 56.8 281.417 56.544 281.161 56.464L280.105 56.128V55.936H283.817V56.144L283.049 56.464C282.873 56.544 282.665 56.64 282.425 56.88L280.137 59.12L283.033 63.088C283.225 63.36 283.369 63.456 283.545 63.552L283.945 63.792V64ZM279.833 64H275.849V63.792L276.921 63.472C277.113 63.408 277.129 63.296 277.129 62.96V53.488C277.129 53.152 277.081 53.04 276.841 52.992L275.721 52.8V52.56L278.441 52.144L278.553 52.224V62.976C278.553 63.312 278.569 63.408 278.761 63.472L279.833 63.792V64ZM296.668 59.52C296.668 61.904 295.276 64.176 292.556 64.176C291.34 64.176 290.14 63.84 289.516 63.616V53.488C289.516 53.152 289.468 53.04 289.228 52.992L288.107 52.8V52.56L290.828 52.144L290.94 52.224V56.96H290.972C291.756 56.288 292.556 55.792 293.708 55.792C295.74 55.792 296.668 57.744 296.668 59.52ZM295.244 60.496C295.244 58.784 294.492 56.928 292.604 56.928C291.948 56.928 291.372 57.168 290.94 57.504V62.64C291.164 62.976 291.868 63.424 292.86 63.424C294.54 63.424 295.244 62.016 295.244 60.496ZM305.743 59.712C305.743 62.16 304.127 64.256 301.615 64.256C299.279 64.256 297.807 62.624 297.807 60.144C297.807 57.696 299.407 55.568 301.935 55.568C304.271 55.568 305.743 57.248 305.743 59.712ZM304.127 60.528C304.127 59.008 303.391 56.192 301.503 56.192C299.951 56.192 299.423 57.712 299.423 59.232C299.423 60.848 300.127 63.632 301.967 63.632C303.615 63.632 304.127 62.032 304.127 60.528ZM314.457 56.928H313.177C313.321 57.152 313.449 57.6 313.449 58.032C313.449 59.728 311.833 60.64 310.281 60.64C309.785 60.64 309.337 60.592 308.953 60.448L308.377 60.88C308.121 61.072 307.897 61.328 307.897 61.632C307.897 62.16 308.409 62.432 309.337 62.432H311.561C312.889 62.432 314.089 62.896 314.089 64.4C314.089 66.128 312.185 67.312 310.089 67.312C308.873 67.312 306.633 66.976 306.633 65.36C306.633 64.688 307.161 64.112 308.297 63.568V63.52C307.433 63.488 306.761 62.848 306.761 62.192C306.761 61.664 307.129 61.216 307.545 60.912L308.473 60.224C307.753 59.808 307.337 59.072 307.337 58.192C307.337 56.48 308.937 55.568 310.505 55.568C311.417 55.568 312.169 55.872 312.425 56.096H314.457V56.928ZM311.945 58.432C311.929 57.456 311.385 56.144 310.265 56.144C309.305 56.144 308.841 56.896 308.841 57.792C308.841 58.784 309.401 60.08 310.536 60.08C311.497 60.08 311.961 59.328 311.945 58.432ZM312.889 64.912C312.889 63.968 312.201 63.696 311.385 63.696H308.809C308.377 63.888 307.881 64.256 307.865 64.88C307.833 66.032 309.193 66.544 310.441 66.544C311.753 66.544 312.889 65.984 312.889 64.912Z" fill="#F5F9E9"/>
<path d="M112.938 90.992C112.938 92.064 112.058 92.96 110.986 92.96C109.914 92.96 109.066 92.064 109.066 90.992C109.066 89.92 109.93 89.056 111.018 89.056C112.09 89.056 112.938 89.92 112.938 90.992ZM130.2 92.304C130.2 94.56 128.008 96.24 125.88 96.24C125.448 96.24 123.848 96.144 123.848 95.488C123.848 95.36 123.896 95.216 124.024 95.056L124.392 94.576H124.552C124.968 95.2 125.736 95.456 126.456 95.456C127.864 95.456 128.904 94.416 128.904 93.072C128.904 91.088 127.176 90.784 125.608 90.784H124.744V89.984H125.352C126.712 89.984 128.28 89.2 128.28 87.76C128.28 86.656 127.432 85.968 126.376 85.968C125.368 85.968 124.664 86.352 124.12 86.928L123.8 86.64C124.808 85.36 125.688 84.928 126.888 84.928C128.984 84.928 129.608 86.416 129.608 87.184C129.608 88.224 129.064 89.28 127.752 89.824C128.792 89.888 130.2 90.512 130.2 92.304ZM142.418 94.384C141.41 95.424 140.626 96.224 139.042 96.224C136.818 96.224 135.65 94.288 135.65 92.208C135.65 89.856 136.946 87.568 139.506 87.568C141.522 87.568 142.354 89.264 142.354 90.928V91.216H136.85C136.898 94.112 138.674 94.784 139.906 94.784C140.898 94.784 141.698 94.48 142.226 94.096L142.418 94.384ZM140.834 90.432C140.882 89.312 140.13 88.272 138.866 88.272C137.762 88.272 136.93 89.344 136.85 90.56H138.962L140.834 90.432ZM151.555 96H149.539L146.435 91.44L148.835 89.04C149.075 88.8 149.027 88.544 148.771 88.464L147.715 88.128V87.936H151.427V88.144L150.659 88.464C150.483 88.544 150.275 88.64 150.035 88.88L147.747 91.12L150.643 95.088C150.835 95.36 150.979 95.456 151.155 95.552L151.555 95.792V96ZM147.443 96H143.459V95.792L144.531 95.472C144.723 95.408 144.739 95.296 144.739 94.96V85.488C144.739 85.152 144.691 85.04 144.451 84.992L143.331 84.8V84.56L146.051 84.144L146.163 84.224V94.976C146.163 95.312 146.179 95.408 146.371 95.472L147.443 95.792V96ZM157.319 93.584C157.319 94.864 156.263 96.176 154.487 96.176C153.895 96.176 153.015 96.032 152.455 95.744V93.568H152.871L153.063 94.48C153.143 94.832 153.127 94.96 153.351 95.104C153.607 95.264 154.055 95.456 154.615 95.456C155.399 95.456 156.215 94.96 156.215 94.128C156.215 93.12 155.223 92.752 154.151 92.224C153.127 91.712 152.359 91.12 152.359 89.952C152.359 88.768 153.319 87.616 154.903 87.616C155.319 87.616 156.087 87.664 156.791 88V89.968H156.375L156.215 89.12C156.183 88.912 156.119 88.8 155.959 88.672C155.719 88.496 155.239 88.32 154.759 88.32C153.943 88.32 153.415 88.8 153.415 89.392C153.415 90.176 154.167 90.544 155.511 91.168C156.663 91.696 157.319 92.384 157.319 93.584ZM166.117 96H164.101L160.997 91.44L163.397 89.04C163.637 88.8 163.589 88.544 163.333 88.464L162.277 88.128V87.936H165.989V88.144L165.221 88.464C165.045 88.544 164.837 88.64 164.597 88.88L162.309 91.12L165.205 95.088C165.397 95.36 165.541 95.456 165.717 95.552L166.117 95.792V96ZM162.005 96H158.021V95.792L159.093 95.472C159.285 95.408 159.301 95.296 159.301 94.96V85.488C159.301 85.152 159.253 85.04 159.013 84.992L157.893 84.8V84.56L160.613 84.144L160.725 84.224V94.976C160.725 95.312 160.741 95.408 160.933 95.472L162.005 95.792V96ZM170.633 96H166.649V95.792L167.721 95.472C167.913 95.408 167.929 95.296 167.929 94.96V85.488C167.929 85.152 167.881 85.04 167.641 84.992L166.521 84.8V84.56L169.241 84.144L169.353 84.224V94.976C169.353 95.312 169.369 95.408 169.561 95.472L170.633 95.792V96ZM180.06 95.696L177.644 96.096L177.532 96L177.34 94.976H177.228C176.188 95.872 175.404 96.176 174.524 96.176C172.94 96.176 172.332 94.912 172.332 93.696V89.072C172.332 88.736 172.3 88.608 172.06 88.56L170.924 88.368V88.128L173.644 87.712L173.756 87.792V93.28C173.756 94.432 174.412 95.136 175.5 95.136C176.108 95.136 176.716 94.848 177.228 94.432V89.072C177.228 88.736 177.196 88.608 176.956 88.56L175.82 88.368V88.128L178.54 87.712L178.652 87.792V94.08L178.732 94.736C178.78 95.072 178.78 95.2 179.02 95.248L180.06 95.456V95.696ZM185.772 93.584C185.772 94.864 184.716 96.176 182.94 96.176C182.348 96.176 181.468 96.032 180.908 95.744V93.568H181.324L181.516 94.48C181.596 94.832 181.58 94.96 181.804 95.104C182.06 95.264 182.508 95.456 183.068 95.456C183.852 95.456 184.668 94.96 184.668 94.128C184.668 93.12 183.676 92.752 182.604 92.224C181.58 91.712 180.812 91.12 180.812 89.952C180.812 88.768 181.772 87.616 183.356 87.616C183.772 87.616 184.54 87.664 185.244 88V89.968H184.828L184.668 89.12C184.636 88.912 184.572 88.8 184.412 88.672C184.172 88.496 183.692 88.32 183.212 88.32C182.396 88.32 181.868 88.8 181.868 89.392C181.868 90.176 182.62 90.544 183.964 91.168C185.116 91.696 185.772 92.384 185.772 93.584ZM189.61 85.024C189.61 85.568 189.21 86.048 188.586 86.048C188.01 86.048 187.658 85.664 187.658 85.12C187.658 84.576 188.042 84.112 188.666 84.112C189.242 84.112 189.61 84.48 189.61 85.024ZM190.586 96H186.602V95.792L187.674 95.472C187.866 95.408 187.882 95.296 187.882 94.96V89.072C187.882 88.736 187.85 88.608 187.61 88.56L186.474 88.368V88.128L189.194 87.712L189.306 87.792V94.96C189.306 95.296 189.322 95.408 189.514 95.472L190.586 95.792V96ZM198.845 88.128L198.413 88.416C198.285 88.496 198.173 88.608 198.093 88.848L195.421 96.08H194.349L191.581 88.864C191.485 88.592 191.405 88.528 191.229 88.416L190.765 88.128V87.936H194.285V88.128L193.309 88.416C193.101 88.48 193.069 88.688 193.181 88.976L194.845 93.552C195.005 93.984 195.149 94.384 195.149 94.656H195.197C195.197 94.48 195.341 94.096 195.533 93.536L197.165 88.912C197.261 88.656 197.149 88.512 196.957 88.448L195.949 88.128V87.936H198.845V88.128ZM205.872 94.384C204.864 95.424 204.08 96.224 202.496 96.224C200.272 96.224 199.104 94.288 199.104 92.208C199.104 89.856 200.4 87.568 202.96 87.568C204.976 87.568 205.808 89.264 205.808 90.928V91.216H200.304C200.352 94.112 202.128 94.784 203.36 94.784C204.352 94.784 205.152 94.48 205.68 94.096L205.872 94.384ZM204.288 90.432C204.336 89.312 203.584 88.272 202.32 88.272C201.216 88.272 200.384 89.344 200.304 90.56H202.416L204.288 90.432ZM218.894 88.928H217.614C217.758 89.152 217.886 89.6 217.886 90.032C217.886 91.728 216.27 92.64 214.718 92.64C214.222 92.64 213.774 92.592 213.39 92.448L212.814 92.88C212.558 93.072 212.334 93.328 212.334 93.632C212.334 94.16 212.846 94.432 213.774 94.432H215.998C217.326 94.432 218.526 94.896 218.526 96.4C218.526 98.128 216.622 99.312 214.526 99.312C213.31 99.312 211.07 98.976 211.07 97.36C211.07 96.688 211.598 96.112 212.734 95.568V95.52C211.87 95.488 211.198 94.848 211.198 94.192C211.198 93.664 211.566 93.216 211.982 92.912L212.91 92.224C212.19 91.808 211.774 91.072 211.774 90.192C211.774 88.48 213.374 87.568 214.942 87.568C215.854 87.568 216.606 87.872 216.862 88.096H218.894V88.928ZM216.382 90.432C216.366 89.456 215.822 88.144 214.702 88.144C213.742 88.144 213.278 88.896 213.278 89.792C213.278 90.784 213.838 92.08 214.974 92.08C215.934 92.08 216.398 91.328 216.382 90.432ZM217.326 96.912C217.326 95.968 216.638 95.696 215.822 95.696H213.246C212.814 95.888 212.318 96.256 212.302 96.88C212.27 98.032 213.63 98.544 214.878 98.544C216.19 98.544 217.326 97.984 217.326 96.912ZM227.066 95.696L224.602 96.096L224.506 96L224.394 94.88H224.298C223.498 95.536 222.874 96.176 221.658 96.176C220.474 96.176 219.61 95.328 219.61 94.208C219.61 92.352 221.066 91.76 224.202 91.088V90.16C224.202 88.912 223.274 88.464 222.202 88.464C221.386 88.464 221.146 88.704 221.146 89.184V89.952L221.05 90.032H220.506C220.17 90.032 220.058 89.824 220.058 89.584C220.058 89.088 220.634 88.544 221.018 88.272C221.562 87.888 222.282 87.616 223.114 87.616C224.954 87.616 225.578 88.768 225.578 90.544V94.112L225.658 94.72C225.706 95.056 225.706 95.2 225.946 95.248L227.066 95.456V95.696ZM224.202 94.496V91.696C221.674 92.144 221.066 92.832 221.066 93.664C221.066 94.48 221.738 95.024 222.538 95.024C223.162 95.024 223.85 94.832 224.202 94.496ZM234.564 88.128L234.132 88.416C234.004 88.496 233.892 88.608 233.812 88.848L231.14 96.08H230.068L227.3 88.864C227.204 88.592 227.124 88.528 226.948 88.416L226.484 88.128V87.936H230.004V88.128L229.028 88.416C228.82 88.48 228.788 88.688 228.9 88.976L230.564 93.552C230.724 93.984 230.868 94.384 230.868 94.656H230.916C230.916 94.48 231.06 94.096 231.252 93.536L232.884 88.912C232.98 88.656 232.868 88.512 232.676 88.448L231.668 88.128V87.936H234.564V88.128ZM241.59 94.384C240.582 95.424 239.798 96.224 238.214 96.224C235.99 96.224 234.822 94.288 234.822 92.208C234.822 89.856 236.118 87.568 238.678 87.568C240.694 87.568 241.526 89.264 241.526 90.928V91.216H236.022C236.07 94.112 237.846 94.784 239.078 94.784C240.07 94.784 240.87 94.48 241.398 94.096L241.59 94.384ZM240.006 90.432C240.054 89.312 239.302 88.272 238.038 88.272C236.934 88.272 236.102 89.344 236.022 90.56H238.134L240.006 90.432ZM248.455 88.256C248.455 88.432 248.391 88.624 248.311 88.816L247.959 89.632H247.751C247.527 89.136 247.079 88.944 246.647 88.944C246.263 88.944 245.863 89.104 245.367 89.52V94.928C245.367 95.264 245.383 95.392 245.575 95.44L247.111 95.792V96H242.663V95.792L243.735 95.472C243.927 95.408 243.943 95.296 243.943 94.96V89.808L243.863 89.072C243.831 88.736 243.815 88.608 243.575 88.56L242.503 88.368V88.128L244.951 87.712L245.079 87.792L245.223 88.976H245.303C245.991 88.32 246.631 87.632 247.655 87.632C248.055 87.632 248.455 87.76 248.455 88.256Z" fill="#F5F9E9"/>
<path d="M112.938 122.992C112.938 124.064 112.058 124.96 110.986 124.96C109.914 124.96 109.066 124.064 109.066 122.992C109.066 121.92 109.93 121.056 111.018 121.056C112.09 121.056 112.938 121.92 112.938 122.992ZM127.976 128H123.496V127.776L124.68 127.44C124.888 127.376 124.92 127.232 124.92 126.864V118.336C124.92 117.968 124.888 117.824 124.68 117.76L123.512 117.424V117.2H127.992V117.424L126.808 117.76C126.6 117.824 126.568 117.968 126.568 118.336V126.864C126.568 127.232 126.6 127.376 126.808 127.44L127.976 127.776V128ZM137.78 128H133.796V127.792L134.868 127.472C135.06 127.408 135.076 127.296 135.076 126.96V122.528C135.076 121.376 134.372 120.672 133.268 120.672C132.628 120.672 131.94 120.928 131.428 121.344V126.976C131.428 127.312 131.444 127.408 131.636 127.472L132.708 127.792V128H128.724V127.792L129.796 127.472C129.988 127.408 130.004 127.296 130.004 126.96V121.696L129.924 121.072C129.876 120.736 129.876 120.608 129.636 120.56L128.596 120.368V120.128L131.012 119.712L131.124 119.792L131.316 120.8H131.428C132.468 119.904 133.3 119.632 134.212 119.632C135.892 119.632 136.5 120.864 136.5 122.112V126.976C136.5 127.312 136.516 127.408 136.708 127.472L137.78 127.792V128ZM146.003 120.928H144.723C144.867 121.152 144.995 121.6 144.995 122.032C144.995 123.728 143.379 124.64 141.827 124.64C141.331 124.64 140.883 124.592 140.499 124.448L139.923 124.88C139.667 125.072 139.443 125.328 139.443 125.632C139.443 126.16 139.955 126.432 140.883 126.432H143.107C144.435 126.432 145.635 126.896 145.635 128.4C145.635 130.128 143.731 131.312 141.635 131.312C140.419 131.312 138.179 130.976 138.179 129.36C138.179 128.688 138.707 128.112 139.843 127.568V127.52C138.979 127.488 138.307 126.848 138.307 126.192C138.307 125.664 138.675 125.216 139.091 124.912L140.019 124.224C139.299 123.808 138.883 123.072 138.883 122.192C138.883 120.48 140.483 119.568 142.051 119.568C142.963 119.568 143.715 119.872 143.971 120.096H146.003V120.928ZM143.491 122.432C143.475 121.456 142.931 120.144 141.811 120.144C140.851 120.144 140.387 120.896 140.387 121.792C140.387 122.784 140.947 124.08 142.083 124.08C143.043 124.08 143.507 123.328 143.491 122.432ZM144.435 128.912C144.435 127.968 143.747 127.696 142.931 127.696H140.355C139.923 127.888 139.427 128.256 139.411 128.88C139.379 130.032 140.739 130.544 141.987 130.544C143.299 130.544 144.435 129.984 144.435 128.912ZM153.215 126.384C152.207 127.424 151.423 128.224 149.839 128.224C147.615 128.224 146.447 126.288 146.447 124.208C146.447 121.856 147.743 119.568 150.303 119.568C152.319 119.568 153.151 121.264 153.151 122.928V123.216H147.647C147.695 126.112 149.471 126.784 150.703 126.784C151.695 126.784 152.495 126.48 153.023 126.096L153.215 126.384ZM151.631 122.432C151.679 121.312 150.927 120.272 149.663 120.272C148.559 120.272 147.727 121.344 147.647 122.56H149.759L151.631 122.432ZM163.312 128H159.328V127.792L160.4 127.472C160.592 127.408 160.608 127.296 160.608 126.96V122.528C160.608 121.376 159.904 120.672 158.8 120.672C158.16 120.672 157.472 120.928 156.96 121.344V126.976C156.96 127.312 156.976 127.408 157.168 127.472L158.24 127.792V128H154.256V127.792L155.328 127.472C155.52 127.408 155.536 127.296 155.536 126.96V121.696L155.456 121.072C155.408 120.736 155.408 120.608 155.168 120.56L154.128 120.368V120.128L156.544 119.712L156.656 119.792L156.848 120.8H156.96C158 119.904 158.832 119.632 159.744 119.632C161.424 119.632 162.032 120.864 162.032 122.112V126.976C162.032 127.312 162.048 127.408 162.24 127.472L163.312 127.792V128ZM175.949 123.52C175.949 125.904 174.557 128.176 171.837 128.176C170.621 128.176 169.421 127.84 168.797 127.616V117.488C168.797 117.152 168.749 117.04 168.509 116.992L167.389 116.8V116.56L170.109 116.144L170.221 116.224V120.96H170.253C171.037 120.288 171.837 119.792 172.989 119.792C175.021 119.792 175.949 121.744 175.949 123.52ZM174.525 124.496C174.525 122.784 173.773 120.928 171.885 120.928C171.229 120.928 170.653 121.168 170.221 121.504V126.64C170.445 126.976 171.149 127.424 172.141 127.424C173.821 127.424 174.525 126.016 174.525 124.496ZM179.735 117.024C179.735 117.568 179.335 118.048 178.711 118.048C178.135 118.048 177.783 117.664 177.783 117.12C177.783 116.576 178.167 116.112 178.791 116.112C179.367 116.112 179.735 116.48 179.735 117.024ZM180.711 128H176.727V127.792L177.799 127.472C177.991 127.408 178.007 127.296 178.007 126.96V121.072C178.007 120.736 177.975 120.608 177.735 120.56L176.599 120.368V120.128L179.319 119.712L179.431 119.792V126.96C179.431 127.296 179.447 127.408 179.639 127.472L180.711 127.792V128ZM190.218 128H186.234V127.792L187.306 127.472C187.498 127.408 187.514 127.296 187.514 126.96V122.528C187.514 121.376 186.81 120.672 185.706 120.672C185.066 120.672 184.378 120.928 183.866 121.344V126.976C183.866 127.312 183.882 127.408 184.074 127.472L185.146 127.792V128H181.162V127.792L182.234 127.472C182.426 127.408 182.442 127.296 182.442 126.96V121.696L182.362 121.072C182.314 120.736 182.314 120.608 182.074 120.56L181.034 120.368V120.128L183.45 119.712L183.562 119.792L183.754 120.8H183.866C184.906 119.904 185.738 119.632 186.65 119.632C188.33 119.632 188.938 120.864 188.938 122.112V126.976C188.938 127.312 188.954 127.408 189.146 127.472L190.218 127.792V128ZM199.129 127.696L196.713 128.096L196.601 128L196.441 127.008H196.329C195.513 127.696 194.745 128.176 193.625 128.176C191.545 128.176 190.713 125.952 190.713 124.4C190.713 122.016 192.041 119.792 194.745 119.792C195.257 119.792 195.849 119.888 196.329 120.08V117.488C196.329 117.152 196.297 117.024 196.057 116.992L194.889 116.8V116.56L197.641 116.144L197.753 116.224V126.112L197.817 126.736C197.849 127.072 197.865 127.2 198.105 127.248L199.129 127.456V127.696ZM196.329 126.464V121.328C196.105 120.992 195.433 120.544 194.457 120.544C192.793 120.544 192.137 121.904 192.137 123.424C192.137 124.992 192.825 127.04 194.729 127.04C195.369 127.04 195.897 126.8 196.329 126.464ZM202.517 117.024C202.517 117.568 202.117 118.048 201.493 118.048C200.917 118.048 200.565 117.664 200.565 117.12C200.565 116.576 200.949 116.112 201.573 116.112C202.149 116.112 202.517 116.48 202.517 117.024ZM203.493 128H199.509V127.792L200.581 127.472C200.773 127.408 200.789 127.296 200.789 126.96V121.072C200.789 120.736 200.757 120.608 200.517 120.56L199.381 120.368V120.128L202.101 119.712L202.213 119.792V126.96C202.213 127.296 202.229 127.408 202.421 127.472L203.493 127.792V128ZM212.999 128H209.015V127.792L210.087 127.472C210.279 127.408 210.295 127.296 210.295 126.96V122.528C210.295 121.376 209.591 120.672 208.487 120.672C207.847 120.672 207.159 120.928 206.647 121.344V126.976C206.647 127.312 206.663 127.408 206.855 127.472L207.927 127.792V128H203.943V127.792L205.015 127.472C205.207 127.408 205.223 127.296 205.223 126.96V121.696L205.143 121.072C205.095 120.736 205.095 120.608 204.855 120.56L203.815 120.368V120.128L206.231 119.712L206.343 119.792L206.535 120.8H206.647C207.687 119.904 208.519 119.632 209.431 119.632C211.111 119.632 211.719 120.864 211.719 122.112V126.976C211.719 127.312 211.735 127.408 211.927 127.472L212.999 127.792V128ZM221.222 120.928H219.942C220.086 121.152 220.214 121.6 220.214 122.032C220.214 123.728 218.598 124.64 217.046 124.64C216.55 124.64 216.102 124.592 215.718 124.448L215.142 124.88C214.886 125.072 214.662 125.328 214.662 125.632C214.662 126.16 215.174 126.432 216.102 126.432H218.326C219.654 126.432 220.854 126.896 220.854 128.4C220.854 130.128 218.95 131.312 216.854 131.312C215.638 131.312 213.398 130.976 213.398 129.36C213.398 128.688 213.926 128.112 215.062 127.568V127.52C214.198 127.488 213.526 126.848 213.526 126.192C213.526 125.664 213.894 125.216 214.31 124.912L215.238 124.224C214.518 123.808 214.102 123.072 214.102 122.192C214.102 120.48 215.702 119.568 217.27 119.568C218.182 119.568 218.934 119.872 219.19 120.096H221.222V120.928ZM218.71 122.432C218.694 121.456 218.15 120.144 217.03 120.144C216.07 120.144 215.606 120.896 215.606 121.792C215.606 122.784 216.166 124.08 217.302 124.08C218.262 124.08 218.726 123.328 218.71 122.432ZM219.654 128.912C219.654 127.968 218.966 127.696 218.15 127.696H215.574C215.142 127.888 214.646 128.256 214.63 128.88C214.598 130.032 215.958 130.544 217.206 130.544C218.518 130.544 219.654 129.984 219.654 128.912Z" fill="#F5F9E9"/>
<path d="M113.328 154.992C113.328 156.064 112.448 156.96 111.376 156.96C110.304 156.96 109.456 156.064 109.456 154.992C109.456 153.92 110.32 153.056 111.408 153.056C112.48 153.056 113.328 153.92 113.328 154.992ZM130.319 160H125.311V159.792L126.831 159.44C127.023 159.392 127.071 159.248 127.071 158.88V151.008C127.071 150.528 126.799 150.24 126.383 150.368L124.623 150.896L124.495 150.304L128.367 148.944L128.559 149.04V158.88C128.559 159.248 128.591 159.392 128.783 159.44L130.319 159.792V160ZM139.243 154.32C139.243 157.712 137.787 160.256 135.499 160.256C133.371 160.256 132.011 158.224 132.011 154.88C132.011 151.44 133.467 148.896 135.771 148.896C137.899 148.896 139.243 150.944 139.243 154.32ZM137.707 155.376C137.707 153.088 137.147 149.552 135.387 149.552C133.947 149.552 133.547 151.44 133.547 153.68C133.547 156.032 134.091 159.6 135.803 159.6C137.339 159.6 137.707 157.52 137.707 155.376ZM151.447 156.832C151.447 158.72 150.487 160.16 148.951 160.16C147.527 160.16 146.615 158.992 146.615 157.136C146.615 155.232 147.575 153.776 149.127 153.776C150.567 153.776 151.447 154.96 151.447 156.832ZM149.639 149.44L142.663 160.192L142.087 159.824L149.063 149.088L149.639 149.44ZM145.111 152.128C145.111 154.032 144.151 155.488 142.599 155.488C141.159 155.488 140.279 154.304 140.279 152.432C140.279 150.544 141.239 149.104 142.775 149.104C144.199 149.104 145.111 150.272 145.111 152.128ZM150.327 157.408C150.327 156.128 149.943 154.272 148.871 154.272C148.007 154.272 147.751 155.232 147.751 156.48C147.751 157.808 148.103 159.664 149.143 159.664C150.071 159.664 150.327 158.608 150.327 157.408ZM143.975 152.784C143.975 151.456 143.623 149.6 142.583 149.6C141.655 149.6 141.399 150.656 141.399 151.856C141.399 153.136 141.783 154.992 142.855 154.992C143.719 154.992 143.975 154.032 143.975 152.784ZM162.158 152.256C162.158 152.432 162.094 152.624 162.014 152.816L161.662 153.632H161.454C161.23 153.136 160.782 152.944 160.35 152.944C159.966 152.944 159.566 153.104 159.07 153.52V158.928C159.07 159.264 159.086 159.392 159.278 159.44L160.814 159.792V160H156.366V159.792L157.438 159.472C157.63 159.408 157.646 159.296 157.646 158.96V153.808L157.566 153.072C157.534 152.736 157.518 152.608 157.278 152.56L156.206 152.368V152.128L158.654 151.712L158.782 151.792L158.926 152.976H159.006C159.694 152.32 160.334 151.632 161.358 151.632C161.758 151.632 162.158 151.76 162.158 152.256ZM170.457 159.696L167.993 160.096L167.897 160L167.785 158.88H167.689C166.889 159.536 166.265 160.176 165.049 160.176C163.865 160.176 163.001 159.328 163.001 158.208C163.001 156.352 164.457 155.76 167.593 155.088V154.16C167.593 152.912 166.665 152.464 165.593 152.464C164.777 152.464 164.537 152.704 164.537 153.184V153.952L164.441 154.032H163.897C163.561 154.032 163.449 153.824 163.449 153.584C163.449 153.088 164.025 152.544 164.409 152.272C164.953 151.888 165.673 151.616 166.505 151.616C168.345 151.616 168.969 152.768 168.969 154.544V158.112L169.049 158.72C169.097 159.056 169.097 159.2 169.337 159.248L170.457 159.456V159.696ZM167.593 158.496V155.696C165.065 156.144 164.457 156.832 164.457 157.664C164.457 158.48 165.129 159.024 165.929 159.024C166.553 159.024 167.241 158.832 167.593 158.496ZM178.871 155.52C178.871 157.904 177.479 160.176 174.759 160.176C173.543 160.176 172.343 159.84 171.719 159.616V149.488C171.719 149.152 171.671 149.04 171.431 148.992L170.311 148.8V148.56L173.031 148.144L173.143 148.224V152.96H173.175C173.959 152.288 174.759 151.792 175.911 151.792C177.943 151.792 178.871 153.744 178.871 155.52ZM177.447 156.496C177.447 154.784 176.695 152.928 174.807 152.928C174.151 152.928 173.575 153.168 173.143 153.504V158.64C173.367 158.976 174.071 159.424 175.063 159.424C176.743 159.424 177.447 158.016 177.447 156.496ZM187.425 159.696L184.961 160.096L184.865 160L184.753 158.88H184.657C183.857 159.536 183.233 160.176 182.017 160.176C180.833 160.176 179.969 159.328 179.969 158.208C179.969 156.352 181.425 155.76 184.561 155.088V154.16C184.561 152.912 183.633 152.464 182.561 152.464C181.745 152.464 181.505 152.704 181.505 153.184V153.952L181.409 154.032H180.865C180.529 154.032 180.417 153.824 180.417 153.584C180.417 153.088 180.993 152.544 181.377 152.272C181.921 151.888 182.641 151.616 183.473 151.616C185.313 151.616 185.937 152.768 185.937 154.544V158.112L186.017 158.72C186.065 159.056 186.065 159.2 186.305 159.248L187.425 159.456V159.696ZM184.561 158.496V155.696C182.033 156.144 181.425 156.832 181.425 157.664C181.425 158.48 182.097 159.024 182.897 159.024C183.521 159.024 184.209 158.832 184.561 158.496ZM192.723 159.008C192.243 159.472 191.539 160.176 190.531 160.176C189.283 160.176 188.547 159.168 188.547 157.776V152.912H187.235V152.096H188.611V150.4L189.939 149.632V152.096H192.243V152.912H189.939V157.536C189.939 158.624 190.451 159.136 191.267 159.136C191.763 159.136 192.211 158.912 192.483 158.688L192.723 159.008ZM200.298 149.024C200.298 149.568 199.898 150.048 199.274 150.048C198.698 150.048 198.346 149.664 198.346 149.12C198.346 148.576 198.73 148.112 199.354 148.112C199.93 148.112 200.298 148.48 200.298 149.024ZM201.274 160H197.29V159.792L198.362 159.472C198.554 159.408 198.57 159.296 198.57 158.96V153.072C198.57 152.736 198.538 152.608 198.298 152.56L197.162 152.368V152.128L199.882 151.712L199.994 151.792V158.96C199.994 159.296 200.01 159.408 200.202 159.472L201.274 159.792V160ZM214.859 160H210.875V159.792L211.947 159.472C212.139 159.408 212.155 159.296 212.155 158.96V154.688C212.155 153.536 211.451 152.832 210.347 152.832C209.707 152.832 209.019 153.088 208.507 153.504V158.976C208.507 159.312 208.523 159.408 208.715 159.472L209.786 159.792V160H205.803V159.792L206.875 159.472C207.067 159.408 207.083 159.296 207.083 158.96V149.488C207.083 149.152 207.035 149.04 206.795 148.992L205.675 148.8V148.56L208.395 148.144L208.507 148.224V152.96H208.539C209.579 152.064 210.379 151.792 211.291 151.792C212.971 151.792 213.579 153.024 213.579 154.272V158.976C213.579 159.312 213.595 159.408 213.786 159.472L214.859 159.792V160ZM222.122 158.384C221.114 159.424 220.33 160.224 218.746 160.224C216.522 160.224 215.354 158.288 215.354 156.208C215.354 153.856 216.65 151.568 219.21 151.568C221.226 151.568 222.058 153.264 222.058 154.928V155.216H216.554C216.602 158.112 218.378 158.784 219.61 158.784C220.602 158.784 221.402 158.48 221.93 158.096L222.122 158.384ZM220.538 154.432C220.586 153.312 219.834 152.272 218.57 152.272C217.466 152.272 216.634 153.344 216.554 154.56H218.666L220.538 154.432ZM227.274 160H223.29V159.792L224.362 159.472C224.554 159.408 224.57 159.296 224.57 158.96V149.488C224.57 149.152 224.522 149.04 224.282 148.992L223.162 148.8V148.56L225.882 148.144L225.994 148.224V158.976C225.994 159.312 226.01 159.408 226.202 159.472L227.274 159.792V160ZM234.668 158.384C233.66 159.424 232.876 160.224 231.292 160.224C229.068 160.224 227.9 158.288 227.9 156.208C227.9 153.856 229.196 151.568 231.756 151.568C233.772 151.568 234.604 153.264 234.604 154.928V155.216H229.1C229.148 158.112 230.924 158.784 232.156 158.784C233.148 158.784 233.948 158.48 234.476 158.096L234.668 158.384ZM233.084 154.432C233.132 153.312 232.38 152.272 231.116 152.272C230.012 152.272 229.18 153.344 229.1 154.56H231.212L233.084 154.432ZM245.147 157.584C245.147 158.864 244.091 160.176 242.315 160.176C241.723 160.176 240.843 160.032 240.283 159.744V157.568H240.699L240.891 158.48C240.971 158.832 240.955 158.96 241.179 159.104C241.435 159.264 241.883 159.456 242.443 159.456C243.227 159.456 244.043 158.96 244.043 158.128C244.043 157.12 243.051 156.752 241.979 156.224C240.955 155.712 240.187 155.12 240.187 153.952C240.187 152.768 241.147 151.616 242.731 151.616C243.147 151.616 243.915 151.664 244.619 152V153.968H244.203L244.043 153.12C244.011 152.912 243.947 152.8 243.787 152.672C243.547 152.496 243.067 152.32 242.587 152.32C241.771 152.32 241.243 152.8 241.243 153.392C241.243 154.176 241.995 154.544 243.339 155.168C244.491 155.696 245.147 156.384 245.147 157.584ZM254.905 160H250.921V159.792L251.993 159.472C252.185 159.408 252.201 159.296 252.201 158.96V154.688C252.201 153.536 251.497 152.832 250.393 152.832C249.753 152.832 249.065 153.088 248.553 153.504V158.976C248.553 159.312 248.569 159.408 248.761 159.472L249.833 159.792V160H245.849V159.792L246.921 159.472C247.113 159.408 247.129 159.296 247.129 158.96V149.488C247.129 149.152 247.081 149.04 246.841 148.992L245.721 148.8V148.56L248.441 148.144L248.553 148.224V152.96H248.585C249.625 152.064 250.425 151.792 251.337 151.792C253.017 151.792 253.625 153.024 253.625 154.272V158.976C253.625 159.312 253.641 159.408 253.833 159.472L254.905 159.792V160ZM263.336 155.712C263.336 158.16 261.72 160.256 259.208 160.256C256.872 160.256 255.4 158.624 255.4 156.144C255.4 153.696 257 151.568 259.528 151.568C261.864 151.568 263.336 153.248 263.336 155.712ZM261.72 156.528C261.72 155.008 260.984 152.192 259.096 152.192C257.544 152.192 257.016 153.712 257.016 155.232C257.016 156.848 257.72 159.632 259.56 159.632C261.208 159.632 261.72 158.032 261.72 156.528ZM272.422 155.36C272.422 157.744 271.03 160.016 268.31 160.016C267.798 160.016 267.174 159.92 266.694 159.728V162.096C266.694 162.432 266.71 162.576 266.902 162.624L268.438 162.976V163.168H263.99V162.96L265.062 162.64C265.254 162.576 265.27 162.448 265.27 162.112V153.696L265.19 153.072C265.142 152.736 265.142 152.608 264.902 152.56L263.862 152.368V152.128L266.278 151.712L266.39 151.792L266.582 152.8H266.694C267.51 152.112 268.31 151.632 269.462 151.632C271.494 151.632 272.422 153.584 272.422 155.36ZM270.998 156.336C270.998 154.624 270.246 152.768 268.358 152.768C267.702 152.768 267.126 153.008 266.694 153.344V158.48C266.918 158.816 267.622 159.264 268.614 159.264C270.294 159.264 270.998 157.856 270.998 156.336ZM281.516 155.36C281.516 157.744 280.124 160.016 277.404 160.016C276.892 160.016 276.268 159.92 275.788 159.728V162.096C275.788 162.432 275.804 162.576 275.996 162.624L277.532 162.976V163.168H273.084V162.96L274.156 162.64C274.348 162.576 274.364 162.448 274.364 162.112V153.696L274.284 153.072C274.236 152.736 274.236 152.608 273.996 152.56L272.956 152.368V152.128L275.372 151.712L275.484 151.792L275.676 152.8H275.788C276.604 152.112 277.404 151.632 278.556 151.632C280.588 151.632 281.516 153.584 281.516 155.36ZM280.092 156.336C280.092 154.624 279.34 152.768 277.452 152.768C276.796 152.768 276.22 153.008 275.788 153.344V158.48C276.012 158.816 276.716 159.264 277.708 159.264C279.388 159.264 280.092 157.856 280.092 156.336ZM289.434 158.384C288.426 159.424 287.642 160.224 286.058 160.224C283.834 160.224 282.666 158.288 282.666 156.208C282.666 153.856 283.962 151.568 286.522 151.568C288.538 151.568 289.37 153.264 289.37 154.928V155.216H283.866C283.914 158.112 285.69 158.784 286.922 158.784C287.914 158.784 288.714 158.48 289.242 158.096L289.434 158.384ZM287.85 154.432C287.898 153.312 287.146 152.272 285.882 152.272C284.778 152.272 283.946 153.344 283.866 154.56H285.978L287.85 154.432ZM299.53 160H295.546V159.792L296.618 159.472C296.81 159.408 296.826 159.296 296.826 158.96V154.528C296.826 153.376 296.122 152.672 295.018 152.672C294.378 152.672 293.69 152.928 293.178 153.344V158.976C293.178 159.312 293.194 159.408 293.386 159.472L294.458 159.792V160H290.474V159.792L291.546 159.472C291.738 159.408 291.754 159.296 291.754 158.96V153.696L291.674 153.072C291.626 152.736 291.626 152.608 291.386 152.56L290.346 152.368V152.128L292.762 151.712L292.874 151.792L293.066 152.8H293.178C294.218 151.904 295.05 151.632 295.962 151.632C297.642 151.632 298.25 152.864 298.25 154.112V158.976C298.25 159.312 298.266 159.408 298.458 159.472L299.53 159.792V160Z" fill="#F5F9E9"/>
<line x1="72" y1="306.5" x2="350" y2="306.5" stroke="#FBFDF7" stroke-dasharray="2 2"/>
<line x1="70" y1="181.5" x2="348" y2="181.5" stroke="#FBFDF7" stroke-dasharray="2 2"/>
<path d="M151.572 220.433C151.572 224.498 147.677 227.426 143.839 227.426C142.674 227.426 139.973 227.256 139.973 225.92C139.973 225.692 140.03 225.436 140.2 225.18L140.769 224.015H141.195C141.707 225.209 143.1 225.977 144.465 225.977C146.711 225.977 148.416 224.271 148.416 221.854C148.416 218.499 145.716 217.846 142.958 217.846H141.508V216.225H142.702C144.948 216.225 147.279 215.003 147.279 212.558C147.279 210.71 145.829 209.459 144.01 209.459C142.531 209.459 141.309 210.056 140.456 210.937L139.802 210.283C141.508 208.179 143.271 207.326 145.573 207.326C148.672 207.326 150.52 209.459 150.52 211.477C150.52 213.439 149.07 215.202 146.967 215.998C148.786 216.054 151.572 217.305 151.572 220.433ZM167.174 222.195H165.07V227H161.857V222.195H153.612V220.291L161.857 207.298H165.07V220.376H167.174V222.195ZM161.829 220.376V210.511H161.658L155.46 220.376H161.829ZM181.154 214.633C181.154 221.598 176.691 226.915 170.834 227.37L170.664 226.261C174.758 225.721 177.26 221.712 177.572 217.476C176.435 218.443 175.099 219.125 173.592 219.125C170.635 219.125 168.702 216.708 168.702 213.695C168.702 209.97 171.403 207.27 175.042 207.27C178.681 207.27 181.154 210.056 181.154 214.633ZM177.658 214.576C177.658 211.477 176.719 208.606 174.644 208.606C173.052 208.606 172.028 210.056 172.028 212.813C172.028 215.003 173.137 217.163 175.07 217.163C176.037 217.163 176.918 216.822 177.658 216.253C177.686 215.855 177.658 215.031 177.658 214.576ZM187.943 224.726C187.943 225.92 187.004 227 185.611 227C184.304 227 183.536 226.147 183.536 224.953C183.536 223.731 184.389 222.707 185.81 222.707C187.09 222.707 187.943 223.532 187.943 224.726ZM203.263 216.907C203.263 223.077 200.562 227.455 196.355 227.455C192.431 227.455 189.958 223.901 189.958 217.874C189.958 211.676 192.63 207.27 196.866 207.27C200.79 207.27 203.263 210.852 203.263 216.907ZM199.681 218.869C199.681 214.747 198.856 208.549 196.241 208.549C194.137 208.549 193.54 211.762 193.54 215.799C193.54 219.978 194.336 226.176 196.895 226.176C199.112 226.176 199.681 222.792 199.681 218.869ZM217.756 216.907C217.756 223.077 215.055 227.455 210.847 227.455C206.924 227.455 204.45 223.901 204.45 217.874C204.45 211.676 207.123 207.27 211.359 207.27C215.282 207.27 217.756 210.852 217.756 216.907ZM214.173 218.869C214.173 214.747 213.349 208.549 210.733 208.549C208.63 208.549 208.033 211.762 208.033 215.799C208.033 219.978 208.829 226.176 211.387 226.176C213.605 226.176 214.173 222.792 214.173 218.869ZM246.858 216.936C246.858 222.963 242.224 227 235.713 227H226.36V226.545L228.179 225.948C228.577 225.806 228.606 225.578 228.606 224.925V209.914C228.606 209.231 228.577 209.004 228.179 208.89L226.388 208.293V207.81H236.424C242.48 207.81 246.858 210.255 246.858 216.936ZM242.593 217.277C242.593 212.387 240.49 209.26 235.912 209.26H232.444V224.612C232.444 225.351 232.842 225.55 233.354 225.55H235.458C239.011 225.55 242.593 223.418 242.593 217.277ZM266.939 227H261.765L254.999 216.993L261.14 209.942C261.595 209.43 261.339 209.089 260.855 208.919L259.15 208.293V207.81H266.257V208.293L264.779 208.947C264.409 209.118 264.125 209.345 263.698 209.857L258.467 215.656L265.12 225.124C265.433 225.55 265.717 225.806 266.086 226.033L266.939 226.545V227ZM256.79 227H248.46V226.545L250.279 225.948C250.677 225.806 250.706 225.578 250.706 224.925V209.914C250.706 209.231 250.677 209.004 250.279 208.89L248.488 208.293V207.81H256.79V208.293L254.97 208.89C254.601 209.004 254.544 209.231 254.544 209.914V224.925C254.544 225.578 254.601 225.806 254.97 225.948L256.79 226.545V227ZM286.152 227H280.978L274.211 216.993L280.352 209.942C280.807 209.43 280.551 209.089 280.068 208.919L278.362 208.293V207.81H285.469V208.293L283.991 208.947C283.622 209.118 283.337 209.345 282.911 209.857L277.68 215.656L284.332 225.124C284.645 225.55 284.929 225.806 285.299 226.033L286.152 226.545V227ZM276.002 227H267.672V226.545L269.492 225.948C269.89 225.806 269.918 225.578 269.918 224.925V209.914C269.918 209.231 269.89 209.004 269.492 208.89L267.701 208.293V207.81H276.002V208.293L274.183 208.89C273.813 209.004 273.756 209.231 273.756 209.914V224.925C273.756 225.578 273.813 225.806 274.183 225.948L276.002 226.545V227ZM294.731 205.393L286.686 230.184L284.724 229.559L292.798 204.796L294.731 205.393Z" fill="#F5F9E9"/>
<path d="M178.699 251.632L177.515 251.984C177.307 252.048 177.275 252.192 177.275 252.56V255.6C175.803 256.064 174.555 256.224 173.051 256.224C169.547 256.224 167.387 254.112 167.387 250.576C167.387 247.12 169.803 244.896 173.515 244.896C174.779 244.896 176.027 245.024 177.227 245.44V247.616H176.779L176.491 246.72C176.427 246.512 176.347 246.4 176.043 246.256C175.419 245.952 174.667 245.68 173.499 245.68C170.571 245.68 169.275 247.6 169.275 250.32C169.275 253.184 170.347 255.472 173.563 255.472C174.411 255.472 175.035 255.296 175.627 255.056V252.608C175.627 252.24 175.595 252.064 175.387 252.016L173.931 251.632V251.408H178.699V251.632ZM185.142 248.256C185.142 248.432 185.078 248.624 184.998 248.816L184.646 249.632H184.438C184.214 249.136 183.766 248.944 183.334 248.944C182.95 248.944 182.55 249.104 182.054 249.52V254.928C182.054 255.264 182.07 255.392 182.262 255.44L183.798 255.792V256H179.35V255.792L180.422 255.472C180.614 255.408 180.63 255.296 180.63 254.96V249.808L180.55 249.072C180.518 248.736 180.502 248.608 180.262 248.56L179.19 248.368V248.128L181.638 247.712L181.766 247.792L181.91 248.976H181.99C182.678 248.32 183.318 247.632 184.342 247.632C184.742 247.632 185.142 247.76 185.142 248.256ZM193.441 255.696L190.977 256.096L190.881 256L190.769 254.88H190.673C189.873 255.536 189.249 256.176 188.033 256.176C186.849 256.176 185.985 255.328 185.985 254.208C185.985 252.352 187.441 251.76 190.577 251.088V250.16C190.577 248.912 189.649 248.464 188.577 248.464C187.761 248.464 187.521 248.704 187.521 249.184V249.952L187.425 250.032H186.881C186.545 250.032 186.433 249.824 186.433 249.584C186.433 249.088 187.009 248.544 187.393 248.272C187.937 247.888 188.657 247.616 189.489 247.616C191.329 247.616 191.953 248.768 191.953 250.544V254.112L192.033 254.72C192.081 255.056 192.081 255.2 192.321 255.248L193.441 255.456V255.696ZM190.577 254.496V251.696C188.049 252.144 187.441 252.832 187.441 253.664C187.441 254.48 188.113 255.024 188.913 255.024C189.537 255.024 190.225 254.832 190.577 254.496ZM198.739 255.008C198.259 255.472 197.555 256.176 196.547 256.176C195.299 256.176 194.563 255.168 194.563 253.776V248.912H193.251V248.096H194.627V246.4L195.955 245.632V248.096H198.259V248.912H195.955V253.536C195.955 254.624 196.467 255.136 197.283 255.136C197.779 255.136 198.227 254.912 198.499 254.688L198.739 255.008ZM202.235 245.024C202.235 245.568 201.835 246.048 201.211 246.048C200.635 246.048 200.283 245.664 200.283 245.12C200.283 244.576 200.667 244.112 201.291 244.112C201.867 244.112 202.235 244.48 202.235 245.024ZM203.211 256H199.227V255.792L200.299 255.472C200.491 255.408 200.507 255.296 200.507 254.96V249.072C200.507 248.736 200.475 248.608 200.235 248.56L199.099 248.368V248.128L201.819 247.712L201.931 247.792V254.96C201.931 255.296 201.947 255.408 202.139 255.472L203.211 255.792V256ZM209.022 253.584C209.022 254.864 207.966 256.176 206.19 256.176C205.598 256.176 204.718 256.032 204.158 255.744V253.568H204.574L204.766 254.48C204.846 254.832 204.83 254.96 205.054 255.104C205.31 255.264 205.758 255.456 206.318 255.456C207.102 255.456 207.918 254.96 207.918 254.128C207.918 253.12 206.926 252.752 205.854 252.224C204.83 251.712 204.062 251.12 204.062 249.952C204.062 248.768 205.022 247.616 206.606 247.616C207.022 247.616 207.79 247.664 208.494 248V249.968H208.078L207.918 249.12C207.886 248.912 207.822 248.8 207.662 248.672C207.422 248.496 206.942 248.32 206.462 248.32C205.646 248.32 205.118 248.8 205.118 249.392C205.118 250.176 205.87 250.544 207.214 251.168C208.366 251.696 209.022 252.384 209.022 253.584ZM220.139 244.64C220.139 244.768 220.107 244.944 220.027 245.136L219.691 245.888H219.515C219.227 245.424 218.699 245.12 218.075 245.12C216.971 245.12 216.379 245.92 216.379 246.96V248.096H218.731V248.912H216.427V254.928C216.427 255.264 216.459 255.392 216.651 255.44L218.171 255.792V256H213.755V255.792L214.811 255.472C215.003 255.408 215.035 255.296 215.035 254.96V248.912H213.723V248.096H215.019L215.035 247.6C215.083 246.304 216.635 244.112 219.051 244.112C219.419 244.112 220.139 244.128 220.139 244.64ZM225.08 248.256C225.08 248.432 225.016 248.624 224.936 248.816L224.584 249.632H224.376C224.152 249.136 223.704 248.944 223.272 248.944C222.888 248.944 222.488 249.104 221.992 249.52V254.928C221.992 255.264 222.008 255.392 222.2 255.44L223.736 255.792V256H219.288V255.792L220.36 255.472C220.552 255.408 220.568 255.296 220.568 254.96V249.808L220.488 249.072C220.456 248.736 220.44 248.608 220.2 248.56L219.128 248.368V248.128L221.576 247.712L221.704 247.792L221.848 248.976H221.928C222.616 248.32 223.256 247.632 224.28 247.632C224.68 247.632 225.08 247.76 225.08 248.256ZM233.378 255.696L230.914 256.096L230.818 256L230.706 254.88H230.61C229.81 255.536 229.186 256.176 227.97 256.176C226.786 256.176 225.922 255.328 225.922 254.208C225.922 252.352 227.378 251.76 230.514 251.088V250.16C230.514 248.912 229.586 248.464 228.514 248.464C227.698 248.464 227.458 248.704 227.458 249.184V249.952L227.362 250.032H226.818C226.482 250.032 226.37 249.824 226.37 249.584C226.37 249.088 226.946 248.544 227.33 248.272C227.874 247.888 228.594 247.616 229.426 247.616C231.266 247.616 231.89 248.768 231.89 250.544V254.112L231.97 254.72C232.018 255.056 232.018 255.2 232.258 255.248L233.378 255.456V255.696ZM230.514 254.496V251.696C227.986 252.144 227.378 252.832 227.378 253.664C227.378 254.48 228.05 255.024 228.85 255.024C229.474 255.024 230.162 254.832 230.514 254.496ZM241.457 248.928H240.177C240.321 249.152 240.449 249.6 240.449 250.032C240.449 251.728 238.833 252.64 237.281 252.64C236.785 252.64 236.337 252.592 235.953 252.448L235.377 252.88C235.121 253.072 234.897 253.328 234.897 253.632C234.897 254.16 235.409 254.432 236.337 254.432H238.561C239.889 254.432 241.089 254.896 241.089 256.4C241.089 258.128 239.185 259.312 237.089 259.312C235.873 259.312 233.633 258.976 233.633 257.36C233.633 256.688 234.161 256.112 235.297 255.568V255.52C234.433 255.488 233.761 254.848 233.761 254.192C233.761 253.664 234.129 253.216 234.545 252.912L235.473 252.224C234.753 251.808 234.337 251.072 234.337 250.192C234.337 248.48 235.937 247.568 237.505 247.568C238.417 247.568 239.169 247.872 239.425 248.096H241.457V248.928ZM238.945 250.432C238.929 249.456 238.385 248.144 237.265 248.144C236.305 248.144 235.841 248.896 235.841 249.792C235.841 250.784 236.401 252.08 237.536 252.08C238.497 252.08 238.961 251.328 238.945 250.432ZM239.889 256.912C239.889 255.968 239.201 255.696 238.385 255.696H235.809C235.377 255.888 234.881 256.256 234.865 256.88C234.833 258.032 236.193 258.544 237.441 258.544C238.753 258.544 239.889 257.984 239.889 256.912ZM247.004 255.008C246.524 255.472 245.82 256.176 244.812 256.176C243.564 256.176 242.828 255.168 242.828 253.776V248.912H241.516V248.096H242.892V246.4L244.22 245.632V248.096H246.524V248.912H244.22V253.536C244.22 254.624 244.732 255.136 245.548 255.136C246.044 255.136 246.492 254.912 246.764 254.688L247.004 255.008Z" fill="#F5F9E9"/>
<path d="M166.224 285H161.744V284.776L162.928 284.44C163.136 284.376 163.168 284.232 163.168 283.864V279.656H157.52V283.864C157.52 284.232 157.552 284.376 157.76 284.44L158.928 284.776V285H154.448V284.776L155.632 284.44C155.84 284.376 155.872 284.232 155.872 283.864V275.336C155.872 274.968 155.84 274.824 155.632 274.76L154.464 274.424V274.2H158.944V274.424L157.76 274.76C157.552 274.824 157.52 274.968 157.52 275.336V278.856H163.168V275.336C163.168 274.968 163.136 274.824 162.928 274.76L161.76 274.424V274.2H166.24V274.424L165.056 274.76C164.848 274.824 164.816 274.968 164.816 275.336V283.864C164.816 284.232 164.848 284.376 165.056 284.44L166.224 284.776V285ZM177.664 274.424L177.088 274.744C176.864 274.872 176.704 274.984 176.56 275.32L172.496 285.256H171.536L167.76 275.256C167.632 274.92 167.52 274.872 167.296 274.744L166.704 274.424V274.2H170.832V274.424L169.712 274.744C169.472 274.808 169.392 274.952 169.52 275.288L172.208 282.712C172.32 283.032 172.336 283.272 172.336 283.272H172.368C172.368 283.272 172.416 283.032 172.544 282.696L175.472 275.32C175.6 274.984 175.504 274.808 175.296 274.744L174.176 274.424V274.2H177.664V274.424ZM186.519 282.792L186.023 285H178.135V284.776L179.319 284.44C179.527 284.376 179.559 284.232 179.559 283.864V275.336C179.559 274.968 179.527 274.824 179.319 274.76L178.151 274.424V274.2H185.815V276.216H185.399L185.111 275.32C185.047 275.112 184.855 274.952 184.487 274.952H181.207V278.92H184.103C184.471 278.92 184.583 278.888 184.663 278.696L185.015 277.848H185.335V280.76H185.015L184.663 279.912C184.583 279.72 184.471 279.688 184.103 279.688H181.207V283.72C181.207 284.136 181.431 284.248 181.719 284.248H184.743C185.111 284.248 185.287 284.056 185.399 283.88L186.119 282.68L186.519 282.792ZM197.752 285H195.368L190.952 279.4H191.448C192.808 279.4 194.136 278.872 194.136 277.128C194.136 275.192 193 274.84 191.4 274.84H190.504V283.864C190.504 284.232 190.536 284.376 190.744 284.44L191.912 284.776V285H187.432V284.776L188.632 284.44C188.84 284.376 188.856 284.232 188.856 283.864V275.336C188.856 274.968 188.84 274.824 188.632 274.76L187.448 274.424V274.2H191.992C193.784 274.2 195.912 274.424 195.912 276.792C195.912 278.392 194.568 279.32 193.112 279.656L196.76 284.088C196.952 284.312 197.112 284.408 197.304 284.52L197.752 284.776V285ZM209.331 285H202.467V284.216C203.139 283.672 204.627 282.248 205.363 281.416C206.259 280.408 207.395 279.304 207.395 277.48C207.395 276.12 206.419 275.176 205.027 275.176C204.051 275.176 203.395 275.464 202.707 276.12L202.467 275.832C203.427 274.52 204.435 273.96 205.795 273.96C207.443 273.96 208.915 275.176 208.915 277.048C208.915 278.92 207.523 280.36 206.771 281.096C206.083 281.784 204.755 283.144 204.019 283.752H209.331V285ZM213.184 283.816C213.184 284.44 212.704 285 212 285C211.344 285 210.944 284.552 210.944 283.928C210.944 283.304 211.376 282.776 212.096 282.776C212.752 282.776 213.184 283.192 213.184 283.816ZM231.935 285H227.519V284.776L228.687 284.44C228.895 284.376 228.927 284.232 228.927 283.864V276.792C228.927 276.36 228.927 275.928 228.943 275.496H228.847C228.783 275.72 228.575 276.12 228.303 276.792L224.991 285H224.303L220.943 276.792C220.783 276.392 220.607 276.008 220.511 275.576H220.415C220.415 275.848 220.431 276.12 220.431 276.792V283.816C220.431 284.184 220.479 284.344 220.687 284.408L221.999 284.776V285H217.967V284.776L219.151 284.44C219.359 284.376 219.391 284.232 219.391 283.864V275.416C219.391 275.048 219.359 274.904 219.151 274.84L217.823 274.424V274.2H221.599L224.511 281.544C224.719 282.056 224.863 282.328 224.927 282.856H224.959C225.023 282.44 225.183 282.168 225.423 281.576L228.447 274.2H231.935V274.424L230.767 274.776C230.559 274.84 230.527 274.984 230.527 275.352V283.864C230.527 284.232 230.559 284.376 230.767 284.44L231.935 284.776V285ZM243.447 285H239.335V284.776L240.455 284.456C240.695 284.392 240.759 284.232 240.631 283.896L239.703 281.32H235.575L234.551 283.864C234.423 284.2 234.519 284.392 234.727 284.456L235.847 284.776V285H232.423V284.776L232.999 284.456C233.223 284.328 233.351 284.2 233.495 283.864L237.655 273.912H238.535L242.407 283.928C242.535 284.264 242.631 284.328 242.855 284.456L243.447 284.776V285ZM239.399 280.552L238.039 276.824C237.911 276.488 237.751 276.12 237.751 275.816H237.703C237.703 275.96 237.575 276.28 237.351 276.856L235.879 280.552H239.399ZM239.767 272.008C239.767 272.872 239.175 273.608 238.103 273.608C237.095 273.608 236.535 273.032 236.535 272.152C236.535 271.288 237.143 270.536 238.215 270.536C239.223 270.536 239.767 271.144 239.767 272.008ZM238.919 272.248C238.919 271.784 238.647 271 238.023 271C237.559 271 237.399 271.416 237.399 271.864C237.399 272.36 237.655 273.112 238.263 273.112C238.743 273.112 238.919 272.696 238.919 272.248ZM255.932 274.424L254.748 274.776C254.54 274.84 254.524 274.984 254.524 275.352V285.192H253.58L247.324 276.936C247.1 276.648 246.844 276.376 246.748 276.008H246.668C246.668 276.232 246.684 276.504 246.684 276.936V283.816C246.684 284.184 246.732 284.344 246.94 284.392L248.396 284.776V285H244.22V284.776L245.388 284.424C245.596 284.36 245.628 284.232 245.628 283.864V275.432C245.628 275.064 245.596 274.92 245.388 274.856L243.916 274.44V274.2H247.356L252.7 281.432C252.86 281.656 253.356 282.232 253.404 282.568H253.468C253.468 282.408 253.452 282.056 253.452 281.352V275.384C253.452 275.016 253.436 274.872 253.228 274.824L251.74 274.424V274.2H255.932V274.424ZM265.191 282.792L264.695 285H256.807V284.776L257.991 284.44C258.199 284.376 258.231 284.232 258.231 283.864V275.336C258.231 274.968 258.199 274.824 257.991 274.76L256.823 274.424V274.2H264.487V276.216H264.071L263.783 275.32C263.719 275.112 263.527 274.952 263.159 274.952H259.879V278.92H262.775C263.143 278.92 263.255 278.888 263.335 278.696L263.687 277.848H264.007V280.76H263.687L263.335 279.912C263.255 279.72 263.143 279.688 262.775 279.688H259.879V283.72C259.879 284.136 260.103 284.248 260.391 284.248H263.415C263.783 284.248 263.959 284.056 264.071 283.88L264.791 282.68L265.191 282.792ZM277.48 279.336C277.48 282.728 274.872 285 271.208 285H266.104V284.776L267.288 284.44C267.496 284.376 267.528 284.232 267.528 283.864V275.336C267.528 274.968 267.496 274.824 267.288 274.76L266.12 274.424V274.2H271.608C274.984 274.2 277.48 275.592 277.48 279.336ZM275.592 279.544C275.592 276.744 274.328 274.952 271.432 274.952H269.176V283.72C269.176 284.136 269.4 284.248 269.688 284.248H271.128C273.384 284.248 275.592 283.048 275.592 279.544Z" fill="#F5F9E9"/>
</svg>
