<svg width="21" height="21" viewBox="0 0 21 21" fill="none" xmlns="http://www.w3.org/2000/svg">
<path d="M20.16 0H0.84C0.375375 0 0 0.375375 0 0.84V20.16C0 20.6246 0.375375 21 0.84 21H20.16C20.6246 21 21 20.6246 21 20.16V0.84C21 0.375375 20.6246 0 20.16 0ZM19.32 19.32H14.4874V12.8677H17.2174L17.6269 9.69937H14.4874V7.6755C14.4874 6.75675 14.742 6.132 16.0571 6.132H17.7345V3.297C17.4431 3.25763 16.4483 3.171 15.288 3.171C12.8678 3.171 11.2114 4.64887 11.2114 7.3605V9.69675H8.47612V12.8651H11.214V19.32H1.68V1.68H19.32V19.32Z" fill="#FBFDF7"/>
</svg>
