<svg width="168" height="305" viewBox="0 0 168 305" fill="none" xmlns="http://www.w3.org/2000/svg">
<g filter="url(#filter0_d_354_2930)">
<g filter="url(#filter1_d_354_2930)">
<path d="M158.478 222.07C158.648 220.66 158.808 219.24 158.968 217.83C158.498 216.07 158.028 214.31 157.578 212.55C152.368 192.31 152.758 172.14 153.628 151.42C154.058 141.25 154.418 131.02 153.598 120.86C153.238 116.44 152.918 111.43 149.948 108.02C146.398 103.94 141.548 100.86 137.578 97.2C132.308 92.35 127.588 86.77 124.708 80.15C119.418 67.99 120.748 54.13 120.638 41.11C118.958 33.64 117.568 26.08 115.828 18.63C113.578 15.36 110.618 12.56 107.628 10C104.868 7.65 101.938 5.39 98.8784 3.27C93.3084 2.87 87.7184 2.6 82.1784 2C81.3584 2.67 80.3184 3.13 79.0284 3.23C73.0084 3.69 66.7284 4.41 61.0484 6.63C58.5584 11.02 56.3684 15.55 54.8084 20.34C51.5984 30.21 51.1384 40.44 49.7084 50.64C46.3884 74.33 32.4684 92.44 21.5684 112.95C10.8684 133.07 7.53843 156.35 6.52843 178.83C5.47843 202.16 5.89843 226.05 8.64843 249.25C10.0284 260.83 12.0384 272.34 14.5384 283.74C21.7784 287.41 29.4284 290.18 37.3984 292.04C46.8984 292.94 56.4184 293.98 65.9484 294.83C94.9484 294.05 123.908 282.84 147.658 265.37C152.938 251.39 156.238 236.83 158.478 222.06V222.07ZM125.298 269.45C121.888 270.88 118.858 273.18 115.548 274.87C110.868 277.26 105.818 278.74 100.838 280.37C100.688 280.42 100.508 280.37 100.338 280.37C95.6484 280.7 90.9584 281.16 86.2584 281.33C82.8684 281.45 79.6584 282.77 76.1684 282.44C72.6984 282.11 69.1284 282.76 65.6884 282.29C58.8384 281.35 51.9084 281.19 45.1984 278.74C41.0184 277.22 36.5084 276.48 32.5284 274.34C29.5184 272.72 26.6784 270.77 23.7184 269.05C22.9284 268.59 21.9784 268.41 21.0184 268.08C21.7484 264.94 22.1084 261.57 20.9284 258.2C20.6684 257.46 20.6084 256.64 20.5884 255.85C20.5384 253.85 20.3784 251.83 20.6084 249.86C21.2784 244.25 19.1184 238.84 19.5984 233.28C19.7884 231.07 20.3784 228.9 20.5384 226.69C20.7084 224.37 20.9484 221.95 20.5084 219.71C19.0584 212.37 19.6884 204.99 19.5984 197.62C19.5084 190.12 19.6384 182.63 19.5284 175.13C19.4984 173.26 18.7384 171.42 18.6084 169.54C18.2484 164.48 20.2784 159.56 19.5784 154.46C21.4284 151.11 20.6884 147.19 22.3384 143.6C23.8284 140.36 24.2684 136.47 25.3884 132.89C26.4884 129.39 28.7684 126.64 30.1884 123.37C31.2384 120.96 33.4384 119.06 34.4984 116.66C36.5584 112.01 40.0284 109.16 44.4384 106.91C50.9184 103.6 57.1984 99.9 63.5584 96.36C63.9284 96.16 64.4484 95.9 64.5384 95.58C65.5884 91.68 66.8984 87.8 67.4784 83.82C68.0984 79.6 69.3384 75.54 70.0184 71.37C70.6584 67.44 72.3584 63.45 71.4084 59.55C70.6684 56.55 70.4184 53.42 69.2584 50.47C68.1084 47.55 66.6484 44.86 64.9584 42.25C64.7884 41.99 64.6984 41.69 64.5484 41.37C65.5084 38.2 68.3984 39.9 70.5684 39.09C70.5684 36.51 71.0584 33.76 70.4184 31.29C69.8684 29.16 70.2384 28.79 72.1284 28.31C75.1184 27.56 77.9984 26.4 80.9484 25.51C81.7084 25.28 82.5684 25.37 83.3884 25.37C87.0484 25.36 90.7184 25.45 94.3784 25.34C96.7884 25.27 98.7684 25.99 100.588 27.92C100.148 29.41 100.908 31.04 99.7984 32.88C99.0084 34.19 99.6484 36.36 99.6484 37.99C101.978 38.44 104.118 38.85 106.168 39.25C107.108 41.65 106.478 43.22 104.788 44.7C102.528 46.68 101.648 49.73 101.698 52.33C101.878 61.73 99.9284 71 100.508 80.41C100.778 84.89 100.558 89.4 100.558 93.82C103.198 97.19 107.148 98.06 110.808 99.33C113.438 100.25 116.208 101.11 118.968 101.28C122.848 101.52 125.998 103.74 129.668 104.58C131.608 105.02 133.208 107.4 134.738 109.11C137.768 112.49 143.778 124.61 144.518 129.02C145.078 132.34 145.228 135.73 145.558 139.09C145.578 139.25 145.558 139.42 145.558 139.59C145.328 161.61 143.968 183.61 144.558 205.65C143.168 210.44 143.028 215.43 143.668 220.21C145.258 232.07 144.098 243.94 144.658 256.05C138.428 261.3 132.598 266.38 125.278 269.44L125.298 269.45Z" fill="#FAFCF3"/>
<path d="M144.688 256.05C138.458 261.3 132.628 266.38 125.308 269.44C121.898 270.87 118.868 273.17 115.558 274.86C110.878 277.25 105.828 278.73 100.848 280.36C100.698 280.41 100.518 280.36 100.348 280.36C95.6584 280.69 90.9684 281.15 86.2684 281.32C82.8784 281.44 79.6684 282.76 76.1784 282.43C72.7084 282.1 69.1384 282.75 65.6984 282.28C58.8484 281.34 51.9184 281.18 45.2084 278.73C41.0284 277.21 36.5184 276.47 32.5384 274.33C29.5284 272.71 26.6884 270.76 23.7284 269.04C22.9384 268.58 21.9884 268.4 21.0284 268.07C21.7584 264.93 22.1184 261.56 20.9384 258.19C20.6784 257.45 20.6184 256.63 20.5984 255.84C20.5484 253.84 20.3884 251.82 20.6184 249.85C21.2884 244.24 19.1284 238.83 19.6084 233.27C19.7984 231.06 20.3884 228.89 20.5484 226.68C20.7184 224.36 20.9584 221.94 20.5184 219.7C19.0684 212.36 19.6984 204.98 19.6084 197.61C19.5184 190.11 19.6484 182.62 19.5384 175.12C19.5084 173.25 18.7484 171.41 18.6184 169.53C18.2584 164.47 20.2884 159.55 19.5884 154.45C21.4384 151.1 20.6984 147.18 22.3484 143.59C23.8384 140.35 24.2784 136.46 25.3984 132.88C26.4984 129.38 28.7784 126.63 30.1984 123.36C31.2484 120.95 33.4484 119.05 34.5084 116.65C36.5684 112 40.0384 109.15 44.4484 106.9C50.9284 103.59 57.2084 99.89 63.5684 96.35C63.9384 96.15 64.4584 95.89 64.5484 95.57C65.5984 91.67 66.9084 87.79 67.4884 83.81C68.1084 79.59 69.3484 75.53 70.0284 71.36C70.6684 67.43 72.3684 63.44 71.4184 59.54C70.6784 56.54 70.4284 53.41 69.2684 50.46C68.1184 47.54 66.6584 44.85 64.9684 42.24C64.7984 41.98 64.7084 41.68 64.5584 41.36C65.5184 38.19 68.4084 39.89 70.5784 39.08C70.5784 36.5 71.0684 33.75 70.4284 31.28C69.8784 29.15 70.2484 28.78 72.1384 28.3C75.1284 27.55 78.0084 26.39 80.9584 25.5C81.7184 25.27 82.5784 25.36 83.3984 25.36C87.0584 25.35 90.7284 25.44 94.3884 25.33C96.7984 25.26 98.7784 25.98 100.598 27.91C100.158 29.4 100.918 31.03 99.8084 32.87C99.0184 34.18 99.6584 36.35 99.6584 37.98C101.988 38.43 104.128 38.84 106.178 39.24C107.118 41.64 106.488 43.21 104.798 44.69C102.538 46.67 101.658 49.72 101.708 52.32C101.888 61.72 99.9384 70.99 100.518 80.4C100.788 84.88 100.568 89.39 100.568 93.81C103.208 97.18 107.158 98.05 110.818 99.32C113.448 100.24 116.218 101.1 118.978 101.27C122.858 101.51 126.008 103.73 129.678 104.57C131.618 105.01 133.218 107.39 134.748 109.1C137.778 112.48 143.788 124.6 144.528 129.01C145.088 132.33 145.238 135.72 145.568 139.08C145.588 139.24 145.568 139.41 145.568 139.58C145.338 161.6 143.978 183.6 144.568 205.64C143.178 210.43 143.038 215.42 143.678 220.2C145.268 232.06 144.108 243.93 144.668 256.04L144.688 256.05ZM30.5784 270.37C30.2484 270.04 29.9084 269.7 29.3884 269.75C29.6584 269.43 29.9284 269.11 30.1984 268.79C26.9484 268.12 25.6284 265.64 24.1084 263.25C23.5884 264.25 23.1684 265.09 22.5884 266.21C24.7684 267.34 27.0784 268.55 29.5784 269.37C29.9084 269.7 30.2484 270.04 30.5784 270.37C30.6684 271.87 31.8184 271.22 32.5784 271.37C32.6984 271.65 32.7384 272.09 32.9484 272.2C36.3784 274 40.0984 275.08 43.7284 276.33C49.6184 278.35 55.6384 279.88 61.9684 279.38C62.6284 279.33 63.5184 279.09 63.9284 279.42C66.3184 281.3 69.0184 280.14 71.5484 280.33C74.1984 280.53 77.0984 281.02 79.4884 280.2C82.1084 279.3 84.7384 280.03 87.0884 279.25C89.6584 278.4 92.1584 278.5 94.7084 278.36C96.5984 278.26 98.6684 279 100.298 277.38C106.358 277.48 111.288 274.19 116.508 271.86C119.748 270.41 122.648 268.21 125.858 266.66C132.058 263.65 137.408 259.49 142.738 254.92C142.068 253.3 143.488 251.32 141.618 249.87C141.458 249.74 141.438 249.08 141.608 248.93C143.548 247.13 142.558 244.83 142.518 242.82C142.378 236.62 142.638 230.45 141.808 224.21C141.028 218.32 140.788 212.1 142.578 206.16C143.018 188.97 141.928 171.77 143.408 154.57C144.048 147.13 144.288 139.51 142.688 131.98C141.938 128.44 141.518 124.93 139.608 121.73C137.788 118.68 136.488 115.3 134.508 112.37C132.358 109.2 129.748 106.62 125.768 105.22C122.518 104.08 119.148 103.29 115.898 102.64C112.668 101.99 109.688 100.48 106.298 100.19C104.458 100.03 101.908 99.29 100.648 97.03C100.178 96.19 99.2584 95.61 98.6884 95.05C98.1484 90.19 98.9584 85.51 97.7784 80.75C97.0484 77.8 97.5884 74.45 98.3984 71.17C99.4984 66.66 99.2784 61.83 99.5784 57.13C99.6584 55.8 99.5784 54.46 99.5984 53.13C99.5984 52.36 101.178 46 101.618 45.47C102.298 44.64 103.098 43.9 104.148 42.8C101.258 43.15 98.9684 43.42 96.3884 43.73C97.1984 44.49 97.6984 45.34 98.1684 45.32C100.308 45.26 99.8784 47.08 99.5184 47.7C97.6984 50.81 96.3184 54.05 95.5684 57.58C95.4984 57.9 94.9784 58.2 94.5984 58.37C92.6384 59.25 90.6484 60.08 88.5984 60.96C88.5984 63.35 88.6484 65.84 88.5884 68.34C88.5284 70.64 88.8784 72.99 87.9684 75.23C87.5984 71.26 87.6384 67.3 87.5884 63.34C87.5584 61.2 87.3384 61.05 84.5984 60.65C84.5984 66.65 84.6084 72.62 84.5884 78.59C84.5884 79.31 84.9784 80.37 83.5984 80.38C83.3484 73.4 84.4484 66.34 82.1484 59.32C80.4684 58.96 78.6884 58.58 76.5084 58.11C78.1084 61.07 76.3584 63.34 76.4284 65.75C76.4984 67.92 75.0684 70.13 74.2984 72.33C74.1684 67.95 75.7184 63.71 75.3684 59.65C75.0184 55.65 74.5284 51.42 72.3884 47.51C75.5184 47.15 78.3784 48.06 80.8884 45.38C78.7484 45.38 76.9584 45.51 75.1884 45.34C73.3184 45.16 71.4684 44.71 69.1684 44.38H69.6184C69.5284 44.12 69.4784 43.83 69.3184 43.62C69.2684 43.56 68.9184 43.72 68.7084 43.79C68.8584 43.99 69.0184 44.19 69.6184 44.38C69.7384 45 69.7184 45.68 69.9884 46.22C72.3284 50.77 72.9084 55.81 73.4984 60.72C74.1184 65.96 72.1984 71.07 71.2584 76.22C71.1484 76.82 70.6184 77.38 70.6484 77.95C70.8684 82.64 68.4084 86.93 68.6184 91.61C67.0984 93.63 67.4884 97.15 63.9284 97.57C58.6484 102.37 51.8384 104.63 45.8284 108.21C42.2084 110.36 38.9184 112.81 36.7584 116.05C32.9984 121.69 29.6084 127.64 26.6584 133.81C25.8184 135.56 25.9284 137.51 25.2384 139.22C21.9884 147.27 21.7184 155.85 20.6584 164.28C20.3884 166.41 20.4884 168.61 20.6584 170.77C20.8284 172.98 21.5484 175.16 21.5784 177.35C21.6884 186.34 21.6284 195.33 21.6284 204.32C21.6284 213.31 21.4984 222.3 21.6684 231.29C21.8284 240.15 22.3084 249 22.6284 257.85C22.6784 259.31 22.6284 260.77 22.6284 261.75C24.1684 262.52 25.2984 263.01 26.3484 263.64C27.1584 264.13 27.8684 264.8 29.5484 265.97C29.3884 265.78 29.2384 265.58 29.0784 265.39C28.9284 265.54 28.7784 265.69 28.6284 265.84C28.8284 265.99 29.0084 266.17 29.2284 266.28C29.2684 266.3 29.4284 266.09 28.6284 265.39C28.9584 264.53 29.3284 263.68 29.6184 262.81C30.4184 260.41 32.3984 258.8 34.6184 258.82C34.2784 259.19 33.9584 259.54 33.6384 259.88C29.8684 263.85 30.1984 266.35 34.8884 269.4C35.2884 269.66 35.7284 269.93 35.9984 270.3C36.3384 270.76 36.5284 271.34 36.7684 271.84C35.6784 272.71 35.6184 271.45 35.1184 271.41C34.2884 271.34 33.4584 271.39 32.6284 271.39C32.5384 269.89 31.3884 270.54 30.6284 270.39L30.5784 270.37ZM78.5684 27.62C78.4984 27.82 78.4384 28.02 78.3684 28.23C79.6584 28.94 80.8984 30.12 82.2584 30.28C84.9984 30.6 87.7984 30.38 90.5584 30.38C90.5184 28.72 91.4784 27.62 92.1284 28.62C93.6884 31.02 95.4784 28.97 97.0784 29.31C97.1684 29.33 97.4784 28.33 97.7684 27.58H86.2584C85.3984 28.44 84.9284 28.91 84.4484 29.39C84.0384 28.81 83.6184 28.23 83.2084 27.64C81.7084 27.64 80.1384 27.64 79.3184 27.77C76.8684 28.6 75.2784 29.14 72.7684 29.99C75.6484 30.61 77.3684 30.7 78.5684 27.64V27.62ZM97.4184 31.06C95.8384 31.56 94.0184 32.7 93.3484 32.22C91.9384 31.21 91.1384 32.51 90.0684 32.41C88.5784 32.27 87.0684 32.37 85.5784 32.37H72.4084C72.9584 34.88 73.4184 36.99 73.8884 39.16C76.9784 41.11 80.4884 40.39 83.8284 40.3C87.0784 40.21 90.3084 39.56 93.0584 39.21C92.8984 37.69 92.7784 36.55 92.6684 35.55H95.7984C95.3884 36.59 95.0884 37.35 94.6684 38.41C95.7684 38.34 96.6684 38.29 97.4184 38.24V31.06ZM89.8884 49.62C88.7384 52.09 87.8584 54.17 89.2384 56.65C90.0984 58.2 90.5384 58.96 91.3884 58C92.7284 56.49 94.7084 55.59 94.7484 52.88C94.7784 51.12 96.3684 49.39 97.2984 47.57C96.9584 47.26 96.4984 46.45 95.9884 46.43C91.3484 46.2 87.0984 48.25 82.4884 48.6C83.0284 50.32 83.4884 51.78 83.9484 53.24C84.8484 53.37 85.7384 53.5 87.4784 53.75C86.1284 54.99 85.3584 55.67 84.6284 56.39C84.1884 56.82 83.8284 57.32 83.0884 58.2H87.8384C87.4984 55.64 87.1884 53.32 86.8284 50.63C87.0884 50.41 87.6584 49.85 88.3084 49.41C88.4984 49.28 88.9084 49.48 89.8884 49.63V49.62ZM68.1984 40.41C70.1184 42.76 72.3784 43.15 74.5184 43.31C77.9784 43.56 81.4784 43.36 84.9584 43.38C88.5084 43.41 91.8784 41.62 95.4884 42.37C97.1184 40.6 99.6184 41.92 101.458 40.68C99.1384 40.37 96.6284 39.76 94.6384 40.53C92.3784 41.41 90.2184 41.46 88.0284 41.31C85.7084 41.14 83.6584 42.21 81.4684 42.32C77.2084 42.53 73.0984 41.19 68.1984 40.41ZM82.6384 57.49C82.5584 55.94 82.7484 54.74 82.3784 53.75C81.8384 52.34 80.4184 52.26 79.0484 52.28C78.8984 52.28 78.5484 51.42 78.6484 51.06C78.7284 50.76 79.3784 50.38 79.6984 50.44C80.2384 50.54 80.7184 50.96 81.4084 51.36V48.02C79.2584 48.6 77.3784 49.11 75.6484 49.57C76.1484 52.09 76.5684 54.22 76.9384 56.05C78.7484 56.51 80.4084 56.94 82.6484 57.51L82.6384 57.49ZM86.3984 46.21C84.8484 45.67 83.2384 44.92 80.6284 46.21H86.3984Z" fill="#563635"/>
<path d="M69.5784 44.37C71.4384 44.7 73.2884 45.16 75.1584 45.33C76.9284 45.5 78.7184 45.37 80.8584 45.37C78.3484 48.04 75.4884 47.14 72.3584 47.5C74.5084 51.41 74.9884 55.64 75.3384 59.64C75.6884 63.71 74.1484 67.94 74.2684 72.32C75.0384 70.13 76.4584 67.91 76.3984 65.74C76.3284 63.33 78.0784 61.06 76.4784 58.1C78.6684 58.57 80.4484 58.95 82.1184 59.31C84.4184 66.33 83.3284 73.39 83.5684 80.37C83.2384 80.78 82.6184 81.19 82.6084 81.62C82.5284 84.87 82.5684 88.12 82.4984 91.45C81.8384 92.27 81.8184 93.2333 82.4384 94.34C82.4384 93.21 82.4384 92.29 82.4984 91.45C82.8884 90.96 83.5084 90.55 83.5184 90.13C83.5984 86.88 83.5584 83.63 83.5584 80.38C84.9384 80.37 84.5384 79.31 84.5484 78.59C84.5784 72.62 84.5584 66.65 84.5584 60.65C87.2884 61.06 87.5184 61.21 87.5484 63.34C87.5984 67.3 87.5584 71.25 87.9284 75.23C88.8284 72.99 88.4884 70.64 88.5484 68.34C88.6084 65.85 88.5584 63.35 88.5584 60.96C90.6084 60.08 92.5884 59.25 94.5584 58.37C94.9384 58.2 95.4584 57.9 95.5284 57.58C96.2784 54.05 97.6584 50.81 99.4784 47.7C99.8484 47.08 100.268 45.26 98.1284 45.32C97.6584 45.33 97.1684 44.49 96.3484 43.73C98.9284 43.42 101.218 43.14 104.108 42.8C103.048 43.9 102.258 44.64 101.578 45.47C101.148 46 99.5684 52.36 99.5584 53.13C99.5584 54.46 99.6284 55.8 99.5384 57.13C99.2384 61.83 99.4584 66.66 98.3584 71.17C97.5584 74.45 97.0084 77.81 97.7384 80.75C98.9184 85.51 98.1084 90.19 98.6484 95.05C99.2284 95.61 100.148 96.19 100.608 97.03C101.868 99.29 104.418 100.03 106.258 100.19C109.648 100.48 112.628 101.99 115.858 102.64C119.098 103.3 122.478 104.08 125.728 105.22C129.708 106.62 132.328 109.21 134.468 112.37C136.448 115.3 137.748 118.68 139.568 121.73C141.478 124.93 141.888 128.44 142.648 131.98C144.248 139.51 144.008 147.13 143.368 154.57C141.898 171.78 142.978 188.97 142.538 206.16C140.748 212.11 140.988 218.32 141.768 224.21C142.588 230.46 142.338 236.62 142.478 242.82C142.518 244.83 143.508 247.13 141.568 248.93C141.408 249.08 141.418 249.75 141.578 249.87C143.448 251.31 142.028 253.3 142.698 254.92C137.368 259.5 132.018 263.65 125.818 266.66C122.618 268.21 119.718 270.42 116.468 271.86C111.248 274.19 106.318 277.48 100.258 277.38C98.6284 279.01 96.5684 278.26 94.6684 278.36C92.1084 278.5 89.6084 278.4 87.0484 279.25C84.6984 280.03 82.0584 279.3 79.4484 280.2C77.0684 281.02 74.1684 280.53 71.5084 280.33C68.9684 280.14 66.2684 281.3 63.8884 279.42C63.4784 279.1 62.5884 279.33 61.9284 279.38C55.5984 279.88 49.5784 278.35 43.6884 276.33C40.0484 275.08 36.3384 274 32.9084 272.2C32.6984 272.09 32.6584 271.65 32.5384 271.37C33.3684 271.37 34.2084 271.32 35.0284 271.39C35.5284 271.43 35.5884 272.69 36.6784 271.82C36.4384 271.32 36.2484 270.74 35.9084 270.28C35.6384 269.91 35.1984 269.64 34.7984 269.38C30.1084 266.33 29.7784 263.84 33.5484 259.86C33.8684 259.52 34.1884 259.17 34.5284 258.8C32.3084 258.77 30.3284 260.39 29.5284 262.79C29.2384 263.66 28.8684 264.51 28.5384 265.37C27.7784 264.78 27.0784 264.11 26.2584 263.62C25.2084 262.99 24.0784 262.5 22.5384 261.73C22.5384 260.75 22.5884 259.29 22.5384 257.83C22.2184 248.98 21.7484 240.13 21.5784 231.27C21.4084 222.28 21.5384 213.29 21.5384 204.3C21.5384 195.31 21.5984 186.32 21.4884 177.33C21.4584 175.13 20.7384 172.95 20.5684 170.75C20.3984 168.6 20.2984 166.39 20.5684 164.26C21.6384 155.83 21.8984 147.25 25.1484 139.2C25.8384 137.49 25.7384 135.54 26.5684 133.79C29.5184 127.63 32.9084 121.68 36.6684 116.03C38.8284 112.8 42.1184 110.34 45.7384 108.19C51.7484 104.61 58.5584 102.35 63.8384 97.55C67.3884 97.13 67.0084 93.61 68.5284 91.59C68.3184 86.91 70.7784 82.62 70.5584 77.93C70.5284 77.37 71.0584 76.8 71.1684 76.2C72.1084 71.05 74.0284 65.94 73.4084 60.7C72.8184 55.79 72.2384 50.75 69.8984 46.2C69.6184 45.66 69.6384 44.98 69.5284 44.36L69.5784 44.37ZM47.5784 251.37C48.5584 250.99 50.1084 252.3 50.5784 250.37C51.5184 250.37 52.4784 250.47 53.3984 250.32C53.8284 250.25 54.1884 249.7 54.5784 248.89C55.5784 248.91 58.0284 250.49 57.3084 247.46C56.3384 247.97 55.4584 248.43 54.5784 249.37C53.6384 249.37 52.6784 249.27 51.7584 249.42C51.3284 249.49 50.9684 250.04 50.5784 250.37C49.5984 250.75 48.0484 249.44 47.5784 251.37C46.5984 251.75 45.0484 250.44 44.5784 252.37C41.3484 252.28 38.9884 254.03 35.8484 256.37H38.5784C38.2384 257.28 37.8984 258.2 37.4484 259.4C39.8484 258.23 41.6984 257.11 43.6884 256.41C46.5984 255.4 49.6984 254.89 52.5684 253.8C55.6484 252.63 58.9484 252.63 62.0784 251.54C65.0384 250.51 68.5384 252.21 71.5784 250.39C71.7384 250.29 72.1284 250.59 72.4184 250.7C72.9884 250.91 73.6484 251.41 74.0984 251.25C74.6884 251.04 75.1084 250.33 76.2284 249.21C70.3084 249.87 65.3684 248.84 60.2984 250.18C56.7184 251.13 53.0484 251.86 49.4684 252.93C47.2284 253.6 44.8884 253.9 42.5884 254.36C42.9984 254.03 43.4484 253.72 43.8284 253.35C44.1284 253.06 44.3384 252.69 44.5884 252.36C45.5684 251.98 47.1184 253.29 47.5884 251.36L47.5784 251.37ZM59.5784 118.37C61.1884 117.49 62.7284 116.57 62.5784 114.37C62.9084 114.04 63.2484 113.7 63.3784 114.07C66.3284 111.12 68.8384 108.62 71.3384 106.1C71.4184 106.02 71.4884 105.84 71.4584 105.76C71.3984 105.62 71.2384 105.52 71.1284 105.41C67.7684 107.06 64.3484 110.67 63.5884 113.37C63.2584 113.7 62.9184 114.04 62.5884 114.37C60.9784 115.25 59.4384 116.17 59.5884 118.82V118.37C59.3284 118.46 59.0384 118.51 58.8284 118.67C58.7684 118.72 58.9284 119.07 58.9984 119.28C59.1984 119.13 59.3984 118.97 59.5884 118.37H59.5784ZM59.2384 216.01C58.8584 216.72 58.5384 217.07 58.6084 217.2C58.8584 217.63 59.2384 217.99 59.5784 218.37C59.4884 217.72 59.3884 217.06 60.1784 217.63C59.5984 221.67 60.1318 225.143 61.7784 228.05C61.2784 224.81 60.7884 221.58 59.2384 216V216.01ZM48.9584 138.62C49.6984 137.5 50.2684 136.2 51.2284 135.31C53.3284 133.36 53.4084 130.55 54.5284 128.19C54.9184 127.37 54.8084 126.07 52.7684 126.45C53.1884 130.97 49.6284 134.2 48.5784 138.82C48.5784 138.67 48.5784 138.52 48.5784 138.37C48.3184 138.46 48.0284 138.51 47.8184 138.67C47.7584 138.72 47.9184 139.07 47.9884 139.28C48.1884 139.13 48.3884 138.97 48.9484 138.62H48.9584ZM80.0484 147.39C79.2684 145.73 78.1784 144.24 78.6084 142.38C78.8084 141.52 78.0184 141.46 77.7684 141C76.3684 138.42 73.8784 137.5 71.3284 137.45C65.2784 137.35 59.6884 139.65 54.0384 141.48C53.4584 141.67 53.0584 142.41 52.6184 142.85C53.1384 143.44 53.3484 143.67 53.5584 143.92C51.9584 144.47 50.3484 145.03 48.5984 145.63C48.4784 149.83 50.2484 153.24 52.7584 156.49C51.9284 157.49 51.1384 158.45 50.0784 159.74C52.1984 161.07 54.2684 161.98 55.8084 163.44C57.2084 164.77 57.6784 167.44 59.2184 168.2C61.7484 169.45 61.1084 171.86 62.1684 173.56C63.2884 175.36 63.8284 177.52 64.6984 179.71C63.5884 180.6 62.4384 181.53 61.5984 182.21C61.5984 183.3 61.6484 183.8 61.5984 184.29C61.3384 186.47 61.7884 188.02 64.3084 188.65C65.8084 189.03 67.1284 190.11 68.5684 190.91C67.6784 191.78 66.8484 193.01 68.2684 193.24C70.3384 193.58 69.8684 195.27 69.5184 195.73C67.8784 197.87 68.9784 200.06 68.6284 201.88C69.3284 202.58 69.6384 203.17 70.0384 203.25C73.9384 204.05 74.6784 206.73 74.6584 210.22C74.6284 213.76 73.9684 217.4 75.6084 220.8C75.2784 226.04 77.2384 231.11 76.6484 236.38C76.4284 238.35 76.6084 240.37 76.6084 242.37C76.6084 245.37 76.7784 248.38 76.5584 251.36C76.3484 254.21 75.7484 257.03 75.4284 259.14C77.8684 263.25 81.3784 264.96 84.9284 265.18C89.9884 265.48 95.3584 266.54 100.088 263.36C103.518 263.68 104.968 260.52 107.218 258.96C109.278 257.52 110.438 254.75 111.898 252.51C112.308 251.89 112.718 250.92 112.508 250.34C112.268 249.68 111.328 249.28 110.678 248.76C115.888 247.15 120.948 249.41 126.098 249.44C128.098 249.45 129.268 251.45 129.618 253.81C129.728 254.54 130.138 255.23 130.438 256.01C128.908 257.54 127.318 259.24 125.588 260.81C124.668 261.65 123.618 262.53 122.468 262.9C119.138 263.98 116.388 266.01 113.528 267.88C112.628 268.47 111.658 269.07 110.628 269.31C107.898 269.93 105.348 271.13 102.708 271.97C100.878 272.56 98.6484 271.24 97.2384 273.2C92.5384 273.92 87.8484 275.11 83.1284 275.22C77.7884 275.35 72.3084 276.33 67.0484 274.35C61.9484 275.12 57.0484 272.91 51.9684 273.32C51.2084 273.38 50.4284 273.05 49.6484 272.92C46.9784 272.45 44.3184 271.99 41.1084 271.44C41.9884 273.45 42.6684 274.35 44.5384 274.41C48.9084 274.56 53.3484 274.6 57.5784 275.53C59.6484 275.98 61.6384 276.17 63.6984 276.38C65.7384 276.59 67.7684 277.37 69.7784 277.29C76.6384 277 83.4984 278.01 90.3984 276.52C94.0684 275.72 97.5284 274.01 101.398 273.97C102.878 273.95 104.318 273.02 105.818 272.65C110.708 271.44 114.768 268.47 119.278 266.51C123.138 264.82 126.548 262.88 129.648 260.03C130.578 259.18 131.298 257.7 132.418 257.45C135.978 256.64 137.618 253.81 139.168 251.15C140.908 248.16 142.578 244.64 141.408 241.23C140.618 238.93 140.668 236.8 140.618 234.59C140.508 230.09 140.588 225.59 140.588 221.1C140.588 214.6 140.708 208.1 140.558 201.61C140.408 195.08 140.618 188.58 139.818 182C139.048 175.74 137.858 169.36 138.578 162.95C138.588 162.84 138.388 162.7 138.208 162.48H136.588C136.588 166.81 135.888 171.26 136.808 175.34C137.548 178.62 136.788 181.93 137.718 184.93C138.728 188.18 138.548 191.34 138.558 194.55C138.608 208.71 138.578 222.87 138.588 237.04C138.588 238.36 138.228 239.92 138.788 240.94C139.768 242.72 139.528 243.99 138.848 245.81C138.278 247.34 138.438 249.33 137.508 250.74C136.578 252.16 135.498 253.85 133.198 253.43C132.828 253.36 132.328 253.97 132.128 254.11C131.348 252.41 131.038 250.22 129.858 249.54C128.208 248.59 126.538 247.11 124.278 247.35C122.958 247.49 121.338 247.86 120.328 247.29C116.848 245.32 113.288 247.03 109.948 246.29C109.538 247.27 109.278 247.91 108.788 249.09C107.328 247.63 106.298 246.6 105.268 245.57C101.908 242.21 101.938 242.23 104.808 238.61C106.128 236.95 106.758 235.07 106.618 232.84C106.498 230.87 105.068 230.67 103.798 230.06C103.368 229.86 102.828 229.41 102.768 229.02C102.518 227.18 100.508 226.58 99.9984 225.16C99.3984 223.49 98.8184 221.97 97.6084 220.63C97.0284 219.99 96.8684 218.95 96.5684 218.08C95.5684 215.16 95.2284 212.04 93.6084 209.3C92.9984 208.27 92.6784 206.95 92.5984 205.74C92.3084 201.44 90.9184 197.71 87.8484 195.11C89.7084 193.74 91.7084 192.47 93.4484 190.91C95.1084 189.43 94.9584 188.49 93.5284 186.82C91.9084 184.92 88.6684 184.11 89.3384 180.65C88.1884 179.83 87.6384 178.31 85.7884 178.26C85.0284 178.24 83.6584 176.92 83.6784 176.22C83.7584 173.75 82.9484 171.49 82.5784 169.13C82.1584 166.45 82.5384 163.42 81.3784 161.14C80.2284 158.89 80.8984 156.53 79.7584 154.28C78.9084 152.59 78.8084 149.7 81.2784 148.06C81.6284 147.83 81.3984 146.82 81.5784 146.22C81.7584 145.64 82.1184 145.11 82.4684 144.43C79.4984 144.08 81.1384 146.35 79.1384 140.45C78.9484 140.61 78.7484 140.76 78.5584 140.92C78.7084 141.07 78.8584 141.22 79.0084 141.37C79.1584 141.17 79.3384 140.99 79.4484 140.77C79.4684 140.73 79.2584 140.57 80.0184 147.39H80.0484ZM62.9784 101.08C61.5884 101.69 60.2984 101.91 60.2084 102.37C59.8384 104.27 58.0284 104.44 56.9584 105.44C55.4484 106.86 53.7684 108.11 52.0884 109.34C50.1884 110.74 47.8884 111.74 46.3384 113.44C43.7684 116.25 40.1784 117.75 37.9584 121.19C36.2484 123.83 35.0184 126.78 33.1084 129.18C30.2884 132.73 29.3084 136.97 27.6184 140.94C25.3584 146.26 25.4684 152.1 24.7384 157.69C24.0084 163.26 24.2984 169.02 24.6584 174.66C25.0284 180.44 23.2384 186 23.5584 191.74C24.0684 200.76 22.9984 209.78 24.4184 218.84C25.2884 224.37 24.8784 230.16 24.4984 235.8C24.1184 241.42 25.9384 246.81 25.6084 252.38C25.4884 254.43 25.6084 254.44 27.6284 257.54C27.4584 253.42 27.1884 249.8 26.7684 246.11C26.0784 240.02 26.7084 233.8 26.5484 227.64C26.3884 221.61 25.8084 215.59 25.6184 209.56C25.4584 204.4 25.7384 199.23 25.5584 194.07C25.1084 181.19 27.3484 168.39 26.5884 155.5C26.5584 155 26.3684 154.27 26.6184 154.04C27.8984 152.85 27.4184 151.33 27.6084 149.92C27.8184 148.38 28.3584 146.87 28.5584 145.33C28.8584 142.94 31.3684 134.34 32.9184 132.67C34.3884 131.09 34.9884 129.17 36.0284 127.42C37.5684 124.82 38.9884 122.13 41.3384 120.13C42.9284 118.79 44.6084 117.56 46.2084 116.23C49.9984 113.08 53.6384 109.78 57.9584 107.25C59.8884 106.12 61.9284 104.4 62.9684 101.08H62.9784ZM106.128 104.48C107.118 105.39 107.578 106.13 108.208 106.33C110.558 107.11 113.008 107.59 115.348 108.39C125.898 112.03 128.458 114.67 132.898 123.24C133.978 125.32 134.278 127.68 134.808 129.96C135.408 132.53 136.928 135.01 136.488 137.69C136.038 140.47 138.418 143.15 136.568 145.87V160.22C137.658 158.78 138.758 157.6 138.618 155.7C138.028 148.03 139.268 140.33 137.708 132.61C136.698 127.62 135.878 122.79 132.588 118.71C130.698 116.36 129.348 113.42 127.078 111.58C124.118 109.18 120.518 107.38 116.768 106.46C113.498 105.66 110.298 104.06 106.128 104.47V104.48ZM44.5784 167.7V182.71C44.5784 184.38 44.4884 186.05 44.6084 187.71C44.6984 189.11 43.9384 190.74 45.5184 191.82C43.1584 193.24 45.7584 194.56 45.6084 195.97C44.9284 202.21 46.6584 208.35 46.5084 214.55C46.3584 220.78 47.2384 226.9 47.7684 233.06C47.7684 233.17 47.9884 233.26 48.5784 233.74V230.55C48.5784 222.72 48.5084 214.89 48.6184 207.05C48.6484 204.51 47.9684 201.9 49.4984 199.41C50.0184 198.56 50.0684 196.69 49.4884 196.05C48.1284 194.54 48.8084 192.93 48.5784 191.38C48.4884 190.75 48.3484 190.12 48.2284 189.5C47.5284 194.03 47.5284 198.49 47.5184 202.94C47.5184 203.06 47.3184 203.22 47.1684 203.28C47.0884 203.31 46.9384 203.18 46.5884 203C46.5884 193.49 46.5384 183.85 46.6284 174.22C46.6484 172.08 46.2684 170.16 44.5884 167.7H44.5784ZM116.578 163.49C116.578 165.63 116.108 167.21 116.668 167.79C118.578 169.79 116.468 172.75 118.578 174.54C118.968 178.97 119.618 183.35 120.478 187.73C121.018 190.46 120.448 193.38 120.618 196.21C120.788 199.08 121.388 201.93 121.548 204.8C121.718 207.96 121.568 211.13 121.598 214.3C121.598 214.97 121.788 215.63 121.888 216.3C122.578 215.62 122.608 215 122.578 214.39C122.138 207.03 123.408 199.64 121.678 192.29C120.838 188.72 122.408 184.79 120.588 181.23C120.968 176.2 118.268 171.6 118.518 166.56C118.548 165.86 117.638 165.12 116.588 163.51L116.578 163.49ZM112.708 192.85C112.638 194.22 112.438 194.78 112.618 195.17C114.038 198.41 113.958 201.94 114.508 205.33C115.178 209.45 114.258 213.66 115.428 217.9C116.278 220.99 115.468 224.5 115.628 227.82C115.798 231.18 116.248 234.52 116.598 237.87C116.678 238.67 116.818 239.46 116.938 240.26C117.188 234.21 118.508 228.19 116.598 222.29C117.328 215.07 115.708 207.97 115.508 200.79C115.438 198.24 115.198 195.43 112.718 192.86L112.708 192.85ZM52.9584 203.43C52.4684 205.96 53.0684 208.34 53.4284 210.85C54.2484 216.63 54.2784 222.52 54.5684 228.37C54.6684 230.36 54.6484 232.36 54.5684 234.35C54.5084 235.84 54.8584 237.13 55.5484 238.45C56.1184 239.55 54.8184 241.14 56.2984 242.24C57.2084 238.88 55.8784 235.81 55.6384 232.66C55.0884 225.5 56.2284 218.29 54.7384 211.1C54.2084 208.54 53.8784 205.94 52.9684 203.43H52.9584ZM86.4284 100.09C84.7284 98.43 84.7284 98.43 83.5084 98.37C81.2484 98.26 78.8284 98.61 76.7784 97.9C74.4784 97.1 72.2884 97.68 70.0784 97.45C69.9384 97.44 69.6884 98.43 69.4384 99.08C75.2984 99.62 80.7684 101.23 86.4284 100.09ZM95.4084 92.2C95.4684 91.74 95.5484 91.28 95.5784 90.82C95.7984 87.75 94.9484 84.79 94.6984 81.79C94.2884 76.86 94.5984 71.87 94.5784 66.9C94.5784 65.75 94.8184 64.83 95.4784 63.77C96.1184 62.72 95.1284 62.08 93.5884 62.7C93.5884 67.52 93.8784 72.47 93.5084 77.37C93.1284 82.45 95.1684 87.21 95.4184 92.2H95.4084ZM110.778 245.14C113.758 244.81 116.778 246.35 119.438 244.38C121.118 246.02 123.558 242.95 125.238 245.33C125.498 245.69 126.718 245.38 128.588 245.38C126.858 244.31 126.078 243.4 125.368 243.45C120.438 243.77 115.298 242.24 110.788 245.14H110.778ZM110.768 218.64C110.258 222.28 111.758 224.82 112.178 227.53C112.618 230.39 112.648 233.32 112.858 236.21C114.328 229.02 112.888 224.26 110.758 218.64H110.768ZM86.5784 101.87C82.2484 101.35 77.9084 101.35 73.5784 101.87C77.9084 102.39 82.2484 102.39 86.5784 101.87ZM90.5084 99.98C92.5984 101.27 93.9284 99.26 96.3384 98.74C93.7184 98.21 91.9284 97.95 90.5084 99.98ZM80.0784 142.37C79.9684 142.48 79.7484 142.62 79.7684 142.7C79.8184 142.94 79.9684 143.15 80.0784 143.37C80.1884 143.26 80.4084 143.12 80.3884 143.04C80.3384 142.8 80.1884 142.59 80.0784 142.37ZM59.2284 248.23C59.3584 248.1 59.4684 247.99 59.5884 247.87C59.3684 247.76 59.1484 247.61 58.9184 247.56C58.8384 247.54 58.6984 247.76 58.5884 247.87C58.8084 247.99 59.0184 248.11 59.2284 248.23Z" fill="#FAFCF3"/>
<path d="M97.4184 31.06V38.24C96.6684 38.29 95.7684 38.34 94.6684 38.41C95.0884 37.35 95.3884 36.59 95.7984 35.55H92.6684C92.7784 36.56 92.8984 37.7 93.0584 39.21C90.3184 39.55 87.0784 40.21 83.8284 40.3C80.4884 40.39 76.9784 41.11 73.8884 39.16C73.4184 36.99 72.9584 34.88 72.4084 32.37H85.5784C87.0784 32.37 88.5884 32.26 90.0684 32.41C91.1384 32.51 91.9384 31.21 93.3484 32.22C94.0084 32.69 95.8284 31.55 97.4184 31.06ZM86.5784 35.38C87.3884 35.24 88.6884 35.88 88.5484 34.24C88.5184 33.93 88.0284 33.44 87.7284 33.42C86.0784 33.28 86.7284 34.58 86.6284 35.28C85.9084 35.42 85.2684 35.55 85.1884 35.56C85.4184 36.17 85.6784 36.85 85.9384 37.53C86.1184 37.4 86.3084 37.27 86.4884 37.14C86.5284 36.55 86.5784 35.96 86.5784 35.37V35.38ZM80.6284 34.66C78.6784 34.17 76.9084 33.96 75.6184 35.91C78.5984 38.21 78.9484 38.13 80.6284 34.66ZM82.4484 37.79C81.7984 38.09 81.1084 38.41 80.4284 38.73C81.9584 39.39 82.9784 39.51 82.4484 37.79ZM89.5784 38.12V37.62H87.5784V38.12H89.5784Z" fill="#FAFCF3"/>
<path d="M89.8884 49.62C88.9184 49.47 88.4984 49.27 88.3084 49.4C87.6584 49.84 87.0884 50.4 86.8284 50.62C87.1884 53.31 87.4984 55.63 87.8384 58.19H83.0884C83.8284 57.31 84.1884 56.81 84.6284 56.38C85.3584 55.66 86.1284 54.99 87.4784 53.74C85.7384 53.49 84.8484 53.36 83.9484 53.23C83.4884 51.78 83.0284 50.31 82.4884 48.59C87.1084 48.23 91.3484 46.19 95.9884 46.42C96.4884 46.44 96.9584 47.25 97.2984 47.56C96.3684 49.38 94.7684 51.11 94.7484 52.87C94.7084 55.58 92.7284 56.48 91.3884 57.99C90.5384 58.95 90.0984 58.19 89.2384 56.64C87.8584 54.16 88.7384 52.07 89.8884 49.61V49.62ZM92.0684 55.78C92.6584 54.18 93.1684 53.1 91.8284 52.42C91.5584 52.28 91.0184 52.7 90.5984 52.86C91.0284 53.71 91.4584 54.56 92.0784 55.77L92.0684 55.78Z" fill="#FAFCF3"/>
<path d="M68.1984 40.41C73.1084 41.19 77.2084 42.54 81.4684 42.32C83.6484 42.21 85.6984 41.15 88.0284 41.31C90.2184 41.47 92.3684 41.41 94.6384 40.53C96.6184 39.76 99.1384 40.37 101.458 40.68C99.6184 41.92 97.1184 40.6 95.4884 42.37C91.8784 41.62 88.5084 43.4 84.9584 43.38C81.4784 43.35 77.9784 43.56 74.5184 43.31C72.3884 43.15 70.1184 42.76 68.1984 40.41Z" fill="#FAFCF3"/>
<path d="M78.5684 27.62H83.2084C83.6284 28.21 84.0384 28.79 84.4484 29.37C84.9184 28.9 85.3984 28.42 86.2584 27.56H97.7684C97.4784 28.31 97.1684 29.31 97.0784 29.29C95.4784 28.95 93.6884 31 92.1284 28.6C91.4784 27.6 90.5084 28.69 90.5584 30.36C87.7984 30.36 84.9984 30.59 82.2584 30.26C80.8984 30.1 79.6684 28.93 78.3684 28.21C78.4384 28.01 78.4984 27.81 78.5684 27.6V27.62Z" fill="#FAFCF3"/>
<path d="M82.6384 57.49C80.3984 56.92 78.7484 56.5 76.9284 56.03C76.5684 54.19 76.1384 52.07 75.6384 49.55C77.3584 49.09 79.2384 48.58 81.3984 48V51.34C80.7084 50.95 80.2284 50.52 79.6884 50.42C79.3684 50.36 78.7184 50.75 78.6384 51.04C78.5384 51.41 78.8884 52.27 79.0384 52.26C80.4084 52.24 81.8284 52.32 82.3684 53.73C82.7484 54.72 82.5484 55.92 82.6284 57.47L82.6384 57.49Z" fill="#FAFCF3"/>
<path d="M29.3884 269.75C27.0784 268.55 24.7684 267.34 22.5884 266.21C23.1584 265.09 23.5884 264.26 24.1084 263.25C25.6384 265.64 26.9484 268.12 30.1984 268.79C29.9284 269.11 29.6584 269.43 29.3884 269.75Z" fill="#FAFCF3"/>
<path d="M79.3184 27.75C77.3684 30.67 75.6484 30.59 72.7684 29.97C75.2784 29.12 76.8784 28.58 79.3184 27.75Z" fill="#FAFCF3"/>
<path d="M80.6284 46.21H86.3984C84.8584 45.67 83.2384 44.92 80.6284 46.21Z" fill="#FAFCF3"/>
<path d="M30.5784 270.37C30.6684 271.87 31.8184 271.22 32.5784 271.37C32.4884 269.87 31.3384 270.52 30.5784 270.37Z" fill="#FAFCF3"/>
<path d="M29.4984 265.96C29.3784 266.08 29.2184 266.29 29.1784 266.27C28.9584 266.15 28.7784 265.98 28.5784 265.83C28.7284 265.68 28.8784 265.53 29.0284 265.38C29.1884 265.57 29.3484 265.77 29.4984 265.96Z" fill="#FAFCF3"/>
<path d="M69.1384 44.37C68.9884 44.17 68.8284 43.98 68.6784 43.78C68.8884 43.72 69.2384 43.55 69.2884 43.61C69.4484 43.82 69.4984 44.11 69.5884 44.37C69.4384 44.37 69.2884 44.37 69.1384 44.37Z" fill="#FAFCF3"/>
<path d="M80.0484 147.39C81.1784 146.36 79.5384 144.08 82.5084 144.43C82.1584 145.11 81.7884 145.64 81.6184 146.22C81.4384 146.82 81.6684 147.83 81.3184 148.06C78.8484 149.7 78.9384 152.59 79.7984 154.28C80.9284 156.53 80.2684 158.89 81.4184 161.14C82.5784 163.41 82.1984 166.45 82.6184 169.13C82.9884 171.49 83.7884 173.75 83.7184 176.22C83.6984 176.92 85.0684 178.24 85.8284 178.26C87.6884 178.31 88.2384 179.83 89.3784 180.65C88.7084 184.11 91.9484 184.92 93.5684 186.82C95.0084 188.5 95.1584 189.43 93.4884 190.91C91.7384 192.46 89.7384 193.73 87.8884 195.11C90.9584 197.72 92.3484 201.45 92.6384 205.74C92.7184 206.95 93.0384 208.27 93.6484 209.3C95.2684 212.04 95.6084 215.16 96.6084 218.08C96.9084 218.95 97.0684 219.99 97.6484 220.63C98.8584 221.97 99.4384 223.5 100.038 225.16C100.548 226.57 102.558 227.17 102.808 229.02C102.858 229.41 103.408 229.86 103.838 230.06C105.108 230.67 106.538 230.87 106.658 232.84C106.798 235.06 106.168 236.94 104.848 238.61C101.978 242.22 101.948 242.2 105.308 245.57C106.338 246.6 107.368 247.62 108.828 249.09C109.318 247.91 109.578 247.28 109.988 246.29C113.328 247.02 116.878 245.31 120.368 247.29C121.378 247.86 122.998 247.49 124.318 247.35C126.568 247.11 128.248 248.59 129.898 249.54C131.078 250.22 131.388 252.41 132.168 254.11C132.368 253.98 132.868 253.36 133.238 253.43C135.538 253.86 136.618 252.16 137.548 250.74C138.478 249.33 138.328 247.34 138.888 245.81C139.568 243.98 139.808 242.71 138.828 240.94C138.258 239.92 138.628 238.36 138.628 237.04C138.628 222.88 138.658 208.72 138.598 194.55C138.588 191.34 138.768 188.17 137.758 184.93C136.818 181.93 137.578 178.62 136.848 175.34C135.928 171.26 136.628 166.81 136.628 162.48H138.248C138.428 162.7 138.628 162.84 138.618 162.95C137.898 169.37 139.088 175.74 139.858 182C140.668 188.57 140.448 195.08 140.598 201.61C140.748 208.1 140.628 214.6 140.628 221.1C140.628 225.6 140.558 230.1 140.658 234.59C140.708 236.8 140.658 238.93 141.448 241.23C142.618 244.64 140.948 248.16 139.208 251.15C137.658 253.81 136.018 256.64 132.458 257.45C131.348 257.7 130.618 259.18 129.688 260.03C126.588 262.88 123.178 264.82 119.318 266.51C114.818 268.48 110.748 271.44 105.858 272.65C104.358 273.02 102.918 273.96 101.438 273.97C97.5584 274.01 94.1084 275.73 90.4384 276.52C83.5384 278.02 76.6784 277.01 69.8184 277.29C67.8084 277.37 65.7784 276.59 63.7384 276.38C61.6784 276.17 59.6884 275.98 57.6184 275.53C53.3884 274.6 48.9384 274.56 44.5784 274.41C42.7184 274.34 42.0284 273.45 41.1484 271.44C44.3584 272 47.0284 272.46 49.6884 272.92C50.4584 273.06 51.2484 273.38 52.0084 273.32C57.0884 272.91 61.9884 275.12 67.0884 274.35C72.3484 276.34 77.8284 275.35 83.1684 275.22C87.8884 275.11 92.5784 273.91 97.2784 273.2C98.6984 271.24 100.918 272.56 102.748 271.97C105.388 271.12 107.938 269.93 110.668 269.31C111.688 269.08 112.668 268.47 113.568 267.88C116.428 266.01 119.178 263.98 122.508 262.9C123.658 262.53 124.708 261.65 125.628 260.81C127.348 259.24 128.948 257.53 130.478 256.01C130.178 255.23 129.768 254.54 129.658 253.81C129.298 251.45 128.138 249.45 126.138 249.44C120.988 249.41 115.938 247.15 110.718 248.76C111.358 249.28 112.298 249.68 112.548 250.34C112.758 250.92 112.338 251.89 111.938 252.51C110.478 254.75 109.318 257.52 107.258 258.96C105.008 260.52 103.558 263.68 100.128 263.36C95.3984 266.54 90.0184 265.48 84.9684 265.18C81.4184 264.97 77.8984 263.25 75.4684 259.14C75.7884 257.03 76.3884 254.21 76.5984 251.36C76.8084 248.38 76.6484 245.37 76.6484 242.37C76.6484 240.37 76.4584 238.35 76.6884 236.38C77.2784 231.11 75.3184 226.03 75.6484 220.8C74.0084 217.4 74.6684 213.76 74.6984 210.22C74.7284 206.73 73.9884 204.05 70.0784 203.25C69.6684 203.17 69.3684 202.58 68.6684 201.88C69.0184 200.06 67.9184 197.86 69.5584 195.73C69.9084 195.27 70.3884 193.58 68.3084 193.24C66.8884 193.01 67.7184 191.77 68.6084 190.91C67.1584 190.12 65.8384 189.03 64.3484 188.65C61.8384 188.02 61.3784 186.47 61.6384 184.29C61.6984 183.8 61.6384 183.31 61.6384 182.21C62.4884 181.53 63.6384 180.6 64.7384 179.71C63.8684 177.52 63.3284 175.36 62.2084 173.56C61.1484 171.85 61.7884 169.45 59.2584 168.2C57.7284 167.44 57.2584 164.77 55.8484 163.44C54.3084 161.98 52.2384 161.07 50.1184 159.74C51.1784 158.45 51.9784 157.49 52.7984 156.49C50.2884 153.24 48.5084 149.83 48.6384 145.63C50.3884 145.03 51.9984 144.47 53.5984 143.92C53.3884 143.68 53.1784 143.44 52.6584 142.85C53.0984 142.41 53.4984 141.67 54.0784 141.48C59.7284 139.65 65.3184 137.35 71.3684 137.45C73.9184 137.49 76.3984 138.41 77.8084 141C78.0584 141.45 78.8484 141.52 78.6484 142.38C78.2184 144.24 79.3084 145.73 80.0884 147.39H80.0484ZM90.5784 187.37C90.9084 187.7 91.2484 188.04 93.0884 190.19C92.3584 189.31 91.9684 188.84 91.5784 188.37C91.3384 190.23 89.7684 188.93 88.9884 189.49C88.8484 189.59 88.8584 189.91 88.7884 190.19C90.0584 190.19 91.2584 190.19 91.5784 188.37C91.2484 188.04 90.9084 187.7 88.1584 186.22C88.8384 186.99 89.0384 187.36 89.1784 187.34C89.6584 187.27 90.1184 187.06 90.5784 186.91C89.9784 186.74 89.3684 186.57 90.5784 187.38V187.37ZM86.7084 183.05C86.0584 182.06 85.5384 181.26 84.7684 180.08V183.5C85.5384 183.32 86.0884 183.2 87.1584 181.46C86.9684 181.62 86.7684 181.77 86.5784 181.93C86.7284 182.08 86.8784 182.23 87.0284 182.38C87.1784 182.18 87.3584 182 87.4684 181.78C87.4884 181.74 87.2784 181.58 86.7084 183.05ZM56.2284 161.23C56.4084 161.08 56.5884 160.93 56.7684 160.79C56.3784 159.98 55.9584 159.18 55.5884 158.35C55.0884 157.22 54.8184 157.08 53.7684 157.72C53.3084 158 52.9784 158.49 52.7484 158.72C54.0584 159.67 55.1484 160.45 56.1684 156.46C55.9784 156.62 55.7784 156.77 55.5884 156.93C55.7384 157.08 55.8884 157.23 56.0384 157.38C56.1884 157.18 56.3684 157 56.4784 156.78C56.4984 156.74 56.2884 156.58 56.2384 161.24L56.2284 161.23ZM81.9584 192.44C80.4484 190.15 78.7484 189.95 76.7084 190.67C77.7884 193.29 79.8884 192.1 81.5784 192.38C82.8051 193.1 85.1151 192.907 88.5084 191.8C88.2384 191.66 87.9684 191.51 87.6884 191.38C85.8784 190.46 84.0084 189.2 83.0084 192.36C82.9584 192.5 82.0784 192.38 81.9484 192.44H81.9584ZM72.4484 197.36C74.3484 197.62 75.1784 196.64 75.6884 195.01C74.2984 193.52 72.8684 192.27 70.1784 192.57C71.9084 194.08 73.2784 195.29 72.5784 197.83V197.38C72.3184 197.47 72.0284 197.52 71.8184 197.68C71.7584 197.73 71.9184 198.08 71.9884 198.29C72.1884 198.14 72.3884 197.98 72.4484 197.36ZM77.0384 144.33C76.8884 144.52 76.6484 144.68 76.6084 144.88C76.5384 145.2 76.6484 145.55 76.5784 145.87C75.9784 148.71 74.2784 150 70.5584 151.42C65.3084 153.43 60.8084 152.86 57.1084 148.39C56.4784 147.63 55.8484 146.86 55.6384 146.6H50.2884C51.1384 148.6 51.9384 150.26 52.5784 151.99C53.4084 154.24 54.5884 155.04 56.5684 155.43C58.8184 155.87 60.6184 154.61 62.6584 154.32C65.9084 153.86 69.2284 153.37 72.3084 152.31C78.7784 150.07 77.5784 151.62 77.4284 144.73C77.4284 144.61 77.2084 144.49 76.5284 144.91C76.8984 141.65 74.1084 141.12 73.1984 139.37C69.9984 139.45 66.9884 139.22 63.9584 140.29C61.1484 141.28 57.9584 141.22 55.5584 142.92C58.0084 145.37 60.2084 147.57 62.9684 150.33C64.9684 150.16 68.0384 150.92 70.9784 149.41C72.2584 148.75 74.4584 146.61 74.3484 145.64C74.2584 144.9 71.7584 142.46 70.7984 142.4C69.3084 142.3 67.8084 142.31 66.3084 142.39C64.0784 142.51 63.6584 143.27 64.0184 146.32C66.1484 142.97 67.7884 142.69 72.5584 144.84V146.83C70.2884 148.85 67.4784 148.26 64.7884 148.4C63.5184 148.47 62.3084 148.21 61.8884 147.09C61.3984 145.79 61.1284 144.36 62.3684 143.04C64.2884 140.99 67.7684 140.1 70.5784 140.81C72.9884 141.42 74.8084 142.81 77.0384 144.33ZM110.478 250.73C106.098 250.04 103.778 247.62 101.928 245.08C99.4984 241.73 97.4284 238.04 96.5784 233.86C96.0884 231.42 94.5384 229.31 94.5484 226.71C94.5584 224.16 94.0184 221.61 93.7784 219.13C93.3184 214.28 90.9084 210.27 89.3984 205.91C88.4484 203.16 86.8384 200.66 86.4884 197.63C86.3884 196.75 85.3684 195.97 84.8784 195.29C81.6884 198.48 78.7784 201.39 75.8384 204.33C76.0484 205.67 76.4484 207.35 76.5384 209.06C76.6684 211.55 75.7684 214.45 76.7684 216.44C78.1384 219.14 77.0984 221.81 77.9384 224.44C78.7484 226.99 78.3584 229.91 78.5884 232.67C79.0184 237.68 77.5284 242.81 79.5484 247.73C79.6984 248.1 79.5984 248.86 79.3284 249.09C78.0284 250.16 78.7484 251.55 78.5884 252.79C78.4484 253.91 78.7584 255.27 78.2184 256.11C77.5084 257.23 77.2184 258.22 77.9484 259.19C78.6084 260.07 79.5284 261.06 80.5184 261.33C84.1584 262.32 87.6684 263.73 91.6484 263.48C96.6184 263.16 100.888 261.52 104.368 258.05C106.388 256.04 108.048 253.69 110.488 250.75L110.478 250.73ZM79.6684 187.8C80.9584 186.53 82.9384 184.82 82.4984 182.14C82.2384 180.56 81.8484 178.96 81.6384 177.37C81.3684 175.33 81.9484 173.16 80.5884 171.3C80.5084 164.8 78.3584 158.7 77.2484 152.22C76.7884 152.68 76.5884 153.06 76.3184 153.13C70.9984 154.48 65.7484 156.17 60.1884 156.44C59.2384 156.49 58.3284 157.31 57.5684 157.69C60.3584 164 62.7984 170 65.6884 175.77C66.7984 177.97 67.8584 179.96 67.6084 182.48C67.4384 184.21 68.2884 185.24 70.0584 185.38C73.2284 185.62 75.7284 187.93 79.6784 187.81L79.6684 187.8ZM105.008 233.06C100.658 231.37 99.2384 227.55 96.6584 224.62C97.8484 229.69 97.8684 235.13 101.838 239.99C103.018 237.4 104.008 235.24 105.008 233.06ZM88.4784 184.54H83.4984C83.6384 185.3 83.7484 185.86 83.8984 186.66C85.2384 186.04 86.3284 185.54 88.4784 184.54ZM69.9084 187.92C68.3084 187.27 67.1084 186.79 65.3884 186.09C66.5084 188.38 67.7484 188.78 69.9084 187.92ZM70.2584 145.19C68.4484 145.43 67.5684 145.55 66.4184 145.71C67.1784 146.47 67.6284 146.92 68.0784 147.37C68.5284 146.92 68.9784 146.47 70.2584 145.19ZM71.4384 189.73C72.1984 189.48 72.9484 189.23 73.6984 188.98C73.5784 188.76 73.4584 188.54 73.3384 188.32C72.4484 188.44 71.5684 188.56 70.4184 188.72C71.1784 189.48 71.6284 189.93 71.4384 189.74V189.73ZM64.7384 184.9C65.1784 184.11 65.6384 183.6 65.5284 183.42C65.2784 182.99 64.7584 182.72 64.3484 182.38C64.0884 182.71 63.5784 183.1 63.6384 183.35C63.7484 183.81 64.2084 184.19 64.7384 184.9ZM72.5384 200.94C74.3984 202.02 74.6984 200.48 75.6284 199.81C73.7684 198.73 73.4684 200.27 72.5384 200.94ZM78.7884 197.85C78.4684 197.09 78.3584 196.81 78.2384 196.54C78.0184 196.83 77.6984 197.09 77.6184 197.41C77.5584 197.64 77.8084 197.95 77.9284 198.23C78.2784 198.08 78.6384 197.93 78.7884 197.86V197.85ZM79.1084 194.17C79.0384 194.33 78.8884 194.68 78.7384 195.03C79.0084 195.14 79.3284 195.4 79.5584 195.34C79.8784 195.25 80.1384 194.93 80.4284 194.72C80.1584 194.61 79.8784 194.49 79.1184 194.17H79.1084ZM70.9384 200.52C70.8084 200.65 70.6984 200.76 70.5784 200.88C70.7984 200.99 71.0184 201.14 71.2484 201.19C71.3284 201.21 71.4684 200.99 71.5784 200.88C71.3584 200.76 71.1484 200.64 70.9384 200.52Z" fill="#563635"/>
<path d="M62.9784 101.08C61.9384 104.4 59.8984 106.13 57.9684 107.25C53.6484 109.78 50.0084 113.08 46.2184 116.23C44.6184 117.56 42.9284 118.79 41.3484 120.13C38.9884 122.12 37.5784 124.82 36.0384 127.42C35.0084 129.16 34.3984 131.09 32.9284 132.67C31.3784 134.34 28.8684 142.94 28.5684 145.33C28.3684 146.88 27.8284 148.38 27.6184 149.92C27.4284 151.33 27.8984 152.84 26.6284 154.04C26.3784 154.27 26.5684 155 26.5984 155.5C27.3584 168.38 25.1084 181.19 25.5684 194.07C25.7484 199.23 25.4684 204.4 25.6284 209.56C25.8184 215.59 26.3984 221.61 26.5584 227.64C26.7284 233.8 26.0884 240.02 26.7784 246.11C27.1984 249.8 27.4684 253.43 27.6384 257.54C25.6184 254.44 25.4984 254.43 25.6184 252.38C25.9484 246.81 24.1284 241.41 24.5084 235.8C24.8884 230.16 25.2984 224.37 24.4284 218.84C23.0084 209.79 24.0784 200.76 23.5684 191.74C23.2484 186 25.0384 180.43 24.6684 174.66C24.3084 169.02 24.0184 163.26 24.7484 157.69C25.4784 152.09 25.3684 146.25 27.6284 140.94C29.3184 136.97 30.2984 132.73 33.1184 129.18C35.0284 126.78 36.2684 123.82 37.9684 121.19C40.1884 117.76 43.7784 116.26 46.3484 113.44C47.8984 111.74 50.1984 110.74 52.0984 109.34C53.7784 108.11 55.4484 106.85 56.9684 105.44C58.0384 104.44 59.8484 104.27 60.2184 102.37C60.3084 101.92 61.5984 101.7 62.9884 101.08H62.9784Z" fill="#563635"/>
<path d="M106.128 104.48C110.308 104.07 113.508 105.67 116.768 106.47C120.518 107.39 124.118 109.19 127.078 111.59C129.348 113.43 130.698 116.37 132.588 118.72C135.878 122.8 136.708 127.63 137.708 132.62C139.268 140.34 138.028 148.04 138.618 155.71C138.768 157.61 137.658 158.79 136.568 160.23V145.88C138.418 143.16 136.038 140.48 136.488 137.7C136.928 135.02 135.408 132.54 134.808 129.97C134.278 127.68 133.978 125.33 132.898 123.25C128.458 114.68 125.888 112.04 115.348 108.4C113.008 107.59 110.558 107.11 108.208 106.34C107.568 106.13 107.108 105.39 106.128 104.49L106.128 104.48Z" fill="#563635"/>
<path d="M44.5784 167.7C46.2484 170.16 46.6384 172.07 46.6184 174.22C46.5384 183.85 46.5784 193.49 46.5784 203C46.9284 203.18 47.0784 203.31 47.1584 203.28C47.2984 203.22 47.5084 203.06 47.5084 202.94C47.5284 198.49 47.5184 194.03 48.2184 189.5C48.3384 190.13 48.4784 190.75 48.5684 191.38C48.7884 192.93 48.1184 194.54 49.4784 196.05C50.0584 196.7 50.0084 198.57 49.4884 199.41C47.9584 201.89 48.6484 204.51 48.6084 207.05C48.4984 214.88 48.5684 222.71 48.5684 230.55V233.74C47.9784 233.25 47.7684 233.16 47.7584 233.06C47.2284 226.9 46.3484 220.78 46.4984 214.55C46.6484 208.35 44.9184 202.21 45.5984 195.97C45.7484 194.56 43.1584 193.24 45.5084 191.82C43.9284 190.74 44.6884 189.11 44.5984 187.71C44.4884 186.05 44.5684 184.38 44.5684 182.71V167.7H44.5784Z" fill="#563635"/>
<path d="M42.5784 254.37C44.8784 253.91 47.2184 253.61 49.4584 252.94C53.0384 251.87 56.7084 251.14 60.2884 250.19C65.3584 248.85 70.2984 249.88 76.2184 249.22C75.0984 250.34 74.6784 251.05 74.0884 251.26C73.6484 251.41 72.9784 250.92 72.4084 250.71C72.1184 250.6 71.7284 250.3 71.5684 250.4C68.5384 252.21 65.0284 250.52 62.0684 251.55C58.9384 252.64 55.6384 252.64 52.5584 253.81C49.6784 254.9 46.5884 255.41 43.6784 256.42C41.6784 257.12 39.8384 258.24 37.4384 259.41C37.8884 258.21 38.2284 257.29 38.5684 256.38C39.3284 256.23 40.4784 256.88 40.5684 255.38C41.3284 255.23 42.4784 255.88 42.5684 254.38L42.5784 254.37Z" fill="#563635"/>
<path d="M116.578 163.49C117.628 165.09 118.538 165.84 118.508 166.54C118.258 171.58 120.958 176.18 120.578 181.21C122.408 184.77 120.828 188.7 121.668 192.27C123.398 199.62 122.138 207.02 122.568 214.37C122.608 214.99 122.568 215.61 121.878 216.28C121.778 215.61 121.588 214.95 121.588 214.28C121.558 211.11 121.708 207.94 121.538 204.78C121.388 201.91 120.778 199.06 120.608 196.19C120.438 193.37 121.008 190.44 120.468 187.71C119.608 183.33 118.948 178.95 118.568 174.52C116.458 172.73 118.568 169.77 116.658 167.77C116.098 167.19 116.568 165.62 116.568 163.47L116.578 163.49Z" fill="#563635"/>
<path d="M112.708 192.85C115.188 195.42 115.428 198.23 115.498 200.78C115.698 207.96 117.318 215.07 116.588 222.28C118.498 228.18 117.178 234.2 116.928 240.25C116.818 239.45 116.678 238.66 116.588 237.86C116.248 234.51 115.788 231.17 115.618 227.81C115.448 224.5 116.268 220.98 115.418 217.89C114.248 213.65 115.168 209.44 114.498 205.32C113.948 201.93 114.038 198.4 112.608 195.16C112.438 194.77 112.628 194.21 112.698 192.84L112.708 192.85Z" fill="#563635"/>
<path d="M52.9584 203.43C53.8684 205.94 54.1984 208.54 54.7284 211.1C56.2184 218.29 55.0784 225.5 55.6284 232.66C55.8684 235.81 57.1984 238.88 56.2884 242.24C54.8084 241.15 56.1084 239.56 55.5384 238.45C54.8484 237.13 54.4984 235.84 54.5584 234.35C54.6384 232.36 54.6584 230.36 54.5584 228.37C54.2684 222.52 54.2384 216.63 53.4184 210.85C53.0684 208.34 52.4584 205.96 52.9484 203.43L52.9584 203.43Z" fill="#563635"/>
<path d="M86.4284 100.09C80.7684 101.23 75.2984 99.61 69.4384 99.08C69.6784 98.43 69.9284 97.44 70.0784 97.45C72.2984 97.68 74.4784 97.1 76.7784 97.9C78.8284 98.62 81.2484 98.26 83.5084 98.37C84.7384 98.43 84.7384 98.42 86.4284 100.09Z" fill="#563635"/>
<path d="M95.4084 92.2C95.1584 87.21 93.1284 82.45 93.4984 77.37C93.8584 72.47 93.5784 67.52 93.5784 62.7C95.1084 62.08 96.1084 62.73 95.4684 63.77C94.8184 64.83 94.5684 65.75 94.5684 66.9C94.5884 71.87 94.2784 76.86 94.6884 81.79C94.9384 84.79 95.7884 87.75 95.5684 90.82C95.5384 91.28 95.4584 91.74 95.3984 92.2H95.4084Z" fill="#563635"/>
<path d="M110.778 245.14C115.298 242.23 120.428 243.77 125.358 243.45C126.078 243.4 126.858 244.31 128.578 245.38C126.698 245.38 125.478 245.69 125.228 245.33C123.558 242.95 121.108 246.02 119.428 244.38C116.768 246.35 113.758 244.81 110.768 245.14H110.778Z" fill="#563635"/>
<path d="M48.9584 138.62C49.6284 134.19 53.1984 130.97 52.7684 126.45C54.8084 126.07 54.9084 127.38 54.5284 128.19C53.4184 130.55 53.3284 133.35 51.2284 135.31C50.2684 136.2 49.7084 137.51 48.9584 138.62Z" fill="#563635"/>
<path d="M110.768 218.64C112.898 224.26 114.338 229.02 112.868 236.21C112.658 233.31 112.628 230.39 112.188 227.53C111.768 224.83 110.268 222.28 110.778 218.64H110.768Z" fill="#563635"/>
<path d="M63.3884 114.07C64.3484 110.68 67.7684 107.07 71.1284 105.42C71.2484 105.54 71.3984 105.63 71.4584 105.77C71.4984 105.85 71.4184 106.03 71.3384 106.11C68.8384 108.62 66.3284 111.13 63.3784 114.08L63.3884 114.07Z" fill="#563635"/>
<path d="M73.5784 101.87C77.9084 102.39 82.2484 102.39 86.5784 101.87C82.2484 101.35 77.9084 101.35 73.5784 101.87Z" fill="#563635"/>
<path d="M60.1884 217.64C60.7884 221.59 61.2884 224.82 61.7884 228.06C60.1484 225.153 59.6151 221.68 60.1884 217.64Z" fill="#563635"/>
<path d="M83.5784 80.37C83.5784 83.62 83.6184 86.87 83.5384 90.12C83.5284 90.54 82.9184 90.95 82.5784 91.37C82.5784 88.12 82.5384 84.87 82.6184 81.62C82.6284 81.2 83.2384 80.79 83.5784 80.37Z" fill="#563635"/>
<path d="M38.5784 256.37H35.8484C38.9884 254.03 41.3484 252.28 44.5784 252.37C44.3284 252.7 44.1084 253.07 43.8184 253.36C43.4384 253.73 42.9984 254.04 42.5784 254.37C41.8184 254.52 40.6684 253.87 40.5784 255.37C39.8184 255.52 38.6684 254.87 38.5784 256.37Z" fill="#563635"/>
<path d="M96.3384 98.74C93.7184 98.21 91.9284 97.95 90.5084 99.98C92.5984 101.27 93.9284 99.26 96.3384 98.74Z" fill="#563635"/>
<path d="M59.5784 118.37C59.4284 116.17 60.9684 115.25 62.5784 114.37C62.7284 116.57 61.1884 117.49 59.5784 118.37Z" fill="#563635"/>
<path d="M50.5784 250.37C50.9684 250.04 51.3284 249.49 51.7584 249.42C52.6784 249.27 53.6384 249.37 54.5784 249.37C54.1884 249.7 53.8284 250.25 53.3984 250.32C52.4784 250.47 51.5184 250.37 50.5784 250.37Z" fill="#563635"/>
<path d="M54.5784 248.89C55.4584 248.43 56.3384 247.97 57.3084 247.46C58.0284 250.49 55.5784 248.91 54.5784 248.89Z" fill="#563635"/>
<path d="M82.4584 91.53V94.34C81.8384 93.2333 81.8384 92.2967 82.4584 91.53Z" fill="#563635"/>
<path d="M50.5784 250.37C49.5984 250.75 48.0484 249.44 47.5784 251.37C48.5584 250.99 50.1084 252.3 50.5784 250.37Z" fill="#563635"/>
<path d="M47.5784 251.37C46.5984 251.75 45.0484 250.44 44.5784 252.37C45.5584 251.99 47.1084 253.3 47.5784 251.37Z" fill="#563635"/>
<path d="M59.2384 216.01C59.3884 217.07 59.4884 217.72 59.5784 218.38C59.2484 217.99 58.8584 217.64 58.6084 217.21C58.5284 217.08 58.8484 216.72 59.2384 216.02V216.01Z" fill="#563635"/>
<path d="M59.5784 118.82C59.3784 118.97 59.1884 119.13 58.9884 119.28C58.9284 119.07 58.7584 118.72 58.8184 118.67C59.0284 118.51 59.3184 118.46 59.5784 118.37C59.5784 118.52 59.5784 118.67 59.5784 118.82Z" fill="#563635"/>
<path d="M48.5784 138.82C48.3784 138.97 48.1884 139.13 47.9884 139.28C47.9284 139.07 47.7584 138.72 47.8184 138.67C48.0284 138.51 48.3184 138.46 48.5784 138.37C48.5784 138.52 48.5784 138.67 48.5784 138.82Z" fill="#563635"/>
<path d="M79.1684 140.46C79.2884 140.58 79.4984 140.74 79.4784 140.78C79.3584 141 79.1884 141.18 79.0384 141.38C78.8884 141.23 78.7384 141.08 78.5884 140.93C78.7784 140.77 78.9784 140.61 79.1684 140.46Z" fill="#563635"/>
<path d="M80.0784 142.37C80.1884 142.59 80.3384 142.81 80.3884 143.04C80.4084 143.12 80.1884 143.26 80.0784 143.37C79.9684 143.15 79.8184 142.93 79.7684 142.7C79.7484 142.62 79.9684 142.48 80.0784 142.37Z" fill="#563635"/>
<path d="M59.2284 248.23C59.0184 248.11 58.7984 247.99 58.5884 247.87C58.6984 247.76 58.8384 247.54 58.9184 247.56C59.1584 247.61 59.3684 247.76 59.5884 247.87C59.4784 247.98 59.3684 248.09 59.2284 248.23Z" fill="#563635"/>
<path d="M80.6284 34.66C78.9384 38.13 78.5984 38.21 75.6184 35.91C76.9184 33.96 78.6784 34.17 80.6284 34.66Z" fill="#563635"/>
<path d="M86.5784 35.38C86.7184 34.57 86.0784 33.27 87.7184 33.41C88.0284 33.44 88.5184 33.93 88.5384 34.23C88.6784 35.88 87.3784 35.23 86.5684 35.37L86.5784 35.38Z" fill="#563635"/>
<path d="M86.6284 35.27C86.5784 35.96 86.5384 36.55 86.4884 37.14C86.3084 37.27 86.1184 37.4 85.9384 37.53C85.6784 36.85 85.4184 36.16 85.1884 35.56C85.2684 35.54 85.9084 35.42 86.6284 35.28V35.27Z" fill="#563635"/>
<path d="M82.4484 37.79C82.9784 39.51 81.9584 39.38 80.4284 38.73C81.1084 38.41 81.7984 38.1 82.4484 37.79Z" fill="#563635"/>
<path d="M89.5784 38.12H87.5784V37.62H89.5784V38.12Z" fill="#563635"/>
<path d="M92.0684 55.78C91.4484 54.56 91.0184 53.71 90.5884 52.87C91.0084 52.71 91.5484 52.29 91.8184 52.43C93.1584 53.11 92.6484 54.19 92.0584 55.79L92.0684 55.78Z" fill="#563635"/>
<path d="M110.478 250.73C108.038 253.67 106.378 256.02 104.358 258.03C100.878 261.49 96.6084 263.14 91.6384 263.46C87.6684 263.71 84.1484 262.3 80.5084 261.31C79.5184 261.04 78.5984 260.05 77.9384 259.17C77.2184 258.21 77.5084 257.21 78.2084 256.09C78.7384 255.24 78.4384 253.89 78.5784 252.77C78.7384 251.53 78.0184 250.13 79.3184 249.07C79.5884 248.85 79.6984 248.09 79.5384 247.71C77.5284 242.79 79.0084 237.66 78.5784 232.65C78.3484 229.9 78.7384 226.98 77.9284 224.42C77.0884 221.79 78.1284 219.12 76.7584 216.42C75.7484 214.44 76.6584 211.53 76.5284 209.04C76.4384 207.34 76.0384 205.65 75.8284 204.31C78.7784 201.36 81.6884 198.45 84.8684 195.27C85.3584 195.95 86.3784 196.72 86.4784 197.61C86.8284 200.64 88.4384 203.14 89.3884 205.89C90.8984 210.25 93.3084 214.26 93.7684 219.11C93.9984 221.6 94.5484 224.14 94.5384 226.69C94.5284 229.29 96.0784 231.41 96.5684 233.84C97.4084 238.02 99.4784 241.71 101.918 245.06C103.768 247.61 106.088 250.02 110.468 250.71L110.478 250.73Z" fill="#FAFCF3"/>
<path d="M79.6684 187.8C75.7184 187.92 73.2184 185.61 70.0484 185.37C68.2684 185.24 67.4284 184.21 67.5984 182.47C67.8484 179.95 66.7784 177.97 65.6784 175.76C62.7884 169.99 60.3484 163.99 57.5584 157.68C58.3184 157.3 59.2284 156.47 60.1784 156.43C65.7384 156.16 70.9884 154.47 76.3084 153.12C76.5884 153.05 76.7884 152.67 77.2384 152.21C78.3584 158.69 80.5084 164.8 80.5784 171.29C81.9384 173.15 81.3584 175.32 81.6284 177.36C81.8384 178.95 82.2284 180.55 82.4884 182.13C82.9284 184.81 80.9484 186.52 79.6584 187.79L79.6684 187.8Z" fill="#FAFCF3"/>
<path d="M76.5284 144.91C74.8084 142.81 72.9884 141.42 70.5784 140.81C67.7684 140.09 64.2884 140.99 62.3684 143.04C61.1284 144.36 61.3984 145.8 61.8884 147.09C62.3084 148.21 63.5184 148.47 64.7884 148.4C67.4784 148.26 70.2884 148.84 72.5584 146.83V144.84C67.7984 142.68 66.1484 142.97 64.0184 146.32C63.6584 143.27 64.0784 142.51 66.3084 142.39C67.7984 142.31 69.3084 142.3 70.7984 142.4C71.7584 142.47 74.2584 144.9 74.3484 145.64C74.4584 146.61 72.2484 148.75 70.9784 149.41C68.0484 150.92 64.9784 150.16 62.9684 150.33C60.2084 147.57 58.0084 145.37 55.5584 142.92C57.9584 141.23 61.1384 141.28 63.9584 140.29C66.9884 139.22 69.9984 139.44 73.1984 139.37C74.1084 141.13 76.8984 141.66 76.5284 144.91Z" fill="#FAFCF3"/>
<path d="M77.0384 144.33C77.2084 144.5 77.4184 144.61 77.4284 144.73C77.5884 151.62 78.7784 150.07 72.3084 152.31C69.2284 153.38 65.9084 153.86 62.6584 154.32C60.6184 154.61 58.8184 155.87 56.5684 155.43C54.5884 155.04 53.4084 154.24 52.5784 151.99C51.9384 150.27 51.1484 148.6 50.2884 146.6H55.6384C55.8484 146.86 56.4784 147.63 57.1084 148.39C60.8184 152.86 65.3084 153.42 70.5584 151.42C74.2784 150 75.9784 148.71 76.5784 145.87C76.6484 145.55 76.5384 145.19 76.6084 144.88C76.6584 144.68 76.8884 144.51 77.0384 144.33Z" fill="#FAFCF3"/>
<path d="M105.008 233.06C104.008 235.24 103.028 237.4 101.838 239.99C97.8684 235.13 97.8484 229.69 96.6584 224.62C99.2384 227.54 100.658 231.37 105.008 233.06Z" fill="#FAFCF3"/>
<path d="M72.4484 197.36C73.2784 195.28 71.9184 194.07 70.1884 192.56C72.8784 192.27 74.2984 193.52 75.6984 195C75.1884 196.63 74.3584 197.61 72.4584 197.35L72.4484 197.36Z" fill="#FAFCF3"/>
<path d="M81.5784 192.37C82.0784 192.37 82.9684 192.49 83.0084 192.35C84.0084 189.19 85.8784 190.45 87.6884 191.37C87.9584 191.51 88.2284 191.65 88.5084 191.79C85.1151 192.897 82.8051 193.09 81.5784 192.37Z" fill="#FAFCF3"/>
<path d="M81.9584 192.44C79.8984 192.1 77.7884 193.28 76.7084 190.67C78.7384 189.95 80.4484 190.16 81.9584 192.44Z" fill="#FAFCF3"/>
<path d="M56.2284 161.23C55.1384 160.45 54.0584 159.66 52.7484 158.71C52.9784 158.48 53.3084 157.99 53.7684 157.71C54.8184 157.07 55.0984 157.21 55.5884 158.34C55.9484 159.17 56.3684 159.97 56.7684 160.78C56.5884 160.93 56.4084 161.08 56.2284 161.22V161.23Z" fill="#FAFCF3"/>
<path d="M88.4784 184.54C86.3284 185.53 85.2384 186.04 83.8984 186.66C83.7484 185.86 83.6484 185.3 83.4984 184.54H88.4784Z" fill="#FAFCF3"/>
<path d="M65.3884 186.09C66.5084 188.38 67.7484 188.78 69.9084 187.92C68.3084 187.27 67.1084 186.79 65.3884 186.09Z" fill="#FAFCF3"/>
<path d="M93.0884 190.19H88.7884C88.8584 189.92 88.8484 189.6 88.9884 189.49C89.7684 188.94 91.3384 190.23 91.5784 188.37C91.9684 188.84 92.3484 189.3 93.0884 190.19Z" fill="#FAFCF3"/>
<path d="M86.7084 183.05C86.0884 183.19 85.5484 183.32 84.7684 183.5V180.08C85.5384 181.26 86.0584 182.06 86.7084 183.05Z" fill="#FAFCF3"/>
<path d="M70.2584 145.19C68.9784 146.47 68.5284 146.92 68.0784 147.37C67.6284 146.92 67.1784 146.47 66.4184 145.71C67.5684 145.55 68.4484 145.43 70.2584 145.19Z" fill="#FAFCF3"/>
<path d="M71.4384 189.73C71.6284 189.92 71.1784 189.47 70.4184 188.71C71.5684 188.55 72.4484 188.43 73.3384 188.31C73.4584 188.53 73.5784 188.75 73.6984 188.97C72.9484 189.22 72.1984 189.46 71.4384 189.72V189.73Z" fill="#FAFCF3"/>
<path d="M64.7384 184.9C64.2084 184.19 63.7484 183.81 63.6384 183.35C63.5784 183.1 64.0984 182.71 64.3484 182.38C64.7584 182.72 65.2784 182.99 65.5284 183.42C65.6384 183.6 65.1784 184.11 64.7384 184.9Z" fill="#FAFCF3"/>
<path d="M75.6284 199.81C73.7684 198.73 73.4684 200.27 72.5384 200.94C74.3984 202.02 74.6984 200.48 75.6284 199.81Z" fill="#FAFCF3"/>
<path d="M78.7884 197.85C78.6284 197.92 78.2784 198.07 77.9284 198.22C77.8184 197.95 77.5584 197.63 77.6184 197.4C77.7084 197.08 78.0284 196.82 78.2384 196.53C78.3484 196.8 78.4684 197.08 78.7884 197.84V197.85Z" fill="#FAFCF3"/>
<path d="M79.1084 194.17C79.8684 194.49 80.1484 194.6 80.4184 194.72C80.1284 194.94 79.8684 195.26 79.5484 195.34C79.3184 195.4 79.0084 195.15 78.7284 195.03C78.8784 194.68 79.0284 194.32 79.0984 194.17L79.1084 194.17Z" fill="#FAFCF3"/>
<path d="M88.1584 186.22C89.3784 186.57 89.9784 186.74 90.5784 186.91C90.1084 187.07 89.6584 187.27 89.1784 187.34C89.0384 187.36 88.8384 186.98 88.1584 186.22Z" fill="#FAFCF3"/>
<path d="M72.5784 197.82C72.3784 197.97 72.1884 198.13 71.9884 198.28C71.9284 198.07 71.7584 197.72 71.8184 197.67C72.0284 197.51 72.3184 197.46 72.5784 197.37C72.5784 197.52 72.5784 197.67 72.5784 197.82Z" fill="#FAFCF3"/>
<path d="M70.9384 200.52C71.1484 200.64 71.3684 200.76 71.5784 200.88C71.4684 200.99 71.3284 201.21 71.2484 201.19C71.0084 201.14 70.7984 200.99 70.5784 200.88C70.6884 200.77 70.7984 200.66 70.9384 200.52Z" fill="#FAFCF3"/>
<path d="M56.1684 156.46C56.2884 156.58 56.4984 156.74 56.4784 156.78C56.3584 157 56.1884 157.18 56.0384 157.38C55.8884 157.23 55.7384 157.08 55.5884 156.93C55.7784 156.77 55.9784 156.61 56.1684 156.46Z" fill="#FAFCF3"/>
<path d="M87.1684 181.46C87.2884 181.58 87.4984 181.74 87.4784 181.78C87.3584 182 87.1884 182.18 87.0384 182.38C86.8884 182.23 86.7384 182.08 86.5884 181.93C86.7784 181.77 86.9784 181.61 87.1684 181.46Z" fill="#FAFCF3"/>
<path d="M42.5784 254.37C41.8184 254.52 40.6684 253.87 40.5784 255.37C41.3384 255.22 42.4884 255.87 42.5784 254.37Z" fill="#FAFCF3"/>
<path d="M40.5784 255.37C39.8184 255.52 38.6684 254.87 38.5784 256.37C39.3384 256.22 40.4884 256.87 40.5784 255.37Z" fill="#FAFCF3"/>
</g>
</g>
<defs>
<filter id="filter0_d_354_2930" x="0" y="0" width="164.969" height="304.83" filterUnits="userSpaceOnUse" color-interpolation-filters="sRGB">
<feFlood flood-opacity="0" result="BackgroundImageFix"/>
<feColorMatrix in="SourceAlpha" type="matrix" values="0 0 0 0 0 0 0 0 0 0 0 0 0 0 0 0 0 0 127 0" result="hardAlpha"/>
<feOffset dy="4"/>
<feGaussianBlur stdDeviation="3"/>
<feComposite in2="hardAlpha" operator="out"/>
<feColorMatrix type="matrix" values="0 0 0 0 0 0 0 0 0 0 0 0 0 0 0 0 0 0 0.25 0"/>
<feBlend mode="normal" in2="BackgroundImageFix" result="effect1_dropShadow_354_2930"/>
<feBlend mode="normal" in="SourceGraphic" in2="effect1_dropShadow_354_2930" result="shape"/>
</filter>
<filter id="filter1_d_354_2930" x="6" y="2" width="161.969" height="300.83" filterUnits="userSpaceOnUse" color-interpolation-filters="sRGB">
<feFlood flood-opacity="0" result="BackgroundImageFix"/>
<feColorMatrix in="SourceAlpha" type="matrix" values="0 0 0 0 0 0 0 0 0 0 0 0 0 0 0 0 0 0 127 0" result="hardAlpha"/>
<feOffset dx="5" dy="4"/>
<feGaussianBlur stdDeviation="2"/>
<feComposite in2="hardAlpha" operator="out"/>
<feColorMatrix type="matrix" values="0 0 0 0 0 0 0 0 0 0 0 0 0 0 0 0 0 0 0.25 0"/>
<feBlend mode="normal" in2="BackgroundImageFix" result="effect1_dropShadow_354_2930"/>
<feBlend mode="normal" in="SourceGraphic" in2="effect1_dropShadow_354_2930" result="shape"/>
</filter>
</defs>
</svg>
