<svg width="202" height="159" viewBox="0 0 202 159" fill="none" xmlns="http://www.w3.org/2000/svg">
<path d="M115.552 134.039C112.893 137.164 109.881 140.407 106.607 143.535C104.512 144.522 102.416 145.52 100.324 146.523C100.229 146.57 99.7248 146.809 99.3428 146.997C98.9504 147.185 98.3845 147.454 98.2331 147.526C97.2189 148.008 96.2059 148.478 95.1929 148.949C93.1623 149.886 91.1282 150.805 89.0722 151.686C84.8206 153.509 80.5056 155.193 76.0885 156.569C74.7038 157.002 73.3052 157.418 71.8964 157.785C71.1588 157.981 69.9295 158.215 70.1492 158.192C68.5993 158.405 67.0495 158.571 65.4795 158.591C65.0867 158.598 64.6812 158.578 64.2791 158.574C63.5824 158.462 62.8691 158.401 62.1748 158.268C61.3504 158.114 60.5436 157.899 59.7299 157.699C59.6579 157.681 59.601 157.669 59.5337 157.656C59.4734 157.627 59.4189 157.595 59.3435 157.559C57.9856 156.889 56.6673 156.197 55.3409 155.482C55.1347 155.342 54.9319 155.218 54.8844 155.17C54.2615 154.648 53.6303 154.151 53.0318 153.6C52.3465 152.975 51.7137 152.309 51.0576 151.661C49.9832 150.187 48.9122 148.729 47.9706 147.158C47.4607 146.299 46.9949 145.425 46.5188 144.549C46.4946 144.482 46.4693 144.427 46.4418 144.344C45.7957 142.691 45.1264 141.057 44.5851 139.368C44.006 137.548 43.6328 135.688 43.1294 133.856C43.0739 133.511 43.0184 133.165 42.963 132.82C42.8297 131.909 42.7186 130.991 42.6284 130.075C42.4301 128.076 42.3178 126.067 42.3113 124.059C42.3055 123.237 42.3532 122.411 42.3474 121.589C42.3778 121.28 42.4035 120.966 42.4502 120.653C43.0185 116.556 43.8666 112.512 44.5964 108.439C46.2119 99.3989 46.7225 89.2411 40.9151 81.463C34.1349 72.3861 23.5726 69.7368 13.017 67.6709C10.8934 67.2563 8.77094 66.8312 6.67564 66.3086C5.71795 66.0709 4.77916 65.7613 3.8273 65.519C4.30092 65.6372 4.57834 65.7116 4.73273 65.7506C4.89174 65.7955 4.9231 65.7991 4.73273 65.7506C4.46114 65.6716 3.81585 65.4806 3.2765 65.2436C2.60025 64.9536 1.95798 64.5988 1.30988 64.2486C0.937467 62.4737 0.745382 60.6507 0.628474 58.9106C0.548728 57.7203 0.549191 56.5234 0.591469 55.3313C0.998251 53.4133 1.47941 51.4933 2.04541 49.5725C5.2963 41.0022 9.56879 32.9417 14.6321 25.2798C14.7982 25.0341 14.9596 24.7826 15.1257 24.537C19.0824 18.8447 23.5707 13.595 28.633 8.87774C32.6266 5.71074 36.8685 2.91665 41.3679 0.507152C41.5401 0.437002 41.7066 0.371476 41.8789 0.301326C42.2172 0.536346 42.65 0.68694 43.2054 0.692799C50.1938 0.763323 57.1729 1.0976 64.1333 1.7316C86.1831 3.74204 107.939 8.53089 128.82 15.8458C131.262 17.1287 133.641 18.5368 135.979 19.9878C137.14 20.7098 138.283 21.456 139.427 22.1919C139.777 22.4176 140.048 22.5919 140.245 22.7206C140.445 22.8656 140.735 23.0632 141.142 23.3485C149.336 29.0346 157.477 34.7623 165.987 39.9606C168.99 41.7955 171.999 43.6259 174.969 45.5153C175.803 46.0406 176.631 46.581 177.458 47.1215C177.778 47.3332 179.079 48.2196 179.158 48.271C180.119 48.9433 181.079 49.6156 182.027 50.3076C185.211 52.6349 188.3 55.1047 191.188 57.8002C192.359 58.8941 193.505 60.0274 194.598 61.2022C195.032 61.6654 195.454 62.1379 195.876 62.6103L194.884 61.4789C195.503 61.8522 196.178 63.1113 196.603 63.6953C197.692 65.1874 198.7 66.7338 199.589 68.3459C199.769 68.6685 200.089 69.4682 200.235 69.8558C200.357 70.1771 200.328 70.1049 200.235 69.8558C200.154 69.6451 200.017 69.2692 199.786 68.6546C200.054 69.3635 200.366 70.0563 200.622 70.7743C200.914 71.5972 201.858 75.8532 201.621 73.9987C201.808 75.3603 201.948 76.7217 201.98 78.0919C201.993 78.623 201.985 79.1517 201.971 79.685C201.965 79.7373 201.96 79.7791 201.953 79.8418C201.78 80.8811 201.66 81.9265 201.451 82.9563C201.305 83.6704 201.133 84.3762 200.956 85.0866C200.887 85.3594 200.841 85.5765 200.811 85.7426C200.715 85.8851 200.581 86.0867 200.422 86.3649C199.953 87.1636 199.543 88.0113 199.11 88.8299C198.899 89.1869 198.585 89.7015 198.405 89.9297C197.268 91.4297 196.044 92.8561 194.772 94.2452C191.832 94.7056 188.9 95.2358 185.981 95.8891C178.395 97.5929 171.291 100.274 164.548 103.626C156.716 105.27 149.024 107.486 141.879 111.205C131.382 116.661 123.167 125.104 115.571 134.014L115.552 134.039ZM118.449 107.25C123.139 103.968 127.829 100.685 132.514 97.3969C130.289 97.6326 128.059 97.8624 125.84 98.0935C125.539 96.5757 125.243 95.0533 124.828 92.961C126.939 94.1263 127.979 94.7071 129.024 95.2833C129.45 94.2997 129.657 93.1106 130.349 92.3907C131.175 91.5169 132.417 91.0353 133.483 90.3798L133.656 90.4421C135.6 93.4683 137.519 94.7385 139.914 90.7408C140.439 89.8587 141.881 89.5325 142.901 88.9512L142.804 88.924C143.924 88.8998 145.599 89.3474 146.078 88.7777C149.385 84.8536 152.436 80.725 156.642 77.3706L150.351 86.9936L151.285 87.6204C153.893 83.7479 156.506 79.8813 159.101 76.0285C162.053 76.4699 165.542 76.9891 170.212 77.6819C168.57 76.306 167.904 75.7523 166.449 74.541C168.956 75.2595 170.432 75.6841 171.913 76.1146C172.026 75.3702 172.128 74.6246 172.24 73.8802C163.474 72.7411 154.702 71.6066 145.544 70.417C145.544 70.417 145.548 70.4229 145.543 70.4275C145.541 70.438 145.54 70.4484 145.544 70.4647C145.546 70.5391 145.546 70.6239 145.547 70.7564C141.306 72.8567 136.241 75.0686 131.466 77.8011C116.972 86.0852 117.335 101.248 114.798 115.017C115.683 111.941 116.566 108.876 117.445 105.805C117.77 106.288 118.107 106.771 118.432 107.254L118.449 107.25ZM121.314 65.957C121.02 65.7059 120.721 65.4489 120.421 65.2024C117.445 68.5504 114.474 71.8938 111.498 75.2418C111.815 75.522 112.126 75.8069 112.448 76.093C115.401 72.7158 118.361 69.3341 121.314 65.957ZM105.274 125.305C106.943 119.974 108.578 114.755 110.208 109.54L108.942 109.13C107.424 114.341 105.906 119.552 104.409 124.766C104.393 124.817 104.72 124.966 105.269 125.299L105.274 125.305ZM153.834 92.7979C156.608 91.7464 159.385 90.6845 162.159 89.6331C163.687 89.8465 165.276 90.4378 166.727 90.2081C172.676 89.2794 179.079 89.1975 184.418 86.8056C197.275 81.0443 197.886 71.4436 185.993 62.2427C176.288 54.735 165.036 49.9829 152 52.0689C149.798 52.4185 147.327 51.1111 143.892 50.312C145.614 50.0765 146.303 49.9865 146.814 49.9132C139.782 45.2244 133.272 39.2665 125.608 36.1416C112.124 30.6339 98.0768 26.3323 83.9983 22.5303C74.4397 19.9492 64.474 18.5551 54.5937 17.5682C42.5099 16.3533 34.2607 23.9017 27.7197 32.5266C23.6026 37.9567 20.6867 44.8179 19.1499 51.4781C18.4039 54.7287 22.0427 58.994 23.6952 62.8021C26.9185 61.2146 30.7864 60.284 33.2288 57.8913C37.242 53.9586 43.8779 55.2013 47.8473 61.2366C54.6962 71.6454 57.771 82.8156 56.2891 95.377C55.7972 99.5467 57.8107 103.99 57.5021 108.223C57.0001 115.003 55.8567 121.788 54.3804 128.428C52.1091 138.653 55.099 142.208 65.4978 143.705C74.7607 145.039 83.4178 145.106 91.5899 140.107C93.2537 139.091 94.7882 137.865 97.4236 136.003C92.9062 136.917 89.6497 137.553 86.393 138.236C81.7092 139.215 77.0609 140.575 72.3307 140.993C71.1054 141.1 69.6217 138.307 68.259 136.852C68.76 133.844 69.2563 130.829 69.7572 127.82C71.2368 126.932 72.6845 125.356 74.1966 125.287C78.446 125.089 82.7241 125.514 86.851 125.689C86.8675 125.638 86.4259 126.985 86.0904 128.011L93.3488 122.255C93.6753 122.822 94.0017 123.389 94.3016 123.911C96.3599 120.579 98.4299 117.238 100.5 113.896C100.298 113.809 100.107 113.724 99.9048 113.637C98.309 115.349 96.7131 117.061 95.1161 118.783L96.9645 110.983C98.6315 105.672 100.299 100.362 101.96 95.0561C102.603 93.7004 103.237 92.3435 103.881 90.9878C104.846 89.738 105.811 88.4883 107.255 86.6212C107.386 88.151 107.457 88.959 107.529 89.7565C107.81 89.7519 108.097 89.7426 108.374 89.7322C108.44 87.5524 108.501 85.3773 108.556 83.4241C105.179 86.4345 102.116 89.1581 99.0588 91.8771C98.8807 91.6765 98.7073 91.4817 98.5292 91.281L104.552 86.5051C98.7785 89.4879 94.4915 91.71 90.194 93.9309C90.9333 91.151 91.6726 88.371 92.4166 85.5968L96.1678 69.2509L96.1827 69.3056C101.244 65.7004 106.315 62.0964 111.105 58.6876C109.765 59.3326 108.076 60.1493 106.389 60.9556L105.688 59.2699C113.655 56.1431 121.613 52.9942 129.602 49.907C131.476 49.1806 133.465 48.1444 135.364 48.2153C137.435 48.3008 139.467 49.5099 141.519 50.2287C141.271 50.8621 141.012 51.4943 140.811 51.9955C145.002 55.6146 149.302 55.9363 154.846 54.4842C166.686 51.3809 184.596 59.3432 190.895 69.4185C194.36 74.9613 192.278 82.0352 184.908 84.6695C178.379 86.9982 171.092 87.2216 164.143 88.3737L179.224 81.3333L178.596 80.0744C171.676 82.8082 164.76 85.5479 157.946 88.2357C159.019 86.6913 160.165 85.0228 161.322 83.3555C161.077 83.179 160.827 83.0071 160.582 82.8306C158.072 85.904 155.556 88.982 153.041 92.0496C152.031 91.7582 150.855 90.9816 150.034 91.2523C144.198 93.1739 138.428 95.3095 132.633 97.3788L132.51 97.3911L126.038 102.523C130.92 100.608 137.289 98.1122 143.652 95.6107C147.039 94.6723 150.415 93.7327 153.802 92.7942L153.834 92.7979Z" fill="#FBFDF7"/>
<path d="M103.897 90.9844C104.862 89.7346 105.827 88.4849 107.272 86.6178C107.402 88.1476 107.473 88.9556 107.545 89.7531L108.39 89.7288C108.456 87.549 108.517 85.3739 108.573 83.4207C105.196 86.4311 102.133 89.1547 99.0751 91.8737C98.897 91.673 98.7235 91.4782 98.5454 91.2776L104.568 86.5017C98.7948 89.4844 94.5077 91.7066 90.2102 93.9275C82.194 101.339 72.2611 103.423 61.9225 104.433C60.3656 99.4756 60.5602 95.5417 65.8387 93.2645C67.4779 92.5533 68.7801 91.0459 70.2259 89.8993C78.8836 83.0336 87.5413 76.1679 96.199 69.3022C101.26 65.697 106.332 62.093 111.121 58.6842C109.781 59.3292 108.092 60.1459 106.399 60.9568C106.162 60.3945 105.931 59.8276 105.694 59.2653C113.661 56.1385 121.619 52.9896 129.608 49.9024C131.482 49.176 133.471 48.1398 135.369 48.2106C137.441 48.2962 139.473 49.5053 141.524 50.2241C141.276 50.8575 141.018 51.4897 140.817 51.9909C145.007 55.61 149.308 55.9317 154.851 54.4795C166.692 51.3763 184.602 59.3386 190.901 69.4139C194.366 74.9566 192.284 82.0305 184.914 84.6648C178.385 86.9936 171.098 87.217 164.148 88.3691C163.475 88.7892 162.806 89.2152 162.138 89.6307C163.666 89.844 165.255 90.4354 166.706 90.2057C172.656 89.277 179.058 89.1951 184.397 86.8031C197.254 81.0419 197.865 71.4412 185.972 62.2403C176.267 54.7326 165.015 49.9804 151.979 52.0664C149.777 52.4161 147.307 51.1087 143.871 50.3096C145.593 50.0741 146.282 49.9841 146.793 49.9107C139.761 45.222 133.251 39.2641 125.588 36.1391C112.103 30.6314 98.0559 26.3299 83.9774 22.5279C74.4188 19.9468 64.4531 18.5527 54.5728 17.5658C42.489 16.3509 34.2397 23.8993 27.6988 32.5241C23.5817 37.9543 20.6658 44.8155 19.129 51.4757C18.383 54.7263 22.0218 58.9915 23.6742 62.7997C26.8976 61.2122 30.7655 60.2816 33.2079 57.8889C37.221 53.9562 43.8569 55.1989 47.8264 61.2342C54.6753 71.643 57.75 82.8132 56.2682 95.3746C55.7763 99.5443 57.7897 103.987 57.4811 108.221C56.9792 115 55.8358 121.785 54.3595 128.426C52.0882 138.651 55.0781 142.205 65.4768 143.702C74.7398 145.037 83.3969 145.104 91.569 140.105C93.2328 139.089 94.7673 137.863 97.4027 136.001C92.8853 136.915 89.6288 137.55 86.3721 138.234C81.6882 139.213 77.04 140.572 72.3097 140.99C71.0845 141.098 69.6008 138.305 68.2323 136.855C67.0147 136.804 65.6889 137.048 64.6088 136.632C62.5901 135.859 60.7218 134.701 57.1482 132.853C59.9024 133.356 60.7419 133.516 60.7478 133.512C60.5031 130.401 60.274 127.43 60.0105 124.116C63.7451 125.532 66.7384 126.672 69.727 127.806C71.2066 126.918 72.6543 125.342 74.1665 125.273C78.4158 125.075 82.6939 125.5 86.8208 125.675C86.8373 125.624 86.3958 126.971 86.0602 127.997L93.3187 122.241C93.6451 122.808 93.9716 123.375 94.2715 123.897C96.3298 120.565 98.3997 117.224 100.47 113.882C100.268 113.795 100.077 113.71 99.8747 113.623C98.2788 115.335 96.683 117.047 95.0859 118.769C93.7373 119.99 92.3783 121.211 90.6984 122.733C92.2399 118.509 93.497 115.053 94.7598 111.592C93.987 112.689 93.1492 113.752 92.4552 114.901C87.8193 122.623 79.6162 125.643 71.0641 122.738C71.4009 121.977 71.7376 121.216 72.0849 120.457C71.2076 120.44 70.2913 120.578 69.4566 120.376C67.489 119.894 64.2186 119.686 63.8631 118.591C62.591 114.7 62.3196 110.49 61.8905 107.829C70.8608 104.495 79.3708 101.479 87.7623 98.1575C93.2181 95.9961 98.4981 93.3854 103.861 90.9749L103.897 90.9844ZM32.5536 44.8372L37.6856 51.3086C37.1005 51.972 36.5109 52.6295 35.9259 53.2929C34.7042 52.8182 33.493 52.3447 32.2714 51.87C29.6093 54.285 26.9517 56.7059 22.745 60.5262C23.57 52.9206 24.1097 46.5478 25.1441 40.248C25.2612 39.5094 28.0967 39.217 29.6688 38.7206C29.1307 37.6469 27.843 36.047 28.1739 35.5661C33.4543 27.9504 40.4899 21.0511 49.213 19.537C57.871 18.0365 67.6221 19.3635 76.233 21.8034C89.9834 25.6946 103.238 31.4035 116.555 36.7118C118.448 37.4706 119.513 40.3106 120.965 42.1889C121.277 41.1815 121.59 40.1637 122.046 38.691C124.336 40.0569 126.293 41.2204 128.245 42.3885C128.066 42.8816 127.883 43.3689 127.704 43.862C125.433 43.3084 123.161 42.7549 120.895 42.1967C119.137 43.4291 117.375 44.6557 115.623 45.8835C121.707 45.5318 127.796 45.1755 133.88 44.8238C133.996 45.6052 134.107 46.3913 134.223 47.1727C118.441 49.3655 106.469 58.2901 94.8881 68.224C89.6863 72.6815 83.5038 75.9984 77.7701 79.8331C77.5068 79.4532 77.2539 79.0744 76.9906 78.6945C87.1357 71.5609 97.2866 64.4227 107.432 57.2891C107.108 56.881 106.789 56.4787 106.465 56.0706L60.81 92.2762C59.5233 86.63 58.3795 82.0861 57.523 77.4853C57.3594 76.6084 58.0578 75.2378 58.7962 74.5762C72.4739 62.3051 88.3222 54.1245 106.169 49.7814C105.154 49.447 103.947 48.5715 103.162 48.8517C95.951 51.446 88.5044 53.6476 81.7263 57.1235C72.9952 61.5973 64.8138 67.1357 56.4731 72.1736C55.1495 68.361 53.7145 64.2284 52.2726 60.1108C52.5165 62.0351 52.7605 63.9594 53.0044 65.8836C52.8392 65.9387 52.6844 65.995 52.5191 66.0501C51.5039 63.237 50.4991 60.4252 49.4838 57.6121C49.7213 57.5283 49.9587 57.4445 50.2019 57.356C50.8858 58.3142 51.5696 59.2723 52.2581 60.2363C51.2858 57.693 50.3078 55.1544 48.7575 51.1038C48.9109 53.812 48.9748 54.9105 49.0619 56.5412C47.8106 55.1309 46.9953 54.2106 46.0816 53.1782C46.3938 54.0988 46.6428 54.8319 47.4531 57.2188C39.2321 50.8039 32.3749 45.6058 33.2427 33.9586C32.7474 37.0104 32.4753 38.6791 32.1793 40.5093C31.1772 39.7845 30.4196 39.2363 29.6619 38.688C30.6328 40.7386 31.6037 42.7891 32.5745 44.8396L32.5536 44.8372ZM73.9303 82.3559C74.0877 82.5064 74.2393 82.6616 74.392 82.8064C70.6792 86.3395 66.9677 89.8621 63.2549 93.3952C63.0235 93.1514 62.8026 92.9087 62.5712 92.6648L73.9245 82.3605L73.9303 82.3559ZM72.5203 86.266C72.5759 86.5637 72.508 86.4182 72.55 86.3754C75.6332 83.3416 78.7151 80.3183 81.8029 77.2903C82.0897 77.6041 82.3778 77.9075 82.6646 78.2213L72.5203 86.266ZM58.3612 127.988C57.9501 127.924 57.5436 127.867 57.1325 127.803C57.2812 126.195 57.4298 124.586 57.5739 122.971C57.877 123.006 58.179 123.052 58.4821 123.087C58.4426 124.713 58.4019 126.35 58.3624 127.977L58.3612 127.988Z" fill="#452C2B"/>
<path d="M103.897 90.9844C98.5341 93.3948 93.2587 96.0114 87.7983 98.1669C79.4067 101.488 70.8968 104.505 61.9265 107.839C62.351 110.493 62.6211 114.714 63.8991 118.601C64.2546 119.696 67.5308 119.899 69.4926 120.385C70.3273 120.588 71.2436 120.45 72.1209 120.466C71.7736 121.226 71.4369 121.987 71.1001 122.748C79.6521 125.652 87.8553 122.632 92.4912 114.91C93.1852 113.762 94.023 112.698 94.7853 111.6C94.9805 111.607 95.1611 111.511 95.3269 111.313C97.5417 105.891 99.7566 100.469 101.982 95.0481C102.626 93.6924 103.259 92.3355 103.903 90.9798L103.897 90.9844Z" fill="#FBFDF7"/>
<path d="M132.664 97.3824C130.349 97.6235 128.027 97.8693 125.706 98.1046C124.298 100.627 122.889 103.15 121.486 105.668C120.986 105.276 120.479 104.89 119.974 104.492C121.588 102.994 123.202 101.496 126.025 98.8775C123.041 100.503 121.509 101.338 119.977 102.173C119.769 101.635 119.557 101.092 119.343 100.558C121.512 99.7496 123.677 98.9349 125.847 98.1261C125.547 96.5978 125.242 95.0638 124.829 92.9505C126.94 94.1158 127.98 94.6966 129.026 95.2728C129.452 94.2892 129.658 93.1001 130.356 92.3757C131.182 91.5018 132.424 91.0202 133.49 90.3647C134.854 89.5211 136.218 88.667 137.577 87.8175C136.895 87.1139 136.22 86.4056 135.544 85.6974L137.919 84.4885C137.784 83.9115 137.643 83.3392 137.509 82.7622C138.914 82.6544 140.33 82.5477 141.74 82.4456C141.131 81.9887 140.516 81.5363 139.214 80.5651C141.333 80.0524 142.696 79.7119 144.059 79.3819C144.233 79.7568 144.402 80.1259 144.57 80.5054C143.585 81.1439 142.599 81.7927 141.615 82.4312C140.608 83.353 139.607 84.2703 138.605 85.198C138.213 86.069 137.831 86.9412 137.44 87.8123C136.178 88.6889 134.922 89.5714 133.661 90.448C135.605 93.4742 137.524 94.7444 139.918 90.7466C140.444 89.8645 141.885 89.5383 142.91 88.9629C145.815 85.5007 148.715 82.0327 151.616 78.5647C151.93 78.8658 152.25 79.1728 152.565 79.474C149.309 82.6255 146.053 85.7771 142.802 88.9345C143.923 88.9102 145.598 89.3578 146.076 88.7881C149.384 84.864 152.435 80.7354 156.641 77.3811C154.543 80.5922 152.442 83.7975 150.35 87.004C150.659 87.2145 150.975 87.4204 151.284 87.6309C153.892 83.7584 156.505 79.8917 159.1 76.0389C162.052 76.4803 165.54 76.9996 170.211 77.6924C168.569 76.3164 167.902 75.7628 166.448 74.5515C168.955 75.2699 170.431 75.6946 171.912 76.125C172.025 75.3806 172.127 74.635 172.239 73.8906C163.473 72.7515 154.7 71.6171 145.543 70.4275C145.551 70.725 145.525 69.7953 145.55 70.7727C141.309 72.873 136.245 75.0849 131.47 77.8174C116.976 86.1015 117.339 101.264 114.801 115.033C115.68 111.962 116.569 108.893 117.448 105.821C117.774 106.304 118.11 106.788 118.436 107.27C123.184 103.941 127.937 100.618 132.686 97.2895L132.652 97.4021L132.664 97.3824ZM146.152 75.8419C146.415 76.3543 146.679 76.8667 146.949 77.3745C145.208 77.9098 143.462 78.4497 141.721 78.9849C141.599 78.6637 141.472 78.347 141.354 78.0316C142.959 77.3006 144.553 76.5683 146.157 75.8372L146.152 75.8419ZM120.924 94.7083L120.197 94.3543C121.065 92.3836 121.933 90.413 122.802 88.4423C123.093 88.5819 123.389 88.7272 123.685 88.8621C122.761 90.8105 121.848 92.76 120.924 94.7083Z" fill="#452C2B"/>
<path d="M96.2106 69.2929C87.553 76.1586 78.8953 83.0243 70.2376 89.89C68.7859 91.0412 67.4942 92.5499 65.8504 93.2552C60.5718 95.5324 60.3772 99.4663 61.9341 104.423C72.2727 103.414 82.2057 101.329 90.2219 93.9183L92.4445 85.5841C93.6984 80.1359 94.9419 74.6865 96.1958 69.2383L96.2106 69.2929Z" fill="#FBFDF7"/>
<path d="M69.763 127.816C66.7744 126.681 63.7811 125.541 60.0465 124.125C60.3054 127.433 60.5344 130.405 60.7837 133.521C60.7837 133.521 59.9384 133.365 57.1841 132.862C60.7531 134.704 62.6273 135.858 64.6448 136.642C65.7249 137.058 67.0507 136.813 68.2683 136.864C68.7704 133.845 69.2713 130.836 69.7676 127.821L69.763 127.816Z" fill="#FBFDF7"/>
<path d="M162.159 89.6331C162.833 89.213 163.502 88.787 164.169 88.3715C169.196 86.0282 174.224 83.6744 179.251 81.3311C179.04 80.9095 178.833 80.4938 178.623 80.0722C171.702 82.806 164.787 85.5457 157.973 88.2335C159.046 86.689 160.192 85.0206 161.348 83.3533C161.104 83.1768 160.854 83.0049 160.609 82.8284C158.099 85.9018 155.583 88.9798 153.068 92.0474L153.143 92.0349C153.373 92.2892 153.603 92.5435 153.834 92.7979C156.608 91.7464 159.385 90.6845 162.159 89.6331Z" fill="#452C2B"/>
<path d="M153.148 92.0407L153.072 92.0532C152.062 91.7619 150.886 90.9852 150.066 91.256C144.23 93.1775 138.459 95.3131 132.664 97.3824L132.699 97.2698C130.005 99.4058 127.312 101.542 126.07 102.527C130.952 100.611 137.32 98.1158 143.684 95.6143C146.84 94.4216 149.992 93.223 153.149 92.0303L153.148 92.0407Z" fill="#452C2B"/>
<path d="M95.3269 111.313C95.1611 111.511 94.9805 111.607 94.7853 111.6C93.5342 115.052 92.2713 118.513 90.7298 122.736C92.4143 121.22 93.7687 119.994 95.1173 118.773C95.735 116.174 96.3527 113.576 96.9657 110.973C96.4179 111.084 95.8643 111.2 95.3165 111.312L95.3269 111.313Z" fill="#FBFDF7"/>
<path d="M95.3269 111.313C95.8747 111.201 96.4284 111.085 96.9762 110.974C98.6432 105.663 100.31 100.353 101.971 95.0469C99.7566 100.469 97.5418 105.891 95.3165 111.312L95.3269 111.313Z" fill="#452C2B"/>
<path d="M105.274 125.305C106.943 119.974 108.578 114.755 110.208 109.54C109.784 109.402 109.365 109.268 108.942 109.13C107.424 114.341 105.906 119.552 104.409 124.766C104.393 124.817 104.72 124.966 105.269 125.299L105.274 125.305Z" fill="#452C2B"/>
<path d="M120.421 65.2024C117.445 68.5504 114.474 71.8938 111.498 75.2418L112.448 76.093C115.401 72.7158 118.361 69.3341 121.314 65.957C121.02 65.7059 120.721 65.4489 120.421 65.2024Z" fill="#452C2B"/>
<path d="M153.148 92.0407C149.991 93.2335 146.839 94.4321 143.682 95.6248L153.832 92.8083C153.602 92.554 153.372 92.2997 153.142 92.0454L153.148 92.0407Z" fill="#FBFDF7"/>
<path d="M137.585 87.8396C136.221 88.6833 134.857 89.5374 133.494 90.381L133.671 90.4492C134.932 89.5726 136.189 88.6901 137.45 87.8135L137.59 87.835L137.585 87.8396Z" fill="#FBFDF7"/>
<path d="M115.597 45.8753C117.355 44.6428 119.117 43.4163 120.869 42.1885L120.945 42.176C119.493 40.2977 118.434 37.4531 116.535 36.6989C103.218 31.3907 89.9637 25.6818 76.2133 21.7905C67.6024 19.3506 57.8513 18.0237 49.1933 19.5241C40.4702 21.0382 33.4346 27.9376 28.1542 35.5533C27.8291 36.0295 29.1168 37.6294 29.6491 38.7077L29.6352 38.6902C30.3941 39.228 31.1517 39.7762 32.1538 40.501C32.451 38.6604 32.7219 37.0021 33.2172 33.9503C32.3435 45.6021 39.2112 50.8015 47.4275 57.2105C46.6173 54.8237 46.3636 54.0847 46.0561 53.17C46.9697 54.2023 47.7851 55.1227 49.0364 56.533C48.9492 54.9022 48.8854 53.8038 48.7319 51.0955C50.2823 55.1461 51.2545 57.6894 52.2326 60.228L52.2436 60.0863C53.6786 64.2189 55.1181 68.3574 56.4475 72.1654C64.7883 67.1274 72.9697 61.5891 81.7008 57.1152C88.4789 53.6394 95.9255 51.4377 103.137 48.8434C103.927 48.5586 105.134 49.4341 106.144 49.7731C109.291 48.4734 112.444 47.1796 115.592 45.8799L115.597 45.8753ZM79.3592 49.2287C79.4163 49.193 79.478 49.163 79.5351 49.1272C79.3545 51.1508 79.168 53.179 78.992 55.2083C78.8398 55.1961 78.6877 55.1838 78.5355 55.1715C78.8066 53.1902 79.0881 51.2101 79.3592 49.2287Z" fill="#FBFDF7"/>
<path d="M115.597 45.8753C112.45 47.175 109.297 48.4688 106.15 49.7685C88.3025 54.1116 72.4542 62.2923 58.7765 74.5634C58.0439 75.2203 57.3455 76.5909 57.5033 77.4724C58.3598 82.0732 59.4978 86.6217 60.7903 92.2633L106.446 56.0577C106.769 56.4658 107.088 56.8681 107.412 57.2762C97.2669 64.4098 87.116 71.548 76.9709 78.6816C77.2342 79.0616 77.4871 79.4403 77.7504 79.8203C83.4841 75.9855 89.6712 72.6745 94.8684 68.2111C106.449 58.2773 118.422 49.3526 134.204 47.1598C134.087 46.3784 133.977 45.5924 133.86 44.811C127.777 45.1626 121.687 45.519 115.603 45.8706L115.597 45.8753Z" fill="#FBFDF7"/>
<path d="M29.6595 38.7089C28.0875 39.2054 25.2566 39.5035 25.1349 40.2363C24.1005 46.5361 23.5596 52.9193 22.7358 60.5146C26.9425 56.6942 29.6046 54.2792 32.2668 51.8642C32.3628 49.5184 32.4588 47.1726 32.5548 44.8268C31.584 42.7762 30.6131 40.7257 29.6469 38.681L29.6607 38.6984L29.6595 38.7089Z" fill="#FBFDF7"/>
<path d="M32.5536 44.8372C32.4576 47.183 32.3616 49.5288 32.2656 51.8746C33.4826 52.3435 34.7042 52.8182 35.92 53.2975C36.5051 52.6341 37.0947 51.9766 37.6797 51.3132L32.5478 44.8418L32.5536 44.8372Z" fill="#FBFDF7"/>
<path d="M120.944 42.1865L120.868 42.1989C123.14 42.7525 125.412 43.306 127.683 43.8596C127.862 43.3665 128.046 42.8792 128.224 42.3861C126.272 41.218 124.319 40.0603 122.025 38.6886C121.569 40.1613 121.262 41.1745 120.944 42.1865Z" fill="#FBFDF7"/>
<path d="M73.9303 82.3559L62.577 92.6602C62.8084 92.9041 63.0293 93.1467 63.2607 93.3906C66.9735 89.8575 70.6851 86.3348 74.3979 82.8018C74.2405 82.6512 74.0889 82.496 73.9361 82.3512L73.9303 82.3559Z" fill="#FBFDF7"/>
<path d="M72.5203 86.266L82.6646 78.2213C82.3778 77.9075 82.0897 77.6041 81.8029 77.2903C78.7151 80.3183 75.6273 83.3462 72.55 86.3754C72.5092 86.4077 72.5818 86.5591 72.5203 86.266Z" fill="#FBFDF7"/>
<path d="M52.2326 60.228C51.5487 59.2699 50.8649 58.3118 50.1764 57.3478C49.939 57.4316 49.7016 57.5154 49.4583 57.6039C50.4736 60.4169 51.4784 63.2288 52.4936 66.0418C52.6589 65.9867 52.8137 65.9305 52.9789 65.8754C52.735 63.9511 52.491 62.0269 52.2483 60.0921L52.2384 60.2234L52.2326 60.228Z" fill="#FBFDF7"/>
<path d="M58.3612 127.988C58.4007 126.361 58.4414 124.724 58.4809 123.097C58.1777 123.062 57.8758 123.017 57.5726 122.982C57.424 124.59 57.2754 126.199 57.1313 127.814C57.5424 127.877 57.9489 127.935 58.36 127.998L58.3612 127.988Z" fill="#FBFDF7"/>
<path d="M125.85 98.1424C123.681 98.9512 121.516 99.7658 119.346 100.575C119.554 101.112 119.767 101.656 119.981 102.189C121.512 101.354 123.044 100.52 126.028 98.8938C123.205 101.513 121.591 103.011 119.978 104.509C120.478 104.9 120.984 105.287 121.489 105.684C122.898 103.162 124.301 100.643 125.71 98.1208L125.855 98.1482L125.85 98.1424Z" fill="#FBFDF7"/>
<path d="M142.814 88.9253C146.07 85.7737 149.325 82.6221 152.576 79.4647C152.261 79.1636 151.942 78.8566 151.627 78.5554C148.727 82.0234 145.827 85.4914 142.922 88.9536L142.82 88.9206L142.814 88.9253Z" fill="#FBFDF7"/>
<path d="M138.609 85.2038C139.616 84.2819 140.617 83.3647 141.619 82.437L141.739 82.4561C140.333 82.564 138.918 82.6706 137.512 82.7785C137.647 83.3555 137.787 83.9278 137.917 84.4989C138.145 84.7265 138.378 84.9599 138.615 85.1992L138.609 85.2038Z" fill="#FBFDF7"/>
<path d="M138.609 85.2038C138.377 84.9704 138.144 84.737 137.912 84.5036C137.123 84.9104 136.335 85.3173 135.542 85.7183C136.217 86.4265 136.899 87.1302 137.574 87.8384L137.434 87.8169C137.826 86.9459 138.212 86.0794 138.599 85.2026L138.609 85.2038Z" fill="#FBFDF7"/>
<path d="M146.152 75.8419C144.547 76.5729 142.953 77.3052 141.349 78.0362C141.47 78.3575 141.598 78.6741 141.715 78.9895C143.456 78.4543 145.203 77.9144 146.943 77.3792C146.679 76.8667 146.415 76.3543 146.146 75.8465L146.152 75.8419Z" fill="#FBFDF7"/>
<path d="M141.613 82.4416C142.598 81.8032 143.584 81.1543 144.569 80.5159C144.395 80.141 144.225 79.7719 144.057 79.3923C142.695 79.7223 141.327 80.057 139.212 80.5755C140.514 81.5468 141.124 82.0037 141.739 82.4561L141.619 82.437L141.613 82.4416Z" fill="#FBFDF7"/>
<path d="M120.924 94.7083C121.848 92.76 122.761 90.8105 123.685 88.8621C123.394 88.7226 123.099 88.5772 122.802 88.4423C121.933 90.413 121.065 92.3836 120.197 94.3543L120.924 94.7083Z" fill="#FBFDF7"/>
<path d="M79.3592 49.2287C79.0881 51.2101 78.8066 53.1902 78.5355 55.1715C78.6877 55.1838 78.8398 55.1961 78.992 55.2083C79.1726 53.1848 79.3591 51.1566 79.5351 49.1272C79.478 49.163 79.4163 49.193 79.3592 49.2287Z" fill="#452C2B"/>
</svg>
